<?xml version="1.0" encoding="utf-8" ?>
<svg baseProfile="full" height="200mm" version="1.1" viewBox="0,0,200,200" width="200mm" xmlns="http://www.w3.org/2000/svg" xmlns:ev="http://www.w3.org/2001/xml-events" xmlns:xlink="http://www.w3.org/1999/xlink"><defs /><rect fill="#1a1a1a" height="200" width="200" x="0" y="0" /><text alignment-baseline="middle" fill="#e1ed5e" style="dominant-baseline: central; font-size:9.0px; font-family:Arial;" text-anchor="middle" x="100.0" y="100.0">2019</text><line stroke="#e1ed5e" stroke-width="0.3" x1="100.0" x2="100.0" y1="15.0" y2="10.0" /><path d="M 100.0 14.0 a86.0,86.0 0 0,1 42.46469731375804,11.215312516191453" fill="none" id="id13" stroke="none" /><text fill="#e1ed5e" style="font-size:6.75px; font-family:Arial;" text-anchor="middle"><textPath startOffset="22.20632615414155" xlink:href="#id13">January</textPath></text><path d="M 100.0 79.0 l 0.0 -63.0 a84.0,84.0 0 0,0 1.4459219170901134,0.012445506434235476 l -1.084441437817585 62.990665870174325" fill="#4dd2ff" stroke="none" /><line stroke="#e1ed5e" stroke-width="0.3" x1="143.23703022742887" x2="145.7803849466894" y1="26.81831364943548" y2="22.513508569990506" /><path d="M 143.74570117128098 25.957352633546492 a86.0,86.0 0 0,1 28.547481713284135,27.462654790039103" fill="none" id="id14" stroke="none" /><text fill="#e1ed5e" style="font-size:6.75px; font-family:Arial;" text-anchor="middle"><textPath startOffset="19.985693538727396" xlink:href="#id14">February</textPath></text><line stroke="#e1ed5e" stroke-width="0.3" x1="172.23445277983987" x2="176.4835382374775" y1="55.19839476539836" y2="52.563006222186495" /><path d="M 173.08426987136738 54.67131705675599 a86.0,86.0 0 0,1 12.851231095245387,41.99856678651699" fill="none" id="id15" stroke="none" /><text fill="#e1ed5e" style="font-size:6.75px; font-family:Arial;" text-anchor="middle"><textPath startOffset="22.20632615414155" xlink:href="#id15">March</textPath></text><line stroke="#e1ed5e" stroke-width="0.3" x1="184.98032266829074" x2="189.97916517819016" y1="98.17113171792111" y2="98.06355123074" /><path d="M 185.9800911702706 98.14961562048488 a86.0,86.0 0 0,1 -9.607161424134198,41.387399972396054" fill="none" id="id16" stroke="none" /><text fill="#e1ed5e" style="font-size:6.75px; font-family:Arial;" text-anchor="middle"><textPath startOffset="21.466115282336823" xlink:href="#id16">April</textPath></text><line stroke="#e1ed5e" stroke-width="0.3" x1="174.80103733775053" x2="179.2010983576182" y1="140.37084112569926" y2="142.7455964860345" /><path d="M 175.68104954172406 140.8457921977663 a86.0,86.0 0 0,1 -30.038265399797805,32.042727171017184" fill="none" id="id17" stroke="none" /><text fill="#e1ed5e" style="font-size:6.75px; font-family:Arial;" text-anchor="middle"><textPath startOffset="22.206326154141568" xlink:href="#id17">May</textPath></text><line stroke="#e1ed5e" stroke-width="0.3" x1="143.8653032363475" x2="146.44561519142675" y1="172.8068346515853" y2="177.08958963109032" /><path d="M 144.38136562736335 173.6633856474863 a86.0,86.0 0 0,1 -40.68145358897372,12.25698825130547" fill="none" id="id18" stroke="none" /><text fill="#e1ed5e" style="font-size:6.75px; font-family:Arial;" text-anchor="middle"><textPath startOffset="21.466115282336833" xlink:href="#id18">June</textPath></text><path d="M 105.18746579009965 120.34920634021253 l 4.691627955966594 18.40415131598192 a39.992739626993426,39.992739626993426 0 0,0 -0.6685390419131456,0.1643106310281726 l -4.374135629310238 -18.482183205324123" fill="#ffb110" stroke="none" /><path d="M 104.83641907484287 120.43548508189849 l 3.463197885087644 14.63316714725974 a36.03739739286414,36.03739739286414 0 0,0 -0.6048788785384198,0.13766846343879055 l -3.210798857156362 -14.690612344276216" fill="#ff760a" stroke="none" /><path d="M 103.7750983002368 120.6578951692458 l 1.35444066618811 7.411699264446243 a28.53444062321929,28.53444062321929 0 0,0 -0.4839319226871081,0.08413776783322309 l -1.226659772028952 -7.433915610800472" fill="#ff0000" stroke="none" /><path d="M 102.34483914955558 120.86867818915974 l 2.6005626320541624 23.14457462439514 a44.29021813009556,44.29021813009556 0 0,0 -0.7583485108957105,0.07860592385432764 l -2.2017815245528496 -23.185909916705224" fill="#ffed16" stroke="none" /><line stroke="#e1ed5e" stroke-width="0.3" x1="102.19456741930631" x2="102.32365962044197" y1="184.97166512339345" y2="189.96999836594603" /><path d="M 102.22038585953345 185.97133177190398 a86.0,86.0 0 0,1 -42.740103519485714,-10.115201625700543" fill="none" id="id19" stroke="none" /><text fill="#e1ed5e" style="font-size:6.75px; font-family:Arial;" text-anchor="middle"><textPath startOffset="22.20632615414155" xlink:href="#id19">July</textPath></text><path d="M 100.54218724476979 120.99299961872073 l 0.6334226055477218 24.525550250445914 a45.53372860541924,45.53372860541924 0 0,0 -0.7837011898802775,0.01349212670532376 l -0.21116172577477632 -24.532819854430397" fill="#fffe18" stroke="none" /><path d="M 97.2962882734958 120.8252237178851 l -2.959262975777327 22.793596264901804 a43.98489216957852,43.98489216957852 0 0,0 -0.7499872526503002,-0.10394139931791686 l 3.3511788196144585 -22.739280300091284" fill="#ffe915" stroke="none" /><path d="M 96.22490169976321 120.6578951692458 l -4.4143438707637666 24.15594129496459 a45.55597547757216,45.55597547757216 0 0,0 -0.770183173538848,-0.14760743826011868 l 4.82949465887431 -24.076376658356004" fill="#ffff18" stroke="none" /><path d="M 94.46302465271185 120.25689768951611 l -5.203356114927527 19.03635935706824 a40.734687543262325,40.734687543262325 0 0,0 -0.674777532061819,-0.19069887073125819 l 5.53026481509396 -18.94397169299846" fill="#ffbb11" stroke="none" /><path d="M 93.42475214034765 119.94407469862007 l -7.735554467668712 23.463522506144134 a45.70578254819308,45.70578254819308 0 0,0 -0.74507013076362,-0.25276824126814473 l 8.138294331369558 -23.326891277977865" fill="#fdff18" stroke="none" /><path d="M 92.7421414339146 119.70592522655815 l -8.42308811086709 22.869658175081167 a45.37149315016393,45.37149315016393 0 0,0 -0.7305453791733935,-0.27622975212016015 l 8.815503710800767 -22.72128017285437" fill="#fffc17" stroke="none" /><path d="M 91.07499286063937 119.00905698771935 l -8.839696881781013 18.827357687915292 a41.799270142735104,41.799270142735104 0 0,0 -0.6486596488739564,-0.31139605044144925 l 9.16246919865521 -18.67240736097428" fill="#ffca12" stroke="none" /><line stroke="#e1ed5e" stroke-width="0.3" x1="58.666819895761336" x2="56.23545636021788" y1="174.27360380694188" y2="178.64263932499728" /><path d="M 58.180547188652646 175.14741091055294 a86.0,86.0 0 0,1 -31.652253787137756,-30.449443065178592" fill="none" id="id20" stroke="none" /><text fill="#e1ed5e" style="font-size:6.75px; font-family:Arial;" text-anchor="middle"><textPath startOffset="22.20632615414155" xlink:href="#id20">August</textPath></text><path d="M 89.1626897886671 117.98757091392108 l -21.450155800166 35.60257951891613 a62.56504363346851,62.56504363346851 0 0,0 -0.917682609345285,-0.5637156108970475 l 22.059817609443595 -35.228075441190704" fill="#30ff2f" stroke="none" /><line stroke="#e1ed5e" stroke-width="0.3" x1="26.63291911575756" x2="22.317208475507996" y1="142.92168965132927" y2="145.44649492493687" /><path d="M 25.769776987707644 143.4266507060508 a86.0,86.0 0 0,1 -11.730757126820373,-40.83630448921669" fill="none" id="id21" stroke="none" /><text fill="#e1ed5e" style="font-size:6.75px; font-family:Arial;" text-anchor="middle"><textPath startOffset="21.46611528233685" xlink:href="#id21">September</textPath></text><path d="M 81.87401531095188 110.60418214915194 l -18.524749306978112 10.837470034787275 a42.461991837695265,42.461991837695265 0 0,0 -0.3636525938763593,-0.6340589497917997 l 18.70855389700685 -10.51699123913717" fill="#ffd413" stroke="none" /><path d="M 79.97269907076064 106.31721596034903 l -48.154351485226975 15.189337736399933 a71.49314357250105,71.49314357250105 0 0,0 -0.3600981209212399,-1.1768214943084545 l 48.40867637865435 -14.358189269539432" fill="#3cffa1" stroke="none" /><path d="M 79.35854240842038 103.8639653848113 l -23.890145190211367 4.472101528854704 a45.30511734787067,45.30511734787067 0 0,0 -0.13689385123633016,-0.7677734171399317 l 23.963585483786886 -4.060209360981559" fill="#fffb17" stroke="none" /><line stroke="#e1ed5e" stroke-width="0.3" x1="15.007084014347285" x2="10.007500721073583" y1="101.09737516637583" y2="101.16192664675087" /><path d="M 14.007167355692545 101.11028546245083 a86.0,86.0 0 0,1 10.666146001902534,-42.60595125391555" fill="none" id="id22" stroke="none" /><text fill="#e1ed5e" style="font-size:6.75px; font-family:Arial;" text-anchor="middle"><textPath startOffset="22.20632615414155" xlink:href="#id22">October</textPath></text><path d="M 79.00175016825051 100.2711162175752 l -34.885330108534 0.4504174787742359 a55.88823774120117,55.88823774120117 0 0,0 -0.004140261092327936,-0.9620508677782788 l 34.887914666915826 0.15014286720771827" fill="#7cff26" stroke="none" /><path d="M 80.803312248108 91.48605970444005 l -30.44878080117212 -13.504366230482699 a54.309100251505285,54.309100251505285 0 0,0 0.38636446406571173,-0.8513028820183376 l 30.211814020143056 14.026491121343108" fill="#8fff24" stroke="none" /><line stroke="#e1ed5e" stroke-width="0.3" x1="26.266209847984243" x2="21.928928074336255" y1="57.711370442889674" y2="55.22380399835377" /><path d="M 25.398753493254645 57.213857153982495 a86.0,86.0 0 0,1 29.58750427330803,-30.492523968695096" fill="none" id="id23" stroke="none" /><text fill="#e1ed5e" style="font-size:6.75px; font-family:Arial;" text-anchor="middle"><textPath startOffset="21.46611528233685" xlink:href="#id23">November</textPath></text><path d="M 82.15384107792192 88.93136811851018 l -15.711841439272098 -9.74487506420734 a39.488497814312495,39.488497814312495 0 0,0 0.3632422877822283,-0.5745620664473925 l 15.541771555243907 10.013884778368947" fill="#ffa90f" stroke="none" /><path d="M 83.6137871275137 86.86637796730984 l -39.36544315984355 -31.551576659841526 a71.44938161060777,71.44938161060777 0 0,0 0.7774424494396736,-0.9530525171830675 l 38.816502218327486 32.224513346632676" fill="#3cffa1" stroke="none" /><line stroke="#e1ed5e" stroke-width="0.3" x1="56.762969772571076" x2="54.21961505331055" y1="26.818313649435495" y2="22.513508569990535" /><path d="M 56.25429882871897 25.957352633546506 a86.0,86.0 0 0,1 42.265352541879196,-11.944610805530505" fill="none" id="id24" stroke="none" /><text fill="#e1ed5e" style="font-size:6.75px; font-family:Arial;" text-anchor="middle"><textPath startOffset="22.20632615414155" xlink:href="#id24">December</textPath></text><path d="M 89.3179101791058 81.91981866633112 l -13.498808116030439 -22.847673312842538 a47.53740749138443,47.53740749138443 0 0,0 0.7080883996872674,-0.41017050504257546 l 13.10352298387785 23.07664797527516" fill="#e5ff1a" stroke="none" /><path d="M 91.23893434514133 80.91482961587045 l -9.20499372729768 -20.05222658877037 a43.064081686917746,43.064081686917746 0 0,0 0.6763478186739518,-0.3034575511732994 l 8.858463790156954 20.2077044704602" fill="#ffdc14" stroke="none" /></svg>