<?xml version="1.0" encoding="utf-8" ?>
<svg baseProfile="full" height="200mm" version="1.1" viewBox="0,0,200,200" width="200mm" xmlns="http://www.w3.org/2000/svg" xmlns:ev="http://www.w3.org/2001/xml-events" xmlns:xlink="http://www.w3.org/1999/xlink"><defs /><rect fill="#1a1a1a" height="200" width="200" x="0" y="0" /><text alignment-baseline="middle" fill="#e1ed5e" style="dominant-baseline: central; font-size:9.0px; font-family:Arial;" text-anchor="middle" x="100.0" y="100.0">2019</text><line stroke="#e1ed5e" stroke-width="0.3" x1="100.0" x2="100.0" y1="15.0" y2="10.0" /><path d="M 100.0 14.0 a86.0,86.0 0 0,1 42.46469731375804,11.215312516191453" fill="none" id="id13" stroke="none" /><text fill="#e1ed5e" style="font-size:6.75px; font-family:Arial;" text-anchor="middle"><textPath startOffset="22.20632615414155" xlink:href="#id13">January</textPath></text><path d="M 100.0 79.0 l 0.0 -63.0 a84.0,84.0 0 0,0 1.4459219170901134,0.012445506434235476 l -1.084441437817585 62.990665870174325" fill="#4dd2ff" stroke="none" /><line stroke="#e1ed5e" stroke-width="0.3" x1="143.23703022742887" x2="145.7803849466894" y1="26.81831364943548" y2="22.513508569990506" /><path d="M 143.74570117128098 25.957352633546492 a86.0,86.0 0 0,1 28.547481713284135,27.462654790039103" fill="none" id="id14" stroke="none" /><text fill="#e1ed5e" style="font-size:6.75px; font-family:Arial;" text-anchor="middle"><textPath startOffset="19.985693538727396" xlink:href="#id14">February</textPath></text><line stroke="#e1ed5e" stroke-width="0.3" x1="172.23445277983987" x2="176.4835382374775" y1="55.19839476539836" y2="52.563006222186495" /><path d="M 173.08426987136738 54.67131705675599 a86.0,86.0 0 0,1 12.851231095245387,41.99856678651699" fill="none" id="id15" stroke="none" /><text fill="#e1ed5e" style="font-size:6.75px; font-family:Arial;" text-anchor="middle"><textPath startOffset="22.20632615414155" xlink:href="#id15">March</textPath></text><line stroke="#e1ed5e" stroke-width="0.3" x1="184.98032266829074" x2="189.97916517819016" y1="98.17113171792111" y2="98.06355123074" /><path d="M 185.9800911702706 98.14961562048488 a86.0,86.0 0 0,1 -9.607161424134198,41.387399972396054" fill="none" id="id16" stroke="none" /><text fill="#e1ed5e" style="font-size:6.75px; font-family:Arial;" text-anchor="middle"><textPath startOffset="21.466115282336823" xlink:href="#id16">April</textPath></text><line stroke="#e1ed5e" stroke-width="0.3" x1="174.80103733775053" x2="179.2010983576182" y1="140.37084112569926" y2="142.7455964860345" /><path d="M 175.68104954172406 140.8457921977663 a86.0,86.0 0 0,1 -30.038265399797805,32.042727171017184" fill="none" id="id17" stroke="none" /><text fill="#e1ed5e" style="font-size:6.75px; font-family:Arial;" text-anchor="middle"><textPath startOffset="22.206326154141568" xlink:href="#id17">May</textPath></text><line stroke="#e1ed5e" stroke-width="0.3" x1="143.8653032363475" x2="146.44561519142675" y1="172.8068346515853" y2="177.08958963109032" /><path d="M 144.38136562736335 173.6633856474863 a86.0,86.0 0 0,1 -40.68145358897372,12.25698825130547" fill="none" id="id18" stroke="none" /><text fill="#e1ed5e" style="font-size:6.75px; font-family:Arial;" text-anchor="middle"><textPath startOffset="21.466115282336833" xlink:href="#id18">June</textPath></text><path d="M 105.18746579009965 120.34920634021253 l 4.693011767114667 18.409579681146617 a39.99834159822281,39.99834159822281 0 0,0 -0.6686326873226236,0.16433364679144077 l -4.375425795048833 -18.48763458625209" fill="#ffb110" stroke="none" /><path d="M 104.83641907484287 120.43548508189849 l 3.4637232895032293 14.635387156305795 a36.039678727991756,36.039678727991756 0 0,0 -0.6049171701891324,0.13767717849382582 l -3.211285969921235 -14.692841068377305" fill="#ff760a" stroke="none" /><path d="M 103.7750983002368 120.6578951692458 l 1.3546461494236277 7.412823699043904 a28.535583679002922,28.535583679002922 0 0,0 -0.4839513084248703,0.08414113829222081 l -1.2268458695267075 -7.435043415857131" fill="#ff0000" stroke="none" /><path d="M 102.34483914955558 120.86867818915974 l 2.6009571654118355 23.148085905617876 a44.2937515070066,44.2937515070066 0 0,0 -0.758409010284335,0.07861219486332566 l -2.202115558521898 -23.18942746893696" fill="#ffed16" stroke="none" /><line stroke="#e1ed5e" stroke-width="0.3" x1="102.19456741930631" x2="102.32365962044197" y1="184.97166512339345" y2="189.96999836594603" /><path d="M 102.22038585953345 185.97133177190398 a86.0,86.0 0 0,1 -42.740103519485714,-10.115201625700543" fill="none" id="id19" stroke="none" /><text fill="#e1ed5e" style="font-size:6.75px; font-family:Arial;" text-anchor="middle"><textPath startOffset="22.20632615414155" xlink:href="#id19">July</textPath></text><path d="M 100.54218724476979 120.99299961872073 l 0.6335187025785384 24.529271040543343 a45.5374506362612,45.5374506362612 0 0,0 -0.7837652514032177,0.013493229582537175 l -0.21119376128265263 -24.53654174740504" fill="#fffe18" stroke="none" /><path d="M 97.2962882734958 120.8252237178851 l -2.9597119278401154 22.79705429892759 a43.98837922525318,43.98837922525318 0 0,0 -0.7500467105044925,-0.1039496396347267 l 3.351687229531439 -22.74273009380026" fill="#ffe915" stroke="none" /><path d="M 96.22490169976321 120.6578951692458 l -4.41437169989804 24.1560935800954 a45.556130284619094,45.556130284619094 0 0,0 -0.7701857907538553,-0.14760793985560386 l 4.829525105223591 -24.07652844189133" fill="#ffff18" stroke="none" /><path d="M 94.46302465271185 120.25689768951611 l -5.204145520086969 19.039247377792083 a40.73768150789256,40.73768150789256 0 0,0 -0.6748271276322312,-0.19071288693485344 l 5.531103815823814 -18.946845697518707" fill="#ffbb11" stroke="none" /><path d="M 93.42475214034765 119.94407469862007 l -7.737856253203641 23.470504293542678 a45.713133981517764,45.713133981517764 0 0,0 -0.7451899697223502,-0.25280889714949456 l 8.140715955863218 -23.33383240949506" fill="#fdff18" stroke="none" /><path d="M 92.7421414339146 119.70592522655815 l -8.424365984044758 22.87312774851786 a45.37519056814014,45.37519056814014 0 0,0 -0.7306049128459675,-0.27625226266103375 l 8.816841117651009 -22.724727235750194" fill="#fffc17" stroke="none" /><path d="M 91.07499286063937 119.00905698771935 l -8.841037958995843 18.830214000835113 a41.80242561601055,41.80242561601055 0 0,0 -0.648708616910477,-0.3114195580747618 l 9.163859243906561 -18.67524016626079" fill="#ffca12" stroke="none" /><line stroke="#e1ed5e" stroke-width="0.3" x1="58.666819895761336" x2="56.23545636021788" y1="174.27360380694188" y2="178.64263932499728" /><path d="M 58.180547188652646 175.14741091055294 a86.0,86.0 0 0,1 -31.652253787137756,-30.449443065178592" fill="none" id="id20" stroke="none" /><text fill="#e1ed5e" style="font-size:6.75px; font-family:Arial;" text-anchor="middle"><textPath startOffset="22.20632615414155" xlink:href="#id20">August</textPath></text><path d="M 89.1626897886671 117.98757091392108 l -21.449969304457685 35.602269976722255 a62.56468225137293,62.56468225137293 0 0,0 -0.9176773087166082,-0.5637123548179824 l 22.059625813106603 -35.2277691550759" fill="#30ff2f" stroke="none" /><line stroke="#e1ed5e" stroke-width="0.3" x1="26.63291911575756" x2="22.317208475507996" y1="142.92168965132927" y2="145.44649492493687" /><path d="M 25.769776987707644 143.4266507060508 a86.0,86.0 0 0,1 -11.730757126820373,-40.83630448921669" fill="none" id="id21" stroke="none" /><text fill="#e1ed5e" style="font-size:6.75px; font-family:Arial;" text-anchor="middle"><textPath startOffset="21.46611528233685" xlink:href="#id21">September</textPath></text><path d="M 81.87401531095188 110.60418214915194 l -18.527559710947646 10.83911419570415 a42.465247852988924,42.465247852988924 0 0,0 -0.36368047901212414,-0.6341075698764508 l 18.711392186112146 -10.518586779969393" fill="#ffd413" stroke="none" /><path d="M 79.97269907076064 106.31721596034903 l -48.159043113397644 15.190817617711174 a71.49806306674205,71.49806306674205 0 0,0 -0.36012289952997834,-1.1769024722354924 l 48.41339278543376 -14.359588172923635" fill="#3cffa1" stroke="none" /><path d="M 79.35854240842038 103.8639653848113 l -23.893769582518253 4.472779994818295 a45.30880469592286,45.30880469592286 0 0,0 -0.1369049929197704,-0.7678359056176125 l 23.967221017777213 -4.0608253384674695" fill="#fffb17" stroke="none" /><line stroke="#e1ed5e" stroke-width="0.3" x1="15.007084014347285" x2="10.007500721073583" y1="101.09737516637583" y2="101.16192664675087" /><path d="M 14.007167355692545 101.11028546245083 a86.0,86.0 0 0,1 10.666146001902534,-42.60595125391555" fill="none" id="id22" stroke="none" /><text fill="#e1ed5e" style="font-size:6.75px; font-family:Arial;" text-anchor="middle"><textPath startOffset="22.20632615414155" xlink:href="#id22">October</textPath></text><path d="M 79.00175016825051 100.2711162175752 l -34.89560488291104 0.4505501402097299 a55.898513371963105,55.898513371963105 0 0,0 -0.004141022322167384,-0.9622277507842748 l 34.898190202522706 0.15018708877822032" fill="#7cff26" stroke="none" /><path d="M 80.803312248108 91.48605970444005 l -30.453400209133488 -13.506414988273223 a54.314153600731075,54.314153600731075 0 0,0 0.386400414478374,-0.8513820939872312 l 30.21639747769176 14.028619091102525" fill="#8fff24" stroke="none" /><line stroke="#e1ed5e" stroke-width="0.3" x1="26.266209847984243" x2="21.928928074336255" y1="57.711370442889674" y2="55.22380399835377" /><path d="M 25.398753493254645 57.213857153982495 a86.0,86.0 0 0,1 29.58750427330803,-30.492523968695096" fill="none" id="id23" stroke="none" /><text fill="#e1ed5e" style="font-size:6.75px; font-family:Arial;" text-anchor="middle"><textPath startOffset="21.46611528233685" xlink:href="#id23">November</textPath></text><path d="M 82.15384107792192 88.93136811851018 l -15.714225094824885 -9.746353466700631 a39.49130271854018,39.49130271854018 0 0,0 0.36326808921517884,-0.5746028781180927 l 15.544129409363743 10.015403992532939" fill="#ffa90f" stroke="none" /><path d="M 83.6137871275137 86.86637796730984 l -39.371415321511456 -31.556363373811056 a71.45703532510556,71.45703532510556 0 0,0 0.7775257296922432,-0.9531546089255499 l 38.82239109974282 32.22940215234469" fill="#3cffa1" stroke="none" /><line stroke="#e1ed5e" stroke-width="0.3" x1="56.762969772571076" x2="54.21961505331055" y1="26.818313649435495" y2="22.513508569990535" /><path d="M 56.25429882871897 25.957352633546506 a86.0,86.0 0 0,1 42.265352541879196,-11.944610805530505" fill="none" id="id24" stroke="none" /><text fill="#e1ed5e" style="font-size:6.75px; font-family:Arial;" text-anchor="middle"><textPath startOffset="22.20632615414155" xlink:href="#id24">December</textPath></text><path d="M 89.3179101791058 81.91981866633112 l -13.50085603059514 -22.851139550938875 a47.54143350189172,47.54143350189172 0 0,0 0.7081483686987822,-0.4102052429647766 l 13.105510929431038 23.080148951293697" fill="#e5ff1a" stroke="none" /><path d="M 91.23893434514133 80.91482961587045 l -9.206390223977985 -20.055268727493495 a43.067429045725646,43.067429045725646 0 0,0 0.676400390997321,-0.30348113884234873 l 8.85980771451389 20.210770196852373" fill="#ffdc14" stroke="none" /></svg>