<?xml version="1.0" encoding="utf-8" ?>
<svg baseProfile="full" height="200mm" version="1.1" viewBox="0,0,200,200" width="200mm" xmlns="http://www.w3.org/2000/svg" xmlns:ev="http://www.w3.org/2001/xml-events" xmlns:xlink="http://www.w3.org/1999/xlink"><defs /><rect fill="#1a1a1a" height="200" width="200" x="0" y="0" /><text alignment-baseline="middle" fill="#e1ed5e" style="dominant-baseline: central; font-size:9.0px; font-family:Arial;" text-anchor="middle" x="100.0" y="100.0">2021</text><line stroke="#e1ed5e" stroke-width="0.3" x1="100.0" x2="100.0" y1="15.0" y2="10.0" /><path d="M 100.0 14.0 a86.0,86.0 0 0,1 42.46469731375804,11.215312516191453" fill="none" id="id37" stroke="none" /><text fill="#e1ed5e" style="font-size:6.75px; font-family:Arial;" text-anchor="middle"><textPath startOffset="22.20632615414155" xlink:href="#id37">January</textPath></text><path d="M 101.08401301168833 79.027996857942 l 0.3882553734176386 -7.5114346630893705 a28.52146215391982,28.52146215391982 0 0,0 0.490077427034237,0.029562808742105946 l -0.5174948492914876 7.50363858496696" fill="#ff5607" stroke="none" /><path d="M 102.16513564639614 79.11191278185805 l 0.6288102096666592 -6.066429382860106 a27.098931688173714,27.098931688173714 0 0,0 0.46356374103368614,0.0520867875980216 l -0.7331406542100707 6.0547066417914825" fill="#ff4206" stroke="none" /><path d="M 103.2404852339499 79.25152402106235 l 1.1662123773787227 -7.467131540941398 a28.55765206653979,28.55765206653979 0 0,0 0.4850324015896447,0.08003450218027701 l -1.2945739851072426 7.445950775821496" fill="#ff5608" stroke="none" /><path d="M 103.95276090670814 79.375362276772 l 1.4845204972618922 -7.7459017055072374 a28.886874814409737,28.886874814409737 0 0,0 0.4875466076069005,0.0977972628855933 l -1.617633514335918 7.719200486544436" fill="#ff5b08" stroke="none" /><path d="M 104.66035177308747 79.52364482259891 l 1.6810861505396988 -7.3862486735536645 a28.575138290032047,28.575138290032047 0 0,0 0.4786693710573092,0.11328557494215032 l -1.8079792085595316 7.356217186470646" fill="#ff5608" stroke="none" /><path d="M 105.71112130821622 79.79150937346287 l 2.049640482605588 -7.252540831328097 a28.536602325850616,28.536602325850616 0 0,0 0.4715466742860269,0.13765740488528952 l -2.174177374615042 7.216185097524104" fill="#ff5607" stroke="none" /><path d="M 106.40334571778207 80.00007090966166 l 2.29581713567114 -7.170654520541879 a28.529213941269628,28.529213941269628 0 0,0 0.46640805780756983,0.1537674036106565 l -2.418908015721127 7.130073392671986" fill="#ff5607" stroke="none" /><path d="M 107.08798089147638 80.2323363322302 l 2.543502209944467 -7.09357107393931 a28.535791535931768,28.535791535931768 0 0,0 0.4609449922408273,0.1697699307171073 l -2.665229527957871 7.048737875415878" fill="#ff5607" stroke="none" /><path d="M 108.09893153111575 80.62456947434976 l 3.1112803981944492 -7.443253096958725 a29.067346675430198,29.067346675430198 0 0,0 0.45997863896119695,0.196938847897591 l -3.2389427949459613 7.388594721098343" fill="#ff5d08" stroke="none" /><path d="M 108.76106565485865 80.91482961587045 l 3.1003807757852484 -6.75389247068665 a28.431515623374317,28.431515623374317 0 0,0 0.4430195903687605,0.20800363792229243 l -3.216178577453607 6.699523850124354" fill="#ff5407" stroke="none" /><path d="M 109.41281617654863 81.2277094730956 l 3.3495969513741675 -6.680211951433759 a28.472953328686962,28.472953328686962 0 0,0 0.43623210099427917,0.22345502547599666 l -3.4640895399572025 6.621564400645262" fill="#ff5507" stroke="none" /><path d="M 110.36928655335952 81.73862282372117 l 0.7731502526791345 -1.361596895355799 a22.565792904141656,22.565792904141656 0 0,0 0.33612636928220085,0.1947060885441709 l -0.7964733544266638 1.3480866494215786" fill="#ff0000" stroke="none" /><line stroke="#e1ed5e" stroke-width="0.3" x1="143.23703022742887" x2="145.7803849466894" y1="26.81831364943548" y2="22.513508569990506" /><path d="M 143.74570117128098 25.957352633546492 a86.0,86.0 0 0,1 28.547481713284135,27.462654790039103" fill="none" id="id38" stroke="none" /><text fill="#e1ed5e" style="font-size:6.75px; font-family:Arial;" text-anchor="middle"><textPath startOffset="19.985693538727396" xlink:href="#id38">February</textPath></text><path d="M 110.99172775467656 82.1063720568725 l 3.913227866958453 -6.370412829615561 a28.47633011299466,28.47633011299466 0 0,0 0.4154572455879309,0.26015928907304137 l -4.022304264918647 6.302109199219576" fill="#ff5507" stroke="none" /><path d="M 111.60114157652 82.49532879139004 l 4.479208914700622 -6.7585658540018265 a29.108114756490128,29.108114756490128 0 0,0 0.4152692636057195,0.28039166050863096 l -4.594882872712883 6.680462281194526" fill="#ff5e08" stroke="none" /><path d="M 111.90073688211348 82.69761687909136 l 8.5969063445759 -12.498971173120017 a36.17007182197548,36.17007182197548 0 0,0 0.5099443783576085,0.357248625437847 l -8.81078186251716 12.349137704918235" fill="#ffbc11" stroke="none" /><path d="M 112.48926042617603 83.11751280151076 l 4.261358589405333 -5.760335630685145 a28.165238558878514,28.165238558878514 0 0,0 0.38727718877089856,0.2916891494841101 l -4.3598819319346145 5.686129891695188" fill="#ff5107" stroke="none" /><path d="M 113.06298171725822 83.55741782278167 l 4.74184807978932 -5.968639351367438 a28.622977037778192,28.622977037778192 0 0,0 0.3831343603945742,0.30980134089694317 l -4.843885838748386 5.886131913206365" fill="#ff5708" stroke="none" /><path d="M 114.16331599549186 84.49514656593476 l 5.016622320334582 -5.491792588374485 a28.4381641107604,28.4381641107604 0 0,0 0.3585810312322707,0.3332619889578516 l -5.1104112353617 5.404626013341994" fill="#ff5407" stroke="none" /><path d="M 114.42810811169701 84.74124197986012 l 12.76503173164263 -13.499935598253048 a39.57940516450468,39.57940516450468 0 0,0 0.4910046787241267,0.4723461119101128 l -12.995519653979175 13.278206399580634" fill="#ffe815" stroke="none" /><path d="M 115.9244219780498 86.31012108654704 l 10.939468624824329 -9.404423033865326 a35.42619653246872,35.42619653246872 0 0,0 0.39355026931164017,0.4658393867200769 l -11.099729507623087 9.214724697516141" fill="#ffb310" stroke="none" /><path d="M 116.15771136456269 86.58626213691792 l 11.423787303127192 -9.483749575068655 a35.847370890151055,35.847370890151055 0 0,0 0.3900561096902744,0.4781626697267169 l -11.585341904893875 9.285702735733837" fill="#ffb811" stroke="none" /><path d="M 117.04232023915458 87.72973835380427 l 25.457446464125624 -18.329049365072702 a52.369342216582965,52.369342216582965 0 0,0 0.5204200395129817,0.7360972389233696 l -25.769179123442488 17.888125625817537" fill="#81ff25" stroke="none" /><line stroke="#e1ed5e" stroke-width="0.3" x1="172.23445277983987" x2="176.4835382374775" y1="55.19839476539836" y2="52.563006222186495" /><path d="M 173.08426987136738 54.67131705675599 a86.0,86.0 0 0,1 12.851231095245387,41.99856678651699" fill="none" id="id39" stroke="none" /><text fill="#e1ed5e" style="font-size:6.75px; font-family:Arial;" text-anchor="middle"><textPath startOffset="22.20632615414155" xlink:href="#id39">March</textPath></text><path d="M 118.21658344932153 89.55222093294921 l 27.453051162445337 -15.745181529764487 a52.64776073489368,52.64776073489368 0 0,0 0.4441023103452713,0.7900084558367844 l -27.720011114083043 15.27028956399291" fill="#7eff26" stroke="none" /><path d="M 119.04729006885535 91.15688171328212 l 7.525998349811704 -3.4941082638233794 a29.297556490960897,29.297556490960897 0 0,0 0.20842795516119106,0.4592433710252711 l -7.5850286219362415 3.3640428839560452" fill="#ff6008" stroke="none" /><path d="M 120.08093135843002 93.85539295169968 l 11.739410295848451 -3.5921672137222687 a33.27670230092812,33.27670230092812 0 0,0 0.16288803619546946,0.5491774820707532 l -11.799504229155623 3.3895603449049854" fill="#ff960d" stroke="none" /><path d="M 120.53481517161879 95.60439243477599 l 14.939489294591517 -3.197892535923564 a36.27792057364255,36.27792057364255 0 0,0 0.12545372070465435,0.6117568961379538 l -14.992322311211169 2.9402599836221985" fill="#ffbe11" stroke="none" /><path d="M 120.73433829027371 96.67025291283417 l 8.881556681625355 -1.4262976264843148 a29.995352911822792,29.995352911822792 0 0,0 0.07747957712736771,0.5104936073713433 l -8.904792152192023 1.2732049067208895" fill="#ff6a09" stroke="none" /><path d="M 120.96714384426684 98.82574320788733 l 5.693017186752222 -0.3188352285276034 a26.701938318818122,26.701938318818122 0 0,0 0.02175113418127216,0.459132064693474 l -5.6976619291669905 0.2207920572111296" fill="#ff3c05" stroke="none" /><path d="M 120.98425023603335 99.18683210126433 l 7.797079628274323 -0.30214731459459704 a28.802931739376373,28.802931739376373 0 0,0 0.014934053397691835,0.49558852757698474 l -7.80112537612766 0.16788863959261321" fill="#ff5908" stroke="none" /><line stroke="#e1ed5e" stroke-width="0.3" x1="184.98032266829074" x2="189.97916517819016" y1="98.17113171792111" y2="98.06355123074" /><path d="M 185.9800911702706 98.14961562048488 a86.0,86.0 0 0,1 -9.607161424134198,41.387399972396054" fill="none" id="id40" stroke="none" /><text fill="#e1ed5e" style="font-size:6.75px; font-family:Arial;" text-anchor="middle"><textPath startOffset="21.466115282336823" xlink:href="#id40">April</textPath></text><path d="M 120.99513854157772 99.54816195383933 l 8.518533970515742 -0.18332804700329766 a29.52050645088945,29.52050645088945 0 0,0 0.006560571118463486,0.5081234631280357 l -8.52042754875192 0.03666832581479925" fill="#ff6309" stroke="none" /><path d="M 120.99980553446 99.90962569577887 l 4.214707195504645 -0.01813832178895544 a25.214746225166582,25.214746225166582 0 0,0 -0.0018679356689040626,0.4340424652331971 l -4.214394962546239 -0.05441362164792637" fill="#ff2703" stroke="none" /><path d="M 120.99824983174949 100.27111621757518 l 5.458778697884997 0.07048032312258998 a26.4592336777638,26.4592336777638 0 0,0 -0.009799917188018405,0.45536364369204824 l -5.456756718011971 -0.16443378260475305" fill="#ff3805" stroke="none" /><path d="M 120.9904718944345 100.63252640178507 l 8.530706779718441 0.25706412372222565 a29.53457908307371,29.53457908307371 0 0,0 -0.01968671972859518,0.5080267602224017 l -8.525017927138643 -0.40386813095863344" fill="#ff6409" stroke="none" /><path d="M 120.9764740272857 100.99374915477107 l 11.848128338810389 0.5612986961963429 a32.86141649885348,32.86141649885348 0 0,0 -0.03163091154507522,0.564791174081809 l -11.836711076377785 -0.7651615866135753" fill="#ff910d" stroke="none" /><path d="M 120.95626037817324 101.35467743843564 l 2.2426840089826756 0.14497402559826653 a23.247364908563977,23.247364908563977 0 0,0 -0.02925120870810358,0.3991095026285532 l -2.2398562416102346 -0.18355666472359" fill="#ff0a01" stroke="none" /><path d="M 120.92983693683757 101.71520430193887 l 8.448700160793305 0.6923726594390698 a29.477022726554857,29.477022726554857 0 0,0 -0.04579522700017513,0.5053465138922147 l -8.435530337516054 -0.837700561879855" fill="#ff6309" stroke="none" /><path d="M 120.89721153311464 102.0752229133903 l 2.5636054576997593 0.2545819464133086 a23.576215229787213,23.576215229787213 0 0,0 -0.0435797340255328,0.4034942128391106 l -2.5588434221731746 -0.2986724811372106" fill="#ff0f01" stroke="none" /><path d="M 120.81339534386255 102.79330883721812 l 31.398361798170928 4.213888221311522 a52.67986706964768,52.67986706964768 0 0,0 -0.12835311385418172,0.8977013793496927 l -31.321174633300142 -4.753735072641624" fill="#7eff26" stroke="none" /><path d="M 120.64145759157962 103.86396538481128 l 4.739233493605493 0.8871579968897189 a25.82155404598533,25.82155404598533 0 0,0 -0.08554320217389098,0.4361829449326887 l -4.7232603584559385 -0.9686046688903525" fill="#ff2f04" stroke="none" /><path d="M 120.5718875245553 104.21870165774334 l 1.5487497311002227 0.3176039656168253 a22.580980078482504,22.580980078482504 0 0,0 -0.08136245543726568,0.38009830484677887 l -1.543053236938514 -0.34421608987977315" fill="#ff0000" stroke="none" /><path d="M 120.49622156327973 104.57218783832717 l 1.7042882727490203 0.38018354210354194 a22.746178124452438,22.746178124452438 0 0,0 -0.08853617748264674,0.38141153538819705 l -1.6974915293358208 -0.4094637348403039" fill="#ff0300" stroke="none" /><path d="M 120.41448212921028 104.9243191809786 l 2.5395434038063573 0.6125809224617884 a23.612381305701852,23.612381305701852 0 0,0 -0.09870952005673525,0.3942954652115717 l -2.528622569454561 -0.6562042270707561" fill="#ff0f01" stroke="none" /><path d="M 120.32669344350535 105.2749913415812 l 2.9009412223122863 0.7528248444669021 a23.997032736183794,23.997032736183794 0 0,0 -0.10720037157479746,0.3989324621469021 l -2.887552774395712 -0.8026482397893525" fill="#ff1502" stroke="none" /><path d="M 120.23288151984713 105.62410040840565 l 3.173966476205731 0.8822621798869406 a24.29430565463144,24.29430565463144 0 0,0 -0.1154643136224709,0.40194642321468843 l -3.158309525697161 -0.936766078606211" fill="#ff1902" stroke="none" /><path d="M 120.13307415673323 105.97154293290107 l 1.7775723969517252 0.5272344303757066 a22.854114282070633,22.854114282070633 0 0,0 -0.11511206805372852,0.37619289873926787 l -1.768233556391864 -0.5577543016670315" fill="#ff0400" stroke="none" /><path d="M 120.02730092923936 106.31721596034902 l 4.290528466420334 1.3533623428422592 a25.498913663562206,25.498913663562206 0 0,0 -0.13563934508988557,0.4174549793763768 l -4.266596870314201 -1.4270162221964313" fill="#ff2b04" stroke="none" /><path d="M 119.67450827220406 107.3425965602758 l 2.0266897838450144 0.7563678456264366 a23.163229945669052,23.163229945669052 0 0,0 -0.14262562547933305,0.3723505021753652 l -2.0133698787721745 -0.7911419146349457" fill="#ff0901" stroke="none" /><path d="M 119.54520255179757 107.68017299344265 l 18.31340182341653 7.19614410388044 a40.67651331688948,40.67651331688948 0 0,0 -0.26168050524933956,0.6494695537668218 l -18.1868187039098 -7.510313025490075" fill="#fff517" stroke="none" /><path d="M 119.26925614724726 108.34839909993367 l 17.921578439156416 7.76451816134157 a40.53127533031674,40.53127533031674 0 0,0 -0.2828676069937781,0.6377917789036217 l -17.785269747431368 -8.07185827673788" fill="#fff417" stroke="none" /><path d="M 118.81262510543309 109.33194174019688 l 6.774549725688649 3.36049344532653 a28.56223777607599,28.56223777607599 0 0,0 -0.22227042339272451,0.43856063215437646 l -6.715700632509655 -3.4766082891836008" fill="#ff5608" stroke="none" /><line stroke="#e1ed5e" stroke-width="0.3" x1="174.80103733775053" x2="179.2010983576182" y1="140.37084112569926" y2="142.7455964860345" /><path d="M 175.68104954172406 140.8457921977663 a86.0,86.0 0 0,1 -30.038265399797805,32.042727171017184" fill="none" id="id41" stroke="none" /><text fill="#e1ed5e" style="font-size:6.75px; font-family:Arial;" text-anchor="middle"><textPath startOffset="22.206326154141568" xlink:href="#id41">May</textPath></text><path d="M 118.12598468904814 110.60418214915192 l 20.131418003183587 11.777413866815177 a44.32341030400903,44.32341030400903 0 0,0 -0.39093063059889166,0.655222223171602 l -19.925706496886466 -12.122198183872884" fill="#dcff1b" stroke="none" /><path d="M 117.75023020441432 111.22182372390056 l 2.329965043478033 1.4730207270358875 a23.75654261097247,23.75654261097247 0 0,0 -0.22149597648591812,0.34376667428667346 l -2.3042642036150642 -1.5129090012440138" fill="#ff1101" stroke="none" /><path d="M 117.55443506779139 111.5257021239791 l 8.882549772630378 5.832008970120433 a31.62600673304987,31.62600673304987 0 0,0 -0.3027013876953643,0.4524975035409568 l -8.780845279524293 -5.984043387867196" fill="#ff800b" stroke="none" /><path d="M 116.71984013943494 112.70617746262583 l 14.111807981948845 10.72421357153009 a38.72433020588325,38.72433020588325 0 0,0 -0.40788370711132416,0.5272446747184237 l -13.925117457619454 -10.965536240361766" fill="#ffdd14" stroke="none" /><path d="M 116.498646956653 112.99209946851258 l 11.1775075668001 8.801890876230907 a35.22708537975893,35.22708537975893 0 0,0 -0.3792482388037061,0.4731704899901213 l -11.02434141594154 -8.992989199799277" fill="#ffb010" stroke="none" /><path d="M 116.27256486870786 113.27417163493432 l 4.502222357427919 3.6726399798265117 a26.810188514768164,26.810188514768164 0 0,0 -0.29478951293657857,0.3550929585733546 l -4.438336844597797 -3.749594195513637" fill="#ff3d05" stroke="none" /><path d="M 115.32070863581623 114.36230785411682 l 45.96212590744871 43.08692356235047 a84.0,84.0 0 0,0 -0.997973794484142,1.0463715336699715 l -45.21364556158561 -43.87170221260295" fill="#4dd2ff" stroke="none" /><path d="M 114.55890576462653 115.13401014063108 l 7.0660664949144225 7.3451895161127565 a31.19220804036912,31.19220804036912 0 0,0 -0.39014644278247124,0.3689078133639555 l -6.938584217741144 -7.465731966222633" fill="#ff7a0b" stroke="none" /><path d="M 114.29624159901734 115.38237550388516 l 7.253313280388043 7.804372061949133 a31.65451907993907,31.65451907993907 0 0,0 -0.4023145430402614,0.3675047962815318 l -7.1178991878809175 -7.9280696248172475" fill="#ff810b" stroke="none" /><path d="M 114.0293411484842 115.62618273729858 l 10.331395203287551 11.5073307911729 a36.46468198134022,36.46468198134022 0 0,0 -0.4706681380891251,0.4153099082175992 l -10.131784712291838 -11.683463841162787" fill="#ffc011" stroke="none" /><path d="M 113.75828350139079 115.86535959552629 l 20.87109264525876 24.06749286239823 a52.856658972474875,52.856658972474875 0 0,0 -0.692509127434353,0.5901713020642283 l -20.45371804124736 -24.423188554685403" fill="#7cff26" stroke="none" /><path d="M 113.20401910651253 116.32954008644616 l 4.193525443830449 5.1861740948849535 a27.66948704103315,27.66948704103315 0 0,0 -0.37293528511041835,0.2962823453525244 l -4.10363266600268 -5.257590354242604" fill="#ff4a06" stroke="none" /><path d="M 112.63410532772338 116.77436683061366 l 4.696204903524824 6.235175480973072 a28.80587943632352,28.80587943632352 0 0,0 -0.39863911926221096,0.2949036903148203 l -4.5881808138440485 -6.315089120027661" fill="#ff5908" stroke="none" /><path d="M 112.34349029814194 116.9893568818739 l 8.88663823372093 12.231408198661367 a36.1188519940937,36.1188519940937 0 0,0 -0.5061329091110761,0.3611123919885398 l -8.67477799676097 -12.382564852494125" fill="#ffbc11" stroke="none" /><path d="M 111.7513745106137 117.40417183066458 l 17.945936406104185 26.578521567151128 a53.069836952929045,53.069836952929045 0 0,0 -0.7614897432220157,0.5046738790410003 l -17.485771964142206 -26.883493467283447" fill="#7aff26" stroke="none" /><line stroke="#e1ed5e" stroke-width="0.3" x1="143.8653032363475" x2="146.44561519142675" y1="172.8068346515853" y2="177.08958963109032" /><path d="M 144.38136562736335 173.6633856474863 a86.0,86.0 0 0,1 -40.68145358897372,12.25698825130547" fill="none" id="id42" stroke="none" /><text fill="#e1ed5e" style="font-size:6.75px; font-family:Arial;" text-anchor="middle"><textPath startOffset="21.466115282336833" xlink:href="#id42">June</textPath></text><path d="M 110.8373102113329 117.98757091392108 l 7.836438107250507 13.00677782752009 a36.185059488300865,36.185059488300865 0 0,0 -0.5362834810242153,0.3168457333497319 l -7.61138675519791 -13.13974213316357" fill="#ffbd11" stroke="none" /><path d="M 110.5260780823613 118.17145234162733 l 1.5028036647451541 2.594330477036846 a23.99816101616536,23.99816101616536 0 0,0 -0.35923102414548524,0.20398075086363232 l -1.4579238736784699 -2.6198143936951066" fill="#ff1502" stroke="none" /><path d="M 110.21172684928248 118.3499491758327 l 2.3160519981038434 4.161826602008792 a25.762866523755296,25.762866523755296 0 0,0 -0.3893593397863227,0.2123097566381485 l -2.2440698464488724 -4.201077010406711" fill="#ff2e04" stroke="none" /><path d="M 109.89434966115114 118.52300852407294 l 1.0434353029497556 1.953393772482497 a23.214611582606587,23.214611582606587 0 0,0 -0.35408815639155605,0.18524218818429017 l -1.009656244031704 -1.971065379611504" fill="#ff0a01" stroke="none" /><path d="M 109.57404056367764 118.69057910512821 l 22.368576654950193 43.66825570225857 a70.06393561105979,70.06393561105979 0 0,0 -1.078137476432412,0.5406005124500788 l -21.61358527083502 -44.046824055617954" fill="#3cffa0" stroke="none" /><path d="M 108.59647513512805 119.15986991738527 l 8.126244894618855 18.111818233671222 a40.85129254776284,40.85129254776284 0 0,0 -0.644048494098669,0.2823319329723086 l -7.813275725862432 -18.249014719937986" fill="#fff817" stroke="none" /><path d="M 107.93186726928326 119.44442032107085 l 2.8652700498378434 7.024010020714456 a28.585940233721516,28.585940233721516 0 0,0 -0.4572102307635193,0.18193338656459032 l -2.7439387430324578 -7.072290251685114" fill="#ff5608" stroke="none" /><path d="M 107.59598834532513 119.57807347666477 l 1.8514995614718932 4.772097166107196 a26.11868752600693,26.11868752600693 0 0,0 -0.420547907009528,0.15901523357705227 l -1.7690814337020904 -4.80326064979088" fill="#ff3404" stroke="none" /><path d="M 106.91757812671514 119.82793768551818 l 0.9879638905106609 2.8318128249155907 a23.999205982307547,23.999205982307547 0 0,0 -0.39122164729608777,0.13272362379056646 l -0.9390725102773462 -2.8483994356042803" fill="#ff1502" stroke="none" /><path d="M 105.88484417918355 120.15858648285463 l 2.1223991356631116 7.270297262711308 a28.57375734884945,28.57375734884945 0 0,0 -0.4733295043717474,0.13376764589608328 l -1.9969384631867582 -7.3057537019459104" fill="#ff5608" stroke="none" /><path d="M 105.18746579009965 120.34920634021253 l 1.8661637215249705 7.320520687848433 a28.554640307569436,28.554640307569436 0 0,0 -0.4773339373957788,0.11731706833488437 l -1.7398764993859805 -7.351559014497346" fill="#ff5608" stroke="none" /><path d="M 104.83641907484287 120.43548508189849 l 7.295003642719289 30.82382560448997 a52.67531062268055,52.67531062268055 0 0,0 -0.8841421723317632,0.2012278799029301 l -6.763341320994663 -30.944830217970583" fill="#7eff26" stroke="none" /><path d="M 104.13013068566511 120.58985236759428 l 0.8879848888938775 4.426852116432538 a25.51503453183551,25.51503453183551 0 0,0 -0.43136493210109034,0.08267211589436524 l -0.8116523422210828 -4.4414814306753705" fill="#ff2b04" stroke="none" /><path d="M 103.41894727170886 120.7198165907248 l 1.1702279550082688 7.09192235801612 a28.187822771800356,28.187822771800356 0 0,0 -0.479413303668869,0.07487449840051527 l -1.0479787877308826 -7.11101516376374" fill="#ff5107" stroke="none" /><path d="M 103.06178313531738 120.77559828337769 l 1.7534865421022219 11.898207803750472 a33.02672291168971,33.02672291168971 0 0,0 -0.563139295308139,0.07804597499276285 l -1.5484186556072523 -11.926628344235837" fill="#ff930d" stroke="none" /><path d="M 102.70371172650421 120.8252237178851 l 0.9676554059077881 7.453324299445883 a28.51587653552751,28.51587653552751 0 0,0 -0.4873126712501636,0.05900677798973904 l -0.8392153116062442 -7.468876606160973" fill="#ff5507" stroke="none" /><path d="M 101.98527174616119 120.90594882070398 l 3.1191891436488612 32.84669150473266 a53.994461409772,53.994461409772 0 0,0 -0.9260196232006873,0.07990086957711993 l -2.553325202706632 -32.895516626588446" fill="#70ff27" stroke="none" /><path d="M 101.62511606390274 120.93702456842531 l 0.5825280481512252 7.504943386412205 a28.527517131175138,28.527517131175138 0 0,0 -0.48990881047708434,0.03378697989963624 l -0.4532564768952105 -7.513858710828127" fill="#ff5607" stroke="none" /><line stroke="#e1ed5e" stroke-width="0.3" x1="102.19456741930631" x2="102.32365962044197" y1="184.97166512339345" y2="189.96999836594603" /><path d="M 102.22038585953345 185.97133177190398 a86.0,86.0 0 0,1 -42.740103519485714,-10.115201625700543" fill="none" id="id43" stroke="none" /><text fill="#e1ed5e" style="font-size:6.75px; font-family:Arial;" text-anchor="middle"><textPath startOffset="22.20632615414155" xlink:href="#id43">July</textPath></text><path d="M 100.54218724476979 120.99299961872073 l 0.430582369151158 16.67175979998581 a37.67731920918487,37.67731920918487 0 0,0 -0.6484810447133675,0.011164189278071765 l -0.14354163454512245 -16.676701466543044" fill="#ffd013" stroke="none" /><path d="M 99.81925306533755 120.99922214144158 l -0.31081007684534717 36.109989138476756 a57.111326733931804,57.111326733931804 0 0,0 -0.9829683640644512,-0.016922691819963188 l 0.9323381308024662 -36.09928896937763" fill="#4fff2b" stroke="none" /><path d="M 99.09653310690486 120.98055641714683 l -0.651279549518103 15.124192636641151 a36.138208875618375,36.138208875618375 0 0,0 -0.6212535519173232,-0.03211171242318807 l 0.9115211698489152 -15.110741117455762" fill="#ffbc11" stroke="none" /><path d="M 98.01472825383883 120.90594882070398 l -1.3500016379652144 14.2162226434446 a35.280178243652834,35.280178243652834 0 0,0 -0.6040762896362899,-0.06261497733972719 l 1.5945105242070978 -14.190878297649112" fill="#ffb110" stroke="none" /><path d="M 96.93821686468263 120.77559828337769 l -2.5056083156836606 17.00169787392164 a38.18533687850589,38.18533687850589 0 0,0 -0.6494491842394953,-0.10143060598114492 l 2.797893363531673 -16.95604896059339" fill="#ffd614" stroke="none" /><path d="M 96.58105272829116 120.7198165907248 l -2.4800444052399606 15.029791666761085 a36.23303179929074,36.23303179929074 0 0,0 -0.6144967400953961,-0.10683813492884132 l 2.7383901168074067 -14.984874953311238" fill="#ffbd11" stroke="none" /><path d="M 96.22490169976321 120.6578951692458 l -1.3761501835112444 7.530496947941853 a28.655205654359627,28.655205654359627 0 0,0 -0.48445361992409286,-0.09284668926778317 l 1.5055714180070323 -7.505693060325601" fill="#ff5708" stroke="none" /><path d="M 95.51606077576429 120.51570834832081 l -4.771257716384541 21.830298509611275 a43.345622238257214,43.345622238257214 0 0,0 -0.7275456405244911,-0.16558701909812643 l 5.146323506301895 -21.74493475693546" fill="#e8ff1a" stroke="none" /><path d="M 94.81253420990036 120.34920634021253 l -0.5971243849637232 2.342378304178833 a23.417290559905037,23.417290559905037 0 0,0 -0.3897412787689096,-0.10293421402622902 l 0.6373561065441221 -2.331752740849022" fill="#ff0d01" stroke="none" /><path d="M 94.46302465271185 120.25689768951611 l -3.0617045759219614 11.201176176511312 a32.61207916987591,32.61207916987591 0 0,0 -0.5402250422145041,-0.152672993091913 l 3.2540607862410793 -11.146814390080879" fill="#ff8e0d" stroke="none" /><path d="M 93.08242187328487 119.8279376855182 l -3.4026556882419636 9.753073072088783 a31.32959341320987,31.32959341320987 0 0,0 -0.5076594196161465,-0.18202860621733705 l 3.570034668487837 -9.69305692483149" fill="#ff7c0b" stroke="none" /><path d="M 92.7421414339146 119.70592522655815 l -5.2462985735647685 14.244307251997991 a36.17972126925624,36.17972126925624 0 0,0 -0.5825448174156242,-0.220268603568032 l 5.490713611740675 -14.151890398323326" fill="#ffbd11" stroke="none" /><path d="M 92.40401165467489 119.57807347666478 l -11.46082111321703 29.539381533617973 a52.68478312972667,52.68478312972667 0 0,0 -0.8426527745990791,-0.3353089293842856 l 11.967594963857966 -29.33772575982762" fill="#7eff26" stroke="none" /><path d="M 92.06813273071674 119.44442032107085 l -1.7132630452673845 4.199945062336769 a25.535946294757675,25.535946294757675 0 0,0 -0.40556985228770065,-0.1695282311489484 l 1.7853043570525473 -4.169831788167848" fill="#ff2b04" stroke="none" /><path d="M 91.7346041902142 119.30500536409082 l -2.9693505779665164 6.935339837886767 a28.544268123671728,28.544268123671728 0 0,0 -0.45001985870351047,-0.1972754811910488 l 3.08829111132777 -6.883199803401266" fill="#ff5607" stroke="none" /><path d="M 91.07499286063937 119.00905698771935 l -12.860007696584566 27.39007547554721 a51.25881743413623,51.25881743413623 0 0,0 -0.7954571073844445,-0.38186775139334705 l 13.329577471969252 -27.1646534476543" fill="#8dff24" stroke="none" /><path d="M 90.7491055286396 118.85261126421891 l -16.706950048881506 34.047478939187194 a58.92562460988899,58.92562460988899 0 0,0 -0.906742158573247,-0.4546593419670608 l 17.290546115137516 -33.754851756310835" fill="#3dff2e" stroke="none" /><line stroke="#e1ed5e" stroke-width="0.3" x1="58.666819895761336" x2="56.23545636021788" y1="174.27360380694188" y2="178.64263932499728" /><path d="M 58.180547188652646 175.14741091055294 a86.0,86.0 0 0,1 -31.652253787137756,-30.449443065178592" fill="none" id="id44" stroke="none" /><text fill="#e1ed5e" style="font-size:6.75px; font-family:Arial;" text-anchor="middle"><textPath startOffset="22.20632615414155" xlink:href="#id44">August</textPath></text><path d="M 89.7882731507175 118.34994917583269 l -18.606166323564672 33.43432618533965 a59.26282259227409,59.26282259227409 0 0,0 -0.887111493219576,-0.5037250580378676 l 19.178926583705458 -33.109097961507146" fill="#3aff2e" stroke="none" /><path d="M 89.4739219176387 118.17145234162733 l -5.651005565589754 9.755483240187926 a32.27401069504167,32.27401069504167 0 0,0 -0.47831947900336114,-0.2825995792576695 l 5.818092915621497 -9.656765088636508" fill="#ff890c" stroke="none" /><path d="M 89.1626897886671 117.98757091392108 l -4.622899858644984 7.6730053319295894 a29.95802511309718,29.95802511309718 0 0,0 -0.43941404113258004,-0.2699239934496699 l 4.754293099709872 -7.592292871651542" fill="#ff6909" stroke="none" /><path d="M 88.8546689885994 117.79835938074946 l -9.53901879257434 15.233184589698906 a38.97339122895083,38.97339122895083 0 0,0 -0.5655191211145779,-0.36094105970646867 l 9.799819715735843 -15.066729101168633" fill="#ffe015" stroke="none" /><path d="M 88.24862548938628 117.40417183066458 l -8.507885758323251 12.600458399124653 a36.2038045220514,36.2038045220514 0 0,0 -0.5134787584453182,-0.35317537220798245 l 8.72352140139146 -12.452142237551568" fill="#ffbd11" stroke="none" /><path d="M 87.95078237400918 117.19931262002967 l -9.70745424422208 13.85662915830023 a37.91865359697164,37.91865359697164 0 0,0 -0.5313535008739647,-0.3791066145631205 l 9.94453507294493 -13.68747828189289" fill="#ffd313" stroke="none" /><path d="M 87.65650970185807 116.9893568818739 l -8.853937766844838 12.186399867262157 a36.063218636930436,36.063218636930436 0 0,0 -0.49907206433206297,-0.3692015820648893 l 9.062394801595465 -12.0321883364575" fill="#ffbb11" stroke="none" /><path d="M 87.07902340077011 116.55440617244103 l -9.366473034726482 12.000362188514469 a36.222992799242405,36.222992799242405 0 0,0 -0.4882212715799359,-0.3878725054183798 l 9.571651799023776 -11.837355769090959" fill="#ffbd11" stroke="none" /><path d="M 86.79598089348748 116.32954008644616 l -10.187678132822585 12.599201585196493 a37.202736383784355,37.202736383784355 0 0,0 -0.4944950011710265,-0.4069357209154678 l 10.403043262538299 -12.421970745423845" fill="#ffca12" stroke="none" /><path d="M 86.51685102203217 116.09983520530335 l -11.940079303099596 14.257300681930897 a39.59666950018993,39.59666950018993 0 0,0 -0.5187814662890741,-0.4421168202951092 l 12.183726245965726 -14.049659471412834" fill="#ffe815" stroke="none" /><path d="M 86.24171649860922 115.8653595955263 l -1.559144220279522 1.7979265882637583 a23.379804764348705,23.379804764348705 0 0,0 -0.3017749937584624,-0.2662813452149617 l 1.5898615669445721 -1.7708221012765077" fill="#ff0c01" stroke="none" /><path d="M 85.97065885151581 115.62618273729859 l -13.026802404692313 14.509533463044798 a40.49933696837188,40.49933696837188 0 0,0 -0.5147281563405773,-0.47019196673032165 l 13.274630110499745 -14.2831487297279" fill="#fff316" stroke="none" /><path d="M 85.70375840098266 115.38237550388516 l -12.903445807373835 13.88376429765289 a39.9540978359988,39.9540978359988 0 0,0 -0.4997385605123948,-0.4725340010726887 l 13.140520202277047 -13.65959565983427" fill="#ffed16" stroke="none" /><path d="M 85.18274418774928 114.88116024355367 l -5.291342410756793 5.3141631160124145 a28.499242237150384,28.499242237150384 0 0,0 -0.34464998785417417,-0.34912861808831835 l 5.382033023666501 -5.222294003943431" fill="#ff5507" stroke="none" /><path d="M 84.9287848128048 114.62390073753433 l -5.359739574089244 5.200662225107706 a28.46817888656402,28.46817888656402 0 0,0 -0.3382201964937908,-0.354622523837213 l 5.448466321961992 -5.107632584687993" fill="#ff5507" stroke="none" /><path d="M 84.43433777217949 114.09645910891817 l -11.599907865031193 10.505022175951849 a36.64970777345228,36.64970777345228 0 0,0 -0.41944918696779804,-0.4712556081086265 l 11.77901590164733 -10.30379239810236" fill="#ffc312" stroke="none" /><path d="M 83.95833913139862 113.55231037782056 l -11.704636951079376 9.888307334262015 a36.322439364976866,36.322439364976866 0 0,0 -0.3993807877617922,-0.481079886835062 l 11.873113738734705 -9.685366190313191" fill="#ffbe11" stroke="none" /><path d="M 83.50135304334701 112.99209946851258 l -11.822843247229928 9.31006984222447 a36.048489057565476,36.048489057565476 0 0,0 -0.37969904900583523,-0.4908122047869325 l 11.981349113453831 -9.105179643324284" fill="#ffbb11" stroke="none" /><path d="M 83.28015986056508 112.70617746262583 l -5.9475915169631275 4.519849033215432 a28.470132538028373,28.470132538028373 0 0,0 -0.29315930462125234,-0.39273479594903793 l 6.024512088279464 -4.416801357757086" fill="#ff5507" stroke="none" /><path d="M 83.06392112726016 112.41649034213515 l -28.52622985450156 20.91367548223078 a56.37128230482911,56.37128230482911 0 0,0 -0.5669882834513928,-0.7874971355173224 l 28.88199793032856 -20.41954474126232" fill="#57ff2a" stroke="none" /><path d="M 82.85270091963577 112.12312394758628 l -12.244289908748934 8.656701181816105 a35.995369642684615,35.995369642684615 0 0,0 -0.353335849738413,-0.5090066445811213 l 12.39148666564948 -8.444653275047973" fill="#ffba11" stroke="none" /><path d="M 82.24976979558568 111.22182372390057 l -12.785950985203433 8.08337055046774 a36.12684441819224,36.12684441819224 0 0,0 -0.32778291994666453,-0.5284904353078564 l 12.923198544818053 -7.86208378379462" fill="#ffbc11" stroke="none" /><line stroke="#e1ed5e" stroke-width="0.3" x1="26.63291911575756" x2="22.317208475507996" y1="142.92168965132927" y2="145.44649492493687" /><path d="M 25.769776987707644 143.4266507060508 a86.0,86.0 0 0,1 -11.730757126820373,-40.83630448921669" fill="none" id="id45" stroke="none" /><text fill="#e1ed5e" style="font-size:6.75px; font-family:Arial;" text-anchor="middle"><textPath startOffset="21.46611528233685" xlink:href="#id45">September</textPath></text><path d="M 81.87401531095188 110.60418214915194 l -13.102131503781289 7.66509469094862 a36.17957596784531,36.17957596784531 0 0,0 -0.30984878656525733,-0.5402474766084774 l 13.232132286498924 -7.438427368481836" fill="#ffbd11" stroke="none" /><path d="M 81.69416730710424 110.29060199501025 l -27.793788535543037 15.624245045337412 a52.884349050831105,52.884349050831105 0 0,0 -0.4392513354888211,-0.797368763087298 l 28.058616280483374 -15.143505763852291" fill="#7cff26" stroke="none" /><path d="M 81.18737489456691 109.33194174019688 l -2.8506551959158233 1.4140582752586341 a24.182105568932197,24.182105568932197 0 0,0 -0.18176507677404838,-0.3744898951919115 l 2.8745735293045906 -1.364779424101438" fill="#ff1802" stroke="none" /><path d="M 81.02952815118164 109.00673069616217 l -6.787415919659887 3.222504310826 a28.51355767261719,28.51355767261719 0 0,0 -0.2066898686654215,-0.4451915891113813 l 6.841880405165136 -3.1051926544357915" fill="#ff5507" stroke="none" /><path d="M 80.87730276802145 108.67885076344099 l -15.17838472516061 6.888721515679808 a37.66846864548687,37.66846864548687 0 0,0 -0.2628880906912548,-0.5927432440797078 l 15.294713900583146 -6.626429935107404" fill="#ffd013" stroke="none" /><path d="M 80.58989483394504 108.01547362559985 l -9.45783932522541 3.9056491975676035 a31.232537337153513,31.232537337153513 0 0,0 -0.20092543544561745,-0.49868045300098846 l 9.523667374928415 -3.7422693767238098" fill="#ff7b0b" stroke="none" /><path d="M 80.20201598880116 107.00284435728193 l -14.166804041288872 5.01101140828991 a36.02692823162107,36.02692823162107 0 0,0 -0.20176652823756658,-0.5864279758767109 l 14.250961400469667 -4.766410729323902" fill="#ffbb11" stroke="none" /><path d="M 79.86692584326677 105.97154293290107 l -14.679532549476512 4.354002680946829 a36.311630064001434,36.311630064001434 0 0,0 -0.17257943081215482,-0.6007716389514223 l 14.752304617174772 -4.100673566490811" fill="#ffbe11" stroke="none" /><path d="M 79.76711848015287 105.62410040840567 l -8.726464137093444 2.4256807152862487 a30.057323184500465,30.057323184500465 0 0,0 -0.134273109902617,-0.4996801927705808 l 8.766925323337835 -2.275109589340129" fill="#ff6b09" stroke="none" /><path d="M 79.50377843672027 104.57218783832718 l -11.369060034732437 2.5361493026179653 a32.64850116360555,32.64850116360555 0 0,0 -0.11763715355954422,-0.5495616180052314 l 11.411031227016421 -2.3400738651965702" fill="#ff8e0d" stroke="none" /><path d="M 79.23777060512086 103.15116336523772 l -7.4878014817802505 1.136452413986827 a28.57355234482518,28.57355234482518 0 0,0 -0.06961871054999347,-0.48691309943813016 l 7.506254243346842 -1.0073938425682962" fill="#ff5608" stroke="none" /><path d="M 79.18660465613746 102.79330883721812 l -14.899044290807845 1.9995599658798577 a36.03262321874008,36.03262321874008 0 0,0 -0.07721017441525148,-0.6154410578577788 l 14.931255974469945 -1.7428011537346704" fill="#ffbb11" stroke="none" /><path d="M 79.1416061653843 102.43462659150553 l -30.121622400435765 3.5158461124502383 a51.32611597156591,51.32611597156591 0 0,0 -0.0948743664241091,-0.8784188030261438 l 30.177679068360927 -2.996830987539312" fill="#8dff24" stroke="none" /><path d="M 79.07016306316243 101.71520430193888 l -7.774874932154857 0.6371525478632669 a28.800938634542554,28.800938634542554 0 0,0 -0.036239043448662515,-0.49445295580289983 l 7.784690534267854 -0.5032264555636065" fill="#ff5908" stroke="none" /><path d="M 79.0235259727143 100.99374915477108 l -20.46613506678165 0.9695721214914167 a41.48908867349944,41.48908867349944 0 0,0 -0.027655178636971055,-0.7136572775962796 l 20.479792378269824 -0.6171375968811403" fill="#ffff18" stroke="none" /><line stroke="#e1ed5e" stroke-width="0.3" x1="15.007084014347285" x2="10.007500721073583" y1="101.09737516637583" y2="101.16192664675087" /><path d="M 14.007167355692545 101.11028546245083 a86.0,86.0 0 0,1 10.666146001902534,-42.60595125391555" fill="none" id="id46" stroke="none" /><text fill="#e1ed5e" style="font-size:6.75px; font-family:Arial;" text-anchor="middle"><textPath startOffset="22.20632615414155" xlink:href="#id46">October</textPath></text><path d="M 79.05617556472873 98.46500227214037 l -18.581142956958516 -1.3618340006676495 a39.63098133304587,39.63098133304587 0 0,0 0.05572024669514547,-0.6799281438902263 l 18.554948226443873 1.6814760617656543" fill="#ffe815" stroke="none" /><path d="M 79.08570108090925 98.10471618934814 l -1.6454231484545887 -0.1491106093014263 a22.652165642808388,22.652165642808388 0 0,0 0.038533355537303894,-0.3880256316311707 l 1.642612667235056 0.17741177163702732" fill="#ff0100" stroke="none" /><path d="M 79.21141760316559 97.0276538004421 l -31.5016706858064 -4.50410082589082 a52.82203922200437,52.82203922200437 0 0,0 0.13644211068151252,-0.898983033485909 l 31.419472681685583 5.045682971768821" fill="#7cff26" stroke="none" /><path d="M 79.32604984820605 96.31383870115002 l -16.324748671901947 -2.9106995192496385 a37.58220705732878,37.58220705732878 0 0,0 0.11903587125180541,-0.6358943840385586 l 16.27222707674028 3.19127198075077" fill="#ffcf13" stroke="none" /><path d="M 79.71946130924805 94.55025226153421 l -14.562572279132432 -3.9132266925748005 a36.07918613627527,36.07918613627527 0 0,0 0.16633059643762826,-0.5983796530051748 l 14.493054912128443 4.163317648998918" fill="#ffbb11" stroke="none" /><path d="M 80.14247586403 93.16781622104843 l -13.495375302480001 -4.643221561818517 a35.271813515700224,35.271813515700224 0 0,0 0.20247183112231343,-0.5724151317327894 l 13.41345039054788 4.874834319977917" fill="#ffb110" stroke="none" /><path d="M 80.38941819471856 92.48833698450439 l -12.189157124388831 -4.668950756814249 a34.05276417363753,34.05276417363753 0 0,0 0.21438071752916885,-0.5455755424890592 l 12.106982856977972 4.878075304199071" fill="#ffa10e" stroke="none" /><path d="M 80.52162464483688 92.15188598940014 l -14.293494633528423 -5.759051945987554 a36.41008332733113,36.41008332733113 0 0,0 0.23922866084943112,-0.5793111776940592 l 14.19224428579279 6.004237694134925" fill="#ffc011" stroke="none" /><path d="M 80.95270993114464 91.15688171328213 l -15.819135754586947 -7.344377502823793 a38.44089839790472,38.44089839790472 0 0,0 0.2838069675217556,-0.5977698534013095 l 15.69037059322344 7.6155897718656345" fill="#ffda14" stroke="none" /><path d="M 81.6062741919709 89.86733742301443 l -30.651598760945372 -16.885230916850738 a55.994735742927965,55.994735742927965 0 0,0 0.4723352173671095,-0.8402316471162249 l 30.356405902285832 17.41034607390175" fill="#5bff2a" stroke="none" /><line stroke="#e1ed5e" stroke-width="0.3" x1="26.266209847984243" x2="21.928928074336255" y1="57.711370442889674" y2="55.22380399835377" /><path d="M 25.398753493254645 57.213857153982495 a86.0,86.0 0 0,1 29.58750427330803,-30.492523968695096" fill="none" id="id47" stroke="none" /><text fill="#e1ed5e" style="font-size:6.75px; font-family:Arial;" text-anchor="middle"><textPath startOffset="21.46611528233685" xlink:href="#id47">November</textPath></text><path d="M 81.96595687620814 89.24020034530311 l -2.5656512039934123 -1.5307656053223706 a23.987609318333107,23.987609318333107 0 0,0 0.21461394418081522,-0.3527688952961688 l 2.5389214615263804 1.5747022738256138" fill="#ff1502" stroke="none" /><path d="M 82.15384107792192 88.93136811851018 l -4.829389021616682 -2.995307254977579 a26.682857016838717,26.682857016838717 0 0,0 0.24544722042704842,-0.3882385584381105 l 4.77711420494367 3.0779934611299047" fill="#ff3c05" stroke="none" /><path d="M 82.34701348167596 88.62581576622439 l -4.437230674725543 -2.858999474661147 a26.278531429937498,26.278531429937498 0 0,0 0.2482737644548687,-0.37813797634867813 l 4.387360274912754 2.934955514987492" fill="#ff3605" stroke="none" /><path d="M 82.7489923806493 88.02491185347247 l -6.024354343765882 -4.181910754684814 a28.333568218773134,28.333568218773134 0 0,0 0.28156467253256484,-0.3982532613915879 l 5.951477051429439 4.284990516408189" fill="#ff5307" stroke="none" /><path d="M 83.17141714833178 87.43820079747576 l -4.137807244930377 -3.088691674617914 a26.163474126695352,26.163474126695352 0 0,0 0.2725038704205855,-0.3585831509288469 l 4.084027434285683 3.159459601427787" fill="#ff3405" stroke="none" /><path d="M 83.39014120810768 87.1503855733568 l -3.1196859713183005 -2.4134318278018942 a24.944248185280358,24.944248185280358 0 0,0 0.26565139615662836,-0.33735029579726233 l 3.077680494567701 2.4667745175522042" fill="#ff2303" stroke="none" /><path d="M 84.5562425177563 85.77008943001954 l -1.3036508308425065 -1.2011866126943669 a22.772668826169323,22.772668826169323 0 0,0 0.26810228094160743,-0.2859928204175564 l 1.2827812279304431 1.2234488499899734" fill="#ff0300" stroke="none" /><path d="M 84.80347519578584 85.50635884689758 l -9.173959722349675 -8.749637294171288 a33.67744807786043,33.67744807786043 0 0,0 0.4037055804038189,-0.4160540873285078 l 9.021989878242737 8.906255577049919" fill="#ff9c0e" stroke="none" /><path d="M 87.80319425747018 82.90503203632743 l -11.907821244291457 -16.689929067123067 a41.502437392944245,41.502437392944245 0 0,0 0.5851228258775947,-0.40991593226367423 l 11.618767278830202 16.892429842150683" fill="#feff18" stroke="none" /><path d="M 88.09926311788651 82.69761687909137 l -2.9708125906044547 -4.319239903565425 a26.242285836640903,26.242285836640903 0 0,0 0.37438407831901765,-0.2527858008955193 l 2.8960238178788975 4.369737616759609" fill="#ff3505" stroke="none" /><path d="M 88.39885842347998 82.49532879139004 l -32.979095939363724 -49.76132972501263 a80.69766079989384,80.69766079989384 0 0,0 1.1644786744972653,-0.7574093219746664 l 32.11765023908217 50.32163797114683" fill="#49f1ff" stroke="none" /><line stroke="#e1ed5e" stroke-width="0.3" x1="56.762969772571076" x2="54.21961505331055" y1="26.818313649435495" y2="22.513508569990535" /><path d="M 56.25429882871897 25.957352633546506 a86.0,86.0 0 0,1 42.265352541879196,-11.944610805530505" fill="none" id="id48" stroke="none" /><text fill="#e1ed5e" style="font-size:6.75px; font-family:Arial;" text-anchor="middle"><textPath startOffset="22.20632615414155" xlink:href="#id48">December</textPath></text><path d="M 89.63071344664047 81.73862282372117 l -1.1240995364719273 -1.979654580241431 a23.27653948460537,23.27653948460537 0 0,0 0.3501189577595343,-0.19484082092742958 l 1.0898564896403475 1.9987107987290451" fill="#ff0a01" stroke="none" /><path d="M 96.75951476605007 79.25152402106235 l -1.1104360038651524 -7.110001462422864 a28.196192667955415,28.196192667955415 0 0,0 0.4801825300891025,-0.07076642282196643 l 0.9878844933474011 7.1280623694058" fill="#ff5107" stroke="none" /></svg>