<?xml version="1.0" encoding="utf-8" ?>
<svg baseProfile="full" height="200mm" version="1.1" viewBox="0,0,200,200" width="200mm" xmlns="http://www.w3.org/2000/svg" xmlns:ev="http://www.w3.org/2001/xml-events" xmlns:xlink="http://www.w3.org/1999/xlink"><defs /><rect fill="#1a1a1a" height="200" width="200" x="0" y="0" /><text alignment-baseline="middle" fill="#e1ed5e" style="dominant-baseline: central; font-size:9.0px; font-family:Arial;" text-anchor="middle" x="100.0" y="100.0">2023</text><line stroke="#e1ed5e" stroke-width="0.3" x1="100.0" x2="100.0" y1="15.0" y2="10.0" /><path d="M 100.0 14.0 a86.0,86.0 0 0,1 42.46469731375804,11.215312516191453" fill="none" id="id61" stroke="none" /><text fill="#e1ed5e" style="font-size:6.75px; font-family:Arial;" text-anchor="middle"><textPath startOffset="22.20632615414155" xlink:href="#id61">January</textPath></text><line stroke="#e1ed5e" stroke-width="0.3" x1="143.23703022742887" x2="145.7803849466894" y1="26.81831364943548" y2="22.513508569990506" /><path d="M 143.74570117128098 25.957352633546492 a86.0,86.0 0 0,1 28.547481713284135,27.462654790039103" fill="none" id="id62" stroke="none" /><text fill="#e1ed5e" style="font-size:6.75px; font-family:Arial;" text-anchor="middle"><textPath startOffset="19.985693538727396" xlink:href="#id62">February</textPath></text><line stroke="#e1ed5e" stroke-width="0.3" x1="172.23445277983987" x2="176.4835382374775" y1="55.19839476539836" y2="52.563006222186495" /><path d="M 173.08426987136738 54.67131705675599 a86.0,86.0 0 0,1 12.851231095245387,41.99856678651699" fill="none" id="id63" stroke="none" /><text fill="#e1ed5e" style="font-size:6.75px; font-family:Arial;" text-anchor="middle"><textPath startOffset="22.20632615414155" xlink:href="#id63">March</textPath></text><path d="M 118.56541770881063 90.18545643968196 l 18.82015541489209 -9.949209763470881 a42.288142820787264,42.288142820787264 0 0,0 0.33466144885679006,0.6464593985915752 l -18.988626296908997 9.623777642618961" fill="#fffd17" stroke="none" /><path d="M 120.67395015179393 96.31383870115 l 14.646850966899631 -2.6115306841602353 a35.87784714805469,35.87784714805469 0 0,0 0.10317125723490467,0.6089226003904179 l -14.68963408565476 2.359022295453979" fill="#ffaa0f" stroke="none" /><path d="M 120.73433829027371 96.67025291283417 l 14.870192145193133 -2.3880182857959635 a36.06071863385873,36.06071863385873 0 0,0 0.09314673639192653,0.6137206117866901 l -14.90909477502436 2.1316985616171915" fill="#ffac0f" stroke="none" /><path d="M 120.94382443527127 98.46500227214037 l 14.761201447032962 -1.0818659577529282 a35.80079396892047,35.80079396892047 0 0,0 0.03975492175847195,0.6149910436586983 l -14.77763695979585 0.8276158498411945" fill="#ffa90f" stroke="none" /><path d="M 120.96714384426684 98.82574320788733 l 15.700095127035366 -0.8792777631836259 a36.7246976563236,36.7246976563236 0 0,0 0.029915574553117396,0.631470496967943 l -15.712904309821981 0.6088961595926833" fill="#ffb510" stroke="none" /><path d="M 120.98425023603335 99.18683210126433 l 21.683877208622437 -0.8402793841973762 a42.70015207877868,42.70015207877868 0 0,0 0.022139633458293565,0.7347066502645343 l -21.695128536536373 0.46690258650784294" fill="#fcff18" stroke="none" /><line stroke="#e1ed5e" stroke-width="0.3" x1="184.98032266829074" x2="189.97916517819016" y1="98.17113171792111" y2="98.06355123074" /><path d="M 185.9800911702706 98.14961562048488 a86.0,86.0 0 0,1 -9.607161424134198,41.387399972396054" fill="none" id="id64" stroke="none" /><text fill="#e1ed5e" style="font-size:6.75px; font-family:Arial;" text-anchor="middle"><textPath startOffset="21.466115282336823" xlink:href="#id64">April</textPath></text><path d="M 120.9904718944345 100.63252640178507 l 14.52996002282501 0.43784548425303627 a35.53655553881227,35.53655553881227 0 0,0 -0.02368742777895874,0.6112672582556874 l -14.520270462194848 -0.68788998952273" fill="#ffa50f" stroke="none" /><path d="M 120.95626037817324 101.35467743843564 l 21.544297796459688 1.392689994546954 a42.58926476199338,42.58926476199338 0 0,0 -0.053588330427024884,0.7311701925500047 l -21.517132907368325 -1.763333323593729" fill="#fdff18" stroke="none" /><path d="M 120.92983693683757 101.71520430193887 l 15.70358104435489 1.2869115915431002 a36.756224137180524,36.756224137180524 0 0,0 -0.05710412627646775,0.6301392750507261 l -15.679102321801345 -1.557032255142397" fill="#ffb510" stroke="none" /><path d="M 120.8583938346157 102.4346265915055 l 61.975238958040634 7.2338534778142405 a83.39598448654147,83.39598448654147 0 0,0 -0.1786996874651254,1.4244123332879175 l -61.84153776132867 -8.299583565389552" fill="#4cd8ff" stroke="none" /><path d="M 120.81339534386255 102.79330883721812 l 15.727961145267768 2.1108066287442404 a36.86897181329034,36.86897181329034 0 0,0 -0.08983028242234173,0.6282727860386955 l -15.689296811828825 -2.3812248867633454" fill="#ffb711" stroke="none" /><path d="M 120.41448212921028 104.9243191809786 l 61.24344638763086 14.772957542935806 a84.0,84.0 0 0,0 -0.35115474281975656,1.4026886424104164 l -60.980080330516046 -15.82497402474362" fill="#4dd2ff" stroke="none" /><path d="M 120.13307415673323 105.97154293290107 l 14.741311560888244 4.372326560157991 a36.376069266358044,36.376069266358044 0 0,0 -0.18321972618300783,0.5987726661884788 l -14.663865062199104 -4.625426198898527" fill="#ffb010" stroke="none" /><path d="M 119.26925614724726 108.34839909993367 l 13.54211556021348 5.86711726130822 a35.758453808042255,35.758453808042255 0 0,0 -0.24955810484731225,0.5626876450150928 l -13.439116370634896 -6.099353242816001" fill="#ffa80f" stroke="none" /><line stroke="#e1ed5e" stroke-width="0.3" x1="174.80103733775053" x2="179.2010983576182" y1="140.37084112569926" y2="142.7455964860345" /><path d="M 175.68104954172406 140.8457921977663 a86.0,86.0 0 0,1 -30.038265399797805,32.042727171017184" fill="none" id="id65" stroke="none" /><text fill="#e1ed5e" style="font-size:6.75px; font-family:Arial;" text-anchor="middle"><textPath startOffset="22.206326154141568" xlink:href="#id65">May</textPath></text><line stroke="#e1ed5e" stroke-width="0.3" x1="143.8653032363475" x2="146.44561519142675" y1="172.8068346515853" y2="177.08958963109032" /><path d="M 144.38136562736335 173.6633856474863 a86.0,86.0 0 0,1 -40.68145358897372,12.25698825130547" fill="none" id="id66" stroke="none" /><text fill="#e1ed5e" style="font-size:6.75px; font-family:Arial;" text-anchor="middle"><textPath startOffset="21.466115282336833" xlink:href="#id66">June</textPath></text><path d="M 109.89434966115114 118.52300852407294 l 7.059679634926938 13.216281062757787 a35.983629789794335,35.983629789794335 0 0,0 -0.5488516181804634,0.2871332263025731 l -6.831137114219979 -13.335843708005076" fill="#ffab0f" stroke="none" /><path d="M 109.2508944713604 118.85261126421891 l 5.713137984545638 11.64293570258866 a33.96911320812151,33.96911320812151 0 0,0 -0.5271477939901321,0.2530629758339486 l -5.511877522555273 -11.739552954922168" fill="#ff900d" stroke="none" /><path d="M 108.92500713936063 119.00905698771935 l 3.7549681861658026 7.997573909281189 a29.83521219402978,29.83521219402978 0 0,0 -0.4667534313718538,0.21426360753267523 l -3.6167467590265296 -8.061024587147939" fill="#ff5607" stroke="none" /><path d="M 108.2653958097858 119.30500536409082 l 5.294527109325772 12.366119735590386 a34.45187476251335,34.45187476251335 0 0,0 -0.5471754051008253,0.22871936370938428 l -5.080880244727485 -12.455424142319744" fill="#ff960d" stroke="none" /><path d="M 107.93186726928326 119.44442032107085 l 12.436159131153428 30.486378190204032 a53.92532929359278,53.92532929359278 0 0,0 -0.8624943608199986,0.34320430602526314 l -11.909543694291562 -30.695929340635363" fill="#78ff26" stroke="none" /><path d="M 107.59598834532513 119.57807347666477 l 1.7321313960308395 4.4644349360541575 a25.788680243175214,25.788680243175214 0 0,0 -0.41523432178612846,0.1570060903109765 l -1.6550268534844363 -4.493589276471765" fill="#ff1b02" stroke="none" /><path d="M 106.57524785965236 119.94407469862006 l 6.924612641993242 21.003769704009862 a43.1157998277416,43.1157998277416 0 0,0 -0.7068499795249115,0.22631104185723191 l -6.56204131737739 -21.119853592526802" fill="#f7ff19" stroke="none" /><path d="M 105.88484417918355 120.15858648285463 l 4.154082938206923 14.229848338722379 a35.82379805584729,35.82379805584729 0 0,0 -0.5934277516068616,0.16770861019369349 l -3.9085240184954557 -14.299245742254591" fill="#ffa90f" stroke="none" /><path d="M 105.18746579009965 120.34920634021253 l 5.413793965049968 21.237038456899928 a42.916226123944284,42.916226123944284 0 0,0 -0.7174095339061064,0.17632180894687946 l -5.04743114640065 -21.327081524160835" fill="#f9ff18" stroke="none" /><path d="M 104.48393922423573 120.51570834832081 l 4.301868221386532 19.682665033872887 a41.147291952761734,41.147291952761734 0 0,0 -0.6932506300926353,0.14527740988553348 l -3.9624261298645185 -19.753798424484962" fill="#ffef16" stroke="none" /><path d="M 104.13013068566511 120.58985236759428 l 0.9128408015959122 4.550765767584786 a25.641416529517667,25.641416529517667 0 0,0 -0.43350158458262794,0.08308161042772769 l -0.8343716024415799 -4.565804576360982" fill="#ff1902" stroke="none" /><path d="M 103.7750983002368 120.6578951692458 l 0.6210505012312109 3.3984800206228063 a24.454760509160067,24.454760509160067 0 0,0 -0.4147422908448597,0.07210826345978828 l -0.5624592389143012 -3.4086668626036007" fill="#ff0701" stroke="none" /><path d="M 103.06178313531738 120.77559828337769 l 2.6908964336224868 18.258962459573254 a39.45618145003423,39.45618145003423 0 0,0 -0.6727681180096097,0.09323953087907919 l -2.376199724426047 -18.302576555944935" fill="#ffd914" stroke="none" /><path d="M 102.34483914955558 120.86867818915974 l 0.33408707043890645 2.973319326176407 a23.99202974351001,23.99202974351001 0 0,0 -0.41079770652547826,0.042580861931849845 l -0.28285676730782555 -2.978629556564015" fill="#ff0000" stroke="none" /><path d="M 101.98527174616119 120.90594882070398 l 0.29967629904218174 3.1557480141789895 a24.169945017378417,24.169945017378417 0 0,0 -0.41452109704206425,0.03576662446660133 l -0.2453108842585758 -3.160438890924254" fill="#ff0300" stroke="none" /><path d="M 101.62511606390274 120.93702456842531 l 1.630090764225378 21.001115635635404 a42.06428384353341,42.06428384353341 0 0,0 -0.7223784378639683,0.04981944647264549 l -1.2683495655824792 -21.026063426624333" fill="#fffa17" stroke="none" /><path d="M 100.90346689309514 120.98055641714683 l 0.6390825877974242 14.840951440473034 a35.85470518766712,35.85470518766712 0 0,0 -0.6168369181433047,0.021245110667767755 l -0.38352531797946726 -14.849753349566896" fill="#ffa90f" stroke="none" /><line stroke="#e1ed5e" stroke-width="0.3" x1="102.19456741930631" x2="102.32365962044197" y1="184.97166512339345" y2="189.96999836594603" /><path d="M 102.22038585953345 185.97133177190398 a86.0,86.0 0 0,1 -42.740103519485714,-10.115201625700543" fill="none" id="id67" stroke="none" /><text fill="#e1ed5e" style="font-size:6.75px; font-family:Arial;" text-anchor="middle"><textPath startOffset="22.20632615414155" xlink:href="#id67">July</textPath></text><path d="M 100.18074693466247 120.99922214144158 l 0.2814229837475233 32.69578962684813 a53.697000752651476,53.697000752651476 0 0,0 -0.9243398368199349,0.0 l 0.28142298374750074 -32.69578962684813" fill="#7bff26" stroke="none" /><path d="M 99.81925306533755 120.99922214144158 l -0.08436500256588489 9.80154619580595 a30.80190926718749,30.80190926718749 0 0,0 -0.5301453160681024,-0.009126932393349371 l 0.2530700085266553 -9.79864178613344" fill="#ff6409" stroke="none" /><path d="M 99.09653310690486 120.98055641714683 l -0.6117165817637491 14.205450529604612 a35.21861533080661,35.21861533080661 0 0,0 -0.6054447784941336,-0.03129457941145382 l 0.8561494286713716 -14.192816143430957" fill="#ffa10e" stroke="none" /><path d="M 98.73552117531835 120.96189622390904 l -0.9039063836506038 14.984507008239703 a36.011745302608524,36.011745302608524 0 0,0 -0.618436971688813,-0.04265103440636978 l 1.1617061161183468 -14.966727629317049" fill="#ffac0f" stroke="none" /><path d="M 96.93821686468263 120.77559828337769 l -0.654636966591066 4.44201108904965 a25.489990208593735,25.489990208593735 0 0,0 -0.4335290637847493,-0.06770832378766949 l 0.7310018939843325 -4.430084457914875" fill="#ff1602" stroke="none" /><path d="M 96.58105272829116 120.7198165907248 l -5.630301153951306 34.12126540404623 a55.582669704022955,55.582669704022955 0 0,0 -0.9426583325436716,-0.16389323417478602 l 6.216808457967028 -34.01929359135043" fill="#66ff29" stroke="none" /><path d="M 96.22490169976321 120.6578951692458 l -0.9445983622895812 5.168981677641466 a26.25458253811217,26.25458253811217 0 0,0 -0.4438679555681088,-0.08506835009926374 l 1.033433932429385 -5.151956129193734" fill="#ff2203" stroke="none" /><path d="M 95.86986931433489 120.58985236759428 l -1.008074274946986 5.025531169938173 a26.12563920734088,26.12563920734088 0 0,0 -0.4401654393891615,-0.0922409474724054 l 1.094431175765534 -5.007434241739226" fill="#ff2003" stroke="none" /><path d="M 95.16358092515715 120.4354850818985 l -8.08314726946236 34.15399552514045 a56.09747398476322,56.09747398476322 0 0,0 -0.9377539988835394,-0.23047711748413385 l 8.66985455308911 -34.00979714934229" fill="#61ff29" stroke="none" /><path d="M 94.81253420990036 120.34920634021253 l -1.3065291625368853 5.12520613990545 a26.28911679102323,26.28911679102323 0 0,0 -0.4375379794527415,-0.11555775709428143 l 1.394557584801116 -5.1019570335075874" fill="#ff2203" stroke="none" /><path d="M 94.46302465271185 120.25689768951611 l -1.4074872101639995 5.149259772225393 a26.338154779381536,26.338154779381536 0 0,0 -0.4362963398753969,-0.12330170369513282 l 1.4959147181440102 -5.124269275191739" fill="#ff2303" stroke="none" /><path d="M 94.11515582081647 120.15858648285463 l -1.4767211287757038 5.058521462774539 a26.269662672460473,26.269662672460473 0 0,0 -0.4329803649500715,-0.13045343216736377 l 1.5635764681660211 -5.03235266150145" fill="#ff2203" stroke="none" /><path d="M 93.76903079525671 120.05430185196036 l -10.277493233966227 33.07799233521174 a55.6378469899985,55.6378469899985 0 0,0 -0.9121391963691788,-0.29203816627096896 l 10.845353775426346 -32.896181322281066" fill="#66ff29" stroke="none" /><path d="M 93.08242187328487 119.8279376855182 l -10.416399177226566 29.856650696275786 a52.62152688626455,52.62152688626455 0 0,0 -0.8526702994853692,-0.305737232839291 l 10.928789037341662 -29.672925922396537" fill="#87ff25" stroke="none" /><path d="M 92.40401165467489 119.57807347666478 l -1.8900591550577648 4.871481541403034 a26.225290041504696,26.225290041504696 0 0,0 -0.4194534380776558,-0.16690917954348858 l 1.9736336691772787 -4.838225517453479" fill="#ff2103" stroke="none" /><path d="M 92.06813273071674 119.44442032107085 l -9.408498807931265 23.06427972139285 a45.90945300253495,45.90945300253495 0 0,0 -0.7291482312002538,-0.3047840197773797 l 9.80411849862898 -22.8989106585955" fill="#d4ff1c" stroke="none" /><path d="M 91.40352486487194 119.15986991738527 l -1.8061546582614456 4.025567195740312 a25.41218606781038,25.41218606781038 0 0,0 -0.39755792479947644,-0.1824993442905763 l 1.8751805788283415 -3.9938807811156614" fill="#ff1502" stroke="none" /><path d="M 91.07499286063937 119.00905698771935 l -1.8276465214464557 3.8926396737954354 a25.300341316379615,25.300341316379615 0 0,0 -0.392621939537057,-0.188482390573763 l 1.8943811289837547 -3.86060300672211" fill="#ff1402" stroke="none" /><line stroke="#e1ed5e" stroke-width="0.3" x1="58.666819895761336" x2="56.23545636021788" y1="174.27360380694188" y2="178.64263932499728" /><path d="M 58.180547188652646 175.14741091055294 a86.0,86.0 0 0,1 -31.652253787137756,-30.449443065178592" fill="none" id="id68" stroke="none" /><text fill="#e1ed5e" style="font-size:6.75px; font-family:Arial;" text-anchor="middle"><textPath startOffset="22.20632615414155" xlink:href="#id68">August</textPath></text><path d="M 89.7882731507175 118.34994917583269 l -23.108217013785314 41.524280271643455 a68.52110631744799,68.52110631744799 0 0,0 -1.025699726800611,-0.5824190739958967 l 23.819565507507132 -41.12035803185292" fill="#39ff8b" stroke="none" /><path d="M 88.24862548938628 117.40417183066458 l -17.112253572854787 25.343809894142737 a51.580024890312444,51.580024890312444 0 0,0 -0.7315597764075962,-0.5031734849313259 l 17.54597023388527 -25.04549561984631" fill="#92ff23" stroke="none" /><line stroke="#e1ed5e" stroke-width="0.3" x1="26.63291911575756" x2="22.317208475507996" y1="142.92168965132927" y2="145.44649492493687" /><path d="M 25.769776987707644 143.4266507060508 a86.0,86.0 0 0,1 -11.730757126820373,-40.83630448921669" fill="none" id="id69" stroke="none" /><text fill="#e1ed5e" style="font-size:6.75px; font-family:Arial;" text-anchor="middle"><textPath startOffset="21.46611528233685" xlink:href="#id69">September</textPath></text><line stroke="#e1ed5e" stroke-width="0.3" x1="15.007084014347285" x2="10.007500721073583" y1="101.09737516637583" y2="101.16192664675087" /><path d="M 14.007167355692545 101.11028546245083 a86.0,86.0 0 0,1 10.666146001902534,-42.60595125391555" fill="none" id="id70" stroke="none" /><text fill="#e1ed5e" style="font-size:6.75px; font-family:Arial;" text-anchor="middle"><textPath startOffset="22.20632615414155" xlink:href="#id70">October</textPath></text><line stroke="#e1ed5e" stroke-width="0.3" x1="26.266209847984243" x2="21.928928074336255" y1="57.711370442889674" y2="55.22380399835377" /><path d="M 25.398753493254645 57.213857153982495 a86.0,86.0 0 0,1 29.58750427330803,-30.492523968695096" fill="none" id="id71" stroke="none" /><text fill="#e1ed5e" style="font-size:6.75px; font-family:Arial;" text-anchor="middle"><textPath startOffset="21.46611528233685" xlink:href="#id71">November</textPath></text><line stroke="#e1ed5e" stroke-width="0.3" x1="56.762969772571076" x2="54.21961505331055" y1="26.818313649435495" y2="22.513508569990535" /><path d="M 56.25429882871897 25.957352633546506 a86.0,86.0 0 0,1 42.265352541879196,-11.944610805530505" fill="none" id="id72" stroke="none" /><text fill="#e1ed5e" style="font-size:6.75px; font-family:Arial;" text-anchor="middle"><textPath startOffset="22.20632615414155" xlink:href="#id72">December</textPath></text></svg>