<?xml version="1.0" encoding="utf-8" ?>
<svg baseProfile="full" height="200mm" version="1.1" viewBox="0,0,200,200" width="200mm" xmlns="http://www.w3.org/2000/svg" xmlns:ev="http://www.w3.org/2001/xml-events" xmlns:xlink="http://www.w3.org/1999/xlink"><defs /><rect fill="#1a1a1a" height="200" width="200" x="0" y="0" /><text alignment-baseline="middle" fill="#e1ed5e" style="dominant-baseline: central; font-size:9.0px; font-family:Arial;" text-anchor="middle" x="100.0" y="100.0">2020</text><line stroke="#e1ed5e" stroke-width="0.3" x1="100.0" x2="100.0" y1="15.0" y2="10.0" /><path d="M 100.0 14.0 a86.0,86.0 0 0,1 42.35913384403234,11.155469271406648" fill="none" id="id25" stroke="none" /><text fill="#e1ed5e" style="font-size:6.75px; font-family:Arial;" text-anchor="middle"><textPath startOffset="22.145653131862478" xlink:href="#id25">January</textPath></text><line stroke="#e1ed5e" stroke-width="0.3" x1="143.13028292997686" x2="145.6673583964461" y1="26.7553504044142" y2="22.446841604673864" /><path d="M 143.63769802327073 25.89364864446614 a86.0,86.0 0 0,1 29.32050498858742,28.57503671076993" fill="none" id="id26" stroke="none" /><text fill="#e1ed5e" style="font-size:6.75px; font-family:Arial;" text-anchor="middle"><textPath startOffset="20.669276256404974" xlink:href="#id26">February</textPath></text><path d="M 113.03279911837588 83.53348406188908 l 15.692548083677389 -19.827021868625806 a46.285704687382015,46.285704687382015 0 0,0 0.6187940921212597,0.49845671847742307 l -16.03059294615391 19.554716856354975" fill="#e9ff1a" stroke="none" /><line stroke="#e1ed5e" stroke-width="0.3" x1="172.87174338648825" x2="177.1583165268699" y1="56.24261187166439" y2="53.66864786411523" /><path d="M 173.72905801456457 55.72781907015455 a86.0,86.0 0 0,1 12.242430191666344,42.057860355516425" fill="none" id="id27" stroke="none" /><text fill="#e1ed5e" style="font-size:6.75px; font-family:Arial;" text-anchor="middle"><textPath startOffset="22.145653131862474" xlink:href="#id27">March</textPath></text><path d="M 120.51834098615036 95.52812308129327 l 33.31757757746608 -7.261410961854051 a55.09969303069171,55.09969303069171 0 0,0 0.1934846427122804,0.9258940576073981 l -33.43731993100273 6.688400452961249" fill="#7dff26" stroke="none" /><line stroke="#e1ed5e" stroke-width="0.3" x1="184.99686870605535" x2="189.99668451229388" y1="99.2704041080226" y2="99.22748670261217" /><path d="M 185.99683186730306 99.26182062694052 a86.0,86.0 0 0,1 -10.086455211305974,41.156179273409016" fill="none" id="id28" stroke="none" /><text fill="#e1ed5e" style="font-size:6.75px; font-family:Arial;" text-anchor="middle"><textPath startOffset="21.40746469413373" xlink:href="#id28">April</textPath></text><path d="M 120.9064616781168 101.97986365728391 l 17.425686986900374 1.650230675077915 a38.50365185458158,38.50365185458158 0 0,0 -0.06796372642705716,0.6574874014593035 l -17.39479086799165 -1.9491225988201502" fill="#ffac0f" stroke="none" /><path d="M 120.65975698304385 103.76489593502545 l 28.19449241477022 5.137975725929137 a49.6588240702017,49.6588240702017 0 0,0 -0.16002841646373836,0.8373362965104916 l -28.102137706024322 -5.621214587472943" fill="#beff1f" stroke="none" /><line stroke="#e1ed5e" stroke-width="0.3" x1="174.33088141563837" x2="178.70328620479359" y1="141.23008692659167" y2="143.65538615756765" /><path d="M 175.20536237346943 141.71514677278685 a86.0,86.0 0 0,1 -30.301960400862466,31.631185727798858" fill="none" id="id29" stroke="none" /><text fill="#e1ed5e" style="font-size:6.75px; font-family:Arial;" text-anchor="middle"><textPath startOffset="22.145653131862474" xlink:href="#id29">May</textPath></text><line stroke="#e1ed5e" stroke-width="0.3" x1="143.1302829299769" x2="145.66735839644613" y1="173.24464959558577" y2="177.55315839532614" /><path d="M 143.63769802327073 174.10635135553383 a86.0,86.0 0 0,1 -40.68552437913181,11.842963189579606" fill="none" id="id30" stroke="none" /><text fill="#e1ed5e" style="font-size:6.75px; font-family:Arial;" text-anchor="middle"><textPath startOffset="21.407464694133747" xlink:href="#id30">June</textPath></text><path d="M 110.65571695917076 118.09573695890943 l 5.23328477157544 8.887261647466397 a31.313616683342975,31.313616683342975 0 0,0 -0.4655403327177125,0.2687798364132003 l -5.079951970997329 -8.97578838115577" fill="#ff4206" stroke="none" /><path d="M 108.73861861582097 119.09545874513695 l 6.241554616733019 13.638923258827601 a35.999241037260845,35.999241037260845 0 0,0 -0.5641365587015353,0.2523311071798565 l -6.006504655175857 -13.744058116917307" fill="#ff880c" stroke="none" /><path d="M 108.07796709384702 119.3841803445677 l 5.79705550576643 13.910822869882512 a36.070396327044065,36.070396327044065 0 0,0 -0.5735975207861463,0.2332771181641957 l -5.5574035237898425 -14.008287244626" fill="#ff890c" stroke="none" /><path d="M 106.38641147887787 120.00534299687104 l 4.592484041922442 14.38589085125123 a36.10115112365366,36.10115112365366 0 0,0 -0.5919890263593915,0.18339971361806512 l -4.344854382691427 -14.46260715267594" fill="#ff890c" stroke="none" /><path d="M 105.3480935250658 120.30758222061773 l 3.9707031875462553 15.07740675753652 a36.59149378141164,36.59149378141164 0 0,0 -0.6088035352476675,0.15475547795224925 l -3.7112943590731904 -15.143347467324041" fill="#ff900d" stroke="none" /><path d="M 104.29559338865022 120.5559693870025 l 4.036647610606844 19.316820099638118 a40.73408378146807,40.73408378146807 0 0,0 -0.6856972274012066,0.13715864955110268 l -3.7044538976746786 -19.383268145852085" fill="#ffcb12" stroke="none" /><path d="M 103.94208987418118 120.62667999033965 l 2.7915162854370066 14.606392787909446 a35.87075228246887,35.87075228246887 0 0,0 -0.6058147579040879,0.11039962964150807 l -2.5403667939818617 -14.652160591482318" fill="#ff860c" stroke="none" /><path d="M 103.58742460773223 120.69131181640829 l 2.5393502771944787 14.646297592781517 a35.86480181524817,35.86480181524817 0 0,0 -0.6075198502012755,0.09996716016220042 l -2.287552923940131 -14.687730751439389" fill="#ff860c" stroke="none" /><path d="M 103.2317021107853 120.74984581791261 l 2.3021698983002272 14.781582212341112 a35.95978472240957,35.95978472240957 0 0,0 -0.6107596389636095,0.08976063426437883 l -2.0480851537289326 -14.818923919904373" fill="#ff870c" stroke="none" /><path d="M 101.08105385017728 120.97215588758144 l 0.7991961556872346 15.504191913362952 a36.52477637138952,36.52477637138952 0 0,0 -0.6264420737519054,0.026902118061252138 l -0.5329283213344996 -15.515626599850036" fill="#ff8f0d" stroke="none" /><line stroke="#e1ed5e" stroke-width="0.3" x1="101.45913802915013" x2="101.54496967792366" y1="184.9874750549273" y2="189.98673829345242" /><path d="M 101.47630435890484 185.9873277026323 a86.0,86.0 0 0,1 -42.54439059252881,-10.42667462771756" fill="none" id="id31" stroke="none" /><text fill="#e1ed5e" style="font-size:6.75px; font-family:Arial;" text-anchor="middle"><textPath startOffset="22.145653131862474" xlink:href="#id31">July</textPath></text><path d="M 100.36049292484886 120.99690560180557 l 0.4332425508306715 25.23420659723374 a46.23792546347114,46.23792546347114 0 0,0 -0.7937354756795206,0.006813264431837195 l -3.0907544635959415e-15 -25.237925463471143" fill="#e9ff1a" stroke="none" /><path d="M 100.0 121.0 l 3.050585703536299e-15 24.909922645943595 a45.909922645943595,45.909922645943595 0 0,0 -0.7881048711533696,-0.006764932463916871 l 0.4276119463045144 -24.906252111674114" fill="#eeff19" stroke="none" /><path d="M 98.91894614982273 120.97215588758144 l -3.2431615505318008 62.916467662744324 a84.0,84.0 0 0,0 -1.4394225914702146,-0.08659208870123303 l 4.322728494134462 -62.8515235962184" fill="#4dd2ff" stroke="none" /><path d="M 98.19965949673042 120.92268563240118 l -1.2704211590548904 14.764219592562272 a35.8187769434179,35.8187769434179 0 0,0 -0.6121606992384492,-0.057972254678960784 l 1.523681421678355 -14.740235582378126" fill="#ff850c" stroke="none" /><path d="M 96.05791012581884 120.62667999033965 l -2.6696598693893847 13.968788527528146 a35.22160809279422,35.22160809279422 0 0,0 -0.5929029640978097,-0.11859719803551048 l 2.909059319018153 -13.920901932829773" fill="#ff7c0b" stroke="none" /><path d="M 94.30408787586889 120.21278271476187 l -6.9454144259542225 24.646825582338234 a46.60673334954022,46.60673334954022 0 0,0 -0.7682121002163622,-0.22361534632987617 l 7.367486538552192 -24.523966541705843" fill="#e5ff1a" stroke="none" /><line stroke="#e1ed5e" stroke-width="0.3" x1="58.13341422392154" x2="55.67067388415222" y1="173.97424548756322" y2="178.32567169271397" /><path d="M 57.64086615596768 174.84453072859336 a86.0,86.0 0 0,1 -31.369924170532247,-30.572349798747897" fill="none" id="id32" stroke="none" /><text fill="#e1ed5e" style="font-size:6.75px; font-family:Arial;" text-anchor="middle"><textPath startOffset="22.145653131862474" xlink:href="#id32">August</textPath></text><path d="M 89.65649057296885 118.27599006163327 l -15.892084898743269 28.079791265915514 a53.26504362256851,53.26504362256851 0 0,0 -0.7918927532719177,-0.457199494270859 l 16.371770119875585 -27.802844874368486" fill="#92ff23" stroke="none" /><path d="M 86.68645165197938 116.24036423190432 l -9.55414727458612 11.654506192378335 a36.07014415102478,36.07014415102478 0 0,0 -0.4754829367373308,-0.39666477696293767 l 9.752804545485342 -11.488779231503527" fill="#ff890c" stroke="none" /><line stroke="#e1ed5e" stroke-width="0.3" x1="26.387840678322732" x2="22.057713659400548" y1="142.50000000000003" y2="145.00000000000006" /><path d="M 25.521815274538298 143.00000000000003 a86.0,86.0 0 0,1 -11.493303480769221,-40.785679425670985" fill="none" id="id33" stroke="none" /><text fill="#e1ed5e" style="font-size:6.75px; font-family:Arial;" text-anchor="middle"><textPath startOffset="21.40746469413373" xlink:href="#id33">September</textPath></text><path d="M 81.29705330413844 109.54985784667822 l -13.201264733105411 6.740659835458927 a35.822613992508266,35.822613992508266 0 0,0 -0.27494723963309176,-0.5500786591203104 l 13.31503188595024 -6.513049320174863" fill="#ff850c" stroke="none" /><path d="M 80.16572619554312 106.89939002012753 l -5.754289141678164 2.001640466821702 a27.092487840320523,27.092487840320523 0 0,0 -0.14902749102049476,-0.44057329675231405 l 5.787802054271027 -1.9025654955952263" fill="#ff0000" stroke="none" /><path d="M 79.48165901384964 104.47187691870673 l -6.718304500076047 1.46422319655437 a27.87601373799311,27.87601373799311 0 0,0 -0.09788766981576244,-0.46842793580379505 l 6.742449880716177 -1.3486788094651658" fill="#ff0c01" stroke="none" /><path d="M 79.2786578344484 103.40968896794605 l -8.844128459287626 1.455297972390194 a29.96306311440594,29.96306311440594 0 0,0 -0.07915743012162649,-0.5082474850897738 l 8.86780738154752 -1.30326230536897" fill="#ff2d04" stroke="none" /><line stroke="#e1ed5e" stroke-width="0.3" x1="15.003131293944662" x2="10.003315487706104" y1="100.72959589197737" y2="100.7725132973878" /><path d="M 14.003168132696942 100.73817937305945 a86.0,86.0 0 0,1 10.791469493833604,-42.45332614584628" fill="none" id="id34" stroke="none" /><text fill="#e1ed5e" style="font-size:6.75px; font-family:Arial;" text-anchor="middle"><textPath startOffset="22.145653131862435" xlink:href="#id34">October</textPath></text><path d="M 79.22317932658666 96.9465228501225 l -25.540685593728714 -3.7536012404656076 a46.81503714640222,46.81503714640222 0 0,0 0.1236775431606654,-0.7940985473746018 l 25.47248655842978 4.191487969771659" fill="#e2ff1b" stroke="none" /><path d="M 79.56144815229197 95.17655741523228 l -24.443747605082756 -5.768657877925514 a46.1152187068626,46.1152187068626 0 0,0 0.18844099916560744,-0.7689035822443195 l 24.34111907940085 6.187417284777951" fill="#ebff1a" stroke="none" /><path d="M 79.64726062577567 94.8264132398404 l -24.241566096981643 -6.162111305945898 a46.01249972676054,46.01249972676054 0 0,0 0.20116340425649076,-0.7638502117757451 l 24.132213211920426 6.577342022094427" fill="#ecff1a" stroke="none" /><path d="M 79.94057633289273 93.78553927170692 l -23.80938608299536 -7.376208670449792 a45.92579627613031,45.92579627613031 0 0,0 0.23976608228044433,-0.7510638377906532 l 23.67925528493766 7.783841541931837" fill="#edff19" stroke="none" /><path d="M 80.5471966667186 92.08871423366112 l -7.602881548755678 -3.0920257378495317 a29.207583749675265,29.207583749675265 0 0,0 0.1928731909341091,-0.46282544522207425 l 7.548682513285091 3.2220836925128697" fill="#ff2103" stroke="none" /><line stroke="#e1ed5e" stroke-width="0.3" x1="26.387840678322718" x2="22.05771365940052" y1="57.49999999999999" y2="54.99999999999999" /><path d="M 25.521815274538284 56.99999999999999 a86.0,86.0 0 0,1 29.574782752854787,-30.34633250058573" fill="none" id="id35" stroke="none" /><text fill="#e1ed5e" style="font-size:6.75px; font-family:Arial;" text-anchor="middle"><textPath startOffset="21.40746469413373" xlink:href="#id35">November</textPath></text><line stroke="#e1ed5e" stroke-width="0.3" x1="56.869717070023135" x2="54.33264160355391" y1="26.7553504044142" y2="22.446841604673864" /><path d="M 56.362301976729285 25.89364864446614 a86.0,86.0 0 0,1 42.16139366436587,-11.88097634709845" fill="none" id="id36" stroke="none" /><text fill="#e1ed5e" style="font-size:6.75px; font-family:Arial;" text-anchor="middle"><textPath startOffset="22.145653131862474" xlink:href="#id36">December</textPath></text><path d="M 99.63950707515114 79.00309439819443 l -0.4446871543137779 -25.90079737453004 a46.904614478923904,46.904614478923904 0 0,0 0.8051800791626237,-0.00691150258829751 l 6.344800640952068e-15 25.904614478923904" fill="#e1ff1b" stroke="none" /></svg>