<?xml version="1.0" encoding="utf-8" ?>
<svg baseProfile="full" height="200mm" version="1.1" viewBox="0,0,200,200" width="200mm" xmlns="http://www.w3.org/2000/svg" xmlns:ev="http://www.w3.org/2001/xml-events" xmlns:xlink="http://www.w3.org/1999/xlink"><defs /><rect fill="#1a1a1a" height="200" width="200" x="0" y="0" /><text alignment-baseline="middle" fill="#e1ed5e" style="dominant-baseline: central; font-size:9.0px; font-family:Arial;" text-anchor="middle" x="100.0" y="100.0">2022</text><line stroke="#e1ed5e" stroke-width="0.3" x1="100.0" x2="100.0" y1="15.0" y2="10.0" /><path d="M 100.0 14.0 a86.0,86.0 0 0,1 42.46469731375804,11.215312516191453" fill="none" id="id49" stroke="none" /><text fill="#e1ed5e" style="font-size:6.75px; font-family:Arial;" text-anchor="middle"><textPath startOffset="22.20632615414155" xlink:href="#id49">January</textPath></text><path d="M 101.44485096284872 79.0497635885617 l 0.42993915787452225 -6.234087273781363 a27.248895247689514,27.248895247689514 0 0,0 0.4676556750621514,0.03629908096229092 l -0.5371850222990149 6.225762930630607" fill="#ff0000" stroke="none" /><path d="M 102.16513564639614 79.11191278185805 l 0.6683392229455407 -6.4477844625710325 a27.48232996635468,27.48232996635468 0 0,0 0.4701222851927168,0.05282371645229722 l -0.7792282116479827 6.435324792648134" fill="#ff0400" stroke="none" /><line stroke="#e1ed5e" stroke-width="0.3" x1="143.23703022742887" x2="145.7803849466894" y1="26.81831364943548" y2="22.513508569990506" /><path d="M 143.74570117128098 25.957352633546492 a86.0,86.0 0 0,1 28.547481713284135,27.462654790039103" fill="none" id="id50" stroke="none" /><text fill="#e1ed5e" style="font-size:6.75px; font-family:Arial;" text-anchor="middle"><textPath startOffset="19.985693538727396" xlink:href="#id50">February</textPath></text><path d="M 115.68641384162765 86.03803664274999 l 13.00216441156017 -11.572800827005768 a38.4064929944773,38.4064929944773 0 0,0 0.4352884678155224,0.4976099659332256 l -13.19944474295354 11.347275304869594" fill="#ffa90f" stroke="none" /><line stroke="#e1ed5e" stroke-width="0.3" x1="172.23445277983987" x2="176.4835382374775" y1="55.19839476539836" y2="52.563006222186495" /><path d="M 173.08426987136738 54.67131705675599 a86.0,86.0 0 0,1 12.851231095245387,41.99856678651699" fill="none" id="id51" stroke="none" /><text fill="#e1ed5e" style="font-size:6.75px; font-family:Arial;" text-anchor="middle"><textPath startOffset="22.20632615414155" xlink:href="#id51">March</textPath></text><line stroke="#e1ed5e" stroke-width="0.3" x1="184.98032266829074" x2="189.97916517819016" y1="98.17113171792111" y2="98.06355123074" /><path d="M 185.9800911702706 98.14961562048488 a86.0,86.0 0 0,1 -9.607161424134198,41.387399972396054" fill="none" id="id52" stroke="none" /><text fill="#e1ed5e" style="font-size:6.75px; font-family:Arial;" text-anchor="middle"><textPath startOffset="21.466115282336823" xlink:href="#id52">April</textPath></text><path d="M 120.89721153311464 102.0752229133903 l 12.352795656040174 1.2267093410630736 a33.413556151535964,33.413556151535964 0 0,0 -0.06176368326038077,0.5718549990367181 l -12.32984967127874 -1.439160661984583" fill="#ff6008" stroke="none" /><path d="M 119.54520255179757 107.68017299344265 l 15.169738827747196 5.960860121745185 a37.29885976051923,37.29885976051923 0 0,0 -0.23995135451553756,0.5955395836402068 l -15.064884858974267 -6.221099073228205" fill="#ff990e" stroke="none" /><line stroke="#e1ed5e" stroke-width="0.3" x1="174.80103733775053" x2="179.2010983576182" y1="140.37084112569926" y2="142.7455964860345" /><path d="M 175.68104954172406 140.8457921977663 a86.0,86.0 0 0,1 -30.038265399797805,32.042727171017184" fill="none" id="id53" stroke="none" /><text fill="#e1ed5e" style="font-size:6.75px; font-family:Arial;" text-anchor="middle"><textPath startOffset="22.206326154141568" xlink:href="#id53">May</textPath></text><line stroke="#e1ed5e" stroke-width="0.3" x1="143.8653032363475" x2="146.44561519142675" y1="172.8068346515853" y2="177.08958963109032" /><path d="M 144.38136562736335 173.6633856474863 a86.0,86.0 0 0,1 -40.68145358897372,12.25698825130547" fill="none" id="id54" stroke="none" /><text fill="#e1ed5e" style="font-size:6.75px; font-family:Arial;" text-anchor="middle"><textPath startOffset="21.466115282336833" xlink:href="#id54">June</textPath></text><path d="M 104.48393922423573 120.51570834832081 l 5.736728985144994 26.24769267532914 a47.86729294565289,47.86729294565289 0 0,0 -0.8064693791634902,0.1690034995586089 l -5.284068144552125 -26.34255215561429" fill="#d6ff1c" stroke="none" /><line stroke="#e1ed5e" stroke-width="0.3" x1="102.19456741930631" x2="102.32365962044197" y1="184.97166512339345" y2="189.96999836594603" /><path d="M 102.22038585953345 185.97133177190398 a86.0,86.0 0 0,1 -42.740103519485714,-10.115201625700543" fill="none" id="id55" stroke="none" /><text fill="#e1ed5e" style="font-size:6.75px; font-family:Arial;" text-anchor="middle"><textPath startOffset="22.20632615414155" xlink:href="#id55">July</textPath></text><path d="M 98.01472825383883 120.90594882070398 l -5.21517937559307 54.91856383276614 a76.16563014570957,76.16563014570957 0 0,0 -1.3041275171138826,-0.13517814940454972 l 6.159739489312546 -54.82065631490583" fill="#42ffda" stroke="none" /><path d="M 96.22490169976321 120.6578951692458 l -8.62427949983352 47.19333051715801 a68.97487511388609,68.97487511388609 0 0,0 -1.166110211728686,-0.22348779744349204 l 9.4353573261339 -47.03788552136605" fill="#39ff86" stroke="none" /><path d="M 95.86986931433489 120.58985236759428 l -5.9092309306975705 29.459162852008248 a51.04598619006298,51.04598619006298 0 0,0 -0.8600240844667566,-0.18022640875755916 l 6.415446476593714 -29.353080462524147" fill="#aeff20" stroke="none" /><path d="M 93.42475214034765 119.94407469862007 l -7.3479750937586905 22.287914810449667 a44.4679331125764,44.4679331125764 0 0,0 -0.7248914008646599,-0.24592252050041302 l 7.730536227560576 -22.15812930305113" fill="#fffc17" stroke="none" /><path d="M 92.06813273071674 119.44442032107085 l -9.813609909146049 24.05738137845877 a46.98200412280593,46.98200412280593 0 0,0 -0.7461828221411273,-0.311904480172211 l 10.226264190784638 -23.884891855266588" fill="#e1ff1b" stroke="none" /><path d="M 91.07499286063937 119.00905698771935 l -23.458090853777605 49.96255788928153 a76.19546373882451,76.19546373882451 0 0,0 -1.182435066110944,-0.5676406881938934 l 24.31463858788879 -49.55136292458807" fill="#42ffda" stroke="none" /><path d="M 90.42595943632237 118.69057910512821 l -3.3858729130093947 6.609949592296696 a28.426679540397174,28.426679540397174 0 0,0 -0.4335868603691977,-0.22683215276460408 l 3.4991506759050877 -6.550688020587375" fill="#ff1302" stroke="none" /><line stroke="#e1ed5e" stroke-width="0.3" x1="58.666819895761336" x2="56.23545636021788" y1="174.27360380694188" y2="178.64263932499728" /><path d="M 58.180547188652646 175.14741091055294 a86.0,86.0 0 0,1 -31.652253787137756,-30.449443065178592" fill="none" id="id56" stroke="none" /><text fill="#e1ed5e" style="font-size:6.75px; font-family:Arial;" text-anchor="middle"><textPath startOffset="22.20632615414155" xlink:href="#id56">August</textPath></text><path d="M 89.1626897886671 117.98757091392108 l -19.946523017203674 33.10687709971733 a59.65137891164588,59.65137891164588 0 0,0 -0.8749459741669605,-0.537463279032089 l 20.513448191302945 -32.758625353856864" fill="#4aff2c" stroke="none" /><path d="M 86.51685102203217 116.09983520530335 l -40.44944693390351 48.29950561591003 a84.0,84.0 0 0,0 -1.1005380936917737,-0.937902439108194 l 41.274850504172335 -47.596078786578886" fill="#4dd2ff" stroke="none" /><path d="M 85.18274418774928 114.88116024355367 l -41.05562582705723 41.23269211068682 a79.18676233256173,79.18676233256173 0 0,0 -0.9576295555168295,-0.9700736838545401 l 41.759296007629594 -40.519877932851614" fill="#46fffb" stroke="none" /><line stroke="#e1ed5e" stroke-width="0.3" x1="26.63291911575756" x2="22.317208475507996" y1="142.92168965132927" y2="145.44649492493687" /><path d="M 25.769776987707644 143.4266507060508 a86.0,86.0 0 0,1 -11.730757126820373,-40.83630448921669" fill="none" id="id57" stroke="none" /><text fill="#e1ed5e" style="font-size:6.75px; font-family:Arial;" text-anchor="middle"><textPath startOffset="21.46611528233685" xlink:href="#id57">September</textPath></text><path d="M 80.58989483394504 108.01547362559985 l -28.50113898565264 11.769649153605599 a51.83568654462647,51.83568654462647 0 0,0 -0.33346979715964453,-0.8276446888912116 l 28.699511397069674 -11.277305096871581" fill="#a4ff21" stroke="none" /><line stroke="#e1ed5e" stroke-width="0.3" x1="15.007084014347285" x2="10.007500721073583" y1="101.09737516637583" y2="101.16192664675087" /><path d="M 14.007167355692545 101.11028546245083 a86.0,86.0 0 0,1 10.666146001902534,-42.60595125391555" fill="none" id="id58" stroke="none" /><text fill="#e1ed5e" style="font-size:6.75px; font-family:Arial;" text-anchor="middle"><textPath startOffset="22.20632615414155" xlink:href="#id58">October</textPath></text><path d="M 79.54389044137918 95.25157060432595 l -28.863795290671618 -6.700086037189949 a50.63123067791051,50.63123067791051 0 0,0 0.20437464971024774,-0.8472648666417887 l 28.744187840700558 7.195936135491134" fill="#b3ff20" stroke="none" /><path d="M 80.2630227832202 92.82701384747504 l -28.22927936485134 -10.259333420504106 a51.03574762998075,51.03574762998075 0 0,0 0.30717544394373814,-0.8230774717468621 l 28.048499332405974 10.74373402928031" fill="#aeff20" stroke="none" /><path d="M 80.52162464483688 92.15188598940014 l -17.160546631066463 -6.914227906031485 a39.501105594357085,39.501105594357085 0 0,0 0.2595379007637852,-0.6284916130611271 l 17.038987043416476 7.208594089545923" fill="#ffb811" stroke="none" /><line stroke="#e1ed5e" stroke-width="0.3" x1="26.266209847984243" x2="21.928928074336255" y1="57.711370442889674" y2="55.22380399835377" /><path d="M 25.398753493254645 57.213857153982495 a86.0,86.0 0 0,1 29.58750427330803,-30.492523968695096" fill="none" id="id59" stroke="none" /><text fill="#e1ed5e" style="font-size:6.75px; font-family:Arial;" text-anchor="middle"><textPath startOffset="21.46611528233685" xlink:href="#id59">November</textPath></text><path d="M 82.7489923806493 88.02491185347247 l -37.09354221291213 -25.749129991009827 a66.15471812773296,66.15471812773296 0 0,0 0.6574121339852133,-0.9298628413965316 l 36.64481745912304 26.383819332738145" fill="#35ff63" stroke="none" /><line stroke="#e1ed5e" stroke-width="0.3" x1="56.762969772571076" x2="54.21961505331055" y1="26.818313649435495" y2="22.513508569990535" /><path d="M 56.25429882871897 25.957352633546506 a86.0,86.0 0 0,1 42.265352541879196,-11.944610805530505" fill="none" id="id60" stroke="none" /><text fill="#e1ed5e" style="font-size:6.75px; font-family:Arial;" text-anchor="middle"><textPath startOffset="22.20632615414155" xlink:href="#id60">December</textPath></text><path d="M 91.90106846888425 80.62456947434976 l -6.0745337101257855 -14.532374477309347 a36.75086879331444,36.75086879331444 0 0,0 0.5857670757982549,-0.23894909795346617 l 5.8234827647391505 14.63478446144639" fill="#ff910d" stroke="none" /></svg>