<?xml version="1.0" encoding="utf-8" ?>
<svg baseProfile="full" height="200mm" version="1.1" viewBox="0,0,200,200" width="200mm" xmlns="http://www.w3.org/2000/svg" xmlns:ev="http://www.w3.org/2001/xml-events" xmlns:xlink="http://www.w3.org/1999/xlink"><defs /><rect fill="#1a1a1a" height="200" width="200" x="0" y="0" /><text alignment-baseline="middle" fill="#e1ed5e" style="dominant-baseline: central; font-size:9.0px; font-family:Arial;" text-anchor="middle" x="100.0" y="100.0">2021</text><line stroke="#e1ed5e" stroke-width="0.3" x1="100.0" x2="100.0" y1="15.0" y2="10.0" /><path d="M 100.0 14.0 a86.0,86.0 0 0,1 42.46469731375804,11.215312516191453" fill="none" id="id37" stroke="none" /><text fill="#e1ed5e" style="font-size:6.75px; font-family:Arial;" text-anchor="middle"><textPath startOffset="22.20632615414155" xlink:href="#id37">January</textPath></text><path d="M 101.08401301168833 79.027996857942 l 0.38822627284941796 -7.510871665042687 a28.520898404291316,28.520898404291316 0 0,0 0.4900677402599076,0.029562224409424964 l -0.5174560619489376 7.503076171252959" fill="#ff5607" stroke="none" /><path d="M 102.16513564639614 79.11191278185805 l 0.6287992754581302 -6.066323895380927 a27.09882563552085,27.09882563552085 0 0,0 0.46356192686015807,0.05208658375448756 l -0.7331279058280136 6.054601358155839" fill="#ff4206" stroke="none" /><path d="M 103.2404852339499 79.25152402106235 l 1.1661338799196024 -7.466628930212639 a28.55714336289743,28.55714336289743 0 0,0 0.4850237616024085,0.08003307650835276 l -1.2944868476608862 7.445449590764662" fill="#ff5608" stroke="none" /><path d="M 103.95276090670814 79.375362276772 l 1.484494683341519 -7.745767014143787 a28.886737671703504,28.886737671703504 0 0,0 0.4875442929411012,0.0977967985854092 l -1.6176053857497454 7.7190662594811705" fill="#ff5b08" stroke="none" /><path d="M 104.66035177308747 79.52364482259891 l 1.6811479870078208 -7.386520366667367 a28.57541693119344,28.57541693119344 0 0,0 0.47867403864590047,0.11328667960956612 l -1.8080457126162446 7.356487774916932" fill="#ff5608" stroke="none" /><path d="M 105.71112130821622 79.79150937346287 l 2.049604841968554 -7.2524147188817745 a28.53647127393676,28.53647127393676 0 0,0 0.47154450874811765,0.13765677270539084 l -2.1741395684400984 7.21605961725768" fill="#ff5607" stroke="none" /><path d="M 106.40334571778207 80.00007090966166 l 2.295666237584506 -7.170183212078216 a28.52871906562821,28.52871906562821 0 0,0 0.4663999673643054,0.15376473631871332 l -2.418749027191229 7.129604751500267" fill="#ff5607" stroke="none" /><path d="M 107.08798089147638 80.2323363322302 l 2.543457981681106 -7.093447725774562 a28.535660498116513,28.535660498116513 0 0,0 0.46094287555783076,0.16976915112489627 l -2.665183183011513 7.048615306843341" fill="#ff5607" stroke="none" /><path d="M 108.09893153111575 80.62456947434976 l 3.111226296991665 -7.443123668269042 a29.067206394548194,29.067206394548194 0 0,0 0.4599764190747417,0.196937897458062 l -3.238886473856722 7.388466242848189" fill="#ff5d08" stroke="none" /><path d="M 108.76106565485865 80.91482961587045 l 3.100326864113015 -6.753775029100111 a28.43138639878435,28.43138639878435 0 0,0 0.44301757679249987,0.20800269252123899 l -3.2161226522051125 6.699407353938869" fill="#ff5407" stroke="none" /><path d="M 109.41281617654863 81.2277094730956 l 3.349538706150105 -6.680095791057587 a28.472823383548082,28.472823383548082 0 0,0 0.43623011011401136,0.22345400566979728 l -3.4640293038528718 6.621449260075289" fill="#ff5507" stroke="none" /><path d="M 110.36928655335952 81.73862282372117 l 0.7731368085811254 -1.3615732189202723 a22.565765676997653,22.565765676997653 0 0,0 0.33612596372317183,0.19470585361820425 l -0.7964595047696256 1.3480632079120185" fill="#ff0000" stroke="none" /><line stroke="#e1ed5e" stroke-width="0.3" x1="143.23703022742887" x2="145.7803849466894" y1="26.81831364943548" y2="22.513508569990506" /><path d="M 143.74570117128098 25.957352633546492 a86.0,86.0 0 0,1 28.547481713284135,27.462654790039103" fill="none" id="id38" stroke="none" /><text fill="#e1ed5e" style="font-size:6.75px; font-family:Arial;" text-anchor="middle"><textPath startOffset="19.985693538727396" xlink:href="#id38">February</textPath></text><path d="M 110.99172775467656 82.1063720568725 l 3.9127330629419044 -6.369607329408997 a28.475384776230555,28.475384776230555 0 0,0 0.41544345353654616,0.26015065249172953 l -4.0217956688507135 6.301312335594323" fill="#ff5507" stroke="none" /><path d="M 111.60114157652 82.49532879139004 l 4.479131026963487 -6.758448331151103 a29.10797376670313,29.10797376670313 0 0,0 0.41526725218294225,0.280390302386993 l -4.594802973552971 6.68034611646544" fill="#ff5e08" stroke="none" /><path d="M 111.90073688211348 82.69761687909136 l 8.597560878065975 -12.499922793958532 a36.17122680955547,36.17122680955547 0 0,0 0.5099606619698277,0.35726003314882365 l -8.811452679619453 12.350077918045773" fill="#ffbc11" stroke="none" /><path d="M 112.48926042617603 83.11751280151076 l 4.261658523205536 -5.760741069307573 a28.165742880959193,28.165742880959193 0 0,0 0.3872841232918767,0.29169437242154317 l -4.360188800255797 5.686530107380183" fill="#ff5107" stroke="none" /><path d="M 113.06298171725822 83.55741782278167 l 4.741765625091671 -5.9685355643323375 a28.622844483918122,28.622844483918122 0 0,0 0.3831325860879279,0.3097999061976966 l -4.84380160974409 5.8860295608705115" fill="#ff5708" stroke="none" /><path d="M 114.16331599549186 84.49514656593476 l 5.01687182632468 -5.492065727363167 a28.438534054196932,28.438534054196932 0 0,0 0.3585856959039581,0.33326632426181074 l -5.110665406023485 5.404894817026716" fill="#ff5407" stroke="none" /><path d="M 114.42810811169701 84.74124197986012 l 12.764809764001697 -13.499700851570042 a39.579082092316455,39.579082092316455 0 0,0 0.49100067083276694,0.4723422563218001 l -12.995293678446883 13.27797550848594" fill="#ffe815" stroke="none" /><path d="M 115.9244219780498 86.31012108654704 l 10.939748457972195 -9.404663600330817 a35.42656555660745,35.42656555660745 0 0,0 0.3935543688075893,0.46584423923023316 l -11.1000134402669 9.214960411471477" fill="#ffb310" stroke="none" /><path d="M 116.15771136456269 86.58626213691792 l 11.424020141220137 -9.483942871574133 a35.84767350726319,35.84767350726319 0 0,0 0.39005940247439086,0.4781667062907005 l -11.585578035770935 9.285891995675332" fill="#ffb811" stroke="none" /><path d="M 117.04232023915458 87.72973835380427 l 25.45700379156087 -18.32873064625291 a52.36879674368201,52.36879674368201 0 0,0 0.5204146188791403,0.7360895718212197 l -25.76873103024389 17.8878145740999" fill="#81ff25" stroke="none" /><line stroke="#e1ed5e" stroke-width="0.3" x1="172.23445277983987" x2="176.4835382374775" y1="55.19839476539836" y2="52.563006222186495" /><path d="M 173.08426987136738 54.67131705675599 a86.0,86.0 0 0,1 12.851231095245387,41.99856678651699" fill="none" id="id39" stroke="none" /><text fill="#e1ed5e" style="font-size:6.75px; font-family:Arial;" text-anchor="middle"><textPath startOffset="22.20632615414155" xlink:href="#id39">March</textPath></text><path d="M 118.21658344932153 89.55222093294921 l 27.45257378885701 -15.744907741114867 a52.647210420649365,52.647210420649365 0 0,0 0.4440976682517824,0.7900001980704462 l -27.719529098401225 15.270024033109626" fill="#7eff26" stroke="none" /><path d="M 119.04729006885535 91.15688171328212 l 7.5252830981592025 -3.4937761927022395 a29.29676791239417,29.29676791239417 0 0,0 0.20842234507496432,0.4592310099439156 l -7.584307760197514 3.363723173916261" fill="#ff6008" stroke="none" /><path d="M 120.08093135843002 93.85539295169968 l 11.739206162457792 -3.5921047505103463 a33.27648882471393,33.27648882471393 0 0,0 0.1628869912385206,0.5491739589953977 l -11.799299050808015 3.3895014047684184" fill="#ff960d" stroke="none" /><path d="M 120.53481517161879 95.60439243477599 l 14.939229515903527 -3.197836928646037 a36.27765491006573,36.27765491006573 0 0,0 0.12545280200579728,0.6117524162360575 l -14.99206161382432 2.9402088562465676" fill="#ffbe11" stroke="none" /><path d="M 120.73433829027371 96.67025291283417 l 8.882825159909357 -1.4265013326172118 a29.996637642668365,29.996637642668365 0 0,0 0.07748289565483862,0.5105154723210835 l -8.906063949003496 1.2733867479040462" fill="#ff6a09" stroke="none" /><path d="M 120.96714384426684 98.82574320788733 l 5.692657842249587 -0.3188151035775357 a26.70157841121166,26.70157841121166 0 0,0 0.021750841004104734,0.459125876186839 l -5.697302291487188 0.22077812076769693" fill="#ff3c05" stroke="none" /><path d="M 120.98425023603335 99.18683210126433 l 7.796944046991986 -0.30214206063769006 a28.80279605633328,28.80279605633328 0 0,0 0.014933983047290388,0.4955861929896534 l -7.800989724494922 0.16788572022303758" fill="#ff5908" stroke="none" /><line stroke="#e1ed5e" stroke-width="0.3" x1="184.98032266829074" x2="189.97916517819016" y1="98.17113171792111" y2="98.06355123074" /><path d="M 185.9800911702706 98.14961562048488 a86.0,86.0 0 0,1 -9.607161424134198,41.387399972396054" fill="none" id="id40" stroke="none" /><text fill="#e1ed5e" style="font-size:6.75px; font-family:Arial;" text-anchor="middle"><textPath startOffset="21.466115282336823" xlink:href="#id40">April</textPath></text><path d="M 120.99513854157772 99.54816195383933 l 8.518161823684514 -0.1833200380017484 a29.52013421788702,29.52013421788702 0 0,0 0.006560488394236206,0.5081170560454675 l -8.520055319196466 0.03666672389581817" fill="#ff6309" stroke="none" /><path d="M 120.99980553446 99.90962569577887 l 4.21437146732488 -0.018136876956497162 a25.214410493877857,25.214410493877857 0 0,0 -0.0018679107975671165,0.43403668601039974 l -4.2140592592378106 -0.05440928725758728" fill="#ff2703" stroke="none" /><path d="M 120.99824983174949 100.27111621757518 l 4.630519494110759 0.05978636032576784 a25.63090543999991,25.63090543999991 0 0,0 -0.009493122658991462,0.44110810745411977 l -4.62880430876676 -0.13948428357000245" fill="#ff2d04" stroke="none" /><path d="M 120.9904718944345 100.63252640178507 l 8.530447919833682 0.2570563232443566 a29.534320105685907,29.534320105685907 0 0,0 -0.01968654710330618,0.5080223055307358 l -8.524759239879174 -0.40385587578909854" fill="#ff6409" stroke="none" /><path d="M 120.9764740272857 100.99374915477107 l 11.847701350794164 0.5612784678691384 a32.86098903195275,32.86098903195275 0 0,0 -0.03163050008479243,0.5647838271820564 l -11.836284499821842 -0.7651340113866181" fill="#ff910d" stroke="none" /><path d="M 120.95626037817324 101.35467743843564 l 2.242645011564628 0.14497150468463815 a23.24732582975105,23.24732582975105 0 0,0 -0.029251159536831155,0.3991088317256078 l -2.239817293363459 -0.18355347290701618" fill="#ff0a01" stroke="none" /><path d="M 120.92983693683757 101.71520430193887 l 8.448368447071486 0.6923454754335568 a29.47668990082959,29.47668990082959 0 0,0 -0.04579470992523912,0.505340808013383 l -8.435199140869171 -0.8376676719955104" fill="#ff6309" stroke="none" /><path d="M 120.89721153311464 102.0752229133903 l 2.563822376397326 0.25460348778742065 a23.576433215456817,23.576433215456817 0 0,0 -0.043580136963723266,0.4034979435463216 l -2.5590599379325507 -0.2986977532185337" fill="#ff0f01" stroke="none" /><path d="M 120.81339534386255 102.79330883721812 l 31.39781582065642 4.2138149471632635 a52.6793161971151,52.6793161971151 0 0,0 -0.12835177166771036,0.8976919921006382 l -31.32062999797211 -4.753652411244311" fill="#7eff26" stroke="none" /><path d="M 120.64145759157962 103.86396538481128 l 4.739427858464325 0.8871943809039395 a25.82175178696449,25.82175178696449 0 0,0 -0.08554385726213735,0.43618628521354363 l -4.723454068226523 -0.9686443931854282" fill="#ff2f04" stroke="none" /><path d="M 120.41448212921028 104.9243191809786 l 2.2116512198855256 0.5334877688684392 a23.27508468368836,23.27508468368836 0 0,0 -0.09729948066915048,0.38866305877321783 l -2.2021404249213146 -0.5714786670390529" fill="#ff0a01" stroke="none" /><path d="M 120.32669344350535 105.2749913415812 l 1.5289061934499562 0.39676728312716625 a22.57955007053583,22.57955007053583 0 0,0 -0.10086814416448218,0.37536788830670226 l -1.5218499729436967 -0.42302610460941675" fill="#ff0000" stroke="none" /><path d="M 120.23288151984713 105.62410040840565 l 2.3362329645021496 0.649398789633528 a23.424809941501394,23.424809941501394 0 0,0 -0.11133183389073992,0.3875607191381243 l -2.32470849372531 -0.6895169842762343" fill="#ff0d01" stroke="none" /><path d="M 120.13307415673323 105.97154293290107 l 1.7775414872321225 0.5272252624405858 a22.85408204138515,22.85408204138515 0 0,0 -0.11511190566318756,0.37619236803758416 l -1.7682028090628021 -0.5577446030302271" fill="#ff0400" stroke="none" /><path d="M 120.02730092923936 106.31721596034902 l 2.453514584704536 0.7739126479502728 a23.572678488271567,23.572678488271567 0 0,0 -0.1253928976877407,0.3859196568922632 l -2.4398294360005486 -0.8160312048203313" fill="#ff0f01" stroke="none" /><path d="M 119.67450827220406 107.3425965602758 l 2.0266545422913964 0.7563546933531093 a23.163192329855953,23.163192329855953 0 0,0 -0.14262539386315154,0.37234989749860253 l -2.013334868834738 -0.7911281576848557" fill="#ff0901" stroke="none" /><path d="M 119.54520255179757 107.68017299344265 l 18.312800332050795 7.195907751367302 a40.67586705504354,40.67586705504354 0 0,0 -0.26167634771191617,0.649459235099894 l -18.186221370081487 -7.510066354310009" fill="#fff517" stroke="none" /><path d="M 119.26925614724726 108.34839909993367 l 17.919695904113887 7.763702553632869 a40.52922370800236,40.52922370800236 0 0,0 -0.282853288729924,0.637759494998542 l -17.78340153065269 -8.071010385124097" fill="#fff417" stroke="none" /><path d="M 118.81262510543309 109.33194174019688 l 6.7740873143858265 3.3602640676977424 a28.561721599449662,28.561721599449662 0 0,0 -0.22226640652268168,0.43855270648870137 l -6.7152422380768755 -3.476370985889138" fill="#ff5608" stroke="none" /><line stroke="#e1ed5e" stroke-width="0.3" x1="174.80103733775053" x2="179.2010983576182" y1="140.37084112569926" y2="142.7455964860345" /><path d="M 175.68104954172406 140.8457921977663 a86.0,86.0 0 0,1 -30.038265399797805,32.042727171017184" fill="none" id="id41" stroke="none" /><text fill="#e1ed5e" style="font-size:6.75px; font-family:Arial;" text-anchor="middle"><textPath startOffset="22.206326154141568" xlink:href="#id41">May</textPath></text><path d="M 118.12598468904814 110.60418214915192 l 20.133128250377013 11.778414406817296 a44.32539172414582,44.32539172414582 0 0,0 -0.39094810664187307,0.6552515140248589 l -19.92739926803691 -12.123228014728259" fill="#dcff1b" stroke="none" /><path d="M 117.75023020441432 111.22182372390056 l 2.3299245283539816 1.4729951130818701 a23.756494678207922,23.756494678207922 0 0,0 -0.22149552958105223,0.34376598068039715 l -2.304224135395879 -1.5128826936837203" fill="#ff1101" stroke="none" /><path d="M 117.55443506779139 111.5257021239791 l 8.88239531640497 5.831907558913613 a31.625821960328842,31.625821960328842 0 0,0 -0.30269961918378663,0.45249485985610294 l -8.780692591810462 -5.983939332975523" fill="#ff800b" stroke="none" /><path d="M 116.71984013943494 112.70617746262583 l 14.113455316719863 10.725465457180093 a38.72639924660989,38.72639924660989 0 0,0 -0.40790550033530654,0.5272728453981771 l -13.926742999166489 -10.966816296691523" fill="#ffdd14" stroke="none" /><path d="M 116.498646956653 112.99209946851258 l 11.177143583565424 8.801604252339734 a35.2266220903784,35.2266220903784 0 0,0 -0.37924325111654067,0.47316426708349046 l -11.02398242039403 -8.992696353001476" fill="#ffb010" stroke="none" /><path d="M 116.27256486870786 113.27417163493432 l 4.502144069516331 3.672576117295697 a26.810087482991268,26.810087482991268 0 0,0 -0.2947884020488918,0.3550916204375728 l -4.438259667573896 -3.7495289948470405" fill="#ff3d05" stroke="none" /><path d="M 115.32070863581623 114.36230785411682 l 45.96212590744871 43.08692356235047 a84.0,84.0 0 0,0 -0.997973794484142,1.0463715336699715 l -45.21364556158561 -43.87170221260295" fill="#4dd2ff" stroke="none" /><path d="M 114.55890576462653 115.13401014063108 l 6.561487391701211 6.820678581827225 a30.464395020710548,30.464395020710548 0 0,0 -0.3810430904239891,0.36030002550640555 l -6.4431084668864145 -6.932613244079552" fill="#ff700a" stroke="none" /><path d="M 114.29624159901734 115.38237550388516 l 6.977363138417473 7.507457052871958 a31.249171077021977,31.249171077021977 0 0,0 -0.3971627542497243,0.36279875936910944 l -6.847100834700885 -7.626448578827651" fill="#ff7b0b" stroke="none" /><path d="M 114.0293411484842 115.62618273729858 l 10.331215553485734 11.507130693349188 a36.46441307022043,36.46441307022043 0 0,0 -0.47066466711696286,0.41530684548822905 l -10.131608533462183 -11.683260680609706" fill="#ffc011" stroke="none" /><path d="M 113.75828350139079 115.86535959552629 l 20.87072972354454 24.067074359356003 a52.856105025756314,52.856105025756314 0 0,0 -0.6925018698216667,0.5901651169692465 l -20.453362377145826 -24.4227638665482" fill="#7cff26" stroke="none" /><path d="M 113.20401910651253 116.32954008644616 l 2.829584270952091 3.4993746531084557 a25.5002411167889,25.5002411167889 0 0,0 -0.3436977229527631,0.27305425770751784 l -2.7689290552819767 -3.5475628248210995" fill="#ff2b04" stroke="none" /><path d="M 112.63410532772338 116.77436683061366 l 4.696123242503868 6.23506705921421 a28.805743702023733,28.805743702023733 0 0,0 -0.39863724086089913,0.2949023007184361 l -4.588101031224404 -6.314979308672415" fill="#ff5908" stroke="none" /><path d="M 112.34349029814194 116.9893568818739 l 8.886483706402391 12.231195510053912 a36.11858909651685,36.11858909651685 0 0,0 -0.506129225131436,0.3611097635668823 l -8.67462715342207 -12.382349535465014" fill="#ffbc11" stroke="none" /><path d="M 111.7513745106137 117.40417183066458 l 17.94687185895071 26.579907003558223 a53.07150863054933,53.07150863054933 0 0,0 -0.7615137298297557,0.5046897760566607 l -17.48668343038099 -26.884894800706203" fill="#7aff26" stroke="none" /><line stroke="#e1ed5e" stroke-width="0.3" x1="143.8653032363475" x2="146.44561519142675" y1="172.8068346515853" y2="177.08958963109032" /><path d="M 144.38136562736335 173.6633856474863 a86.0,86.0 0 0,1 -40.68145358897372,12.25698825130547" fill="none" id="id42" stroke="none" /><text fill="#e1ed5e" style="font-size:6.75px; font-family:Arial;" text-anchor="middle"><textPath startOffset="21.466115282336833" xlink:href="#id42">June</textPath></text><path d="M 110.8373102113329 117.98757091392108 l 7.836301841574362 13.006551656222507 a36.18479543946003,36.18479543946003 0 0,0 -0.5362795676678874,0.3168434212698349 l -7.611254402878092 -13.139513649786092" fill="#ffbd11" stroke="none" /><path d="M 110.5260780823613 118.17145234162733 l 1.5029305485335136 2.5945495199410558 a23.998414155039562,23.998414155039562 0 0,0 -0.3592348134082113,0.20398290250590181 l -1.4580469682041033 -2.6200355882415858" fill="#ff1502" stroke="none" /><path d="M 110.21172684928248 118.3499491758327 l 2.316011724909927 4.161754233145776 a25.76278370357368,25.76278370357368 0 0,0 -0.3893580881084007,0.21230907412354608 l -2.2440308249328775 -4.201003959029092" fill="#ff2e04" stroke="none" /><path d="M 109.89434966115114 118.52300852407294 l 1.0434171589390302 1.953359805453148 a23.214573073332275,23.214573073332275 0 0,0 -0.3540875690167513,0.1852418808975534 l -1.0096386873957832 -1.9710311052954181" fill="#ff0a01" stroke="none" /><path d="M 109.57404056367764 118.69057910512821 l 22.039467341668168 43.02576378745836 a69.34205695043003,69.34205695043003 0 0,0 -1.0670292731795687,0.5350306287365864 l -21.295584160805838 -43.39876225710425" fill="#3bff98" stroke="none" /><path d="M 108.59647513512805 119.15986991738527 l 8.125711580465069 18.110629580223037 a40.849989735033965,40.849989735033965 0 0,0 -0.6440279543672728,0.28232292895767147 l -7.812762951440043 -18.24781706247516" fill="#fff817" stroke="none" /><path d="M 107.93186726928326 119.44442032107085 l 2.8652202264416333 7.023887882127809 a28.585808323884287,28.585808323884287 0 0,0 -0.4572081209666532,0.18193254703287606 l -2.743891029433114 -7.0721672735667545" fill="#ff5608" stroke="none" /><path d="M 107.59598834532513 119.57807347666477 l 1.8513700526811219 4.771763367198308 a26.118329483776932,26.118329483776932 0 0,0 -0.4205421420219,0.15901305375202177 l -1.7689576898989472 -4.802924671056961" fill="#ff3404" stroke="none" /><path d="M 106.91757812671514 119.82793768551818 l 0.9879467110771352 2.831763583297906 a23.99915382993609,23.99915382993609 0 0,0 -0.3912207971372664,0.13272333537053566 l -0.9390561810026418 -2.8483499055665646" fill="#ff1502" stroke="none" /><path d="M 105.88484417918355 120.15858648285463 l 2.1223622298457854 7.270170841503264 a28.573625650857075,28.573625650857075 0 0,0 -0.4733273227704726,0.1337670293537716 l -1.996903738970707 -7.305626664195554" fill="#ff5608" stroke="none" /><path d="M 105.18746579009965 120.34920634021253 l 1.866131271315087 7.320393393318999 a28.55450894199805,28.55450894199805 0 0,0 -0.4773317414218582,0.11731652861792247 l -1.7398462451500178 -7.351431180250952" fill="#ff5608" stroke="none" /><path d="M 104.83641907484287 120.43548508189849 l 7.2939558525560075 30.819398341277388 a52.67076105964881,52.67076105964881 0 0,0 -0.88406580903187,0.201210499864492 l -6.762369894131275 -30.940385574719564" fill="#7eff26" stroke="none" /><path d="M 104.13013068566511 120.58985236759428 l 0.887909580622486 4.426476683714296 a25.514651620538125,25.514651620538125 0 0,0 -0.4313584584862657,0.08267087521067676 l -0.8115835075645159 -4.4411047572734415" fill="#ff2b04" stroke="none" /><path d="M 103.41894727170886 120.7198165907248 l 1.1702076062348394 7.091799038520439 a28.187697784718644,28.187697784718644 0 0,0 -0.47941117791157856,0.07487416640094491 l -1.0479605647147436 -7.11089151226849" fill="#ff5107" stroke="none" /><path d="M 103.06178313531738 120.77559828337769 l 1.7306146355662724 11.743011461891793 a32.86985026067971,32.86985026067971 0 0,0 -0.5604644566818815,0.07767526673234863 l -1.5282215876975602 -11.771061294116745" fill="#ff910d" stroke="none" /><path d="M 102.70371172650421 120.8252237178851 l 0.9676385796129384 7.453194695630819 a28.515745844008745,28.515745844008745 0 0,0 -0.48731043784053857,0.05900650755493675 l -0.8392007187210195 -7.468746731911106" fill="#ff5507" stroke="none" /><path d="M 101.98527174616119 120.90594882070398 l 3.119134904923069 32.846120342609545 a53.99388767811847,53.99388767811847 0 0,0 -0.9260097835475868,0.07990002057044732 l -2.5532808036339407 -32.894944615458655" fill="#70ff27" stroke="none" /><path d="M 101.62511606390274 120.93702456842531 l 0.5825179187305279 7.5048128850069755 a28.52738623724124,28.52738623724124 0 0,0 -0.4899065626091343,0.03378682487350154 l -0.4532485953424633 -7.513728054396762" fill="#ff5607" stroke="none" /><line stroke="#e1ed5e" stroke-width="0.3" x1="102.19456741930631" x2="102.32365962044197" y1="184.97166512339345" y2="189.96999836594603" /><path d="M 102.22038585953345 185.97133177190398 a86.0,86.0 0 0,1 -42.740103519485714,-10.115201625700543" fill="none" id="id43" stroke="none" /><text fill="#e1ed5e" style="font-size:6.75px; font-family:Arial;" text-anchor="middle"><textPath startOffset="22.20632615414155" xlink:href="#id43">July</textPath></text><path d="M 100.54218724476979 120.99299961872073 l 0.4306044682770025 16.67261545814617 a37.678175152675266,37.678175152675266 0 0,0 -0.6484957767362534,0.011164442903205894 l -0.14354900164808115 -16.677557378328533" fill="#ffd013" stroke="none" /><path d="M 99.81925306533755 120.99922214144158 l -0.31080871052174847 36.10983039867395 a57.111167988248916,57.111167988248916 0 0,0 -0.9829656318221249,-0.01692264478193373 l 0.9323340322365412 -36.099130276612854" fill="#4fff2b" stroke="none" /><path d="M 99.09653310690486 120.98055641714683 l -0.6512682245963771 15.123929646197334 a36.13794564145002,36.13794564145002 0 0,0 -0.6212490266470576,-0.03211147851840482 l 0.9115053196569237 -15.110478360916728" fill="#ffbc11" stroke="none" /><path d="M 98.01472825383883 120.90594882070398 l -1.283787577789646 13.518953991977545 a34.57977273676156,34.57977273676156 0 0,0 -0.592083766329812,-0.06137190326454144 l 1.5163039407250511 -13.494852720257242" fill="#ffa80f" stroke="none" /><path d="M 96.93821686468263 120.77559828337769 l -2.155850755606691 14.628432935292905 a35.78643779355975,35.78643779355975 0 0,0 -0.6086491499554424,-0.0950584797210604 l 2.407335769170651 -14.589156148224738" fill="#ffb711" stroke="none" /><path d="M 96.58105272829116 120.7198165907248 l -2.480001280426986 15.029530317829872 a36.232766916272524,36.232766916272524 0 0,0 -0.6144922477925686,-0.10683735388441211 l 2.738342499691605 -14.984614385424454" fill="#ffbd11" stroke="none" /><path d="M 96.22490169976321 120.6578951692458 l -1.3761262540125787 7.530366002192742 a28.655072540084973,28.655072540084973 0 0,0 -0.4844513694536898,-0.09284625795977425 l 1.5055452380379635 -7.5055625458845" fill="#ff5708" stroke="none" /><path d="M 95.51606077576429 120.51570834832081 l -4.771174750290776 21.829918908528978 a43.345233676351725,43.345233676351725 0 0,0 -0.7275391186081864,-0.16558553473120902 l 5.146234018291826 -21.744556640220082" fill="#e8ff1a" stroke="none" /><path d="M 94.81253420990036 120.34920634021253 l -0.5972991832366241 2.3430639966281133 a23.41799818167633,23.41799818167633 0 0,0 -0.3897530559390021,-0.10293732448389147 l 0.6375426819871155 -2.3324353228406403" fill="#ff0d01" stroke="none" /><path d="M 94.46302465271185 120.25689768951611 l -3.061651336779574 11.20098140232635 a32.61187725061133,32.61187725061133 0 0,0 -0.5402216973850418,-0.15267204780969637 l 3.2540042022692295 -11.146620561178132" fill="#ff8e0d" stroke="none" /><path d="M 93.08242187328487 119.8279376855182 l -3.118691779866662 8.939143893832386 a30.46755152996004,30.46755152996004 0 0,0 -0.49369103910244033,-0.17702004193629622 l 3.2721023795988287 -8.884136310856132" fill="#ff700a" stroke="none" /><path d="M 92.7421414339146 119.70592522655815 l -5.246207347115633 14.244059561640158 a36.179457313240235,36.179457313240235 0 0,0 -0.5825405673494612,-0.22026699655667287 l 5.490618135225377 -14.151644314976853" fill="#ffbd11" stroke="none" /><path d="M 92.40401165467489 119.57807347666478 l -11.460621824137371 29.538867881402187 a52.68423217171007,52.68423217171007 0 0,0 -0.8426439624473762,-0.33530542284726095 l 11.967386862626606 -29.33721561414886" fill="#7eff26" stroke="none" /><path d="M 92.06813273071674 119.44442032107085 l -1.7132332538054862 4.199872030642282 a25.535867420429774,25.535867420429774 0 0,0 -0.4055685995810593,-0.16952770751747073 l 1.7852733128840077 -4.169759280104837" fill="#ff2b04" stroke="none" /><path d="M 91.7346041902142 119.30500536409082 l -2.969298944742507 6.935219241161648 a28.54413693845941,28.54413693845941 0 0,0 -0.450017790479149,-0.19727457454226827 l 3.088237409879399 -6.883080113324928" fill="#ff5607" stroke="none" /><path d="M 91.07499286063937 119.00905698771935 l -12.859784077432593 27.389599197025856 a51.2582912718466,51.2582912718466 0 0,0 -0.7954489421642176,-0.3818638315914385 l 13.329345687597051 -27.164181088934857" fill="#8dff24" stroke="none" /><path d="M 90.7491055286396 118.85261126421891 l -16.70699142215761 34.047563254741064 a58.92571852932574,58.92571852932574 0 0,0 -0.9067436037970079,-0.45466006663225683 l 17.29058893363738 -33.754935347199506" fill="#3dff2e" stroke="none" /><line stroke="#e1ed5e" stroke-width="0.3" x1="58.666819895761336" x2="56.23545636021788" y1="174.27360380694188" y2="178.64263932499728" /><path d="M 58.180547188652646 175.14741091055294 a86.0,86.0 0 0,1 -31.652253787137756,-30.449443065178592" fill="none" id="id44" stroke="none" /><text fill="#e1ed5e" style="font-size:6.75px; font-family:Arial;" text-anchor="middle"><textPath startOffset="22.20632615414155" xlink:href="#id44">August</textPath></text><path d="M 89.7882731507175 118.34994917583269 l -18.60584278603399 33.43374480499799 a59.262157250530755,59.262157250530755 0 0,0 -0.8871015336482696,-0.5037194027333509 l 19.178593086603467 -33.10852223647001" fill="#3aff2e" stroke="none" /><path d="M 89.4739219176387 118.17145234162733 l -5.274060541182546 9.104752883369924 a31.52198838904946,31.52198838904946 0 0,0 -0.4671740740829754,-0.2760146775770603 l 5.430002486293904 -9.012619633499114" fill="#ff7f0b" stroke="none" /><path d="M 89.1626897886671 117.98757091392108 l -4.622517460387928 7.672370634238741 a29.95728412079913,29.95728412079913 0 0,0 -0.4394031725116044,-0.26991731705496597 l 4.753899832831841 -7.591664850355397" fill="#ff6909" stroke="none" /><path d="M 88.8546689885994 117.79835938074946 l -9.173769066132571 14.649904838897308 a38.28518876574617,38.28518876574617 0 0,0 -0.555533034713883,-0.35456746689021995 l 9.424583902893378 -14.489822943183283" fill="#ffd814" stroke="none" /><path d="M 88.24862548938628 117.40417183066458 l -8.417245176980927 12.466216719473618 a36.04182753744678,36.04182753744678 0 0,0 -0.5111814379827453,-0.35159525424573845 l 8.630583499586562 -12.319480675862778" fill="#ffbb11" stroke="none" /><path d="M 87.95078237400918 117.19931262002967 l -9.707426190879826 13.8565891143556 a37.91860470415506,37.91860470415506 0 0,0 -0.5313528157396893,-0.3791061257380064 l 9.944506334468402 -13.687438726773374" fill="#ffd313" stroke="none" /><path d="M 87.65650970185807 116.9893568818739 l -8.853783808145764 12.186187961292251 a36.062956706746796,36.062956706746796 0 0,0 -0.49906843952977403,-0.36919890052281273 l 9.062237218094102 -12.031979112029672" fill="#ffbb11" stroke="none" /><path d="M 87.07902340077011 116.55440617244103 l -9.367152743546477 12.001233034135058 a36.224097505617365,36.224097505617365 0 0,0 -0.4882361610495635,-0.38788433451355653 l 9.572346397313398 -11.83821478561637" fill="#ffbd11" stroke="none" /><path d="M 86.79598089348748 116.32954008644616 l -10.187500982077548 12.59898250113057 a37.20245463883869,37.20245463883869 0 0,0 -0.4944912562457662,-0.4069326390969317 l 10.402862366868003 -12.421754743176455" fill="#ffca12" stroke="none" /><path d="M 86.51685102203217 116.09983520530335 l -10.976118847251247 13.106263597867866 a38.09530141430037,38.09530141430037 0 0,0 -0.4991110761560436,-0.42535328708373993 l 11.200095399984345 -12.915385920561175" fill="#ffd513" stroke="none" /><path d="M 86.24171649860922 115.8653595955263 l -1.5591171087476647 1.7978953246106972 a23.379763382575394,23.379763382575394 0 0,0 -0.30177445962293353,-0.2662808739024604 l 1.589833921277186 -1.7707913089359482" fill="#ff0c01" stroke="none" /><path d="M 85.97065885151581 115.62618273729859 l -13.026913438436347 14.50965713482353 a40.49950317066178,40.49950317066178 0 0,0 -0.5147302686961037,-0.4701938963170116 l 13.274743256599306 -14.283270471919943" fill="#fff316" stroke="none" /><path d="M 85.70375840098266 115.38237550388516 l -12.90396474126844 13.884322656713431 a39.954860107097204,39.954860107097204 0 0,0 -0.4997480948601105,-0.4725430163935579 l 13.141048670519368 -13.660145003573943" fill="#ffed16" stroke="none" /><path d="M 85.18274418774928 114.88116024355367 l -5.291574516360078 5.314396222649681 a28.499571192641923,28.499571192641923 0 0,0 -0.34465396601279397,-0.34913264794199717 l 5.382269107428406 -5.222523080727019" fill="#ff5507" stroke="none" /><path d="M 84.9287848128048 114.62390073753433 l -5.3596463750456165 5.200571792216535 a28.468049024446607,28.468049024446607 0 0,0 -0.3382186536486709,-0.354620906170273 l 5.448371580073244 -5.107543769463762" fill="#ff5507" stroke="none" /><path d="M 84.43433777217949 114.09645910891817 l -11.600795846984562 10.505826343555638 a36.65090577073295,36.65090577073295 0 0,0 -0.41946289782706253,-0.471271012404358 l 11.779917594459963 -10.304581161410416" fill="#ffc312" stroke="none" /><path d="M 83.95833913139862 113.55231037782056 l -11.704433422352885 9.888135389193808 a36.32217292727498,36.32217292727498 0 0,0 -0.399377858165071,-0.48107635794708764 l 11.872907280411493 -9.68519777413296" fill="#ffbe11" stroke="none" /><path d="M 83.50135304334701 112.99209946851258 l -11.822637663046525 9.309907951969654 a36.04822738351046,36.04822738351046 0 0,0 -0.37969629279073613,-0.4908086420073754 l 11.98114077305533 -9.105021315849026" fill="#ffbb11" stroke="none" /><path d="M 83.28015986056508 112.70617746262583 l -5.947488095923055 4.519770438798406 a28.470002641939452,28.470002641939452 0 0,0 -0.2931579670705033,-0.3927330040812302 l 6.024407329688644 -4.4167245552078676" fill="#ff5507" stroke="none" /><path d="M 83.06392112726016 112.41649034213515 l -28.52573381970286 20.913311820055274 a56.37066724328795,56.37066724328795 0 0,0 -0.5669820970977535,-0.7874885432131911 l 28.88149570917622 -20.419189671390942" fill="#57ff2a" stroke="none" /><path d="M 82.85270091963577 112.12312394758628 l -12.24343958818395 8.656100005994995 a35.99432826982578,35.99432826982578 0 0,0 -0.3533256274690593,-0.5089919186397045 l 12.390626122815144 -8.444066825168278" fill="#ffba11" stroke="none" /><path d="M 82.24976979558568 111.22182372390057 l -12.785728653803332 8.083229990950963 a36.126581381637315,36.126581381637315 0 0,0 -0.3277805333864372,-0.5284865874128727 l 12.922973826857726 -7.861947072172826" fill="#ffbc11" stroke="none" /><line stroke="#e1ed5e" stroke-width="0.3" x1="26.63291911575756" x2="22.317208475507996" y1="142.92168965132927" y2="145.44649492493687" /><path d="M 25.769776987707644 143.4266507060508 a86.0,86.0 0 0,1 -11.730757126820373,-40.83630448921669" fill="none" id="id45" stroke="none" /><text fill="#e1ed5e" style="font-size:6.75px; font-family:Arial;" text-anchor="middle"><textPath startOffset="21.46611528233685" xlink:href="#id45">September</textPath></text><path d="M 81.87401531095188 110.60418214915194 l -13.101107750403813 7.664495768049985 a36.178389890437884,36.178389890437884 0 0,0 -0.3098386287722033,-0.5402297656400848 l 13.231098375328394 -7.437846156551593" fill="#ffbd11" stroke="none" /><path d="M 81.69416730710424 110.29060199501025 l -27.793305236965843 15.6239733596192 a52.88379462261736,52.88379462261736 0 0,0 -0.4392467304716905,-0.7973604036435883 l 28.05812837688905 -15.143242437577788" fill="#7cff26" stroke="none" /><path d="M 81.18737489456691 109.33194174019688 l -2.8505430244420995 1.414002632962472 a24.18198035509654,24.18198035509654 0 0,0 -0.18176413560280147,-0.37448795610037716 l 2.8744604166596197 -1.36472572089681" fill="#ff1802" stroke="none" /><path d="M 81.02952815118164 109.00673069616217 l -6.787297895143272 3.222448275581059 a28.513427021420494,28.513427021420494 0 0,0 -0.20668892159739877,-0.4451895492111155 l 6.841761433580498 -3.105138659091116" fill="#ff5507" stroke="none" /><path d="M 80.87730276802145 108.67885076344099 l -15.178120792385405 6.888601729587929 a37.66817880205045,37.66817880205045 0 0,0 -0.26288606787508145,-0.5927386831632449 l 15.294447944991767 -6.626314709931989" fill="#ffd013" stroke="none" /><path d="M 80.58989483394504 108.01547362559985 l -9.45767486544752 3.905581283303314 a31.232359406364054,31.232359406364054 0 0,0 -0.20092429077968893,-0.4986776120340272 l 9.523501770484597 -3.7422043034264814" fill="#ff7b0b" stroke="none" /><path d="M 80.20201598880116 107.00284435728193 l -14.16655769861314 5.0109242731848544 a36.02666693248135,36.02666693248135 0 0,0 -0.20176506484829523,-0.5864237225824911 l 14.250713594404663 -4.766327847513066" fill="#ffbb11" stroke="none" /><path d="M 79.86692584326677 105.97154293290107 l -14.679960804748264 4.3541297030161665 a36.312076759853085,36.312076759853085 0 0,0 -0.1725815538376342,-0.6007790294816308 l 14.752734995472002 -4.1007931980299395" fill="#ffbe11" stroke="none" /><path d="M 79.76711848015287 105.62410040840567 l -8.726312394998406 2.425638535788591 a30.05716568918806,30.05716568918806 0 0,0 -0.13427240633413015,-0.4996775745305073 l 8.766772877674311 -2.2750700280825447" fill="#ff6b09" stroke="none" /><path d="M 79.50377843672027 104.57218783832718 l -11.369053197322852 2.5361477773650867 a32.648494158138675,32.648494158138675 0 0,0 -0.1176371283178592,-0.5495615000844823 l 11.411024364365153 -2.3400724578644403" fill="#ff8e0d" stroke="none" /><path d="M 79.23777060512086 103.15116336523772 l -7.487671278450905 1.1364326525270307 a28.573420650397562,28.573420650397562 0 0,0 -0.06961838967997609,-0.48691085527397593 l 7.50612371914748 -1.0073763252726542" fill="#ff5608" stroke="none" /><path d="M 79.18660465613746 102.79330883721812 l -14.899981594163954 1.9996857587985295 a36.03356892558671,36.03356892558671 0 0,0 -0.07721220086195592,-0.6154572106318519 l 14.932195304272758 -1.7429107938792692" fill="#ffbb11" stroke="none" /><path d="M 79.1416061653843 102.43462659150553 l -30.11880472676774 3.515517228870191 a51.32327916890998,51.32327916890998 0 0,0 -0.09486912270267105,-0.8783702526781137 l 30.17485615097146 -2.996550654307295" fill="#8dff24" stroke="none" /><path d="M 79.07016306316243 101.71520430193888 l -6.896202094874441 0.5651451339952863 a27.91932022353563,27.91932022353563 0 0,0 -0.035129739050391885,-0.4793173786349458 l 6.904908392589168 -0.4463546188635799" fill="#ff4d07" stroke="none" /><path d="M 79.0235259727143 100.99374915477108 l -20.465779186763857 0.9695552618673244 a41.488732394347664,41.488732394347664 0 0,0 -0.027654941153721798,-0.7136511492088493 l 20.479436260768782 -0.6171268656444783" fill="#ffff18" stroke="none" /><line stroke="#e1ed5e" stroke-width="0.3" x1="15.007084014347285" x2="10.007500721073583" y1="101.09737516637583" y2="101.16192664675087" /><path d="M 14.007167355692545 101.11028546245083 a86.0,86.0 0 0,1 10.666146001902534,-42.60595125391555" fill="none" id="id46" stroke="none" /><text fill="#e1ed5e" style="font-size:6.75px; font-family:Arial;" text-anchor="middle"><textPath startOffset="22.20632615414155" xlink:href="#id46">October</textPath></text><path d="M 79.05617556472873 98.46500227214037 l -18.580819854552292 -1.3618103201091656 a39.63065736401377,39.63065736401377 0 0,0 0.05571979120215027,-0.6799225857219635 l 18.554625579530647 1.6814468230389075" fill="#ffe815" stroke="none" /><path d="M 79.08570108090925 98.10471618934814 l -1.6452327143318535 -0.1490933518876726 a22.651974428338665,22.651974428338665 0 0,0 0.03853303026442439,-0.3880223561776639 l 1.6424225583852003 0.17739123876976678" fill="#ff0100" stroke="none" /><path d="M 79.21141760316559 97.0276538004421 l -31.50112291188194 -4.504022505315059 a52.82148587727917,52.82148587727917 0 0,0 0.13644068136292972,-0.8989736160622929 l 31.418926337079707 5.045595233769443" fill="#7cff26" stroke="none" /><path d="M 79.32604984820605 96.31383870115002 l -16.323085725944697 -2.9104030163082713 a37.58051788497198,37.58051788497198 0 0,0 0.11903052105768618,-0.6358658030876388 l 16.270569480977148 3.190946896858483" fill="#ffcf13" stroke="none" /><path d="M 79.71946130924805 94.55025226153421 l -14.5623190545512 -3.9131586465475263 a36.078923928437156,36.078923928437156 0 0,0 0.16632938761917157,-0.5983753042420239 l 14.492802896365667 4.163245254208492" fill="#ffbb11" stroke="none" /><path d="M 80.14247586403 93.16781622104843 l -13.49514063509473 -4.643140822110377 a35.2715653470435,35.2715653470435 0 0,0 0.20247040655245593,-0.5724111042819675 l 13.413217147732464 4.8747495528189555" fill="#ffb110" stroke="none" /><path d="M 80.38941819471856 92.48833698450439 l -12.188945170473735 -4.668869569708184 a34.05253720269596,34.05253720269596 0 0,0 0.2143792886233372,-0.5455719060795758 l 12.106772331968706 4.877990480683523" fill="#ffa10e" stroke="none" /><path d="M 80.52162464483688 92.15188598940014 l -14.292397922694185 -5.758610065619874 a36.40890094291256,36.40890094291256 0 0,0 0.23922089211573938,-0.5792923650892142 l 14.191155343692245 6.003777001162399" fill="#ffc011" stroke="none" /><path d="M 80.95270993114464 91.15688171328213 l -15.817843712281237 -7.343777644109008 a38.439473896659564,38.439473896659564 0 0,0 0.283796450510045,-0.5977477018924746 l 15.68908906792944 7.614967761642015" fill="#ffd914" stroke="none" /><path d="M 81.6062741919709 89.86733742301443 l -30.651733987572968 -16.88530540995796 a55.99489013031033,55.99489013031033 0 0,0 0.4723365196787794,-0.8402339637833697 l 30.356539826601757 17.410422883676116" fill="#5bff2a" stroke="none" /><line stroke="#e1ed5e" stroke-width="0.3" x1="26.266209847984243" x2="21.928928074336255" y1="57.711370442889674" y2="55.22380399835377" /><path d="M 25.398753493254645 57.213857153982495 a86.0,86.0 0 0,1 29.58750427330803,-30.492523968695096" fill="none" id="id47" stroke="none" /><text fill="#e1ed5e" style="font-size:6.75px; font-family:Arial;" text-anchor="middle"><textPath startOffset="21.46611528233685" xlink:href="#id47">November</textPath></text><path d="M 81.96595687620814 89.24020034530311 l -2.56560659058726 -1.5307389872584776 a23.98755736761286,23.98755736761286 0 0,0 0.2146134793846437,-0.35276813129347273 l 2.5388773129163993 1.5746748917590248" fill="#ff1502" stroke="none" /><path d="M 82.15384107792192 88.93136811851018 l -4.830183857325853 -2.9958002318646217 a26.683792318937364,26.683792318937364 0 0,0 0.24545582397726898,-0.3882521671884124 l 4.7779004371026215 3.0785000467672496" fill="#ff3c05" stroke="none" /><path d="M 82.34701348167596 88.62581576622439 l -4.437424398388409 -2.8591242948228572 a26.278761883686272,26.278761883686272 0 0,0 0.24827594173101875,-0.37814129248962897 l 4.38755182129947 2.935083651290153" fill="#ff3605" stroke="none" /><path d="M 82.7489923806493 88.02491185347247 l -6.024249587918036 -4.181838036583965 a28.33344069736376,28.33344069736376 0 0,0 0.2815634052892867,-0.39825146896584085 l 5.951373562824871 4.284916005881592" fill="#ff5307" stroke="none" /><path d="M 83.17141714833178 87.43820079747576 l -4.137249201745825 -3.0882751198496083 a26.162777757489525,26.162777757489525 0 0,0 0.2724966174348807,-0.3585736068498448 l 4.0834766440868355 3.15903350258048" fill="#ff3405" stroke="none" /><path d="M 83.39014120810768 87.1503855733568 l -3.1196317239533076 -2.4133898612967872 a24.944179599828843,24.944179599828843 0 0,0 0.2656506657348968,-0.3373493682358388 l 3.0776269776244396 2.4667316234856735" fill="#ff2303" stroke="none" /><path d="M 84.5562425177563 85.77008943001954 l -1.303628162015228 -1.2011657255893167 a22.77263800171657,22.77263800171657 0 0,0 0.26810191804579775,-0.28599243330560886 l 1.2827589219989741 1.2234275757729756" fill="#ff0300" stroke="none" /><path d="M 84.80347519578584 85.50635884689758 l -9.173121861119299 -8.74883818646965 a33.67629024170614,33.67629024170614 0 0,0 0.40369170094016116,-0.4160397833211692 l 9.021165896476019 8.905442165340943" fill="#ff9c0e" stroke="none" /><path d="M 87.80319425747018 82.90503203632743 l -11.193639307973507 -15.688936054746316 a40.2727858776807,40.2727858776807 0 0,0 0.5677865628855325,-0.39777077215015305 l 10.921921605504314 15.879291669660411" fill="#fff016" stroke="none" /><path d="M 88.09926311788651 82.69761687909137 l -2.970807986865846 -4.319233210227861 a26.242277712899345,26.242277712899345 0 0,0 0.3743839624221208,-0.25278572264141713 l 2.8960193300371855 4.369730845167944" fill="#ff3505" stroke="none" /><path d="M 88.39885842347998 82.49532879139004 l -32.97852247489614 -49.76046443887775 a80.69662273361908,80.69662273361908 0 0,0 1.1644636950538998,-0.7573995789280212 l 32.11709175405795 50.320762941965306" fill="#49f1ff" stroke="none" /><line stroke="#e1ed5e" stroke-width="0.3" x1="56.762969772571076" x2="54.21961505331055" y1="26.818313649435495" y2="22.513508569990535" /><path d="M 56.25429882871897 25.957352633546506 a86.0,86.0 0 0,1 42.265352541879196,-11.944610805530505" fill="none" id="id48" stroke="none" /><text fill="#e1ed5e" style="font-size:6.75px; font-family:Arial;" text-anchor="middle"><textPath startOffset="22.20632615414155" xlink:href="#id48">December</textPath></text><path d="M 96.75951476605007 79.25152402106235 l -1.1103996899057762 -7.109768948074111 a28.19595733494451,28.19595733494451 0 0,0 0.4801785223565011,-0.07076583218636007 l 0.9878521871206263 7.12782926442144" fill="#ff5107" stroke="none" /></svg>