<?xml version="1.0" encoding="utf-8" ?>
<svg baseProfile="full" height="200mm" version="1.1" viewBox="0,0,200,200" width="200mm" xmlns="http://www.w3.org/2000/svg" xmlns:ev="http://www.w3.org/2001/xml-events" xmlns:xlink="http://www.w3.org/1999/xlink"><defs /><rect fill="#1a1a1a" height="200" width="200" x="0" y="0" /><text alignment-baseline="middle" fill="#e1ed5e" style="dominant-baseline: central; font-size:9.0px; font-family:Arial;" text-anchor="middle" x="100.0" y="100.0">2019</text><line stroke="#e1ed5e" stroke-width="0.3" x1="100.0" x2="100.0" y1="15.0" y2="10.0" /><path d="M 100.0 14.0 a86.0,86.0 0 0,1 42.46469731375804,11.215312516191453" fill="none" id="id13" stroke="none" /><text fill="#e1ed5e" style="font-size:6.75px; font-family:Arial;" text-anchor="middle"><textPath startOffset="22.20632615414155" xlink:href="#id13">January</textPath></text><path d="M 100.0 79.0 l 0.0 -63.0 a84.0,84.0 0 0,0 1.4459219170901134,0.012445506434235476 l -1.084441437817585 62.990665870174325" fill="#4dd2ff" stroke="none" /><line stroke="#e1ed5e" stroke-width="0.3" x1="143.23703022742887" x2="145.7803849466894" y1="26.81831364943548" y2="22.513508569990506" /><path d="M 143.74570117128098 25.957352633546492 a86.0,86.0 0 0,1 28.547481713284135,27.462654790039103" fill="none" id="id14" stroke="none" /><text fill="#e1ed5e" style="font-size:6.75px; font-family:Arial;" text-anchor="middle"><textPath startOffset="19.985693538727396" xlink:href="#id14">February</textPath></text><line stroke="#e1ed5e" stroke-width="0.3" x1="172.23445277983987" x2="176.4835382374775" y1="55.19839476539836" y2="52.563006222186495" /><path d="M 173.08426987136738 54.67131705675599 a86.0,86.0 0 0,1 12.851231095245387,41.99856678651699" fill="none" id="id15" stroke="none" /><text fill="#e1ed5e" style="font-size:6.75px; font-family:Arial;" text-anchor="middle"><textPath startOffset="22.20632615414155" xlink:href="#id15">March</textPath></text><line stroke="#e1ed5e" stroke-width="0.3" x1="184.98032266829074" x2="189.97916517819016" y1="98.17113171792111" y2="98.06355123074" /><path d="M 185.9800911702706 98.14961562048488 a86.0,86.0 0 0,1 -9.607161424134198,41.387399972396054" fill="none" id="id16" stroke="none" /><text fill="#e1ed5e" style="font-size:6.75px; font-family:Arial;" text-anchor="middle"><textPath startOffset="21.466115282336823" xlink:href="#id16">April</textPath></text><line stroke="#e1ed5e" stroke-width="0.3" x1="174.80103733775053" x2="179.2010983576182" y1="140.37084112569926" y2="142.7455964860345" /><path d="M 175.68104954172406 140.8457921977663 a86.0,86.0 0 0,1 -30.038265399797805,32.042727171017184" fill="none" id="id17" stroke="none" /><text fill="#e1ed5e" style="font-size:6.75px; font-family:Arial;" text-anchor="middle"><textPath startOffset="22.206326154141568" xlink:href="#id17">May</textPath></text><line stroke="#e1ed5e" stroke-width="0.3" x1="143.8653032363475" x2="146.44561519142675" y1="172.8068346515853" y2="177.08958963109032" /><path d="M 144.38136562736335 173.6633856474863 a86.0,86.0 0 0,1 -40.68145358897372,12.25698825130547" fill="none" id="id18" stroke="none" /><text fill="#e1ed5e" style="font-size:6.75px; font-family:Arial;" text-anchor="middle"><textPath startOffset="21.466115282336833" xlink:href="#id18">June</textPath></text><path d="M 105.18746579009965 120.34920634021253 l 4.6927518161977835 18.408559954933466 a39.99728925986041,39.99728925986041 0 0,0 -0.6686150958976017,0.16432932324716765 l -4.375183435556971 -18.486610536494663" fill="#ffb110" stroke="none" /><path d="M 104.83641907484287 120.43548508189849 l 3.4646926347218674 14.639482963440816 a36.04388767872088,36.04388767872088 0 0,0 -0.6049878163950474,0.13769325734028776 l -3.212184668933958 -14.696952954358787" fill="#ff760a" stroke="none" /><path d="M 103.7750983002368 120.6578951692458 l 1.3554517571930558 7.4172321036799715 a28.54006508897228,28.54006508897228 0 0,0 -0.4840273112234342,0.08415435235296047 l -1.2275754744975715 -7.439465034553939" fill="#ff0000" stroke="none" /><path d="M 102.34483914955558 120.86867818915974 l 2.6009712521081743 23.1482112748709 a44.29387766517961,44.29387766517961 0 0,0 -0.7584111703970344,0.07861241876783912 l -2.202127485105537 -23.189553062094497" fill="#ffed16" stroke="none" /><line stroke="#e1ed5e" stroke-width="0.3" x1="102.19456741930631" x2="102.32365962044197" y1="184.97166512339345" y2="189.96999836594603" /><path d="M 102.22038585953345 185.97133177190398 a86.0,86.0 0 0,1 -42.740103519485714,-10.115201625700543" fill="none" id="id19" stroke="none" /><text fill="#e1ed5e" style="font-size:6.75px; font-family:Arial;" text-anchor="middle"><textPath startOffset="22.20632615414155" xlink:href="#id19">July</textPath></text><path d="M 100.54218724476979 120.99299961872073 l 0.6335000691081952 24.528549569428737 a45.53672892456292,45.53672892456292 0 0,0 -0.7837528297032161,0.01349301573170668 l -0.21118754951231106 -24.535820062439605" fill="#fffe18" stroke="none" /><path d="M 97.2962882734958 120.8252237178851 l -2.9592489677926164 22.793488368999817 a43.98478336815711,43.98478336815711 0 0,0 -0.7499853974751457,-0.10394114220754484 l 3.351162956454593 -22.73917266129967" fill="#ffe915" stroke="none" /><path d="M 96.22490169976321 120.6578951692458 l -4.414373681641633 24.156104424488884 a45.55614130860103,45.55614130860103 0 0,0 -0.7701859771286459,-0.14760797557477606 l 4.8295272733419745 -24.07653925056564" fill="#ffff18" stroke="none" /><path d="M 94.46302465271185 120.25689768951611 l -5.20448787397366 19.04049987165766 a40.73897994813648,40.73897994813648 0 0,0 -0.6748486365317997,-0.1907189655647181 l 5.531467678610073 -18.948092112754416" fill="#ffbb11" stroke="none" /><path d="M 93.42475214034765 119.94407469862007 l -7.738349748156862 23.47200116490335 a45.714710103701876,45.714710103701876 0 0,0 -0.7452156627855984,-0.2528176136315301 l 8.141235143879687 -23.335320564373696" fill="#fdff18" stroke="none" /><path d="M 92.7421414339146 119.70592522655815 l -8.423932516127106 22.87195083299993 a45.373936365376636,45.373936365376636 0 0,0 -0.7305847184029415,-0.2762446268506511 l 8.81638745529033 -22.723557956042644" fill="#fffc17" stroke="none" /><path d="M 91.07499286063937 119.00905698771935 l -8.839743449242372 18.827456870303937 a41.79937971314477,41.79937971314477 0 0,0 -0.6486613492362646,-0.31139686671868805 l 9.162517466478878 -18.67250572708569" fill="#ffca12" stroke="none" /><line stroke="#e1ed5e" stroke-width="0.3" x1="58.666819895761336" x2="56.23545636021788" y1="174.27360380694188" y2="178.64263932499728" /><path d="M 58.180547188652646 175.14741091055294 a86.0,86.0 0 0,1 -31.652253787137756,-30.449443065178592" fill="none" id="id20" stroke="none" /><text fill="#e1ed5e" style="font-size:6.75px; font-family:Arial;" text-anchor="middle"><textPath startOffset="22.20632615414155" xlink:href="#id20">August</textPath></text><path d="M 89.1626897886671 117.98757091392108 l -21.45281671780216 35.606996061743004 a62.57019982714293,62.57019982714293 0 0,0 -0.9177582386262801,-0.5637620685784982 l 22.06255415636075 -35.23244552633613" fill="#30ff2f" stroke="none" /><line stroke="#e1ed5e" stroke-width="0.3" x1="26.63291911575756" x2="22.317208475507996" y1="142.92168965132927" y2="145.44649492493687" /><path d="M 25.769776987707644 143.4266507060508 a86.0,86.0 0 0,1 -11.730757126820373,-40.83630448921669" fill="none" id="id21" stroke="none" /><text fill="#e1ed5e" style="font-size:6.75px; font-family:Arial;" text-anchor="middle"><textPath startOffset="21.46611528233685" xlink:href="#id21">September</textPath></text><path d="M 81.87401531095188 110.60418214915194 l -18.526198893521364 10.838318081390497 a42.46367126741622,42.46367126741622 0 0,0 -0.3636669768326886,-0.6340840276885028 l 18.71001786650643 -10.517814207843688" fill="#ffd413" stroke="none" /><path d="M 79.97269907076064 106.31721596034903 l -48.15121499922268 15.18834839392609 a71.48985475158989,71.48985475158989 0 0,0 -0.3600815557211245,-1.1767673582760212 l 48.405523327449934 -14.35725406309802" fill="#3cffa1" stroke="none" /><path d="M 79.35854240842038 103.8639653848113 l -23.889763111557443 4.472030005868187 a45.30472863250516,45.30472863250516 0 0,0 -0.13689267669476543,-0.76776682968708 l 23.9632022305914 -4.060144425447893" fill="#fffb17" stroke="none" /><line stroke="#e1ed5e" stroke-width="0.3" x1="15.007084014347285" x2="10.007500721073583" y1="101.09737516637583" y2="101.16192664675087" /><path d="M 14.007167355692545 101.11028546245083 a86.0,86.0 0 0,1 10.666146001902534,-42.60595125391555" fill="none" id="id22" stroke="none" /><text fill="#e1ed5e" style="font-size:6.75px; font-family:Arial;" text-anchor="middle"><textPath startOffset="22.20632615414155" xlink:href="#id22">October</textPath></text><path d="M 79.00175016825051 100.2711162175752 l -34.89234768266664 0.4505080852852851 a55.89525590023663,55.89525590023663 0 0,0 -0.004140781005139086,-0.9621716772055062 l 34.894932760961275 0.15017307012389647" fill="#7cff26" stroke="none" /><path d="M 80.803312248108 91.48605970444005 l -30.450183751605156 -13.504988454294374 a54.31063499330421,54.31063499330421 0 0,0 0.38637538248803643,-0.8513269393146384 l 30.21320605215377 14.027137402451084" fill="#8fff24" stroke="none" /><line stroke="#e1ed5e" stroke-width="0.3" x1="26.266209847984243" x2="21.928928074336255" y1="57.711370442889674" y2="55.22380399835377" /><path d="M 25.398753493254645 57.213857153982495 a86.0,86.0 0 0,1 29.58750427330803,-30.492523968695096" fill="none" id="id23" stroke="none" /><text fill="#e1ed5e" style="font-size:6.75px; font-family:Arial;" text-anchor="middle"><textPath startOffset="21.46611528233685" xlink:href="#id23">November</textPath></text><path d="M 82.15384107792192 88.93136811851018 l -15.715123146254705 -9.746910460546237 a39.492359477034185,39.492359477034185 0 0,0 0.36327781000463,-0.5746182540725518 l 15.545017740004113 10.015976362333005" fill="#ffa90f" stroke="none" /><path d="M 83.6137871275137 86.86637796730984 l -39.36543588420721 -31.551570828386843 a71.4493722864055,71.4493722864055 0 0,0 0.7774423479828032,-0.9530523928089407 l 38.81649504414801 32.224507390803865" fill="#3cffa1" stroke="none" /><line stroke="#e1ed5e" stroke-width="0.3" x1="56.762969772571076" x2="54.21961505331055" y1="26.818313649435495" y2="22.513508569990535" /><path d="M 56.25429882871897 25.957352633546506 a86.0,86.0 0 0,1 42.265352541879196,-11.944610805530505" fill="none" id="id24" stroke="none" /><text fill="#e1ed5e" style="font-size:6.75px; font-family:Arial;" text-anchor="middle"><textPath startOffset="22.20632615414155" xlink:href="#id24">December</textPath></text><path d="M 89.3179101791058 81.91981866633112 l -13.496803603405723 -22.84428053555381 a47.53346680507446,47.53346680507446 0 0,0 0.7080297016132634,-0.4101365033294137 l 13.10157716932714 23.07322119627327" fill="#e5ff1a" stroke="none" /><path d="M 91.23893434514133 80.91482961587045 l -9.205625026790454 -20.05360181626639 a43.0655948920312,43.0655948920312 0 0,0 0.6763715844884682,-0.30346821420151604 l 8.859071323835211 20.209090360984433" fill="#ffdc14" stroke="none" /></svg>