<?xml version="1.0" encoding="utf-8" ?>
<svg baseProfile="full" height="200mm" version="1.1" viewBox="0,0,200,200" width="200mm" xmlns="http://www.w3.org/2000/svg" xmlns:ev="http://www.w3.org/2001/xml-events" xmlns:xlink="http://www.w3.org/1999/xlink"><defs /><rect fill="#1a1a1a" height="200" width="200" x="0" y="0" /><text alignment-baseline="middle" fill="#e1ed5e" style="dominant-baseline: central; font-size:9.0px; font-family:Arial;" text-anchor="middle" x="100.0" y="100.0">2020</text><line stroke="#e1ed5e" stroke-width="0.3" x1="100.0" x2="100.0" y1="15.0" y2="10.0" /><path d="M 100.0 14.0 a86.0,86.0 0 0,1 42.35913384403234,11.155469271406648" fill="none" id="id25" stroke="none" /><text fill="#e1ed5e" style="font-size:6.75px; font-family:Arial;" text-anchor="middle"><textPath startOffset="22.145653131862478" xlink:href="#id25">January</textPath></text><line stroke="#e1ed5e" stroke-width="0.3" x1="143.13028292997686" x2="145.6673583964461" y1="26.7553504044142" y2="22.446841604673864" /><path d="M 143.63769802327073 25.89364864446614 a86.0,86.0 0 0,1 29.32050498858742,28.57503671076993" fill="none" id="id26" stroke="none" /><text fill="#e1ed5e" style="font-size:6.75px; font-family:Arial;" text-anchor="middle"><textPath startOffset="20.669276256404974" xlink:href="#id26">February</textPath></text><path d="M 113.03279911837588 83.53348406188908 l 15.693518455487448 -19.82824790170827 a46.28726826615171,46.28726826615171 0 0,0 0.6188149956229303,0.4984735568586876 l -16.031584221465636 19.555926051056172" fill="#e9ff1a" stroke="none" /><line stroke="#e1ed5e" stroke-width="0.3" x1="172.87174338648825" x2="177.1583165268699" y1="56.24261187166439" y2="53.66864786411523" /><path d="M 173.72905801456457 55.72781907015455 a86.0,86.0 0 0,1 12.242430191666344,42.057860355516425" fill="none" id="id27" stroke="none" /><text fill="#e1ed5e" style="font-size:6.75px; font-family:Arial;" text-anchor="middle"><textPath startOffset="22.145653131862474" xlink:href="#id27">March</textPath></text><path d="M 120.51834098615036 95.52812308129327 l 33.32089200115011 -7.2621333250695494 a55.10308525901132,55.10308525901132 0 0,0 0.19349655464950397,0.9259510605391826 l -33.440646266623986 6.689065813244962" fill="#7dff26" stroke="none" /><line stroke="#e1ed5e" stroke-width="0.3" x1="184.99686870605535" x2="189.99668451229388" y1="99.2704041080226" y2="99.22748670261217" /><path d="M 185.99683186730306 99.26182062694052 a86.0,86.0 0 0,1 -10.086455211305974,41.156179273409016" fill="none" id="id28" stroke="none" /><text fill="#e1ed5e" style="font-size:6.75px; font-family:Arial;" text-anchor="middle"><textPath startOffset="21.40746469413373" xlink:href="#id28">April</textPath></text><path d="M 120.9064616781168 101.97986365728391 l 17.42676452990569 1.650332719520836 a38.50473421865925,38.50473421865925 0 0,0 -0.06796563693404874,0.6575058838813749 l -17.395866500489976 -1.9492431256851421" fill="#ffac0f" stroke="none" /><path d="M 120.65975698304385 103.76489593502545 l 28.197469380462366 5.13851822824619 a49.6618500631786,49.6618500631786 0 0,0 -0.1600381679001324,0.8373873201462699 l -28.105104920280073 -5.621808113425775" fill="#beff1f" stroke="none" /><line stroke="#e1ed5e" stroke-width="0.3" x1="174.33088141563837" x2="178.70328620479359" y1="141.23008692659167" y2="143.65538615756765" /><path d="M 175.20536237346943 141.71514677278685 a86.0,86.0 0 0,1 -30.301960400862466,31.631185727798858" fill="none" id="id29" stroke="none" /><text fill="#e1ed5e" style="font-size:6.75px; font-family:Arial;" text-anchor="middle"><textPath startOffset="22.145653131862474" xlink:href="#id29">May</textPath></text><line stroke="#e1ed5e" stroke-width="0.3" x1="143.1302829299769" x2="145.66735839644613" y1="173.24464959558577" y2="177.55315839532614" /><path d="M 143.63769802327073 174.10635135553383 a86.0,86.0 0 0,1 -40.68552437913181,11.842963189579606" fill="none" id="id30" stroke="none" /><text fill="#e1ed5e" style="font-size:6.75px; font-family:Arial;" text-anchor="middle"><textPath startOffset="21.407464694133747" xlink:href="#id30">June</textPath></text><path d="M 110.65571695917076 118.09573695890943 l 5.233608379442646 8.887811204372348 a31.314254441012153,31.314254441012153 0 0,0 -0.4655498142771409,0.2687853105940886 l -5.080266097305106 -8.976343412242608" fill="#ff4206" stroke="none" /><path d="M 108.73861861582097 119.09545874513695 l 6.242387898166495 13.6407441291431 a36.0012435173864,36.0012435173864 0 0,0 -0.5641679391477433,0.2523451432543022 l -6.007306556163124 -13.745893023307252" fill="#ff880c" stroke="none" /><path d="M 108.07796709384702 119.3841803445677 l 5.797939456553659 13.912944029980878 a36.07269430205636,36.07269430205636 0 0,0 -0.5736340635720345,0.23329197979708768 l -5.558250931791184 -14.010423266357257" fill="#ff890c" stroke="none" /><path d="M 106.38641147887787 120.00534299687104 l 4.593096110473492 14.387808147269789 a36.10316374680119,36.10316374680119 0 0,0 -0.5920220294847892,0.18340993807067643 l -4.345433448117078 -14.46453467314711" fill="#ff890c" stroke="none" /><path d="M 105.3480935250658 120.30758222061773 l 3.970948721822702 15.0783390911772 a36.592457904380176,36.592457904380176 0 0,0 -0.608819576174424,0.1547595554931032 l -3.711523852422881 -15.144283878505574" fill="#ff900d" stroke="none" /><path d="M 104.29559338865022 120.5559693870025 l 4.036897222653759 19.318014583643187 a40.735304067587116,40.735304067587116 0 0,0 -0.6857177690884324,0.13716275846385134 l -3.7046829680343683 -19.384466738769902" fill="#ffcb12" stroke="none" /><path d="M 103.94208987418118 120.62667999033965 l 2.7916889029556073 14.607295995707986 a35.87167183732589,35.87167183732589 0 0,0 -0.6058302881025822,0.11040245976101186 l -2.540523881301968 -14.653066629400362" fill="#ff860c" stroke="none" /><path d="M 103.58742460773223 120.69131181640829 l 2.5397062804221604 14.648350924794608 a35.86688578037602,35.86688578037602 0 0,0 -0.6075551508336008,0.09997296886781606 l -2.2878736265354873 -14.689789892158094" fill="#ff860c" stroke="none" /><path d="M 103.2317021107853 120.74984581791261 l 2.3024764748673703 14.783550653825358 a35.96177689485904,35.96177689485904 0 0,0 -0.6107934750539916,0.08976560700445524 l -2.048357894205693 -14.820897334128697" fill="#ff870c" stroke="none" /><path d="M 101.08105385017728 120.97215588758144 l 0.7991874969710181 15.504023936581547 a36.5246081715903,36.5246081715903 0 0,0 -0.626439188931203,0.02690199417463856 l -0.5329225474389856 -15.515458499182017" fill="#ff8f0d" stroke="none" /><line stroke="#e1ed5e" stroke-width="0.3" x1="101.45913802915013" x2="101.54496967792366" y1="184.9874750549273" y2="189.98673829345242" /><path d="M 101.47630435890484 185.9873277026323 a86.0,86.0 0 0,1 -42.54439059252881,-10.42667462771756" fill="none" id="id31" stroke="none" /><text fill="#e1ed5e" style="font-size:6.75px; font-family:Arial;" text-anchor="middle"><textPath startOffset="22.145653131862474" xlink:href="#id31">July</textPath></text><path d="M 100.36049292484886 120.99690560180557 l 0.4332895412329605 25.2369435525886 a46.24066282218209,46.24066282218209 0 0,0 -0.7937824660818097,0.006813667787925417 l -3.0910896933542894e-15 -25.240662822182088" fill="#e9ff1a" stroke="none" /><path d="M 100.0 121.0 l 3.0507743409937163e-15 24.911462987677623 a45.91146298767762,45.91146298767762 0 0,0 -0.7881313131675108,-0.006765159436806422 l 0.42763838831865564 -24.90779222643525" fill="#eeff19" stroke="none" /><path d="M 98.91894614982273 120.97215588758144 l -3.2431615505318008 62.916467662744324 a84.0,84.0 0 0,0 -1.4394225914702146,-0.08659208870123303 l 4.322728494134462 -62.8515235962184" fill="#4dd2ff" stroke="none" /><path d="M 98.19965949673042 120.92268563240118 l -1.2704997174173112 14.765132559813598 a35.81969328430333,35.81969328430333 0 0,0 -0.6121763599595857,-0.05797373776553481 l 1.523775640761912 -14.74114706654288" fill="#ff850c" stroke="none" /><path d="M 96.05791012581884 120.62667999033965 l -2.6698249517371275 13.969652308128696 a35.22248750686474,35.22248750686474 0 0,0 -0.5929177677151718,-0.11860015917358237 l 2.9092392049832574 -13.921762752292253" fill="#ff7c0b" stroke="none" /><path d="M 94.30408787586889 120.21278271476187 l -6.945123276522878 24.645792395718594 a46.60565992391058,46.60565992391058 0 0,0 -0.7681944070956882,-0.2236101961203103 l 7.367177696000174 -24.52293850529577" fill="#e5ff1a" stroke="none" /><line stroke="#e1ed5e" stroke-width="0.3" x1="58.13341422392154" x2="55.67067388415222" y1="173.97424548756322" y2="178.32567169271397" /><path d="M 57.64086615596768 174.84453072859336 a86.0,86.0 0 0,1 -31.369924170532247,-30.572349798747897" fill="none" id="id32" stroke="none" /><text fill="#e1ed5e" style="font-size:6.75px; font-family:Arial;" text-anchor="middle"><textPath startOffset="22.145653131862474" xlink:href="#id32">August</textPath></text><path d="M 89.65649057296885 118.27599006163327 l -15.893067609206007 28.081527621141674 a53.267038779034806,53.267038779034806 0 0,0 -0.7919224153136593,-0.45721661965864324 l 16.372782492380065 -27.80456410420686" fill="#92ff23" stroke="none" /><path d="M 86.68645165197938 116.24036423190432 l -9.555329400884423 11.65594819425122 a36.072008766799286,36.072008766799286 0 0,0 -0.47550751642796457,-0.3966852822150714 l 9.75401125147428 -11.490200728124277" fill="#ff890c" stroke="none" /><line stroke="#e1ed5e" stroke-width="0.3" x1="26.387840678322732" x2="22.057713659400548" y1="142.50000000000003" y2="145.00000000000006" /><path d="M 25.521815274538298 143.00000000000003 a86.0,86.0 0 0,1 -11.493303480769221,-40.785679425670985" fill="none" id="id33" stroke="none" /><text fill="#e1ed5e" style="font-size:6.75px; font-family:Arial;" text-anchor="middle"><textPath startOffset="21.40746469413373" xlink:href="#id33">September</textPath></text><path d="M 81.29705330413844 109.54985784667822 l -13.202975102379467 6.741533162197123 a35.82453442544,35.82453442544 0 0,0 -0.27496197942102546,-0.5501081485699703 l 13.31675699501223 -6.5138931574634" fill="#ff850c" stroke="none" /><path d="M 80.16572619554312 106.89939002012753 l -5.753516484401844 2.0013716965126007 a27.091669771407958,27.091669771407958 0 0,0 -0.14902299107356334,-0.44055999345879954 l 5.7870248970477745 -1.9023100285796393" fill="#ff0000" stroke="none" /><path d="M 79.48165901384964 104.47187691870673 l -6.718719936324102 1.464313738951054 a27.876438926424036,27.876438926424036 0 0,0 -0.09788916288091615,-0.46843508066105116 l 6.742866810029384 -1.348762207004594" fill="#ff0c01" stroke="none" /><path d="M 79.2786578344484 103.40968896794605 l -8.844675348989396 1.4553879628825042 a29.96361735860718,29.96361735860718 0 0,0 -0.07915889434263962,-0.5082568864390394 l 8.868355735470303 -1.3033428945120147" fill="#ff2d04" stroke="none" /><line stroke="#e1ed5e" stroke-width="0.3" x1="15.003131293944662" x2="10.003315487706104" y1="100.72959589197737" y2="100.7725132973878" /><path d="M 14.003168132696942 100.73817937305945 a86.0,86.0 0 0,1 10.791469493833604,-42.45332614584628" fill="none" id="id34" stroke="none" /><text fill="#e1ed5e" style="font-size:6.75px; font-family:Arial;" text-anchor="middle"><textPath startOffset="22.145653131862435" xlink:href="#id34">October</textPath></text><path d="M 79.22317932658666 96.9465228501225 l -25.542264939618093 -3.7538333499235836 a46.8166334572237,46.8166334572237 0 0,0 0.12368176034840156,-0.7941256247450743 l 25.474061687131424 4.191747156600108" fill="#e2ff1b" stroke="none" /><path d="M 79.56144815229197 95.17655741523228 l -24.445259120196916 -5.769014591376814 a46.11677174338074,46.11677174338074 0 0,0 0.18844734535156132,-0.7689294768486528 l 24.342624248329056 6.187799892833584" fill="#ebff1a" stroke="none" /><path d="M 79.64726062577567 94.8264132398404 l -24.24306510990464 -6.16249234916908 a46.01404641149934,46.01404641149934 0 0,0 0.2011701662531051,-0.7638758881782944 l 24.133705462846812 6.577748741720159" fill="#ecff1a" stroke="none" /><path d="M 79.94057633289273 93.78553927170692 l -23.812481040025435 -7.377167496049088 a45.92903635414602,45.92903635414602 0 0,0 0.23978299784588034,-0.7511168255584556 l 23.682333326402297 7.784853355298935" fill="#edff19" stroke="none" /><path d="M 80.5471966667186 92.08871423366112 l -7.604026193802744 -3.092491255025293 a29.208819435122578,29.208819435122578 0 0,0 0.19288135082152932,-0.4628450259813801 l 7.549818998444736 3.222568790447937" fill="#ff2103" stroke="none" /><line stroke="#e1ed5e" stroke-width="0.3" x1="26.387840678322718" x2="22.05771365940052" y1="57.49999999999999" y2="54.99999999999999" /><path d="M 25.521815274538284 56.99999999999999 a86.0,86.0 0 0,1 29.574782752854787,-30.34633250058573" fill="none" id="id35" stroke="none" /><text fill="#e1ed5e" style="font-size:6.75px; font-family:Arial;" text-anchor="middle"><textPath startOffset="21.40746469413373" xlink:href="#id35">November</textPath></text><line stroke="#e1ed5e" stroke-width="0.3" x1="56.869717070023135" x2="54.33264160355391" y1="26.7553504044142" y2="22.446841604673864" /><path d="M 56.362301976729285 25.89364864446614 a86.0,86.0 0 0,1 42.16139366436587,-11.88097634709845" fill="none" id="id36" stroke="none" /><text fill="#e1ed5e" style="font-size:6.75px; font-family:Arial;" text-anchor="middle"><textPath startOffset="22.145653131862474" xlink:href="#id36">December</textPath></text><path d="M 99.63950707515114 79.00309439819443 l -0.44475377819357625 -25.90467788152068 a46.90849555780042,46.90849555780042 0 0,0 0.8052467030424221,-0.006912074474176936 l 6.345751231116741e-15 25.90849555780042" fill="#e1ff1b" stroke="none" /></svg>