<?xml version="1.0" encoding="utf-8" ?>
<svg baseProfile="full" height="200mm" version="1.1" viewBox="0,0,200,200" width="200mm" xmlns="http://www.w3.org/2000/svg" xmlns:ev="http://www.w3.org/2001/xml-events" xmlns:xlink="http://www.w3.org/1999/xlink"><defs /><rect fill="#1a1a1a" height="200" width="200" x="0" y="0" /><text alignment-baseline="middle" fill="#e1ed5e" style="dominant-baseline: central; font-size:9.0px; font-family:Arial;" text-anchor="middle" x="100.0" y="100.0">2019</text><line stroke="#e1ed5e" stroke-width="0.3" x1="100.0" x2="100.0" y1="15.0" y2="10.0" /><path d="M 100.0 14.0 a86.0,86.0 0 0,1 42.46469731375804,11.215312516191453" fill="none" id="id13" stroke="none" /><text fill="#e1ed5e" style="font-size:6.75px; font-family:Arial;" text-anchor="middle"><textPath startOffset="22.20632615414155" xlink:href="#id13">January</textPath></text><path d="M 100.0 79.0 l 0.0 -63.0 a84.0,84.0 0 0,0 1.4459219170901134,0.012445506434235476 l -1.084441437817585 62.990665870174325" fill="#4dd2ff" stroke="none" /><line stroke="#e1ed5e" stroke-width="0.3" x1="143.23703022742887" x2="145.7803849466894" y1="26.81831364943548" y2="22.513508569990506" /><path d="M 143.74570117128098 25.957352633546492 a86.0,86.0 0 0,1 28.547481713284135,27.462654790039103" fill="none" id="id14" stroke="none" /><text fill="#e1ed5e" style="font-size:6.75px; font-family:Arial;" text-anchor="middle"><textPath startOffset="19.985693538727396" xlink:href="#id14">February</textPath></text><line stroke="#e1ed5e" stroke-width="0.3" x1="172.23445277983987" x2="176.4835382374775" y1="55.19839476539836" y2="52.563006222186495" /><path d="M 173.08426987136738 54.67131705675599 a86.0,86.0 0 0,1 12.851231095245387,41.99856678651699" fill="none" id="id15" stroke="none" /><text fill="#e1ed5e" style="font-size:6.75px; font-family:Arial;" text-anchor="middle"><textPath startOffset="22.20632615414155" xlink:href="#id15">March</textPath></text><line stroke="#e1ed5e" stroke-width="0.3" x1="184.98032266829074" x2="189.97916517819016" y1="98.17113171792111" y2="98.06355123074" /><path d="M 185.9800911702706 98.14961562048488 a86.0,86.0 0 0,1 -9.607161424134198,41.387399972396054" fill="none" id="id16" stroke="none" /><text fill="#e1ed5e" style="font-size:6.75px; font-family:Arial;" text-anchor="middle"><textPath startOffset="21.466115282336823" xlink:href="#id16">April</textPath></text><line stroke="#e1ed5e" stroke-width="0.3" x1="174.80103733775053" x2="179.2010983576182" y1="140.37084112569926" y2="142.7455964860345" /><path d="M 175.68104954172406 140.8457921977663 a86.0,86.0 0 0,1 -30.038265399797805,32.042727171017184" fill="none" id="id17" stroke="none" /><text fill="#e1ed5e" style="font-size:6.75px; font-family:Arial;" text-anchor="middle"><textPath startOffset="22.206326154141568" xlink:href="#id17">May</textPath></text><line stroke="#e1ed5e" stroke-width="0.3" x1="143.8653032363475" x2="146.44561519142675" y1="172.8068346515853" y2="177.08958963109032" /><path d="M 144.38136562736335 173.6633856474863 a86.0,86.0 0 0,1 -40.68145358897372,12.25698825130547" fill="none" id="id18" stroke="none" /><text fill="#e1ed5e" style="font-size:6.75px; font-family:Arial;" text-anchor="middle"><textPath startOffset="21.466115282336833" xlink:href="#id18">June</textPath></text><path d="M 105.18746579009965 120.34920634021253 l 4.690429395806096 18.39944964680394 a39.987887592418375,39.987887592418375 0 0,0 -0.6684579328274368,0.16429069638827962 l -4.373018178235448 -18.477461601506253" fill="#ffb010" stroke="none" /><path d="M 104.83641907484287 120.43548508189849 l 3.4629779749356753 14.632237953457391 a36.036442530781294,36.036442530781294 0 0,0 -0.6048628514125001,0.13766481571711106 l -3.2105949741303133 -14.689679502752186" fill="#ff760a" stroke="none" /><path d="M 103.7750983002368 120.6578951692458 l 1.3547809506121515 7.413561351046513 a28.536333546882872,28.536333546882872 0 0,0 -0.48396402586376097,0.084143349381985 l -1.2269679532763407 -7.435783278949505" fill="#ff0000" stroke="none" /><path d="M 102.34483914955558 120.86867818915974 l 2.599684043896302 23.136755336009976 a44.282349636719985,44.282349636719985 0 0,0 -0.7582137845275352,0.0785919589154034 l -2.2010376627631643 -23.178076663381137" fill="#ffed16" stroke="none" /><line stroke="#e1ed5e" stroke-width="0.3" x1="102.19456741930631" x2="102.32365962044197" y1="184.97166512339345" y2="189.96999836594603" /><path d="M 102.22038585953345 185.97133177190398 a86.0,86.0 0 0,1 -42.740103519485714,-10.115201625700543" fill="none" id="id19" stroke="none" /><text fill="#e1ed5e" style="font-size:6.75px; font-family:Arial;" text-anchor="middle"><textPath startOffset="22.20632615414155" xlink:href="#id19">July</textPath></text><path d="M 100.54218724476979 120.99299961872073 l 0.6331865529589809 24.516410507758792 a45.524585814969306,45.524585814969306 0 0,0 -0.7835438292604932,0.013489417599547256 l -0.2110830338058198 -24.5236774026375" fill="#fffe18" stroke="none" /><path d="M 97.2962882734958 120.8252237178851 l -2.9577844496556978 22.782207980805598 a43.97340830898427,43.97340830898427 0 0,0 -0.7497914411197479,-0.10391426162402105 l 3.3495044819622763 -22.727919153688973" fill="#ffe915" stroke="none" /><path d="M 96.22490169976321 120.6578951692458 l -4.412189029255076 24.144149684136845 a45.54398859191155,45.54398859191155 0 0,0 -0.7699805196050412,-0.14756859915138418 l 4.8271371634318125 -24.064623886636994" fill="#fffe18" stroke="none" /><path d="M 94.46302465271185 120.25689768951611 l -5.201912197858616 19.03107681949086 a40.72921122152613,40.72921122152613 0 0,0 -0.6746868157929878,-0.1906732334075462 l 5.5287301817562176 -18.93871479274479" fill="#ffbb11" stroke="none" /><path d="M 93.42475214034765 119.94407469862007 l -7.734520075939573 23.460384983977068 a45.702478912075385,45.702478912075385 0 0,0 -0.7450162767334082,-0.2527499710571407 l 8.137206085610206 -23.323772026021807" fill="#fdff18" stroke="none" /><path d="M 92.7421414339146 119.70592522655815 l -8.419763552282454 22.86063161410817 a45.36187382104065,45.36187382104065 0 0,0 -0.7303904943337322,-0.27617118792676915 l 8.812024267376469 -22.712312176074768" fill="#fffc17" stroke="none" /><path d="M 91.07499286063937 119.00905698771935 l -8.835368702558997 18.818139252097858 a41.78908619977091,41.78908619977091 0 0,0 -0.6485016099214879,-0.311320182140253 l 9.157982980480728 -18.663264793458044" fill="#ffca12" stroke="none" /><line stroke="#e1ed5e" stroke-width="0.3" x1="58.666819895761336" x2="56.23545636021788" y1="174.27360380694188" y2="178.64263932499728" /><path d="M 58.180547188652646 175.14741091055294 a86.0,86.0 0 0,1 -31.652253787137756,-30.449443065178592" fill="none" id="id20" stroke="none" /><text fill="#e1ed5e" style="font-size:6.75px; font-family:Arial;" text-anchor="middle"><textPath startOffset="22.20632615414155" xlink:href="#id20">August</textPath></text><path d="M 89.1626897886671 117.98757091392108 l -21.44219982158519 35.5893743299789 a62.54962693440399,62.54962693440399 0 0,0 -0.9174564824890823,-0.5635767053129311 l 22.051635504006583 -35.21500915783759" fill="#30ff2f" stroke="none" /><line stroke="#e1ed5e" stroke-width="0.3" x1="26.63291911575756" x2="22.317208475507996" y1="142.92168965132927" y2="145.44649492493687" /><path d="M 25.769776987707644 143.4266507060508 a86.0,86.0 0 0,1 -11.730757126820373,-40.83630448921669" fill="none" id="id21" stroke="none" /><text fill="#e1ed5e" style="font-size:6.75px; font-family:Arial;" text-anchor="middle"><textPath startOffset="21.46611528233685" xlink:href="#id21">September</textPath></text><path d="M 81.87401531095188 110.60418214915194 l -18.51703036644472 10.83295424969649 a42.45304899933464,42.45304899933464 0 0,0 -0.3635760057036026,-0.6339254118569622 l 18.700758368300697 -10.512608991981221" fill="#ffd413" stroke="none" /><path d="M 79.97269907076064 106.31721596034903 l -48.12738519360355 15.180831753070636 a71.46486756436133,71.46486756436133 0 0,0 -0.35995569974783126,-1.176356053673321 l 48.38156766585752 -14.350148726845267" fill="#3cffa1" stroke="none" /><path d="M 79.35854240842038 103.8639653848113 l -23.877940182245183 4.469816819642991 a45.29270033874461,45.29270033874461 0 0,0 -0.13685633202658942,-0.7675629894866013 l 23.95134295661096 -4.058135079423176" fill="#fffb17" stroke="none" /><line stroke="#e1ed5e" stroke-width="0.3" x1="15.007084014347285" x2="10.007500721073583" y1="101.09737516637583" y2="101.16192664675087" /><path d="M 14.007167355692545 101.11028546245083 a86.0,86.0 0 0,1 10.666146001902534,-42.60595125391555" fill="none" id="id22" stroke="none" /><text fill="#e1ed5e" style="font-size:6.75px; font-family:Arial;" text-anchor="middle"><textPath startOffset="22.20632615414155" xlink:href="#id22">October</textPath></text><path d="M 79.00175016825051 100.2711162175752 l -34.87507962696158 0.4502851309921823 a55.87798640526863,55.87798640526863 0 0,0 -0.004139501662275723,-0.9618744029794519 l 34.87766342591336 0.1500987501909449" fill="#7cff26" stroke="none" /><path d="M 80.803312248108 91.48605970444005 l -30.435114101547963 -13.498304900208367 a54.29414971963142,54.29414971963142 0 0,0 0.3862581033598964,-0.8510685303017195 l 30.198253681224713 14.02019543935216" fill="#8fff24" stroke="none" /><line stroke="#e1ed5e" stroke-width="0.3" x1="26.266209847984243" x2="21.928928074336255" y1="57.711370442889674" y2="55.22380399835377" /><path d="M 25.398753493254645 57.213857153982495 a86.0,86.0 0 0,1 29.58750427330803,-30.492523968695096" fill="none" id="id23" stroke="none" /><text fill="#e1ed5e" style="font-size:6.75px; font-family:Arial;" text-anchor="middle"><textPath startOffset="21.46611528233685" xlink:href="#id23">November</textPath></text><path d="M 82.15384107792192 88.93136811851018 l -15.707345807098006 -9.742086761255042 a39.48320769692263,39.48320769692263 0 0,0 0.3631936256540216,-0.5744850946468049 l 15.537324585198022 10.011019503616062" fill="#ffa90f" stroke="none" /><path d="M 83.6137871275137 86.86637796730984 l -39.34595411858099 -31.5359561071419 a71.42440513375503,71.42440513375503 0 0,0 0.7771706797909369,-0.9527193597281213 l 38.79728494671366 32.2085596364781" fill="#3cffa0" stroke="none" /><line stroke="#e1ed5e" stroke-width="0.3" x1="56.762969772571076" x2="54.21961505331055" y1="26.818313649435495" y2="22.513508569990535" /><path d="M 56.25429882871897 25.957352633546506 a86.0,86.0 0 0,1 42.265352541879196,-11.944610805530505" fill="none" id="id24" stroke="none" /><text fill="#e1ed5e" style="font-size:6.75px; font-family:Arial;" text-anchor="middle"><textPath startOffset="22.20632615414155" xlink:href="#id24">December</textPath></text><path d="M 89.3179101791058 81.91981866633112 l -13.490124099963205 -22.83297501055969 a47.520335519469796,47.520335519469796 0 0,0 0.7078341059444981,-0.4100232016932381 l 13.095093261553387 23.061802369642976" fill="#e5ff1a" stroke="none" /><path d="M 91.23893434514133 80.91482961587045 l -9.201069207067224 -20.043677384800795 a43.054674734831515,43.054674734831515 0 0,0 0.6762000767211535,-0.30339126366565333 l 8.854687011879296 20.199088978982978" fill="#ffdc14" stroke="none" /></svg>