<?xml version="1.0" encoding="utf-8" ?>
<svg baseProfile="full" height="200mm" version="1.1" viewBox="0,0,200,200" width="200mm" xmlns="http://www.w3.org/2000/svg" xmlns:ev="http://www.w3.org/2001/xml-events" xmlns:xlink="http://www.w3.org/1999/xlink"><defs /><rect fill="#1a1a1a" height="200" width="200" x="0" y="0" /><text alignment-baseline="middle" fill="#e1ed5e" style="dominant-baseline: central; font-size:9.0px; font-family:Arial;" text-anchor="middle" x="100.0" y="100.0">2020</text><line stroke="#e1ed5e" stroke-width="0.3" x1="100.0" x2="100.0" y1="15.0" y2="10.0" /><path d="M 100.0 14.0 a86.0,86.0 0 0,1 42.35913384403234,11.155469271406648" fill="none" id="id25" stroke="none" /><text fill="#e1ed5e" style="font-size:6.75px; font-family:Arial;" text-anchor="middle"><textPath startOffset="22.145653131862478" xlink:href="#id25">January</textPath></text><line stroke="#e1ed5e" stroke-width="0.3" x1="143.13028292997686" x2="145.6673583964461" y1="26.7553504044142" y2="22.446841604673864" /><path d="M 143.63769802327073 25.89364864446614 a86.0,86.0 0 0,1 29.32050498858742,28.57503671076992" fill="none" id="id26" stroke="none" /><text fill="#e1ed5e" style="font-size:6.75px; font-family:Arial;" text-anchor="middle"><textPath startOffset="20.669276256404974" xlink:href="#id26">February</textPath></text><path d="M 113.03279911837588 83.53348406188908 l 15.689764503783403 -19.823504906362135 a46.28121945153646,46.28121945153646 0 0,0 0.6187341289541923,0.4984084163946034 l -16.027749403092855 19.551248196174125" fill="#e9ff1a" stroke="none" /><line stroke="#e1ed5e" stroke-width="0.3" x1="172.87174338648825" x2="177.1583165268699" y1="56.24261187166439" y2="53.66864786411523" /><path d="M 173.72905801456457 55.72781907015455 a86.0,86.0 0 0,1 12.242430191666344,42.057860355516425" fill="none" id="id27" stroke="none" /><text fill="#e1ed5e" style="font-size:6.75px; font-family:Arial;" text-anchor="middle"><textPath startOffset="22.145653131862474" xlink:href="#id27">March</textPath></text><path d="M 120.51834098615036 95.52812308129327 l 33.313761596704914 -7.2605792866080066 a55.095787471463574,55.095787471463574 0 0,0 0.19347092819428072,0.9258284286740581 l -33.43349023572356 6.687634406648543" fill="#7dff26" stroke="none" /><line stroke="#e1ed5e" stroke-width="0.3" x1="184.99686870605535" x2="189.99668451229388" y1="99.2704041080226" y2="99.22748670261217" /><path d="M 185.99683186730306 99.26182062694052 a86.0,86.0 0 0,1 -10.086455211305974,41.156179273409016" fill="none" id="id28" stroke="none" /><text fill="#e1ed5e" style="font-size:6.75px; font-family:Arial;" text-anchor="middle"><textPath startOffset="21.40746469413373" xlink:href="#id28">April</textPath></text><path d="M 120.9064616781168 101.97986365728391 l 17.426795814180128 1.6503356821741513 a38.50476564290374,38.50476564290374 0 0,0 -0.06796569240174213,0.6575064204809927 l -17.39589772929672 -1.9492466249380753" fill="#ffac0f" stroke="none" /><path d="M 120.65975698304385 103.76489593502545 l 28.192636663812674 5.1376375462863555 a49.65693775710807,49.65693775710807 0 0,0 -0.16002233771131155,0.8373044899091582 l -28.100288033819204 -5.6208446012288285" fill="#beff1f" stroke="none" /><line stroke="#e1ed5e" stroke-width="0.3" x1="174.33088141563837" x2="178.70328620479359" y1="141.23008692659167" y2="143.65538615756765" /><path d="M 175.20536237346943 141.71514677278685 a86.0,86.0 0 0,1 -30.301960400862466,31.63118572779886" fill="none" id="id29" stroke="none" /><text fill="#e1ed5e" style="font-size:6.75px; font-family:Arial;" text-anchor="middle"><textPath startOffset="22.145653131862474" xlink:href="#id29">May</textPath></text><line stroke="#e1ed5e" stroke-width="0.3" x1="143.1302829299769" x2="145.6673583964461" y1="173.24464959558577" y2="177.55315839532614" /><path d="M 143.63769802327073 174.10635135553383 a86.0,86.0 0 0,1 -40.685524379131806,11.842963189579606" fill="none" id="id30" stroke="none" /><text fill="#e1ed5e" style="font-size:6.75px; font-family:Arial;" text-anchor="middle"><textPath startOffset="21.407464694133747" xlink:href="#id30">June</textPath></text><path d="M 110.65571695917076 118.09573695890943 l 5.233250566737987 8.887203560174513 a31.31354927337054,31.31354927337054 0 0,0 -0.46553933053194063,0.26877925780097717 l -5.079918768345646 -8.975729715251662" fill="#ff4206" stroke="none" /><path d="M 108.73861861582097 119.09545874513695 l 6.242004771962428 13.639906929243942 a36.00032281691426,36.00032281691426 0 0,0 -0.5641535110436784,0.252338689746872 l -6.0069378580631225 -13.745049369900665" fill="#ff880c" stroke="none" /><path d="M 108.07796709384702 119.3841803445677 l 5.797332297381308 13.911487068995772 a36.0711158922323,36.0711158922323 0 0,0 -0.5736089634330269,0.23328177178906234 l -5.55766887275784 -14.008956097364127" fill="#ff890c" stroke="none" /><path d="M 106.38641147887787 120.00534299687104 l 4.592332129650325 14.385414988222488 a36.1006516009209,36.1006516009209 0 0,0 -0.5919808351531001,0.18339717596141755 l -4.344710661625601 -14.46212875199055" fill="#ff890c" stroke="none" /><path d="M 105.3480935250658 120.30758222061773 l 3.970652941206182 15.07721596399906 a36.59129648247949,36.59129648247949 0 0,0 -0.6088002526189749,0.1547546435208722 l -3.71124739536181 -15.143155839355202" fill="#ff900d" stroke="none" /><path d="M 104.29559338865022 120.5559693870025 l 4.036209008009811 19.31472122743539 a40.73193957141271,40.73193957141271 0 0,0 -0.6856611328397624,0.13715142962792667 l -3.70405138963909 -19.381162053726175" fill="#ffcb12" stroke="none" /><path d="M 103.94208987418118 120.62667999033965 l 2.791707798622977 14.607394865824212 a35.87177249688146,35.87177249688146 0 0,0 -0.6058319881239211,0.11040276956153032 l -2.540541076947999 -14.653165809317105" fill="#ff860c" stroke="none" /><path d="M 103.58742460773223 120.69131181640829 l 2.539411663276057 14.646651651387348 a35.86516115596027,35.86516115596027 0 0,0 -0.6075259371334347,0.09996816176457102 l -2.2876082230895496 -14.68808581164759" fill="#ff860c" stroke="none" /><path d="M 103.2317021107853 120.74984581791261 l 2.302286542609331 14.78233115248054 a35.960542691556235,35.960542691556235 0 0,0 -0.610772512704817,0.08976252626100457 l -2.048188924296829 -14.819674752040426" fill="#ff870c" stroke="none" /><path d="M 101.08105385017728 120.97215588758144 l 0.7990857358609171 15.502049798231287 a36.522631412234816,36.522631412234816 0 0,0 -0.6264052852265681,0.026900538203682864 l -0.5328546900335196 -15.5134829048608" fill="#ff8f0d" stroke="none" /><line stroke="#e1ed5e" stroke-width="0.3" x1="101.45913802915013" x2="101.54496967792366" y1="184.9874750549273" y2="189.98673829345242" /><path d="M 101.47630435890484 185.9873277026323 a86.0,86.0 0 0,1 -42.54439059252881,-10.42667462771756" fill="none" id="id31" stroke="none" /><text fill="#e1ed5e" style="font-size:6.75px; font-family:Arial;" text-anchor="middle"><textPath startOffset="22.145653131862474" xlink:href="#id31">July</textPath></text><path d="M 100.36049292484886 120.99690560180557 l 0.43324318101267967 25.234243302176406 a46.23796217382316,46.23796217382316 0 0,0 -0.7937361058615289,0.006813269841191814 l -3.0907589593174515e-15 -25.237962173823163" fill="#e9ff1a" stroke="none" /><path d="M 100.0 121.0 l 3.0504113689738726e-15 24.908499096210335 a45.908499096210335,45.908499096210335 0 0,0 -0.7880804340292263,-0.0067647227005966665 l 0.4275875091803711 -24.904828771704175" fill="#eeff19" stroke="none" /><path d="M 98.91894614982273 120.97215588758144 l -3.2431615505318008 62.916467662744324 a84.0,84.0 0 0,0 -1.4394225914702146,-0.08659208870123303 l 4.322728494134462 -62.8515235962184" fill="#4dd2ff" stroke="none" /><path d="M 98.19965949673042 120.92268563240118 l -1.2704239367010104 14.764251873020584 a35.81880934316029,35.81880934316029 0 0,0 -0.6121612529661487,-0.05797230711754964 l 1.5236847530521742 -14.74026781039785" fill="#ff850c" stroke="none" /><path d="M 96.05791012581884 120.62667999033965 l -2.66985628550305 13.969816259632388 a35.22265442570864,35.22265442570864 0 0,0 -0.5929205775436446,-0.11860072121797097 l 2.909273348577653 -13.921926141751555" fill="#ff7c0b" stroke="none" /><path d="M 94.30408787586889 120.21278271476187 l -6.944610358031229 24.643972228940004 a46.60376886799365,46.60376886799365 0 0,0 -0.7681632370922753,-0.2236011229865881 l 7.366633607505111 -24.521127411650898" fill="#e5ff1a" stroke="none" /><line stroke="#e1ed5e" stroke-width="0.3" x1="58.13341422392154" x2="55.670673884152215" y1="173.97424548756322" y2="178.32567169271397" /><path d="M 57.64086615596767 174.84453072859336 a86.0,86.0 0 0,1 -31.369924170532244,-30.572349798747886" fill="none" id="id32" stroke="none" /><text fill="#e1ed5e" style="font-size:6.75px; font-family:Arial;" text-anchor="middle"><textPath startOffset="22.145653131862474" xlink:href="#id32">August</textPath></text><path d="M 89.65649057296885 118.27599006163327 l -15.892174088068925 28.079948854907993 a53.26522469997285,53.26522469997285 0 0,0 -0.7918954453542734,-0.4572010485453335 l 16.3718620012836 -27.803000909086485" fill="#92ff23" stroke="none" /><path d="M 86.68645165197938 116.24036423190432 l -9.554979158302832 11.655520955250326 a36.07145631496442,36.07145631496442 0 0,0 -0.47550023391143936,-0.3966792068807744 l 9.753653726376164 -11.489779564457681" fill="#ff890c" stroke="none" /><line stroke="#e1ed5e" stroke-width="0.3" x1="26.387840678322732" x2="22.057713659400548" y1="142.50000000000003" y2="145.00000000000006" /><path d="M 25.521815274538298 143.00000000000003 a86.0,86.0 0 0,1 -11.493303480769221,-40.785679425670985" fill="none" id="id33" stroke="none" /><text fill="#e1ed5e" style="font-size:6.75px; font-family:Arial;" text-anchor="middle"><textPath startOffset="21.40746469413373" xlink:href="#id33">September</textPath></text><path d="M 81.29705330413844 109.54985784667822 l -13.201222768190494 6.740638407874357 a35.8225668735581,35.8225668735581 0 0,0 -0.27494687798373574,-0.550077935579339 l 13.314989559385966 -6.513028616131265" fill="#ff850c" stroke="none" /><path d="M 80.16572619554312 106.89939002012753 l -5.753365523416703 2.0013191844456313 a27.091509937943965,27.091509937943965 0 0,0 -0.14902211187855627,-0.4405573942749749 l 5.786873056867624 -1.9022601156964947" fill="#ff0000" stroke="none" /><path d="M 79.48165901384964 104.47187691870673 l -6.718264484557858 1.4642144753584263 a27.87597278312826,27.87597278312826 0 0,0 -0.09788752600121546,-0.4684272475991263 l 6.74240972138344 -1.348670776473891" fill="#ff0c01" stroke="none" /><path d="M 79.2786578344484 103.40968896794605 l -8.843950952246455 1.4552687636741186 a29.962883220273852,29.962883220273852 0 0,0 -0.07915695487124452,-0.5082444336413992 l 8.867629399255968 -1.3032361481012689" fill="#ff2d04" stroke="none" /><line stroke="#e1ed5e" stroke-width="0.3" x1="15.003131293944662" x2="10.003315487706104" y1="100.72959589197737" y2="100.7725132973878" /><path d="M 14.003168132696942 100.73817937305945 a86.0,86.0 0 0,1 10.791469493833604,-42.453326145846276" fill="none" id="id34" stroke="none" /><text fill="#e1ed5e" style="font-size:6.75px; font-family:Arial;" text-anchor="middle"><textPath startOffset="22.145653131862435" xlink:href="#id34">October</textPath></text><path d="M 79.22317932658666 96.9465228501225 l -25.539013971054352 -3.753355569497965 a46.813347567581985,46.813347567581985 0 0,0 0.12367307957438628,-0.7940698879487279 l 25.470819399341696 4.191213639378143" fill="#e2ff1b" stroke="none" /><path d="M 79.56144815229197 95.17655741523228 l -24.44197479980202 -5.768239500706358 a46.11339720252252,46.11339720252252 0 0,0 0.18843355593737487,-0.7688732113331243 l 24.339353717348345 6.186968536647599" fill="#ebff1a" stroke="none" /><path d="M 79.64726062577567 94.8264132398404 l -24.240470463308544 -6.161832800150639 a46.011369249594196,46.011369249594196 0 0,0 0.20115846189003456,-0.7638314448052904 l 24.131122520613783 6.577044749328714" fill="#ecff1a" stroke="none" /><path d="M 79.94057633289273 93.78553927170692 l -23.80901698321106 -7.376094322393117 a45.92540986944192,45.92540986944192 0 0,0 0.23976406495629635,-0.7510575185514922 l 23.678888202477506 7.783720874636001" fill="#edff19" stroke="none" /><path d="M 80.5471966667186 92.08871423366112 l -7.602969261329097 -3.0920614097895456 a29.207678438549163,29.207678438549163 0 0,0 0.19287381621504335,-0.462826945668691 l 7.548769600577574 3.2221208648995003" fill="#ff2103" stroke="none" /><line stroke="#e1ed5e" stroke-width="0.3" x1="26.387840678322718" x2="22.05771365940052" y1="57.5" y2="55.0" /><path d="M 25.521815274538284 57.0 a86.0,86.0 0 0,1 29.574782752854787,-30.346332500585742" fill="none" id="id35" stroke="none" /><text fill="#e1ed5e" style="font-size:6.75px; font-family:Arial;" text-anchor="middle"><textPath startOffset="21.40746469413373" xlink:href="#id35">November</textPath></text><line stroke="#e1ed5e" stroke-width="0.3" x1="56.869717070023135" x2="54.33264160355391" y1="26.7553504044142" y2="22.446841604673864" /><path d="M 56.362301976729285 25.89364864446614 a86.0,86.0 0 0,1 42.16139366436587,-11.88097634709845" fill="none" id="id36" stroke="none" /><text fill="#e1ed5e" style="font-size:6.75px; font-family:Arial;" text-anchor="middle"><textPath startOffset="22.145653131862474" xlink:href="#id36">December</textPath></text><path d="M 99.63950707515114 79.00309439819443 l -0.4446987237700369 -25.901471237355597 a46.90528844105933,46.90528844105933 0 0,0 0.8051916486188827,-0.0069116018981648895 l 6.3449657140664464e-15 25.905288441059326" fill="#e1ff1b" stroke="none" /></svg>