<?xml version="1.0" encoding="utf-8" ?>
<svg baseProfile="full" height="200mm" version="1.1" viewBox="0,0,200,200" width="200mm" xmlns="http://www.w3.org/2000/svg" xmlns:ev="http://www.w3.org/2001/xml-events" xmlns:xlink="http://www.w3.org/1999/xlink"><defs /><rect fill="#1a1a1a" height="200" width="200" x="0" y="0" /><text alignment-baseline="middle" fill="#e1ed5e" style="dominant-baseline: central; font-size:9.0px; font-family:Arial;" text-anchor="middle" x="100.0" y="100.0">2021</text><line stroke="#e1ed5e" stroke-width="0.3" x1="100.0" x2="100.0" y1="15.0" y2="10.0" /><path d="M 100.0 14.0 a86.0,86.0 0 0,1 42.46469731375804,11.215312516191453" fill="none" id="id37" stroke="none" /><text fill="#e1ed5e" style="font-size:6.75px; font-family:Arial;" text-anchor="middle"><textPath startOffset="22.20632615414155" xlink:href="#id37">January</textPath></text><path d="M 101.08401301168833 79.027996857942 l 0.3882486221512784 -7.511304048809106 a28.521331365274264,28.521331365274264 0 0,0 0.49007517972438475,0.02956267317823852 l -0.5174858507152751 7.503508106250563" fill="#ff5607" stroke="none" /><path d="M 102.16513564639614 79.11191278185805 l 0.6287992754581302 -6.066323895380927 a27.09882563552085,27.09882563552085 0 0,0 0.46356192686015807,0.05208658375448756 l -0.7331279058280136 6.054601358155839" fill="#ff4206" stroke="none" /><path d="M 103.2404852339499 79.25152402106235 l 1.166192098431073 -7.4670016970359905 a28.557520648597755,28.557520648597755 0 0,0 0.4850301695448012,0.08003413387375292 l -1.2945514741147492 7.4458213002226135" fill="#ff5608" stroke="none" /><path d="M 103.95276090670814 79.375362276772 l 1.484494683341519 -7.745767014143787 a28.886737671703504,28.886737671703504 0 0,0 0.4875442929411012,0.0977967985854092 l -1.6176053857497454 7.7190662594811705" fill="#ff5b08" stroke="none" /><path d="M 104.66035177308747 79.52364482259891 l 1.681147987007821 -7.386520366667367 a28.57541693119344,28.57541693119344 0 0,0 0.47867403864589964,0.11328667960956612 l -1.8080457126162446 7.356487774916932" fill="#ff5608" stroke="none" /><path d="M 105.71112130821622 79.79150937346287 l 2.049604841968554 -7.2524147188817745 a28.53647127393676,28.53647127393676 0 0,0 0.47154450874811765,0.13765677270539084 l -2.1741395684400984 7.21605961725768" fill="#ff5607" stroke="none" /><path d="M 106.40334571778207 80.00007090966166 l 2.295777214335704 -7.170529831994188 a28.529083017830366,28.529083017830366 0 0,0 0.46640591741396653,0.15376669795653758 l -2.4188659539920883 7.129949409778415" fill="#ff5607" stroke="none" /><path d="M 107.08798089147638 80.2323363322302 l 2.5432917450266417 -7.092984108515286 a28.535167978484026,28.535167978484026 0 0,0 0.4609349197785811,0.16976622094425703 l -2.665008990577799 7.048154619764704" fill="#ff5607" stroke="none" /><path d="M 108.09893153111575 80.62456947434976 l 3.111226296991665 -7.443123668269042 a29.067206394548194,29.067206394548194 0 0,0 0.4599764190747417,0.196937897458062 l -3.238886473856722 7.388466242848189" fill="#ff5d08" stroke="none" /><path d="M 108.76106565485865 80.91482961587045 l 3.100326864113015 -6.753775029100111 a28.43138639878435,28.43138639878435 0 0,0 0.44301757679249987,0.20800269252123899 l -3.2161226522051125 6.699407353938869" fill="#ff5407" stroke="none" /><path d="M 109.41281617654863 81.2277094730956 l 3.349538706150105 -6.680095791057587 a28.472823383548082,28.472823383548082 0 0,0 0.43623011011401136,0.22345400566979728 l -3.4640293038528718 6.621449260075289" fill="#ff5507" stroke="none" /><path d="M 110.36928655335952 81.73862282372117 l 0.7730949813875563 -1.3614995569422703 a22.565680968077668,22.565680968077668 0 0,0 0.33612470195045946,0.19470512271800744 l -0.7964164158033441 1.3479902768342134" fill="#ff0000" stroke="none" /><line stroke="#e1ed5e" stroke-width="0.3" x1="143.23703022742887" x2="145.7803849466894" y1="26.81831364943548" y2="22.513508569990506" /><path d="M 143.74570117128098 25.957352633546492 a86.0,86.0 0 0,1 28.547481713284135,27.462654790039103" fill="none" id="id38" stroke="none" /><text fill="#e1ed5e" style="font-size:6.75px; font-family:Arial;" text-anchor="middle"><textPath startOffset="19.985693538727396" xlink:href="#id38">February</textPath></text><path d="M 110.99172775467656 82.1063720568725 l 3.9131598209107583 -6.3703020562514805 a28.476200109137807,28.476200109137807 0 0,0 0.41545534888831864,0.2601581013599182 l -4.02223432217134 6.301999613568618" fill="#ff5507" stroke="none" /><path d="M 111.60114157652 82.49532879139004 l 4.479131026963487 -6.758448331151103 a29.10797376670313,29.10797376670313 0 0,0 0.41526725218294225,0.280390302386993 l -4.594802973552971 6.68034611646544" fill="#ff5e08" stroke="none" /><path d="M 111.90073688211348 82.69761687909136 l 8.597560878065975 -12.499922793958532 a36.17122680955547,36.17122680955547 0 0,0 0.5099606619698277,0.35726003314882365 l -8.811452679619453 12.350077918045773" fill="#ffbc11" stroke="none" /><path d="M 112.48926042617603 83.11751280151076 l 4.261284489807843 -5.760235465786396 a28.165113964507494,28.165113964507494 0 0,0 0.38727547557547704,0.2916878591408369 l -4.359806119141703 5.686031017139712" fill="#ff5107" stroke="none" /><path d="M 113.06298171725822 83.55741782278167 l 4.741765625091671 -5.968535564332338 a28.622844483918122,28.622844483918122 0 0,0 0.3831325860879279,0.3097999061976998 l -4.84380160974409 5.8860295608705115" fill="#ff5708" stroke="none" /><path d="M 114.16331599549186 84.49514656593476 l 5.016535087662913 -5.491697093097155 a28.438034770561703,28.438034770561703 0 0,0 0.35857940036251246,0.3332604732421499 l -5.1103223718202715 5.404532033780365" fill="#ff5407" stroke="none" /><path d="M 114.42810811169701 84.74124197986012 l 12.763889893168118 -13.498728022260009 a39.57774322741777,39.57774322741777 0 0,0 0.49098406146416473,0.4723262781223644 l -12.994357198244701 13.277018657375343" fill="#ffe815" stroke="none" /><path d="M 115.9244219780498 86.31012108654704 l 10.939748457972195 -9.404663600330817 a35.42656555660745,35.42656555660745 0 0,0 0.3935543688075893,0.46584423923023316 l -11.1000134402669 9.214960411471477" fill="#ffb310" stroke="none" /><path d="M 116.15771136456269 86.58626213691792 l 11.424020141220137 -9.483942871574133 a35.84767350726319,35.84767350726319 0 0,0 0.39005940247439086,0.4781667062906966 l -11.585578035770935 9.285891995675334" fill="#ffb811" stroke="none" /><path d="M 117.04232023915458 87.72973835380427 l 25.45500956301291 -18.327294826146122 a52.3663394022567,52.3663394022567 0 0,0 0.5203901990627395,0.7360550317227249 l -25.766712381879536 17.886413294091604" fill="#81ff25" stroke="none" /><line stroke="#e1ed5e" stroke-width="0.3" x1="172.23445277983987" x2="176.4835382374775" y1="55.19839476539836" y2="52.563006222186495" /><path d="M 173.08426987136738 54.67131705675599 a86.0,86.0 0 0,1 12.851231095245387,41.99856678651699" fill="none" id="id39" stroke="none" /><text fill="#e1ed5e" style="font-size:6.75px; font-family:Arial;" text-anchor="middle"><textPath startOffset="22.20632615414155" xlink:href="#id39">March</textPath></text><path d="M 118.21658344932153 89.55222093294921 l 27.45257378885701 -15.744907741114869 a52.647210420649365,52.647210420649365 0 0,0 0.4440976682517824,0.7900001980704491 l -27.719529098401225 15.270024033109626" fill="#7eff26" stroke="none" /><path d="M 119.04729006885535 91.15688171328212 l 7.525867482287479 -3.4940475057316807 a29.297412207023456,29.297412207023456 0 0,0 0.2084269286999552,0.4592411093540004 l -7.584896727950781 3.3639843875356177" fill="#ff6008" stroke="none" /><path d="M 120.08093135843002 93.85539295169968 l 11.740009254733529 -3.592350490429967 a33.277328673099916,33.277328673099916 0 0,0 0.16289110226049203,0.5491878193177868 l -11.800106254105723 3.3897332843656502" fill="#ff960d" stroke="none" /><path d="M 120.53481517161879 95.60439243477599 l 14.939229515903527 -3.197836928646037 a36.27765491006573,36.27765491006573 0 0,0 0.12545280200579728,0.6117524162360585 l -14.99206161382432 2.940208856246567" fill="#ffbe11" stroke="none" /><path d="M 120.73433829027371 96.67025291283417 l 8.881402242668536 -1.4262728249854957 a29.99519649409449,29.99519649409449 0 0,0 0.07747917309213333,0.5104909452839647 l -8.904637309199968 1.2731827673094482" fill="#ff6a09" stroke="none" /><path d="M 120.96714384426684 98.82574320788733 l 5.692918192435461 -0.31882968438913123 a26.70183916937424,26.70183916937424 0 0,0 0.021751053415118324,0.45913035984761824 l -5.697562854084076 0.22078821791851322" fill="#ff3c05" stroke="none" /><path d="M 120.98425023603335 99.18683210126433 l 7.796302791452698 -0.30211721112371787 a28.802154319498577,28.802154319498577 0 0,0 0.014933650312683946,0.495575151147945 l -7.800348136221027 0.16787191255077374" fill="#ff5908" stroke="none" /><line stroke="#e1ed5e" stroke-width="0.3" x1="184.98032266829074" x2="189.97916517819016" y1="98.17113171792111" y2="98.06355123074" /><path d="M 185.9800911702706 98.14961562048488 a86.0,86.0 0 0,1 -9.607161424134198,41.387399972396054" fill="none" id="id40" stroke="none" /><text fill="#e1ed5e" style="font-size:6.75px; font-family:Arial;" text-anchor="middle"><textPath startOffset="21.466115282336823" xlink:href="#id40">April</textPath></text><path d="M 120.99513854157772 99.54816195383933 l 8.517875711423503 -0.18331388055702655 a29.51984803937625,29.51984803937625 0 0,0 0.006560424794566071,0.5081121301809264 l -8.519769143335784 0.03666549231563751" fill="#ff6309" stroke="none" /><path d="M 120.99980553446 99.90962569577887 l 4.21437146732488 -0.018136876956497162 a25.214410493877857,25.214410493877857 0 0,0 -0.0018679107975671165,0.43403668601039974 l -4.2140592592378106 -0.05440928725758728" fill="#ff2703" stroke="none" /><path d="M 120.99824983174949 100.27111621757518 l 4.630527325320329 0.059786461437428794 a25.630913271862198,25.630913271862198 0 0,0 -0.009493125559740698,0.44110824224053846 l -4.628812137075581 -0.13948451946808207" fill="#ff2d04" stroke="none" /><path d="M 120.9904718944345 100.63252640178507 l 8.530589939637297 0.2570606028658827 a29.5344621899559,29.5344621899559 0 0,0 -0.019686641811722146,0.5080247495341245 l -8.524901164974372 -0.40386259941401337" fill="#ff6409" stroke="none" /><path d="M 120.9764740272857 100.99374915477107 l 11.847874306195834 0.5612866615381029 a32.86116218133097,32.86116218133097 0 0,0 -0.03163066675054364,0.5647868031110039 l -11.836457288557762 -0.7651451809845302" fill="#ff910d" stroke="none" /><path d="M 120.95626037817324 101.35467743843564 l 2.242645011564628 0.14497150468463815 a23.24732582975105,23.24732582975105 0 0,0 -0.029251159536831155,0.39910883172560807 l -2.239817293363459 -0.18355347290701624" fill="#ff0a01" stroke="none" /><path d="M 120.92983693683757 101.71520430193887 l 8.448111922992313 0.6923244532342212 a29.476432516805104,29.476432516805104 0 0,0 -0.04579431005582432,0.5053363954877109 l -8.434943016659412 -0.837642237270503" fill="#ff6309" stroke="none" /><path d="M 120.89721153311464 102.0752229133903 l 2.563560879866529 0.2545775195575627 a23.57617043268611,23.57617043268611 0 0,0 -0.04357965121980117,0.4034934461608773 l -2.5587989271456757 -0.2986672876032311" fill="#ff0f01" stroke="none" /><path d="M 120.81339534386255 102.79330883721812 l 31.399622204627914 4.214057377013253 a52.68113877640957,52.68113877640957 0 0,0 -0.1283562123343389,0.8977230501126954 l -31.32243194127697 -4.753925899106357" fill="#7eff26" stroke="none" /><path d="M 120.64145759157962 103.86396538481128 l 4.739151084372165 0.8871425703422691 a25.82147020530246,25.82147020530246 0 0,0 -0.0855429244214183,0.4361815286788144 l -4.723178226975083 -0.9685878260890284" fill="#ff2f04" stroke="none" /><path d="M 120.41448212921028 104.9243191809786 l 2.2116512198855256 0.5334877688684392 a23.27508468368836,23.27508468368836 0 0,0 -0.09729948066915048,0.38866305877321716 l -2.2021404249213146 -0.5714786670390529" fill="#ff0a01" stroke="none" /><path d="M 120.32669344350535 105.2749913415812 l 1.5289061934499562 0.39676728312716625 a22.57955007053583,22.57955007053583 0 0,0 -0.10086814416448218,0.37536788830670226 l -1.5218499729436967 -0.42302610460941675" fill="#ff0000" stroke="none" /><path d="M 120.23288151984713 105.62410040840565 l 2.3362329645021496 0.649398789633528 a23.424809941501394,23.424809941501394 0 0,0 -0.11133183389073992,0.3875607191381243 l -2.32470849372531 -0.6895169842762343" fill="#ff0d01" stroke="none" /><path d="M 120.13307415673323 105.97154293290107 l 1.7775414872321225 0.5272252624405858 a22.85408204138515,22.85408204138515 0 0,0 -0.11511190566318756,0.37619236803758416 l -1.7682028090628021 -0.5577446030302271" fill="#ff0400" stroke="none" /><path d="M 120.02730092923936 106.31721596034902 l 2.453514584704536 0.7739126479502728 a23.572678488271567,23.572678488271567 0 0,0 -0.1253928976877407,0.3859196568922632 l -2.4398294360005486 -0.8160312048203313" fill="#ff0f01" stroke="none" /><path d="M 119.67450827220406 107.3425965602758 l 2.0264914986257447 0.7562938448763891 a23.16301830177193,23.16301830177193 0 0,0 -0.14262432229997177,0.3723470999852739 l -2.013172896732266 -0.7910645116948078" fill="#ff0901" stroke="none" /><path d="M 119.54520255179757 107.68017299344265 l 18.312800332050795 7.195907751367302 a40.67586705504354,40.67586705504354 0 0,0 -0.26167634771192066,0.649459235099894 l -18.186221370081483 -7.510066354310009" fill="#fff517" stroke="none" /><path d="M 119.26925614724726 108.34839909993367 l 17.92126680573697 7.764383146261666 a40.530935706318886,40.530935706318886 0 0,0 -0.2828652367592674,0.6377864346505238 l -17.78496048424643 -8.071717917404877" fill="#fff417" stroke="none" /><path d="M 118.81262510543309 109.33194174019688 l 6.7740873143858265 3.3602640676977424 a28.561721599449662,28.561721599449662 0 0,0 -0.22226640652268168,0.43855270648870137 l -6.7152422380768755 -3.476370985889138" fill="#ff5608" stroke="none" /><line stroke="#e1ed5e" stroke-width="0.3" x1="174.80103733775053" x2="179.2010983576182" y1="140.37084112569926" y2="142.7455964860345" /><path d="M 175.68104954172406 140.8457921977663 a86.0,86.0 0 0,1 -30.038265399797805,32.042727171017184" fill="none" id="id41" stroke="none" /><text fill="#e1ed5e" style="font-size:6.75px; font-family:Arial;" text-anchor="middle"><textPath startOffset="22.206326154141568" xlink:href="#id41">May</textPath></text><path d="M 118.12598468904814 110.60418214915192 l 20.133128250377013 11.778414406817292 a44.32539172414582,44.32539172414582 0 0,0 -0.3909481066418682,0.6552515140248589 l -19.927399268036915 -12.123228014728255" fill="#dcff1b" stroke="none" /><path d="M 117.75023020441432 111.22182372390056 l 2.3299245283539816 1.4729951130818701 a23.756494678207922,23.756494678207922 0 0,0 -0.22149552958105223,0.34376598068039455 l -2.304224135395879 -1.5128826936837199" fill="#ff1101" stroke="none" /><path d="M 117.55443506779139 111.5257021239791 l 8.88239531640497 5.8319075589136125 a31.625821960328842,31.625821960328842 0 0,0 -0.30269961918378663,0.45249485985610294 l -8.780692591810462 -5.983939332975522" fill="#ff800b" stroke="none" /><path d="M 116.71984013943494 112.70617746262582 l 14.111562595584525 10.72402709111724 a38.724022002359305,38.724022002359305 0 0,0 -0.4078804608009239,0.5272404784246286 l -13.924875317565533 -10.965345563655118" fill="#ffdd14" stroke="none" /><path d="M 116.498646956653 112.99209946851258 l 11.177313204182111 8.801737822560959 a35.226837988867516,35.226837988867516 0 0,0 -0.37924557543945514,0.4731671670337034 l -11.024149716687802 -8.992832823172915" fill="#ffb010" stroke="none" /><path d="M 116.27256486870786 113.27417163493432 l 4.502144069516331 3.6725761172956966 a26.810087482991268,26.810087482991268 0 0,0 -0.2947884020488918,0.35509162043757575 l -4.438259667573896 -3.7495289948470405" fill="#ff3d05" stroke="none" /><path d="M 115.32070863581623 114.36230785411682 l 45.962125907448716 43.08692356235047 a84.0,84.0 0 0,0 -0.9979737944841514,1.0463715336699715 l -45.21364556158561 -43.87170221260295" fill="#4dd2ff" stroke="none" /><path d="M 114.55890576462653 115.13401014063108 l 6.5615791456302786 6.820773960210422 a30.46452736805461,30.46452736805461 0 0,0 -0.3810447458004033,0.3603015907681286 l -6.443198565439068 -6.932710187724472" fill="#ff700a" stroke="none" /><path d="M 114.29624159901734 115.38237550388516 l 6.977573868876891 7.507683793238257 a31.249480622689426,31.249480622689426 0 0,0 -0.39716668843439584,0.36280235315352827 l -6.847307630975631 -7.6266789129783685" fill="#ff7b0b" stroke="none" /><path d="M 114.0293411484842 115.62618273729858 l 10.331215553485734 11.507130693349188 a36.46441307022043,36.46441307022043 0 0,0 -0.47066466711696286,0.41530684548822905 l -10.131608533462183 -11.683260680609706" fill="#ffc011" stroke="none" /><path d="M 113.75828350139079 115.86535959552629 l 20.870729723544546 24.06707435935601 a52.85610502575632,52.85610502575632 0 0,0 -0.6925018698216668,0.5901651169692466 l -20.45336237714583 -24.422763866548202" fill="#7cff26" stroke="none" /><path d="M 113.20401910651253 116.32954008644616 l 2.8297889099736167 3.499627732195838 a25.500566579772357,25.500566579772357 0 0,0 -0.3437021096127091,0.273057742735481 l -2.7691293076435564 -3.5478193889364453" fill="#ff2b04" stroke="none" /><path d="M 112.63410532772338 116.77436683061366 l 4.696123242503868 6.23506705921421 a28.805743702023733,28.805743702023733 0 0,0 -0.39863724086089913,0.2949023007184361 l -4.588101031224404 -6.314979308672415" fill="#ff5908" stroke="none" /><path d="M 112.34349029814194 116.9893568818739 l 8.886483706402391 12.231195510053912 a36.11858909651685,36.11858909651685 0 0,0 -0.506129225131436,0.3611097635668823 l -8.67462715342207 -12.382349535465014" fill="#ffbc11" stroke="none" /><path d="M 111.7513745106137 117.40417183066458 l 17.94687185895071 26.579907003558223 a53.07150863054933,53.07150863054933 0 0,0 -0.7615137298297557,0.5046897760566607 l -17.48668343038099 -26.884894800706203" fill="#7aff26" stroke="none" /><line stroke="#e1ed5e" stroke-width="0.3" x1="143.8653032363475" x2="146.44561519142675" y1="172.8068346515853" y2="177.08958963109032" /><path d="M 144.38136562736335 173.6633856474863 a86.0,86.0 0 0,1 -40.68145358897372,12.25698825130547" fill="none" id="id42" stroke="none" /><text fill="#e1ed5e" style="font-size:6.75px; font-family:Arial;" text-anchor="middle"><textPath startOffset="21.466115282336833" xlink:href="#id42">June</textPath></text><path d="M 110.8373102113329 117.98757091392108 l 7.836301841574362 13.006551656222507 a36.18479543946003,36.18479543946003 0 0,0 -0.5362795676678874,0.3168434212698349 l -7.611254402878092 -13.139513649786092" fill="#ffbd11" stroke="none" /><path d="M 110.5260780823613 118.17145234162733 l 1.5029305485335136 2.5945495199410558 a23.998414155039562,23.998414155039562 0 0,0 -0.3592348134082126,0.20398290250590181 l -1.458046968204103 -2.6200355882415858" fill="#ff1502" stroke="none" /><path d="M 110.21172684928248 118.3499491758327 l 2.3158715221982047 4.161502296066731 a25.762495382412176,25.762495382412176 0 0,0 -0.3893537306531842,0.21230669809153208 l -2.2438949796763703 -4.200749645918033" fill="#ff2e04" stroke="none" /><path d="M 109.89434966115114 118.52300852407294 l 1.0434171589390302 1.953359805453148 a23.214573073332275,23.214573073332275 0 0,0 -0.3540875690167513,0.1852418808975534 l -1.0096386873957832 -1.9710311052954181" fill="#ff0a01" stroke="none" /><path d="M 109.57404056367764 118.69057910512821 l 22.03795906460548 43.022819307375464 a69.33874864834945,69.33874864834945 0 0,0 -1.0669783653276856,0.5350051024828225 l -21.294126791595033 -43.39579225076759" fill="#3bff98" stroke="none" /><path d="M 108.59647513512805 119.15986991738528 l 8.126103589571848 18.11150329222409 a40.85094735907323,40.85094735907323 0 0,0 -0.6440430519635061,0.2823295473001772 l -7.81313986295059 -18.248697392818723" fill="#fff817" stroke="none" /><path d="M 107.93186726928326 119.44442032107085 l 2.8650004504879742 7.023349116680238 a28.585226456479027,28.585226456479027 0 0,0 -0.4571988144429406,0.18192884377502605 l -2.7436805600031673 -7.071624804861333" fill="#ff5608" stroke="none" /><path d="M 107.59598834532513 119.57807347666477 l 1.8514673662530732 4.772014185416468 a26.11859851855135,26.11859851855135 0 0,0 -0.42054647386327537,0.15901469168376897 l -1.7690506716295231 -4.803177127206868" fill="#ff3404" stroke="none" /><path d="M 106.91757812671514 119.82793768551818 l 0.9879467110771352 2.831763583297906 a23.99915382993609,23.99915382993609 0 0,0 -0.3912207971372664,0.13272333537053566 l -0.9390561810026418 -2.8483499055665646" fill="#ff1502" stroke="none" /><path d="M 105.88484417918355 120.15858648285463 l 2.1223622298457854 7.270170841503264 a28.573625650857075,28.573625650857075 0 0,0 -0.4733273227704742,0.1337670293537716 l -1.9969037389707065 -7.305626664195554" fill="#ff5608" stroke="none" /><path d="M 105.18746579009965 120.34920634021253 l 1.866131271315087 7.320393393318999 a28.55450894199805,28.55450894199805 0 0,0 -0.47733174142185897,0.11731652861792247 l -1.7398462451500176 -7.351431180250952" fill="#ff5608" stroke="none" /><path d="M 104.83641907484287 120.43548508189849 l 7.293955852556007 30.819398341277388 a52.67076105964881,52.67076105964881 0 0,0 -0.8840658090318686,0.201210499864492 l -6.762369894131275 -30.940385574719564" fill="#7eff26" stroke="none" /><path d="M 104.13013068566511 120.58985236759428 l 0.8879694479678301 4.426775139113432 a25.514956021136534,25.514956021136534 0 0,0 -0.4313636047753416,0.08267186150922629 l -0.8116382286207847 -4.441404198971127" fill="#ff2b04" stroke="none" /><path d="M 103.41894727170886 120.7198165907248 l 1.1701603739408153 7.091512797057334 a28.187407672559644,28.187407672559644 0 0,0 -0.47940624373735347,0.07487339578440737 l -1.0479182665949445 -7.110604500188847" fill="#ff5107" stroke="none" /><path d="M 103.06178313531737 120.77559828337769 l 1.730614635566272 11.743011461891793 a32.86985026067971,32.86985026067971 0 0,0 -0.5604644566818806,0.07767526673234863 l -1.5282215876975602 -11.771061294116745" fill="#ff910d" stroke="none" /><path d="M 102.70371172650421 120.8252237178851 l 0.9676089394764067 7.4529663937492785 a28.515515626097173,28.515515626097173 0 0,0 -0.48730650360743455,0.05900603117409745 l -0.8391750128175919 -7.468517953648727" fill="#ff5507" stroke="none" /><path d="M 101.98527174616119 120.90594882070398 l 3.119148826998326 32.84626694933649 a53.994034944396226,53.994034944396226 0 0,0 -0.9260123092040975,0.07990023849471853 l -2.5532922000526863 -32.895091440109866" fill="#70ff27" stroke="none" /><path d="M 101.62511606390274 120.93702456842531 l 0.582517918730528 7.5048128850069755 a28.52738623724124,28.52738623724124 0 0,0 -0.4899065626091347,0.03378682487350154 l -0.4532485953424633 -7.513728054396762" fill="#ff5607" stroke="none" /><line stroke="#e1ed5e" stroke-width="0.3" x1="102.19456741930631" x2="102.32365962044197" y1="184.97166512339345" y2="189.96999836594603" /><path d="M 102.22038585953345 185.97133177190398 a86.0,86.0 0 0,1 -42.740103519485714,-10.115201625700543" fill="none" id="id43" stroke="none" /><text fill="#e1ed5e" style="font-size:6.75px; font-family:Arial;" text-anchor="middle"><textPath startOffset="22.20632615414155" xlink:href="#id43">July</textPath></text><path d="M 100.54218724476979 120.99299961872073 l 0.43057488187226095 16.67146989932041 a37.67702921184843,37.67702921184843 0 0,0 -0.6484760534406431,0.011164103348785336 l -0.14353913853894998 -16.676411479948356" fill="#ffd013" stroke="none" /><path d="M 99.81925306533755 120.99922214144158 l -0.31080871052174847 36.10983039867395 a57.111167988248916,57.111167988248916 0 0,0 -0.9829656318221249,-0.01692264478193373 l 0.9323340322365414 -36.099130276612854" fill="#4fff2b" stroke="none" /><path d="M 99.09653310690486 120.98055641714683 l -0.6512682245963771 15.123929646197334 a36.13794564145002,36.13794564145002 0 0,0 -0.6212490266470576,-0.03211147851840482 l 0.9115053196569237 -15.110478360916728" fill="#ffbc11" stroke="none" /><path d="M 98.01472825383883 120.90594882070398 l -1.2837621195507074 13.518685903419218 a34.57950344213288,34.57950344213288 0 0,0 -0.5920791553978885,-0.06137142532259467 l 1.5162738715541895 -13.494585109640862" fill="#ffa80f" stroke="none" /><path d="M 96.93821686468263 120.77559828337769 l -2.1559789243171203 14.629302618586161 a35.787316870489775,35.787316870489775 0 0,0 -0.6086641011341336,-0.09506081478768559 l 2.4074788890597714 -14.59002349645137" fill="#ffb711" stroke="none" /><path d="M 96.58105272829116 120.7198165907248 l -2.480001280426986 15.029530317829872 a36.232766916272524,36.232766916272524 0 0,0 -0.6144922477925696,-0.10683735388441211 l 2.7383424996916053 -14.984614385424454" fill="#ffbd11" stroke="none" /><path d="M 96.22490169976321 120.6578951692458 l -1.376126254012579 7.530366002192742 a28.655072540084973,28.655072540084973 0 0,0 -0.4844513694536898,-0.09284625795977425 l 1.5055452380379637 -7.5055625458845" fill="#ff5708" stroke="none" /><path d="M 95.51606077576429 120.51570834832081 l -4.771174750290776 21.829918908528978 a43.345233676351725,43.345233676351725 0 0,0 -0.7275391186081877,-0.16558553473120902 l 5.1462340182918265 -21.744556640220082" fill="#e8ff1a" stroke="none" /><path d="M 94.81253420990036 120.34920634021253 l -0.5972991832366241 2.3430639966281133 a23.41799818167633,23.41799818167633 0 0,0 -0.3897530559390028,-0.10293732448389147 l 0.6375426819871156 -2.3324353228406403" fill="#ff0d01" stroke="none" /><path d="M 94.46302465271185 120.25689768951611 l -3.0618623610008764 11.201753429614321 a32.61267759888261,32.61267759888261 0 0,0 -0.5402349553001944,-0.15267579462894873 l 3.2542284844056857 -11.147388841646851" fill="#ff8e0d" stroke="none" /><path d="M 93.08242187328487 119.8279376855182 l -3.118691779866662 8.939143893832386 a30.46755152996004,30.46755152996004 0 0,0 -0.49369103910244033,-0.17702004193629622 l 3.2721023795988287 -8.884136310856132" fill="#ff700a" stroke="none" /><path d="M 92.7421414339146 119.70592522655815 l -5.245806498495985 14.242971211288049 a36.178297491657055,36.178297491657055 0 0,0 -0.5825218925772766,-0.22025993535576938 l 5.490198611833544 -14.150563025825647" fill="#ffbd11" stroke="none" /><path d="M 92.40401165467489 119.57807347666478 l -11.460621824137371 29.538867881402187 a52.68423217171007,52.68423217171007 0 0,0 -0.8426439624473762,-0.33530542284726095 l 11.967386862626606 -29.33721561414886" fill="#7eff26" stroke="none" /><path d="M 92.06813273071674 119.44442032107085 l -1.7131584590769602 4.1996886765731976 a25.53566939778949,25.53566939778949 0 0,0 -0.4055654545238131,-0.16952639288328614 l 1.7851953730982344 -4.1695772406699385" fill="#ff2b04" stroke="none" /><path d="M 91.7346041902142 119.30500536409082 l -2.9691852786818305 6.9349537579396 a28.543848145601917,28.543848145601917 0 0,0 -0.4500132374627464,-0.19727257863367886 l 3.0881191908023213 -6.882816626011469" fill="#ff5607" stroke="none" /><path d="M 91.07499286063937 119.00905698771935 l -12.859784077432593 27.389599197025856 a51.2582912718466,51.2582912718466 0 0,0 -0.7954489421642176,-0.3818638315914385 l 13.329345687597051 -27.164181088934857" fill="#8dff24" stroke="none" /><path d="M 90.7491055286396 118.85261126421891 l -16.706659536302496 34.04688689690022 a58.92496513158902,58.92496513158902 0 0,0 -0.9067320105810787,-0.45465425355311706 l 17.290245454566335 -33.754264802437795" fill="#3dff2e" stroke="none" /><line stroke="#e1ed5e" stroke-width="0.3" x1="58.666819895761336" x2="56.23545636021788" y1="174.27360380694188" y2="178.64263932499728" /><path d="M 58.180547188652646 175.14741091055294 a86.0,86.0 0 0,1 -31.652253787137756,-30.449443065178592" fill="none" id="id44" stroke="none" /><text fill="#e1ed5e" style="font-size:6.75px; font-family:Arial;" text-anchor="middle"><textPath startOffset="22.20632615414155" xlink:href="#id44">August</textPath></text><path d="M 89.7882731507175 118.34994917583269 l -18.60584278603399 33.43374480499799 a59.262157250530755,59.262157250530755 0 0,0 -0.8871015336482696,-0.5037194027333509 l 19.178593086603467 -33.10852223647001" fill="#3aff2e" stroke="none" /><path d="M 89.4739219176387 118.17145234162733 l -5.274060541182546 9.104752883369924 a31.52198838904946,31.52198838904946 0 0,0 -0.4671740740829754,-0.2760146775770603 l 5.430002486293904 -9.012619633499114" fill="#ff7f0b" stroke="none" /><path d="M 89.1626897886671 117.98757091392108 l -4.622819472305375 7.672871908141213 a29.957869344451744,29.957869344451744 0 0,0 -0.43941175637149466,-0.26992258996280216 l 4.754210428609179 -7.592160851350032" fill="#ff6909" stroke="none" /><path d="M 88.8546689885994 117.79835938074946 l -9.173769066132571 14.649904838897308 a38.28518876574617,38.28518876574617 0 0,0 -0.555533034713883,-0.35456746689021995 l 9.424583902893378 -14.489822943183283" fill="#ffd814" stroke="none" /><path d="M 88.24862548938628 117.40417183066458 l -8.417996480003893 12.467329423940381 a36.043170134729166,36.043170134729166 0 0,0 -0.5112004800473778,-0.35160835155142356 l 8.63135384467416 -12.320580283023853" fill="#ffbb11" stroke="none" /><path d="M 87.95078237400918 117.19931262002967 l -9.706547454260487 13.8553347867888 a37.91707319650212,37.91707319650212 0 0,0 -0.5313313547468584,-0.3790908138894505 l 9.943606136856234 -13.686199711055133" fill="#ffd313" stroke="none" /><path d="M 87.65650970185807 116.9893568818739 l -8.853783808145769 12.186187961292255 a36.0629567067468,36.0629567067468 0 0,0 -0.49906843952977414,-0.3691989005228088 l 9.062237218094106 -12.031979112029678" fill="#ffbb11" stroke="none" /><path d="M 87.07902340077011 116.55440617244103 l -9.366310163691995 12.00015351750281 a36.22272809078961,36.22272809078961 0 0,0 -0.48821770378259405,-0.3878696709443936 l 9.571485360191948 -11.837149932553285" fill="#ffbd11" stroke="none" /><path d="M 86.79598089348748 116.32954008644616 l -10.186752435649597 12.598056766412737 a37.201264132004354,37.201264132004354 0 0,0 -0.4944754321495931,-0.4069196169430803 l 10.40209799634388 -12.420842030612476" fill="#ffca12" stroke="none" /><path d="M 86.51685102203217 116.09983520530335 l -10.976118847251247 13.106263597867866 a38.09530141430037,38.09530141430037 0 0,0 -0.4991110761560436,-0.42535328708373993 l 11.200095399984345 -12.915385920561175" fill="#ffd513" stroke="none" /><path d="M 86.24171649860922 115.8653595955263 l -1.5589025388688358 1.7976478934332802 a23.379435873154982,23.379435873154982 0 0,0 -0.30177023229279554,-0.26627714377511685 l 1.589615124068219 -1.7705476078858744" fill="#ff0c01" stroke="none" /><path d="M 85.97065885151581 115.62618273729859 l -13.026575885192837 14.509281160741011 a40.498997899741454,40.498997899741454 0 0,0 -0.5147238469324715,-0.4701880301881876 l 13.274399281592164 -14.282900363966245" fill="#fff316" stroke="none" /><path d="M 85.70375840098266 115.38237550388516 l -12.90396474126844 13.884322656713435 a39.954860107097204,39.954860107097204 0 0,0 -0.4997480948601105,-0.47254301639356233 l 13.141048670519368 -13.660145003573943" fill="#ffed16" stroke="none" /><path d="M 85.18274418774928 114.88116024355367 l -5.291574516360078 5.314396222649681 a28.499571192641923,28.499571192641923 0 0,0 -0.3446539660127908,-0.349132647941994 l 5.382269107428405 -5.2225230807270195" fill="#ff5507" stroke="none" /><path d="M 84.9287848128048 114.62390073753433 l -5.359841110193009 5.2007607476146385 a28.46832036541311,28.46832036541311 0 0,0 -0.33822187735312254,-0.3546242862115023 l 5.448569538925089 -5.107729344820636" fill="#ff5507" stroke="none" /><path d="M 84.4343377721795 114.09645910891817 l -11.60079584698456 10.505826343555638 a36.65090577073295,36.65090577073295 0 0,0 -0.4194628978270666,-0.4712710124043539 l 11.779917594459963 -10.304581161410418" fill="#ffc312" stroke="none" /><path d="M 83.95833913139862 113.55231037782056 l -11.70484740722143 9.88848513174704 a36.32271487129877,36.32271487129877 0 0,0 -0.39938381707187304,-0.4810835358342023 l 11.873327224186843 -9.685540338799074" fill="#ffbe11" stroke="none" /><path d="M 83.50135304334701 112.99209946851258 l -11.822637663046525 9.309907951969654 a36.04822738351046,36.04822738351046 0 0,0 -0.37969629279073613,-0.4908086420073754 l 11.98114077305533 -9.105021315849026" fill="#ffbb11" stroke="none" /><path d="M 83.28015986056508 112.70617746262583 l -5.946995644987866 4.519396202626171 a28.469384127076108,28.469384127076108 0 0,0 -0.2931515981719042,-0.39272447190076626 l 6.023908509854856 -4.416358851216097" fill="#ff5507" stroke="none" /><path d="M 83.06392112726016 112.41649034213515 l -28.52573381970286 20.913311820055274 a56.37066724328795,56.37066724328795 0 0,0 -0.5669820970977535,-0.7874885432131911 l 28.88149570917622 -20.419189671390942" fill="#57ff2a" stroke="none" /><path d="M 82.85270091963577 112.12312394758628 l -12.244076996144948 8.656550652809992 a35.99510889230855,35.99510889230855 0 0,0 -0.35333329017431875,-0.5090029573381423 l 12.391271193481401 -8.444506433284836" fill="#ffba11" stroke="none" /><path d="M 82.24976979558568 111.22182372390057 l -12.785728653803332 8.083229990950963 a36.126581381637315,36.126581381637315 0 0,0 -0.3277805333864372,-0.5284865874128727 l 12.922973826857726 -7.861947072172826" fill="#ffbc11" stroke="none" /><line stroke="#e1ed5e" stroke-width="0.3" x1="26.63291911575756" x2="22.317208475507996" y1="142.92168965132927" y2="145.44649492493687" /><path d="M 25.769776987707644 143.4266507060508 a86.0,86.0 0 0,1 -11.730757126820373,-40.83630448921669" fill="none" id="id45" stroke="none" /><text fill="#e1ed5e" style="font-size:6.75px; font-family:Arial;" text-anchor="middle"><textPath startOffset="21.46611528233685" xlink:href="#id45">September</textPath></text><path d="M 81.87401531095188 110.60418214915194 l -13.101903674404735 7.664961404716211 a36.1793120143559,36.1793120143559 0 0,0 -0.3098465260172488,-0.5402435351524804 l 13.23190219657436 -7.438298023705422" fill="#ffbd11" stroke="none" /><path d="M 81.69416730710424 110.29060199501025 l -27.793305236965843 15.623973359619201 a52.88379462261736,52.88379462261736 0 0,0 -0.4392467304716905,-0.7973604036435913 l 28.05812837688905 -15.143242437577788" fill="#7cff26" stroke="none" /><path d="M 81.18737489456691 109.33194174019688 l -2.850605626653305 1.4140336865865413 a24.182050236169914,24.182050236169914 0 0,0 -0.1817646608646994,-0.37448903829546426 l 2.8745235441327233 -1.3647556923257922" fill="#ff1802" stroke="none" /><path d="M 81.02952815118164 109.00673069616217 l -6.786838516067358 3.2222301732767415 a28.51291849634684,28.51291849634684 0 0,0 -0.20668523538672334,-0.4451816094412629 l 6.8412983682939075 -3.104928496556653" fill="#ff5507" stroke="none" /><path d="M 80.87730276802145 108.67885076344099 l -15.179352498075358 6.889160740157301 a37.66953142606448,37.66953142606448 0 0,0 -0.262895507832622,-0.5927599677754133 l 15.295689090639259 -6.626852435889192" fill="#ffd013" stroke="none" /><path d="M 80.58989483394504 108.01547362559985 l -9.457267116720198 3.9054129019812263 a31.23191825866287,31.23191825866287 0 0,0 -0.20092145278439577,-0.4986705683624519 l 9.523091183761982 -3.742042965775969" fill="#ff7b0b" stroke="none" /><path d="M 80.20201598880116 107.00284435728193 l -14.16655769861314 5.0109242731848544 a36.02666693248135,36.02666693248135 0 0,0 -0.20176506484829523,-0.5864237225824931 l 14.250713594404663 -4.7663278475130655" fill="#ffbb11" stroke="none" /><path d="M 79.86692584326677 105.97154293290107 l -14.679277291105173 4.353926970386605 a36.31136381425952,36.31136381425952 0 0,0 -0.1725781653985991,-0.6007672338808282 l 14.752048093389876 -4.100602261001181" fill="#ffbe11" stroke="none" /><path d="M 79.76711848015287 105.62410040840567 l -8.727291892195323 2.4259108049945275 a30.058182323477897,30.058182323477897 0 0,0 -0.13427694787786618,-0.4996944753042324 l 8.767756916414962 -2.275325396514756" fill="#ff6b09" stroke="none" /><path d="M 79.50377843672027 104.57218783832718 l -11.37164335221512 2.536725575310003 a32.651147976676384,32.651147976676384 0 0,0 -0.1176466904002738,-0.5496061709501413 l 11.413624081339835 -2.340605584943697" fill="#ff8e0d" stroke="none" /><path d="M 79.23777060512086 103.15116336523772 l -7.487671278450905 1.136432652527031 a28.573420650397562,28.573420650397562 0 0,0 -0.06961838967997609,-0.48691085527397676 l 7.50612371914748 -1.0073763252726542" fill="#ff5608" stroke="none" /><path d="M 79.18660465613746 102.79330883721812 l -14.899981594163954 1.9996857587985295 a36.03356892558671,36.03356892558671 0 0,0 -0.07721220086195592,-0.6154572106318519 l 14.932195304272758 -1.7429107938792692" fill="#ffbb11" stroke="none" /><path d="M 79.1416061653843 102.43462659150553 l -30.11880472676774 3.515517228870191 a51.32327916890998,51.32327916890998 0 0,0 -0.09486912270267105,-0.8783702526781137 l 30.17485615097146 -2.996550654307295" fill="#8dff24" stroke="none" /><path d="M 79.07016306316243 101.71520430193888 l -6.8957239479368795 0.5651059497586034 a27.91884047370676,27.91884047370676 0 0,0 -0.035129135400798595,-0.4793091423158468 l 6.904429642002014 -0.44632367094599573" fill="#ff4d07" stroke="none" /><path d="M 79.0235259727143 100.99374915477108 l -20.465779186763857 0.9695552618673243 a41.488732394347664,41.488732394347664 0 0,0 -0.027654941153721798,-0.7136511492088491 l 20.479436260768782 -0.6171268656444783" fill="#ffff18" stroke="none" /><line stroke="#e1ed5e" stroke-width="0.3" x1="15.007084014347285" x2="10.007500721073583" y1="101.09737516637583" y2="101.16192664675087" /><path d="M 14.007167355692545 101.11028546245083 a86.0,86.0 0 0,1 10.666146001902534,-42.60595125391555" fill="none" id="id46" stroke="none" /><text fill="#e1ed5e" style="font-size:6.75px; font-family:Arial;" text-anchor="middle"><textPath startOffset="22.20632615414155" xlink:href="#id46">October</textPath></text><path d="M 79.05617556472873 98.46500227214037 l -18.580819854552292 -1.3618103201091656 a39.63065736401377,39.63065736401377 0 0,0 0.05571979120215027,-0.6799225857219641 l 18.554625579530647 1.6814468230389077" fill="#ffe815" stroke="none" /><path d="M 79.08570108090925 98.10471618934814 l -1.6452327143318535 -0.1490933518876726 a22.651974428338665,22.651974428338665 0 0,0 0.03853303026442439,-0.3880223561776636 l 1.6424225583852003 0.17739123876976678" fill="#ff0100" stroke="none" /><path d="M 79.21141760316559 97.0276538004421 l -31.50112291188194 -4.504022505315058 a52.82148587727917,52.82148587727917 0 0,0 0.13644068136292972,-0.8989736160622943 l 31.418926337079707 5.045595233769443" fill="#7cff26" stroke="none" /><path d="M 79.32604984820605 96.31383870115002 l -16.32446480531801 -2.9106489058928267 a37.58191871387149,37.58191871387149 0 0,0 0.11903495796817079,-0.6358895052408646 l 16.271944123439976 3.1912164885962633" fill="#ffcf13" stroke="none" /><path d="M 79.71946130924805 94.55025226153421 l -14.5623190545512 -3.9131586465475263 a36.078923928437156,36.078923928437156 0 0,0 0.16632938761917157,-0.5983753042420239 l 14.492802896365667 4.163245254208492" fill="#ffbb11" stroke="none" /><path d="M 80.14247586403 93.16781622104843 l -13.493931411818703 -4.6427247765049415 a35.27028655273749,35.27028655273749 0 0,0 0.20246306585179558,-0.5723903511326913 l 13.412015265157098 4.874312754064245" fill="#ffb110" stroke="none" /><path d="M 80.38941819471856 92.48833698450439 l -12.188945170473735 -4.668869569708184 a34.05253720269596,34.05253720269596 0 0,0 0.2143792886233372,-0.5455719060795758 l 12.106772331968706 4.877990480683523" fill="#ffa10e" stroke="none" /><path d="M 80.52162464483688 92.15188598940014 l -14.29324608786468 -5.758951803410449 a36.40981536561238,36.40981536561238 0 0,0 0.23922690023486293,-0.5793069142262316 l 14.191997500743618 6.004133288089992" fill="#ffc011" stroke="none" /><path d="M 80.95270993114464 91.15688171328213 l -15.818860679967564 -7.34424979345474 a38.44059512289887,38.44059512289887 0 0,0 0.2838047284596285,-0.5977651373654399 l 15.690097757666184 7.615457346460711" fill="#ffda14" stroke="none" /><path d="M 81.6062741919709 89.86733742301443 l -30.651065768688817 -16.884937304194544 a55.99412722905185,55.99412722905185 0 0,0 0.47233008433933227,-0.8402225160325647 l 30.355878043057054 17.410043330161894" fill="#5bff2a" stroke="none" /><line stroke="#e1ed5e" stroke-width="0.3" x1="26.266209847984243" x2="21.928928074336255" y1="57.71137044288968" y2="55.22380399835378" /><path d="M 25.398753493254645 57.2138571539825 a86.0,86.0 0 0,1 29.58750427330803,-30.4925239686951" fill="none" id="id47" stroke="none" /><text fill="#e1ed5e" style="font-size:6.75px; font-family:Arial;" text-anchor="middle"><textPath startOffset="21.46611528233685" xlink:href="#id47">November</textPath></text><path d="M 81.96595687620814 89.24020034530311 l -2.56560659058726 -1.5307389872584776 a23.98755736761286,23.98755736761286 0 0,0 0.2146134793846437,-0.35276813129347273 l 2.5388773129163993 1.5746748917590248" fill="#ff1502" stroke="none" /><path d="M 82.15384107792192 88.93136811851018 l -4.830183857325853 -2.9958002318646217 a26.683792318937364,26.683792318937364 0 0,0 0.24545582397726898,-0.3882521671884124 l 4.7779004371026215 3.0785000467672496" fill="#ff3c05" stroke="none" /><path d="M 82.34701348167596 88.62581576622439 l -4.437424398388409 -2.8591242948228572 a26.278761883686272,26.278761883686272 0 0,0 0.24827594173101875,-0.378141292489626 l 4.38755182129947 2.9350836512901526" fill="#ff3605" stroke="none" /><path d="M 82.7489923806493 88.02491185347247 l -6.024980173738688 -4.182345185487609 a28.33433005423915,28.33433005423915 0 0,0 0.28157224326816216,-0.39826396966019145 l 5.952095310666647 4.285435655479587" fill="#ff5307" stroke="none" /><path d="M 83.17141714833178 87.43820079747577 l -4.13773529373338 -3.0886379662042565 a26.16338434045784,26.16338434045784 0 0,0 0.2725029352581864,-0.35858192036474823 l 4.083956418251085 3.159404662450031" fill="#ff3405" stroke="none" /><path d="M 83.39014120810768 87.1503855733568 l -3.1197223460120598 -2.4134599677635604 a24.94429417414628,24.94429417414628 0 0,0 0.2656518859291141,-0.33735091775858483 l 3.0777163794889746 2.466803279475191" fill="#ff2303" stroke="none" /><path d="M 84.5562425177563 85.77008943001954 l -1.303628162015228 -1.2011657255893167 a22.77263800171657,22.77263800171657 0 0,0 0.2681019180457952,-0.2859924333056063 l 1.2827589219989743 1.2234275757729753" fill="#ff0300" stroke="none" /><path d="M 84.80347519578584 85.50635884689758 l -9.173800198876457 -8.749485149124565 a33.67722763318767,33.67722763318767 0 0,0 0.4037029378418221,-0.4160513639360822 l 9.021832997331519 8.906100708610769" fill="#ff9c0e" stroke="none" /><path d="M 87.80319425747018 82.90503203632743 l -11.193639307973507 -15.688936054746316 a40.2727858776807,40.2727858776807 0 0,0 0.5677865628855325,-0.39777077215015305 l 10.921921605504314 15.879291669660411" fill="#fff016" stroke="none" /><path d="M 88.09926311788651 82.69761687909137 l -2.970807986865846 -4.319233210227861 a26.242277712899345,26.242277712899345 0 0,0 0.3743839624221237,-0.25278572264141713 l 2.896019330037185 4.369730845167944" fill="#ff3505" stroke="none" /><path d="M 88.39885842347998 82.49532879139004 l -32.97852247489613 -49.76046443887775 a80.69662273361908,80.69662273361908 0 0,0 1.164463695053891,-0.7573995789280212 l 32.11709175405795 50.320762941965306" fill="#49f1ff" stroke="none" /><line stroke="#e1ed5e" stroke-width="0.3" x1="56.76296977257108" x2="54.21961505331056" y1="26.818313649435495" y2="22.513508569990535" /><path d="M 56.25429882871898 25.957352633546506 a86.0,86.0 0 0,1 42.26535254187918,-11.944610805530505" fill="none" id="id48" stroke="none" /><text fill="#e1ed5e" style="font-size:6.75px; font-family:Arial;" text-anchor="middle"><textPath startOffset="22.20632615414155" xlink:href="#id48">December</textPath></text><path d="M 96.75951476605007 79.25152402106235 l -1.110416694797587 -7.109877828554592 a28.196067535331874,28.196067535331874 0 0,0 0.4801803990744475,-0.07076610876580111 l 0.9878673152944903 7.127938421481362" fill="#ff5107" stroke="none" /></svg>