<?xml version="1.0" encoding="utf-8" ?>
<svg baseProfile="full" height="200mm" version="1.1" viewBox="0,0,200,200" width="200mm" xmlns="http://www.w3.org/2000/svg" xmlns:ev="http://www.w3.org/2001/xml-events" xmlns:xlink="http://www.w3.org/1999/xlink"><defs /><rect fill="#1a1a1a" height="200" width="200" x="0" y="0" /><text alignment-baseline="middle" fill="#e1ed5e" style="dominant-baseline: central; font-size:9.0px; font-family:Arial;" text-anchor="middle" x="100.0" y="100.0">2021</text><line stroke="#e1ed5e" stroke-width="0.3" x1="100.0" x2="100.0" y1="15.0" y2="10.0" /><path d="M 100.0 14.0 a86.0,86.0 0 0,1 42.46469731375804,11.215312516191453" fill="none" id="id37" stroke="none" /><text fill="#e1ed5e" style="font-size:6.75px; font-family:Arial;" text-anchor="middle"><textPath startOffset="22.20632615414155" xlink:href="#id37">January</textPath></text><path d="M 101.08401301168833 79.027996857942 l 0.38822627284941796 -7.510871665042687 a28.520898404291316,28.520898404291316 0 0,0 0.4900677402599076,0.029562224409424964 l -0.5174560619489376 7.503076171252959" fill="#ff5607" stroke="none" /><path d="M 102.16513564639614 79.11191278185805 l 0.6287992754581302 -6.066323895380927 a27.09882563552085,27.09882563552085 0 0,0 0.46356192686015807,0.05208658375448756 l -0.7331279058280136 6.054601358155839" fill="#ff4206" stroke="none" /><path d="M 103.2404852339499 79.25152402106235 l 1.166192098431073 -7.4670016970359905 a28.557520648597755,28.557520648597755 0 0,0 0.4850301695448012,0.08003413387375292 l -1.2945514741147492 7.4458213002226135" fill="#ff5608" stroke="none" /><path d="M 103.95276090670814 79.375362276772 l 1.484494683341519 -7.745767014143787 a28.886737671703504,28.886737671703504 0 0,0 0.4875442929411012,0.0977967985854092 l -1.6176053857497454 7.7190662594811705" fill="#ff5b08" stroke="none" /><path d="M 104.66035177308747 79.52364482259891 l 1.6811479870078208 -7.386520366667367 a28.57541693119344,28.57541693119344 0 0,0 0.47867403864590047,0.11328667960956612 l -1.8080457126162446 7.356487774916932" fill="#ff5608" stroke="none" /><path d="M 105.71112130821622 79.79150937346287 l 2.0494596121154722 -7.251900830983706 a28.53593725850439,28.53593725850439 0 0,0 0.4715356845300739,0.1376541966741679 l -2.1739855143689732 7.2155483053908345" fill="#ff5607" stroke="none" /><path d="M 106.40334571778207 80.00007090966166 l 2.295777214335704 -7.170529831994188 a28.529083017830366,28.529083017830366 0 0,0 0.46640591741396653,0.15376669795653758 l -2.4188659539920883 7.129949409778415" fill="#ff5607" stroke="none" /><path d="M 107.08798089147638 80.2323363322302 l 2.543457981681106 -7.093447725774562 a28.535660498116513,28.535660498116513 0 0,0 0.46094287555783076,0.16976915112489627 l -2.665183183011513 7.048615306843341" fill="#ff5607" stroke="none" /><path d="M 108.09893153111575 80.62456947434976 l 3.111226296991665 -7.443123668269042 a29.067206394548194,29.067206394548194 0 0,0 0.4599764190747417,0.196937897458062 l -3.238886473856722 7.388466242848189" fill="#ff5d08" stroke="none" /><path d="M 108.76106565485865 80.91482961587045 l 3.1001031336114906 -6.753287652916673 a28.430850123778878,28.430850123778878 0 0,0 0.44300922056076053,0.20799876915839252 l -3.215890565471849 6.6989239011182775" fill="#ff5407" stroke="none" /><path d="M 109.41281617654863 81.2277094730956 l 3.349538706150105 -6.680095791057587 a28.472823383548082,28.472823383548082 0 0,0 0.43623011011401136,0.22345400566979728 l -3.4640293038528718 6.621449260075289" fill="#ff5507" stroke="none" /><path d="M 110.36928655335952 81.73862282372117 l 0.7731368085811254 -1.3615732189202723 a22.565765676997653,22.565765676997653 0 0,0 0.33612596372317183,0.19470585361820425 l -0.7964595047696256 1.3480632079120185" fill="#ff0000" stroke="none" /><line stroke="#e1ed5e" stroke-width="0.3" x1="143.23703022742887" x2="145.7803849466894" y1="26.81831364943548" y2="22.513508569990506" /><path d="M 143.74570117128098 25.957352633546492 a86.0,86.0 0 0,1 28.547481713284135,27.462654790039103" fill="none" id="id38" stroke="none" /><text fill="#e1ed5e" style="font-size:6.75px; font-family:Arial;" text-anchor="middle"><textPath startOffset="19.985693538727396" xlink:href="#id38">February</textPath></text><path d="M 110.99172775467656 82.1063720568725 l 3.9127330629419044 -6.369607329408997 a28.475384776230555,28.475384776230555 0 0,0 0.41544345353654616,0.26015065249172953 l -4.0217956688507135 6.301312335594323" fill="#ff5507" stroke="none" /><path d="M 111.60114157652 82.49532879139004 l 4.479131026963487 -6.758448331151103 a29.10797376670313,29.10797376670313 0 0,0 0.41526725218294225,0.280390302386993 l -4.594802973552971 6.68034611646544" fill="#ff5e08" stroke="none" /><path d="M 111.90073688211348 82.69761687909136 l 8.597560878065975 -12.499922793958532 a36.17122680955547,36.17122680955547 0 0,0 0.5099606619698277,0.35726003314882365 l -8.811452679619453 12.350077918045773" fill="#ffbc11" stroke="none" /><path d="M 112.48926042617603 83.11751280151076 l 4.261658523205536 -5.760741069307573 a28.165742880959193,28.165742880959193 0 0,0 0.3872841232918767,0.29169437242154317 l -4.360188800255797 5.686530107380183" fill="#ff5107" stroke="none" /><path d="M 113.06298171725822 83.55741782278167 l 4.741349596217174 -5.9680119021926314 a28.622175677473045,28.622175677473045 0 0,0 0.38312363374417885,0.309792667358312 l -4.843376628525844 5.8855131375701895" fill="#ff5708" stroke="none" /><path d="M 114.16331599549186 84.49514656593476 l 5.01687182632468 -5.492065727363167 a28.438534054196932,28.438534054196932 0 0,0 0.3585856959039581,0.33326632426181074 l -5.110665406023485 5.404894817026716" fill="#ff5407" stroke="none" /><path d="M 114.42810811169701 84.74124197986012 l 12.764809764001697 -13.499700851570042 a39.579082092316455,39.579082092316455 0 0,0 0.49100067083276694,0.4723422563218001 l -12.995293678446883 13.27797550848594" fill="#ffe815" stroke="none" /><path d="M 115.9244219780498 86.31012108654704 l 10.939748457972195 -9.404663600330817 a35.42656555660745,35.42656555660745 0 0,0 0.3935543688075893,0.46584423923023316 l -11.1000134402669 9.214960411471477" fill="#ffb310" stroke="none" /><path d="M 116.15771136456269 86.58626213691792 l 11.423588658018316 -9.48358466474453 a35.84711271328477,35.84711271328477 0 0,0 0.39005330046154785,0.4781592259444652 l -11.585140450556272 9.285541269191965" fill="#ffb811" stroke="none" /><path d="M 117.04232023915458 87.72973835380427 l 25.45700379156087 -18.32873064625291 a52.36879674368201,52.36879674368201 0 0,0 0.5204146188791403,0.7360895718212197 l -25.76873103024389 17.8878145740999" fill="#81ff25" stroke="none" /><line stroke="#e1ed5e" stroke-width="0.3" x1="172.23445277983987" x2="176.4835382374775" y1="55.19839476539836" y2="52.563006222186495" /><path d="M 173.08426987136738 54.67131705675599 a86.0,86.0 0 0,1 12.851231095245387,41.99856678651699" fill="none" id="id39" stroke="none" /><text fill="#e1ed5e" style="font-size:6.75px; font-family:Arial;" text-anchor="middle"><textPath startOffset="22.20632615414155" xlink:href="#id39">March</textPath></text><path d="M 118.21658344932153 89.55222093294921 l 27.45257378885701 -15.744907741114867 a52.647210420649365,52.647210420649365 0 0,0 0.4440976682517824,0.7900001980704462 l -27.719529098401225 15.270024033109626" fill="#7eff26" stroke="none" /><path d="M 119.04729006885535 91.15688171328212 l 7.525867482287479 -3.4940475057316807 a29.297412207023456,29.297412207023456 0 0,0 0.2084269286999552,0.4592411093540004 l -7.584896727950781 3.3639843875356177" fill="#ff6008" stroke="none" /><path d="M 120.08093135843002 93.85539295169968 l 11.740009254733529 -3.592350490429967 a33.277328673099916,33.277328673099916 0 0,0 0.16289110226049203,0.5491878193177868 l -11.800106254105723 3.3897332843656502" fill="#ff960d" stroke="none" /><path d="M 120.53481517161879 95.60439243477599 l 14.93873599984377 -3.19773128840006 a36.2771502141545,36.2771502141545 0 0,0 0.1254510567023486,0.61174390551661 l -14.991566352461115 2.9401117267200383" fill="#ffbe11" stroke="none" /><path d="M 120.73433829027371 96.67025291283417 l 8.882825159909357 -1.4265013326172118 a29.996637642668365,29.996637642668365 0 0,0 0.07748289565483862,0.5105154723210835 l -8.906063949003496 1.2733867479040462" fill="#ff6a09" stroke="none" /><path d="M 120.96714384426684 98.82574320788733 l 5.692657842249587 -0.3188151035775357 a26.70157841121166,26.70157841121166 0 0,0 0.021750841004104734,0.459125876186839 l -5.697302291487188 0.22077812076769693" fill="#ff3c05" stroke="none" /><path d="M 120.98425023603335 99.18683210126433 l 7.796944046991986 -0.30214206063769006 a28.80279605633328,28.80279605633328 0 0,0 0.014933983047290388,0.4955861929896534 l -7.800989724494922 0.16788572022303758" fill="#ff5908" stroke="none" /><line stroke="#e1ed5e" stroke-width="0.3" x1="184.98032266829074" x2="189.97916517819016" y1="98.17113171792111" y2="98.06355123074" /><path d="M 185.9800911702706 98.14961562048488 a86.0,86.0 0 0,1 -9.607161424134198,41.387399972396054" fill="none" id="id40" stroke="none" /><text fill="#e1ed5e" style="font-size:6.75px; font-family:Arial;" text-anchor="middle"><textPath startOffset="21.466115282336823" xlink:href="#id40">April</textPath></text><path d="M 120.99513854157772 99.54816195383933 l 8.518274434085436 -0.1833224614991418 a29.520246854363062,29.520246854363062 0 0,0 0.006560513426313919,0.5081189948074727 l -8.520167954629466 0.03666720863120637" fill="#ff6309" stroke="none" /><path d="M 120.99980553446 99.90962569577887 l 4.214633907115469 -0.01813800638664524 a25.21467293609873,25.21467293609873 0 0,0 -0.0018679302395706574,0.43404120364732185 l -4.214321679586395 -0.05441267546436133" fill="#ff2703" stroke="none" /><path d="M 120.99824983174949 100.27111621757518 l 4.630406581445866 0.05978490246833365 a25.63079251792394,25.63079251792394 0 0,0 -0.009493080835142493,0.4411061640642018 l -4.628691437925716 -0.13948088232265027" fill="#ff2d04" stroke="none" /><path d="M 120.9904718944345 100.63252640178507 l 8.530495216012355 0.257057748466327 a29.53436742333351,29.53436742333351 0 0,0 -0.019686578643598796,0.508023119445542 l -8.524806504517553 -0.40385811492587526" fill="#ff6409" stroke="none" /><path d="M 120.9764740272857 100.99374915477107 l 11.84765334203854 0.5612761934802082 a32.860940969353344,32.860940969353344 0 0,0 -0.031630453821910536,0.5647830011272225 l -11.836236537329102 -0.765130910942854" fill="#ff910d" stroke="none" /><path d="M 120.95626037817324 101.35467743843564 l 2.242645011564628 0.14497150468463815 a23.24732582975105,23.24732582975105 0 0,0 -0.029251159536831155,0.3991088317256078 l -2.239817293363459 -0.18355347290701618" fill="#ff0a01" stroke="none" /><path d="M 120.92983693683757 101.71520430193887 l 8.448368447071486 0.6923454754335568 a29.47668990082959,29.47668990082959 0 0,0 -0.04579470992523912,0.505340808013383 l -8.435199140869171 -0.8376676719955104" fill="#ff6309" stroke="none" /><path d="M 120.89721153311464 102.0752229133903 l 2.563822376397326 0.25460348778742065 a23.576433215456817,23.576433215456817 0 0,0 -0.043580136963723266,0.4034979435463216 l -2.5590599379325507 -0.2986977532185337" fill="#ff0f01" stroke="none" /><path d="M 120.81339534386255 102.79330883721812 l 31.399622204627914 4.214057377013253 a52.68113877640957,52.68113877640957 0 0,0 -0.1283562123343389,0.8977230501126954 l -31.32243194127697 -4.753925899106357" fill="#7eff26" stroke="none" /><path d="M 120.64145759157962 103.86396538481128 l 4.739427858464325 0.8871943809039395 a25.82175178696449,25.82175178696449 0 0,0 -0.08554385726213735,0.43618628521354363 l -4.723454068226523 -0.9686443931854282" fill="#ff2f04" stroke="none" /><path d="M 120.41448212921028 104.9243191809786 l 2.2116512198855256 0.5334877688684392 a23.27508468368836,23.27508468368836 0 0,0 -0.09729948066915048,0.38866305877321783 l -2.2021404249213146 -0.5714786670390529" fill="#ff0a01" stroke="none" /><path d="M 120.32669344350535 105.2749913415812 l 1.5289061934499562 0.39676728312716625 a22.57955007053583,22.57955007053583 0 0,0 -0.10086814416448218,0.37536788830670226 l -1.5218499729436967 -0.42302610460941675" fill="#ff0000" stroke="none" /><path d="M 120.23288151984713 105.62410040840565 l 2.3362329645021496 0.649398789633528 a23.424809941501394,23.424809941501394 0 0,0 -0.11133183389073992,0.3875607191381243 l -2.32470849372531 -0.6895169842762343" fill="#ff0d01" stroke="none" /><path d="M 120.13307415673323 105.97154293290107 l 1.7775414872321225 0.5272252624405858 a22.85408204138515,22.85408204138515 0 0,0 -0.11511190566318756,0.37619236803758416 l -1.7682028090628021 -0.5577446030302271" fill="#ff0400" stroke="none" /><path d="M 120.02730092923936 106.31721596034902 l 2.453514584704536 0.7739126479502728 a23.572678488271567,23.572678488271567 0 0,0 -0.1253928976877407,0.3859196568922632 l -2.4398294360005486 -0.8160312048203313" fill="#ff0f01" stroke="none" /><path d="M 119.67450827220406 107.3425965602758 l 2.0266545422913964 0.7563546933531093 a23.163192329855953,23.163192329855953 0 0,0 -0.14262539386315154,0.37234989749860253 l -2.013334868834738 -0.7911281576848557" fill="#ff0901" stroke="none" /><path d="M 119.54520255179757 107.68017299344265 l 18.313083376687562 7.196018972101364 a40.676171167388055,40.676171167388055 0 0,0 -0.2616783041301407,0.6494640907694827 l -18.186502458300026 -7.510182430713661" fill="#fff517" stroke="none" /><path d="M 119.26925614724726 108.34839909993367 l 17.92126680573697 7.764383146261666 a40.530935706318886,40.530935706318886 0 0,0 -0.2828652367592674,0.6377864346505238 l -17.78496048424643 -8.071717917404877" fill="#fff417" stroke="none" /><path d="M 118.81262510543309 109.33194174019688 l 6.774431924898755 3.3604350106263174 a28.562106278394303,28.562106278394303 0 0,0 -0.2222694000819597,0.438558613065156 l -6.715583855030526 -3.4765478353941677" fill="#ff5608" stroke="none" /><line stroke="#e1ed5e" stroke-width="0.3" x1="174.80103733775053" x2="179.2010983576182" y1="140.37084112569926" y2="142.7455964860345" /><path d="M 175.68104954172406 140.8457921977663 a86.0,86.0 0 0,1 -30.038265399797805,32.042727171017184" fill="none" id="id41" stroke="none" /><text fill="#e1ed5e" style="font-size:6.75px; font-family:Arial;" text-anchor="middle"><textPath startOffset="22.206326154141568" xlink:href="#id41">May</textPath></text><path d="M 118.12598468904814 110.60418214915192 l 20.133128250377013 11.778414406817296 a44.32539172414582,44.32539172414582 0 0,0 -0.39094810664187307,0.6552515140248589 l -19.92739926803691 -12.123228014728259" fill="#dcff1b" stroke="none" /><path d="M 117.75023020441432 111.22182372390056 l 2.3299245283539816 1.4729951130818701 a23.756494678207922,23.756494678207922 0 0,0 -0.22149552958105223,0.34376598068039715 l -2.304224135395879 -1.5128826936837203" fill="#ff1101" stroke="none" /><path d="M 117.55443506779139 111.5257021239791 l 8.879508842251 5.8300123887666535 a31.622368932247944,31.622368932247944 0 0,0 -0.3026665692827776,0.45244545473836384 l -8.7778391675575 -5.981994757710824" fill="#ff800b" stroke="none" /><path d="M 116.71984013943494 112.70617746262583 l 14.111562595584525 10.724027091117241 a38.724022002359305,38.724022002359305 0 0,0 -0.4078804608009239,0.5272404784246243 l -13.924875317565533 -10.965345563655118" fill="#ffdd14" stroke="none" /><path d="M 116.498646956653 112.99209946851258 l 11.177542340665575 8.801918259416952 a35.22712964103544,35.22712964103544 0 0,0 -0.3792487153123636,0.4731710845079381 l -11.024375713298356 -8.993017177503141" fill="#ffb010" stroke="none" /><path d="M 116.27256486870786 113.27417163493432 l 4.502144069516331 3.672576117295697 a26.810087482991268,26.810087482991268 0 0,0 -0.2947884020488918,0.3550916204375728 l -4.438259667573896 -3.7495289948470405" fill="#ff3d05" stroke="none" /><path d="M 115.32070863581623 114.36230785411682 l 45.96212590744871 43.08692356235047 a84.0,84.0 0 0,0 -0.997973794484142,1.0463715336699715 l -45.21364556158561 -43.87170221260295" fill="#4dd2ff" stroke="none" /><path d="M 114.55890576462653 115.13401014063108 l 6.5611144670098644 6.820290925903643 a30.46385710813354,30.46385710813354 0 0,0 -0.3810363623116933,0.36029366365628235 l -6.442742270307363 -6.932219226305846" fill="#ff700a" stroke="none" /><path d="M 114.29624159901734 115.38237550388516 l 6.977760208143052 7.50788428932972 a31.249754339705348,31.249754339705348 0 0,0 -0.3971701672531991,0.362805530972023 l -6.847490491422989 -7.6268825868883265" fill="#ff7b0b" stroke="none" /><path d="M 114.0293411484842 115.62618273729858 l 10.331215553485734 11.507130693349188 a36.46441307022043,36.46441307022043 0 0,0 -0.47066466711696286,0.41530684548822905 l -10.131608533462183 -11.683260680609706" fill="#ffc011" stroke="none" /><path d="M 113.75828350139079 115.86535959552629 l 20.87072972354454 24.067074359356003 a52.856105025756314,52.856105025756314 0 0,0 -0.6925018698216667,0.5901651169692465 l -20.453362377145826 -24.4227638665482" fill="#7cff26" stroke="none" /><path d="M 113.20401910651253 116.32954008644616 l 2.8297889099736167 3.499627732195838 a25.500566579772357,25.500566579772357 0 0,0 -0.3437021096127091,0.273057742735481 l -2.7691293076435564 -3.5478193889364453" fill="#ff2b04" stroke="none" /><path d="M 112.63410532772338 116.77436683061366 l 4.696123242503868 6.23506705921421 a28.805743702023733,28.805743702023733 0 0,0 -0.39863724086089913,0.2949023007184361 l -4.588101031224404 -6.314979308672415" fill="#ff5908" stroke="none" /><path d="M 112.34349029814194 116.9893568818739 l 8.886483706402391 12.231195510053912 a36.11858909651685,36.11858909651685 0 0,0 -0.506129225131436,0.3611097635668823 l -8.67462715342207 -12.382349535465014" fill="#ffbc11" stroke="none" /><path d="M 111.7513745106137 117.40417183066458 l 17.94687185895071 26.579907003558223 a53.07150863054933,53.07150863054933 0 0,0 -0.7615137298297557,0.5046897760566607 l -17.48668343038099 -26.884894800706203" fill="#7aff26" stroke="none" /><line stroke="#e1ed5e" stroke-width="0.3" x1="143.8653032363475" x2="146.44561519142675" y1="172.8068346515853" y2="177.08958963109032" /><path d="M 144.38136562736335 173.6633856474863 a86.0,86.0 0 0,1 -40.68145358897372,12.25698825130547" fill="none" id="id42" stroke="none" /><text fill="#e1ed5e" style="font-size:6.75px; font-family:Arial;" text-anchor="middle"><textPath startOffset="21.466115282336833" xlink:href="#id42">June</textPath></text><path d="M 110.8373102113329 117.98757091392108 l 7.836301841574362 13.006551656222507 a36.18479543946003,36.18479543946003 0 0,0 -0.5362795676678874,0.3168434212698349 l -7.611254402878092 -13.139513649786092" fill="#ffbd11" stroke="none" /><path d="M 110.5260780823613 118.17145234162733 l 1.5029305485335136 2.5945495199410558 a23.998414155039562,23.998414155039562 0 0,0 -0.3592348134082113,0.20398290250590181 l -1.4580469682041033 -2.6200355882415858" fill="#ff1502" stroke="none" /><path d="M 110.21172684928248 118.3499491758327 l 2.3157370493299183 4.161260655222336 a25.762218844440127,25.762218844440127 0 0,0 -0.38934955127966275,0.21230441916385556 l -2.2437646861816067 -4.200505726145962" fill="#ff2e04" stroke="none" /><path d="M 109.89434966115114 118.52300852407294 l 1.0434171589390302 1.953359805453148 a23.214573073332275,23.214573073332275 0 0,0 -0.3540875690167513,0.1852418808975534 l -1.0096386873957832 -1.9710311052954181" fill="#ff0a01" stroke="none" /><path d="M 109.57404056367764 118.69057910512821 l 22.03851486318388 43.023904345320204 a69.33996775433388,69.33996775433388 0 0,0 -1.066997124819828,0.5350145088816234 l -21.29466383068129 -43.396886695111135" fill="#3bff98" stroke="none" /><path d="M 108.59647513512805 119.15986991738527 l 8.126103589571848 18.11150329222409 a40.85094735907323,40.85094735907323 0 0,0 -0.6440430519635038,0.2823295473001817 l -7.813139862950591 -18.248697392818723" fill="#fff817" stroke="none" /><path d="M 107.93186726928326 119.44442032107085 l 2.8652202264416333 7.023887882127809 a28.585808323884287,28.585808323884287 0 0,0 -0.4572081209666532,0.18193254703287606 l -2.743891029433114 -7.0721672735667545" fill="#ff5608" stroke="none" /><path d="M 107.59598834532513 119.57807347666477 l 1.8512809261001126 4.7715336503171875 a26.118083082898455,26.118083082898455 0 0,0 -0.42053817461834553,0.15901155361947467 l -1.7688725307214923 -4.802693454043292" fill="#ff3404" stroke="none" /><path d="M 106.91757812671514 119.82793768551818 l 0.9879467110771352 2.831763583297906 a23.99915382993609,23.99915382993609 0 0,0 -0.3912207971372664,0.13272333537053566 l -0.9390561810026418 -2.8483499055665646" fill="#ff1502" stroke="none" /><path d="M 105.88484417918355 120.15858648285463 l 2.122181298549158 7.269551059724942 a28.57297999956819,28.57297999956819 0 0,0 -0.47331662743905945,0.13376400674628147 l -1.9967335030054927 -7.305003859809743" fill="#ff5608" stroke="none" /><path d="M 105.18746579009965 120.34920634021253 l 1.866131271315087 7.320393393318999 a28.55450894199805,28.55450894199805 0 0,0 -0.4773317414218582,0.11731652861792247 l -1.7398462451500178 -7.351431180250952" fill="#ff5608" stroke="none" /><path d="M 104.83641907484287 120.43548508189849 l 7.294876791898766 30.823289617427992 a52.67475982937878,52.67475982937878 0 0,0 -0.8841329274012525,0.20122577578684478 l -6.763223715104651 -30.944292126792522" fill="#7eff26" stroke="none" /><path d="M 104.13013068566511 120.58985236759428 l 0.8879694479678301 4.426775139113432 a25.514956021136534,25.514956021136534 0 0,0 -0.43136360477534086,0.08267186150922629 l -0.8116382286207848 -4.441404198971127" fill="#ff2b04" stroke="none" /><path d="M 103.41894727170886 120.7198165907248 l 1.1702076062348394 7.091799038520439 a28.187697784718644,28.187697784718644 0 0,0 -0.47941117791157856,0.07487416640094491 l -1.0479605647147436 -7.11089151226849" fill="#ff5107" stroke="none" /><path d="M 103.06178313531738 120.77559828337769 l 1.730489159137636 11.742160046961287 a32.86898964943296,32.86898964943296 0 0,0 -0.5604497823827594,0.07767323300820282 l -1.528110785568046 -11.770207845462092" fill="#ff910d" stroke="none" /><path d="M 102.70371172650421 120.8252237178851 l 0.9676385796129384 7.453194695630819 a28.515745844008745,28.515745844008745 0 0,0 -0.48731043784053857,0.05900650755493675 l -0.8392007187210195 -7.468746731911106" fill="#ff5507" stroke="none" /><path d="M 101.98527174616119 120.90594882070398 l 3.1191488269983267 32.846266949336496 a53.99403494439623,53.99403494439623 0 0,0 -0.9260123092040983,0.07990023849471854 l -2.5532922000526868 -32.89509144010987" fill="#70ff27" stroke="none" /><path d="M 101.62511606390274 120.93702456842531 l 0.5825179187305279 7.5048128850069755 a28.52738623724124,28.52738623724124 0 0,0 -0.4899065626091343,0.03378682487350154 l -0.4532485953424633 -7.513728054396762" fill="#ff5607" stroke="none" /><line stroke="#e1ed5e" stroke-width="0.3" x1="102.19456741930631" x2="102.32365962044197" y1="184.97166512339345" y2="189.96999836594603" /><path d="M 102.22038585953345 185.97133177190398 a86.0,86.0 0 0,1 -42.740103519485714,-10.115201625700543" fill="none" id="id43" stroke="none" /><text fill="#e1ed5e" style="font-size:6.75px; font-family:Arial;" text-anchor="middle"><textPath startOffset="22.20632615414155" xlink:href="#id43">July</textPath></text><path d="M 100.54218724476979 120.99299961872073 l 0.4306044682770025 16.67261545814617 a37.678175152675266,37.678175152675266 0 0,0 -0.6484957767362534,0.011164442903205894 l -0.14354900164808115 -16.677557378328533" fill="#ffd013" stroke="none" /><path d="M 99.81925306533755 120.99922214144158 l -0.31080871052174847 36.10983039867395 a57.111167988248916,57.111167988248916 0 0,0 -0.9829656318221249,-0.01692264478193373 l 0.9323340322365412 -36.099130276612854" fill="#4fff2b" stroke="none" /><path d="M 99.09653310690486 120.98055641714683 l -0.6512682245963771 15.123929646197334 a36.13794564145002,36.13794564145002 0 0,0 -0.6212490266470576,-0.03211147851840482 l 0.9115053196569237 -15.110478360916728" fill="#ffbc11" stroke="none" /><path d="M 98.01472825383883 120.90594882070398 l -1.283787577789646 13.518953991977545 a34.57977273676156,34.57977273676156 0 0,0 -0.592083766329812,-0.06137190326454144 l 1.5163039407250511 -13.494852720257242" fill="#ffa80f" stroke="none" /><path d="M 96.93821686468263 120.77559828337769 l -2.1559790944662454 14.629303773125764 a35.78731803749981,35.78731803749981 0 0,0 -0.6086641209824265,-0.09506081788758058 l 2.407479079057189 -14.590024647891077" fill="#ffb711" stroke="none" /><path d="M 96.58105272829116 120.7198165907248 l -2.480001280426986 15.029530317829872 a36.232766916272524,36.232766916272524 0 0,0 -0.6144922477925686,-0.10683735388441211 l 2.738342499691605 -14.984614385424454" fill="#ffbd11" stroke="none" /><path d="M 96.22490169976321 120.6578951692458 l -1.3761262540125787 7.530366002192742 a28.655072540084973,28.655072540084973 0 0,0 -0.4844513694536898,-0.09284625795977425 l 1.5055452380379635 -7.5055625458845" fill="#ff5708" stroke="none" /><path d="M 95.51606077576429 120.51570834832081 l -4.771174750290776 21.829918908528978 a43.345233676351725,43.345233676351725 0 0,0 -0.7275391186081864,-0.16558553473120902 l 5.146234018291826 -21.744556640220082" fill="#e8ff1a" stroke="none" /><path d="M 94.81253420990036 120.34920634021253 l -0.5972991832366241 2.3430639966281133 a23.41799818167633,23.41799818167633 0 0,0 -0.3897530559390021,-0.10293732448389147 l 0.6375426819871155 -2.3324353228406403" fill="#ff0d01" stroke="none" /><path d="M 94.46302465271185 120.25689768951611 l -3.061651336779574 11.20098140232635 a32.61187725061133,32.61187725061133 0 0,0 -0.5402216973850418,-0.15267204780969637 l 3.2540042022692295 -11.146620561178132" fill="#ff8e0d" stroke="none" /><path d="M 93.08242187328487 119.8279376855182 l -3.1185700333942235 8.938794930448854 a30.467181938771567,30.467181938771567 0 0,0 -0.4936850503094879,-0.1770178945682145 l 3.271974644333438 -8.88378949484068" fill="#ff700a" stroke="none" /><path d="M 92.7421414339146 119.70592522655815 l -5.246207347115633 14.244059561640158 a36.179457313240235,36.179457313240235 0 0,0 -0.5825405673494612,-0.22026699655667287 l 5.490618135225377 -14.151644314976853" fill="#ffbd11" stroke="none" /><path d="M 92.40401165467489 119.57807347666478 l -11.460621824137371 29.538867881402187 a52.68423217171007,52.68423217171007 0 0,0 -0.8426439624473762,-0.33530542284726095 l 11.967386862626606 -29.33721561414886" fill="#7eff26" stroke="none" /><path d="M 92.06813273071674 119.44442032107085 l -1.7131584590769602 4.1996886765731976 a25.53566939778949,25.53566939778949 0 0,0 -0.40556545452381165,-0.16952639288328614 l 1.7851953730982342 -4.1695772406699385" fill="#ff2b04" stroke="none" /><path d="M 91.7346041902142 119.30500536409082 l -2.969298944742507 6.935219241161648 a28.54413693845941,28.54413693845941 0 0,0 -0.450017790479149,-0.19727457454226827 l 3.088237409879399 -6.883080113324928" fill="#ff5607" stroke="none" /><path d="M 91.07499286063937 119.00905698771935 l -12.858717425644883 27.38732737311558 a51.25578150494198,51.25578150494198 0 0,0 -0.7954099944860991,-0.3818451343390951 l 13.328240088131224 -27.16192796227692" fill="#8dff24" stroke="none" /><path d="M 90.7491055286396 118.85261126421891 l -16.706659536302496 34.04688689690022 a58.92496513158902,58.92496513158902 0 0,0 -0.9067320105810754,-0.45465425355311706 l 17.29024545456633 -33.754264802437795" fill="#3dff2e" stroke="none" /><line stroke="#e1ed5e" stroke-width="0.3" x1="58.666819895761336" x2="56.23545636021788" y1="174.27360380694188" y2="178.64263932499728" /><path d="M 58.180547188652646 175.14741091055294 a86.0,86.0 0 0,1 -31.652253787137756,-30.449443065178592" fill="none" id="id44" stroke="none" /><text fill="#e1ed5e" style="font-size:6.75px; font-family:Arial;" text-anchor="middle"><textPath startOffset="22.20632615414155" xlink:href="#id44">August</textPath></text><path d="M 89.7882731507175 118.34994917583269 l -18.60584278603399 33.43374480499799 a59.262157250530755,59.262157250530755 0 0,0 -0.8871015336482696,-0.5037194027333509 l 19.178593086603467 -33.10852223647001" fill="#3aff2e" stroke="none" /><path d="M 89.4739219176387 118.17145234162733 l -5.274060541182546 9.104752883369924 a31.52198838904946,31.52198838904946 0 0,0 -0.4671740740829754,-0.2760146775770603 l 5.430002486293904 -9.012619633499114" fill="#ff7f0b" stroke="none" /><path d="M 89.1626897886671 117.98757091392108 l -4.622819472305375 7.672871908141213 a29.957869344451744,29.957869344451744 0 0,0 -0.43941175637149466,-0.26992258996280216 l 4.754210428609179 -7.592160851350032" fill="#ff6909" stroke="none" /><path d="M 88.8546689885994 117.79835938074946 l -9.173769066132571 14.649904838897308 a38.28518876574617,38.28518876574617 0 0,0 -0.555533034713883,-0.35456746689021995 l 9.424583902893378 -14.489822943183283" fill="#ffd814" stroke="none" /><path d="M 88.24862548938628 117.40417183066458 l -8.417996480003893 12.467329423940383 a36.043170134729166,36.043170134729166 0 0,0 -0.5112004800473778,-0.35160835155142756 l 8.63135384467416 -12.320580283023853" fill="#ffbb11" stroke="none" /><path d="M 87.95078237400918 117.19931262002967 l -9.707426190879826 13.8565891143556 a37.91860470415506,37.91860470415506 0 0,0 -0.5313528157396893,-0.3791061257380064 l 9.944506334468402 -13.687438726773374" fill="#ffd313" stroke="none" /><path d="M 87.65650970185807 116.9893568818739 l -8.853783808145764 12.186187961292251 a36.062956706746796,36.062956706746796 0 0,0 -0.49906843952977403,-0.36919890052281273 l 9.062237218094102 -12.031979112029672" fill="#ffbb11" stroke="none" /><path d="M 87.07902340077011 116.55440617244103 l -9.367152743546477 12.001233034135058 a36.224097505617365,36.224097505617365 0 0,0 -0.4882361610495635,-0.38788433451355653 l 9.572346397313398 -11.83821478561637" fill="#ffbd11" stroke="none" /><path d="M 86.79598089348748 116.32954008644616 l -10.186752435649597 12.598056766412737 a37.201264132004354,37.201264132004354 0 0,0 -0.4944754321495931,-0.4069196169430803 l 10.40209799634388 -12.420842030612476" fill="#ffca12" stroke="none" /><path d="M 86.51685102203217 116.09983520530335 l -10.976118847251247 13.106263597867866 a38.09530141430037,38.09530141430037 0 0,0 -0.4991110761560436,-0.42535328708373993 l 11.200095399984345 -12.915385920561175" fill="#ffd513" stroke="none" /><path d="M 86.24171649860922 115.8653595955263 l -1.5591171087476647 1.7978953246106972 a23.379763382575394,23.379763382575394 0 0,0 -0.30177445962293353,-0.2662808739024604 l 1.589833921277186 -1.7707913089359482" fill="#ff0c01" stroke="none" /><path d="M 85.97065885151581 115.62618273729859 l -13.026913438436347 14.50965713482353 a40.49950317066178,40.49950317066178 0 0,0 -0.5147302686961037,-0.4701938963170116 l 13.274743256599306 -14.283270471919943" fill="#fff316" stroke="none" /><path d="M 85.70375840098266 115.38237550388516 l -12.90396474126844 13.884322656713431 a39.954860107097204,39.954860107097204 0 0,0 -0.4997480948601105,-0.4725430163935579 l 13.141048670519368 -13.660145003573943" fill="#ffed16" stroke="none" /><path d="M 85.18274418774928 114.88116024355367 l -5.291574516360078 5.314396222649681 a28.499571192641923,28.499571192641923 0 0,0 -0.34465396601279397,-0.34913264794199717 l 5.382269107428406 -5.222523080727019" fill="#ff5507" stroke="none" /><path d="M 84.9287848128048 114.62390073753433 l -5.35984111019301 5.200760747614638 a28.46832036541311,28.46832036541311 0 0,0 -0.33822187735312254,-0.3546242862115023 l 5.44856953892509 -5.107729344820635" fill="#ff5507" stroke="none" /><path d="M 84.43433777217949 114.09645910891817 l -11.600795846984562 10.505826343555638 a36.65090577073295,36.65090577073295 0 0,0 -0.41946289782706253,-0.471271012404358 l 11.779917594459963 -10.304581161410416" fill="#ffc312" stroke="none" /><path d="M 83.95833913139862 113.55231037782056 l -11.70484740722143 9.88848513174704 a36.32271487129877,36.32271487129877 0 0,0 -0.3993838170718771,-0.4810835358342064 l 11.873327224186845 -9.685540338799072" fill="#ffbe11" stroke="none" /><path d="M 83.50135304334701 112.99209946851258 l -11.822637663046525 9.309907951969654 a36.04822738351046,36.04822738351046 0 0,0 -0.37969629279073613,-0.4908086420073754 l 11.98114077305533 -9.105021315849026" fill="#ffbb11" stroke="none" /><path d="M 83.28015986056508 112.70617746262583 l -5.947488095923055 4.519770438798406 a28.470002641939452,28.470002641939452 0 0,0 -0.2931579670705033,-0.3927330040812302 l 6.024407329688644 -4.4167245552078676" fill="#ff5507" stroke="none" /><path d="M 83.06392112726016 112.41649034213515 l -28.52573381970286 20.913311820055274 a56.37066724328795,56.37066724328795 0 0,0 -0.5669820970977535,-0.7874885432131911 l 28.88149570917622 -20.419189671390942" fill="#57ff2a" stroke="none" /><path d="M 82.85270091963577 112.12312394758628 l -12.244076996144948 8.656550652809992 a35.99510889230855,35.99510889230855 0 0,0 -0.35333329017431875,-0.5090029573381423 l 12.391271193481401 -8.444506433284836" fill="#ffba11" stroke="none" /><path d="M 82.24976979558568 111.22182372390057 l -12.785728653803332 8.083229990950963 a36.126581381637315,36.126581381637315 0 0,0 -0.3277805333864372,-0.5284865874128727 l 12.922973826857726 -7.861947072172826" fill="#ffbc11" stroke="none" /><line stroke="#e1ed5e" stroke-width="0.3" x1="26.63291911575756" x2="22.317208475507996" y1="142.92168965132927" y2="145.44649492493687" /><path d="M 25.769776987707644 143.4266507060508 a86.0,86.0 0 0,1 -11.730757126820373,-40.83630448921669" fill="none" id="id45" stroke="none" /><text fill="#e1ed5e" style="font-size:6.75px; font-family:Arial;" text-anchor="middle"><textPath startOffset="21.46611528233685" xlink:href="#id45">September</textPath></text><path d="M 81.87401531095188 110.60418214915194 l -13.101903674404735 7.664961404716211 a36.1793120143559,36.1793120143559 0 0,0 -0.3098465260172488,-0.5402435351524824 l 13.23190219657436 -7.438298023705421" fill="#ffbd11" stroke="none" /><path d="M 81.69416730710424 110.29060199501025 l -27.793305236965843 15.6239733596192 a52.88379462261736,52.88379462261736 0 0,0 -0.4392467304716905,-0.7973604036435883 l 28.05812837688905 -15.143242437577788" fill="#7cff26" stroke="none" /><path d="M 81.18737489456691 109.33194174019688 l -2.850605626653305 1.4140336865865413 a24.182050236169914,24.182050236169914 0 0,0 -0.1817646608646994,-0.37448903829546426 l 2.8745235441327233 -1.3647556923257922" fill="#ff1802" stroke="none" /><path d="M 81.02952815118164 109.00673069616217 l -6.786838516067358 3.2222301732767415 a28.51291849634684,28.51291849634684 0 0,0 -0.20668523538672334,-0.4451816094412613 l 6.8412983682939075 -3.1049284965566533" fill="#ff5507" stroke="none" /><path d="M 80.87730276802145 108.67885076344099 l -15.179352498075358 6.889160740157302 a37.66953142606448,37.66953142606448 0 0,0 -0.2628955078326178,-0.5927599677754133 l 15.295689090639257 -6.626852435889193" fill="#ffd013" stroke="none" /><path d="M 80.58989483394504 108.01547362559985 l -9.45767486544752 3.905581283303314 a31.232359406364054,31.232359406364054 0 0,0 -0.20092429077968893,-0.4986776120340272 l 9.523501770484597 -3.7422043034264814" fill="#ff7b0b" stroke="none" /><path d="M 80.20201598880116 107.00284435728193 l -14.16655769861314 5.0109242731848544 a36.02666693248135,36.02666693248135 0 0,0 -0.20176506484829523,-0.5864237225824911 l 14.250713594404663 -4.766327847513066" fill="#ffbb11" stroke="none" /><path d="M 79.86692584326677 105.97154293290107 l -14.679277291105173 4.353926970386605 a36.31136381425952,36.31136381425952 0 0,0 -0.1725781653985991,-0.6007672338808282 l 14.752048093389876 -4.100602261001181" fill="#ffbe11" stroke="none" /><path d="M 79.76711848015287 105.62410040840567 l -8.727291892195323 2.4259108049945275 a30.058182323477897,30.058182323477897 0 0,0 -0.13427694787786285,-0.4996944753042324 l 8.767756916414962 -2.275325396514756" fill="#ff6b09" stroke="none" /><path d="M 79.50377843672027 104.57218783832718 l -11.37164335221512 2.536725575310003 a32.651147976676384,32.651147976676384 0 0,0 -0.1176466904002738,-0.5496061709501422 l 11.413624081339835 -2.3406055849436966" fill="#ff8e0d" stroke="none" /><path d="M 79.23777060512086 103.15116336523772 l -7.487671278450905 1.1364326525270307 a28.573420650397562,28.573420650397562 0 0,0 -0.06961838967997609,-0.48691085527397593 l 7.50612371914748 -1.0073763252726542" fill="#ff5608" stroke="none" /><path d="M 79.18660465613746 102.79330883721812 l -14.89878521540695 1.999525196079214 a36.032361820571786,36.032361820571786 0 0,0 -0.07720961429510582,-0.6154365931491108 l 14.930996338948903 -1.7427708486426945" fill="#ffbb11" stroke="none" /><path d="M 79.1416061653843 102.43462659150553 l -30.121098623793007 3.5157849763650444 a51.32558863904045,51.32558863904045 0 0,0 -0.09487339167006233,-0.8784097780142751 l 30.17715431696412 -2.9967788764659873" fill="#8dff24" stroke="none" /><path d="M 79.07016306316243 101.71520430193888 l -6.8957239479368795 0.5651059497586035 a27.91884047370676,27.91884047370676 0 0,0 -0.035129135400798595,-0.4793091423158472 l 6.904429642002014 -0.44632367094599573" fill="#ff4d07" stroke="none" /><path d="M 79.0235259727143 100.99374915477108 l -20.464646195845077 0.9695015870330107 a41.487598132733275,41.487598132733275 0 0,0 -0.02765418509451274,-0.7136316386801371 l 20.47830251379079 -0.6170927013388767" fill="#ffff18" stroke="none" /><line stroke="#e1ed5e" stroke-width="0.3" x1="15.007084014347285" x2="10.007500721073583" y1="101.09737516637583" y2="101.16192664675087" /><path d="M 14.007167355692545 101.11028546245083 a86.0,86.0 0 0,1 10.666146001902534,-42.60595125391555" fill="none" id="id46" stroke="none" /><text fill="#e1ed5e" style="font-size:6.75px; font-family:Arial;" text-anchor="middle"><textPath startOffset="22.20632615414155" xlink:href="#id46">October</textPath></text><path d="M 79.05617556472873 98.46500227214037 l -18.582652636514123 -1.3619446468724445 a39.63249506186678,39.63249506186678 0 0,0 0.055722374962992836,-0.6799541141486689 l 18.55645577773163 1.6816126782288918" fill="#ffe815" stroke="none" /><path d="M 79.08570108090925 98.10471618934814 l -1.645394536642078 -0.14910801645787677 a22.65213691375249,22.65213691375249 0 0,0 0.03853330666661565,-0.38802513951000944 l 1.6425841042932334 0.17740868667231652" fill="#ff0100" stroke="none" /><path d="M 79.21141760316559 97.0276538004421 l -31.50112291188194 -4.504022505315059 a52.82148587727917,52.82148587727917 0 0,0 0.13644068136292972,-0.8989736160622929 l 31.418926337079707 5.045595233769443" fill="#7cff26" stroke="none" /><path d="M 79.32604984820605 96.31383870115002 l -16.32446480531801 -2.910648905892827 a37.58191871387149,37.58191871387149 0 0,0 0.11903495796817079,-0.6358895052408635 l 16.271944123439976 3.1912164885962633" fill="#ffcf13" stroke="none" /><path d="M 79.71946130924805 94.55025226153421 l -14.56316549625865 -3.9133861007513446 a36.07980039804812,36.07980039804812 0 0,0 0.16633342827886385,-0.5983898406448046 l 14.493645297413426 4.163487244815092" fill="#ffbb11" stroke="none" /><path d="M 80.14247586403 93.16781622104843 l -13.49514063509473 -4.643140822110377 a35.2715653470435,35.2715653470435 0 0,0 0.20247040655245593,-0.5724111042819675 l 13.413217147732464 4.8747495528189555" fill="#ffb110" stroke="none" /><path d="M 80.38941819471856 92.48833698450439 l -12.18481899186608 -4.667289072834088 a34.048118682551014,34.048118682551014 0 0,0 0.21435147162985438,-0.5455011148653065 l 12.102673970354536 4.876339192595158" fill="#ffa10e" stroke="none" /><path d="M 80.52162464483688 92.15188598940014 l -14.29324608786468 -5.758951803410449 a36.40981536561238,36.40981536561238 0 0,0 0.23922690023486293,-0.5793069142262316 l 14.191997500743618 6.004133288089992" fill="#ffc011" stroke="none" /><path d="M 80.95270993114464 91.15688171328213 l -15.818860679967564 -7.34424979345474 a38.44059512289887,38.44059512289887 0 0,0 0.2838047284596285,-0.5977651373654378 l 15.690097757666184 7.61545734646071" fill="#ffda14" stroke="none" /><path d="M 81.6062741919709 89.86733742301443 l -30.651065768688817 -16.884937304194544 a55.99412722905185,55.99412722905185 0 0,0 0.47233008433933227,-0.8402225160325678 l 30.355878043057054 17.410043330161898" fill="#5bff2a" stroke="none" /><line stroke="#e1ed5e" stroke-width="0.3" x1="26.266209847984243" x2="21.928928074336255" y1="57.711370442889674" y2="55.22380399835377" /><path d="M 25.398753493254645 57.213857153982495 a86.0,86.0 0 0,1 29.58750427330803,-30.492523968695096" fill="none" id="id47" stroke="none" /><text fill="#e1ed5e" style="font-size:6.75px; font-family:Arial;" text-anchor="middle"><textPath startOffset="21.46611528233685" xlink:href="#id47">November</textPath></text><path d="M 81.96595687620814 89.24020034530311 l -2.56560659058726 -1.5307389872584776 a23.98755736761286,23.98755736761286 0 0,0 0.2146134793846437,-0.35276813129347273 l 2.5388773129163993 1.5746748917590248" fill="#ff1502" stroke="none" /><path d="M 82.15384107792192 88.93136811851018 l -4.830183857325853 -2.9958002318646217 a26.683792318937364,26.683792318937364 0 0,0 0.24545582397726898,-0.3882521671884124 l 4.7779004371026215 3.0785000467672496" fill="#ff3c05" stroke="none" /><path d="M 82.34701348167596 88.62581576622439 l -4.437424398388409 -2.8591242948228572 a26.278761883686272,26.278761883686272 0 0,0 0.24827594173101875,-0.37814129248962897 l 4.38755182129947 2.935083651290153" fill="#ff3605" stroke="none" /><path d="M 82.7489923806493 88.02491185347247 l -6.024980173738688 -4.182345185487609 a28.33433005423915,28.33433005423915 0 0,0 0.28157224326816216,-0.39826396966019145 l 5.952095310666647 4.285435655479587" fill="#ff5307" stroke="none" /><path d="M 83.17141714833178 87.43820079747576 l -4.13773529373338 -3.088637966204257 a26.16338434045784,26.16338434045784 0 0,0 0.2725029352581864,-0.35858192036474823 l 4.083956418251085 3.1594046624500316" fill="#ff3405" stroke="none" /><path d="M 83.39014120810768 87.1503855733568 l -3.1196317239533076 -2.4133898612967872 a24.944179599828843,24.944179599828843 0 0,0 0.2656506657348968,-0.3373493682358388 l 3.0776269776244396 2.4667316234856735" fill="#ff2303" stroke="none" /><path d="M 84.5562425177563 85.77008943001954 l -1.303628162015228 -1.2011657255893167 a22.77263800171657,22.77263800171657 0 0,0 0.26810191804579775,-0.28599243330560886 l 1.2827589219989741 1.2234275757729756" fill="#ff0300" stroke="none" /><path d="M 84.80347519578584 85.50635884689758 l -9.173121861119299 -8.74883818646965 a33.67629024170614,33.67629024170614 0 0,0 0.40369170094016116,-0.4160397833211692 l 9.021165896476019 8.905442165340943" fill="#ff9c0e" stroke="none" /><path d="M 87.80319425747018 82.90503203632743 l -11.193639307973507 -15.688936054746316 a40.2727858776807,40.2727858776807 0 0,0 0.5677865628855325,-0.39777077215015305 l 10.921921605504314 15.879291669660411" fill="#fff016" stroke="none" /><path d="M 88.09926311788651 82.69761687909137 l -2.970728582030794 -4.319117764193609 a26.24213759539632,26.24213759539632 0 0,0 0.37438196344373326,-0.2527843729222866 l 2.895941924180521 4.369614049414562" fill="#ff3505" stroke="none" /><path d="M 88.39885842347998 82.49532879139004 l -32.97852247489614 -49.76046443887775 a80.69662273361908,80.69662273361908 0 0,0 1.1644636950538998,-0.7573995789280212 l 32.11709175405795 50.320762941965306" fill="#49f1ff" stroke="none" /><line stroke="#e1ed5e" stroke-width="0.3" x1="56.762969772571076" x2="54.21961505331055" y1="26.818313649435495" y2="22.513508569990535" /><path d="M 56.25429882871897 25.957352633546506 a86.0,86.0 0 0,1 42.265352541879196,-11.944610805530505" fill="none" id="id48" stroke="none" /><text fill="#e1ed5e" style="font-size:6.75px; font-family:Arial;" text-anchor="middle"><textPath startOffset="22.20632615414155" xlink:href="#id48">December</textPath></text><path d="M 96.75951476605007 79.25152402106235 l -1.1103977516851202 -7.1097565378571765 a28.19594477428435,28.19594477428435 0 0,0 0.48017830844784876,-0.07076580066178517 l 0.9878504628086225 7.1278168226799306" fill="#ff5107" stroke="none" /></svg>