<?xml version="1.0" encoding="utf-8" ?>
<svg baseProfile="full" height="200mm" version="1.1" viewBox="0,0,200,200" width="200mm" xmlns="http://www.w3.org/2000/svg" xmlns:ev="http://www.w3.org/2001/xml-events" xmlns:xlink="http://www.w3.org/1999/xlink"><defs /><rect fill="#1a1a1a" height="200" width="200" x="0" y="0" /><text alignment-baseline="middle" fill="#e1ed5e" style="dominant-baseline: central; font-size:9.0px; font-family:Arial;" text-anchor="middle" x="100.0" y="100.0">2021</text><line stroke="#e1ed5e" stroke-width="0.3" x1="100.0" x2="100.0" y1="15.0" y2="10.0" /><path d="M 100.0 14.0 a86.0,86.0 0 0,1 42.46469731375804,11.215312516191453" fill="none" id="id37" stroke="none" /><text fill="#e1ed5e" style="font-size:6.75px; font-family:Arial;" text-anchor="middle"><textPath startOffset="22.20632615414155" xlink:href="#id37">January</textPath></text><path d="M 101.08401301168833 79.027996857942 l 0.3882885386335799 -7.51207629838842 a28.52210464577855,28.52210464577855 0 0,0 0.4900884668173771,0.029563474691973294 l -0.5175390542905689 7.504279554316143" fill="#ff5607" stroke="none" /><path d="M 102.16513564639614 79.11191278185805 l 0.6288938923092716 -6.067236708877042 a27.099743339627416,27.099743339627416 0 0,0 0.46357762542546305,0.05208834767121412 l -0.7332382212444599 6.055512407735227" fill="#ff4206" stroke="none" /><path d="M 103.2404852339499 79.25152402106235 l 1.1662648757800154 -7.467467682518819 a28.557992283003546,28.557992283003546 0 0,0 0.485038179936131,0.08003545565695802 l -1.2946322618550214 7.446285963922237" fill="#ff5608" stroke="none" /><path d="M 103.95276090670814 79.375362276772 l 1.4846245820622117 -7.7464447971208585 a28.887427790129315,28.887427790129315 0 0,0 0.48755594061498464,0.0977991349992146 l -1.6177469321443216 7.719741706044436" fill="#ff5b08" stroke="none" /><path d="M 104.66035177308747 79.52364482259891 l 1.6814313751118588 -7.3877654991710635 a28.576693905652572,28.576693905652572 0 0,0 0.47869542956814215,0.11329174214974776 l -1.8083504916425244 7.357727844880447" fill="#ff5608" stroke="none" /><path d="M 105.71112130821622 79.79150937346287 l 2.0498063535067006 -7.253127756446555 a28.53721223916455,28.53721223916455 0 0,0 0.4715567526615638,0.13766034703947602 l -2.1743533238916917 7.216769080488376" fill="#ff5607" stroke="none" /><path d="M 106.40334571778207 80.00007090966166 l 2.29599922560873 -7.171223252264384 a28.529811111695516,28.529811111695516 0 0,0 0.46641782061067727,0.15377062225334645 l -2.419099868461825 7.130638905751801" fill="#ff5607" stroke="none" /><path d="M 107.08798089147638 80.2323363322302 l 2.5437171678838095 -7.094170569947087 a28.536428405132646,28.536428405132646 0 0,0 0.4609552797307849,0.1697737196864784 l -2.665454773387171 7.049333582454284" fill="#ff5607" stroke="none" /><path d="M 108.09893153111575 80.62456947434976 l 3.1122002127021213 -7.44545360970802 a29.069731694316566,29.069731694316566 0 0,0 0.4600163808904311,0.19695500702201815 l -3.2399003513828677 7.390779074723211" fill="#ff5d08" stroke="none" /><path d="M 108.76106565485865 80.91482961587045 l 3.100919402811509 -6.755065819794469 a28.43280669548781,28.43280669548781 0 0,0 0.44303970784144225,0.2080130833454624 l -3.216737321952549 6.700687753809003" fill="#ff5407" stroke="none" /><path d="M 109.41281617654863 81.2277094730956 l 3.3497186590261663 -6.68045467702829 a28.473224858550505,28.473224858550505 0 0,0 0.436236261084084,0.22345715643557346 l -3.464215407699006 6.6218049952802165" fill="#ff5507" stroke="none" /><path d="M 110.36928655335952 81.73862282372117 l 0.7732095193326103 -1.3617012700114253 a22.56591293165913,22.56591293165913 0 0,0 0.3361281571393276,0.19470712418641686 l -0.7965344089372661 1.3481899884349589" fill="#ff0000" stroke="none" /><line stroke="#e1ed5e" stroke-width="0.3" x1="143.23703022742887" x2="145.7803849466894" y1="26.81831364943548" y2="22.513508569990506" /><path d="M 143.74570117128098 25.957352633546492 a86.0,86.0 0 0,1 28.547481713284135,27.462654790039103" fill="none" id="id38" stroke="none" /><text fill="#e1ed5e" style="font-size:6.75px; font-family:Arial;" text-anchor="middle"><textPath startOffset="19.985693538727396" xlink:href="#id38">February</textPath></text><path d="M 110.99172775467656 82.1063720568725 l 3.9135301948330725 -6.370904994507744 a28.476907718764082,28.476907718764082 0 0,0 0.41546567260437045,0.2601645660699627 l -4.022615019809707 6.302596087114837" fill="#ff5507" stroke="none" /><path d="M 111.60114157652 82.49532879139004 l 4.479443250739904 -6.758919437767089 a29.10853894378174,29.10853894378174 0 0,0 0.41527531524958894,0.2803957466055856 l -4.5951232603960355 6.680811778862833" fill="#ff5e08" stroke="none" /><path d="M 111.90073688211348 82.69761687909136 l 8.598276820967918 -12.500963697434077 a36.17249015997568,36.17249015997568 0 0,0 0.5099784733374095,0.3572725111500642 l -8.812186433888979 12.351106343520076" fill="#ffbc11" stroke="none" /><path d="M 112.48926042617603 83.11751280151076 l 4.262143871600923 -5.761397144030361 a28.166558967417103,28.166558967417103 0 0,0 0.38729534463014276,0.2917028241008824 l -4.360685369989449 5.68717773042363" fill="#ff5107" stroke="none" /><path d="M 113.06298171725822 83.55741782278167 l 4.742119308414827 -5.968980751138197 a28.623413063890677,28.623413063890677 0 0,0 0.38314019684497214,0.30980606023393376 l -4.84416290382429 5.886468593640134" fill="#ff5708" stroke="none" /><path d="M 114.16331599549186 84.49514656593476 l 5.017559800531358 -5.492818865910973 a28.43955411604861,28.43955411604861 0 0,0 0.3585985580152136,0.3332782781924592 l -5.111366242341418 5.405636001643873" fill="#ff5407" stroke="none" /><path d="M 114.42810811169701 84.74124197986012 l 12.765918930834578 -13.50087387496132 a39.58069647608113,39.58069647608113 0 0,0 0.49102069816714494,0.47236152260160413 l -12.996422872614142 13.279129265597414" fill="#ffe815" stroke="none" /><path d="M 115.9244219780498 86.31012108654704 l 10.940419459569616 -9.405240445796988 a35.42745042599645,35.42745042599645 0 0,0 0.39356419883791804,0.46585587488559116 l -11.100694271894652 9.215525621282291" fill="#ffb310" stroke="none" /><path d="M 116.15771136456269 86.58626213691792 l 11.425480864106808 -9.485155528085338 a35.84957199275584,35.84957199275584 0 0,0 0.39008005994095474,0.47819202990214155 l -11.58705941612417 9.287079328575096" fill="#ffb811" stroke="none" /><path d="M 117.04232023915458 87.72973835380427 l 25.458506477871687 -18.329812561974897 a52.37064839369705,52.37064839369705 0 0,0 0.5204330196406013,0.7361155983933673 l -25.770252117316172 17.888870463249738" fill="#81ff25" stroke="none" /><line stroke="#e1ed5e" stroke-width="0.3" x1="172.23445277983987" x2="176.4835382374775" y1="55.19839476539836" y2="52.563006222186495" /><path d="M 173.08426987136738 54.67131705675599 a86.0,86.0 0 0,1 12.851231095245387,41.99856678651699" fill="none" id="id39" stroke="none" /><text fill="#e1ed5e" style="font-size:6.75px; font-family:Arial;" text-anchor="middle"><textPath startOffset="22.20632615414155" xlink:href="#id39">March</textPath></text><path d="M 118.21658344932153 89.55222093294921 l 27.45333646738534 -15.745345161050684 a52.64808963321629,52.64808963321629 0 0,0 0.4441050847178733,0.7900133911360705 l -27.72029919339565 15.270448259979819" fill="#7eff26" stroke="none" /><path d="M 119.04729006885535 91.15688171328212 l 7.526084296341868 -3.494148166367512 a29.297651248647,29.297651248647 0 0,0 0.20842862928398886,0.45924485636549767 l -7.585115242589204 3.3640813011599513" fill="#ff6008" stroke="none" /><path d="M 120.08093135843002 93.85539295169968 l 11.741750284782057 -3.5928832319306743 a33.279149387008374,33.279149387008374 0 0,0 0.16290001457729375,0.5492178672194922 l -11.801856196471054 3.390235977964652" fill="#ff960d" stroke="none" /><path d="M 120.53481517161879 95.60439243477599 l 14.940005854977127 -3.198003108953801 a36.27844883591358,36.27844883591358 0 0,0 0.12545554750360977,0.611765804258435 l -14.992840698395733 2.940361648531954" fill="#ffbe11" stroke="none" /><path d="M 120.73433829027371 96.67025291283417 l 8.885431521764875 -1.4269198907440743 a29.999277398912312,29.999277398912312 0 0,0 0.07748971428431438,0.5105603985698767 l -8.90867712948849 1.2737603797821155" fill="#ff6a09" stroke="none" /><path d="M 120.96714384426684 98.82574320788733 l 5.693302696241175 -0.3188512183762497 a26.702224275709177,26.702224275709177 0 0,0 0.021751367118920097,0.4591369816390618 l -5.6979476715935915 0.2208031301141881" fill="#ff3c05" stroke="none" /><path d="M 120.98425023603335 99.18683210126433 l 7.797508507902558 -0.30216393425659016 a28.803360940900927,28.803360940900927 0 0,0 0.014934275934708,0.4955959124971558 l -7.801554478292911 0.16789787433443532" fill="#ff5908" stroke="none" /><line stroke="#e1ed5e" stroke-width="0.3" x1="184.98032266829074" x2="189.97916517819016" y1="98.17113171792111" y2="98.06355123074" /><path d="M 185.9800911702706 98.14961562048488 a86.0,86.0 0 0,1 -9.607161424134198,41.387399972396054" fill="none" id="id40" stroke="none" /><text fill="#e1ed5e" style="font-size:6.75px; font-family:Arial;" text-anchor="middle"><textPath startOffset="21.466115282336823" xlink:href="#id40">April</textPath></text><path d="M 120.99513854157772 99.54816195383933 l 8.519368496779679 -0.18334600690938832 a29.5213411703893,29.5213411703893 0 0,0 0.006560756624652272,0.5081378307867921 l -8.521262260522047 0.03667191806213348" fill="#ff6309" stroke="none" /><path d="M 120.99980553446 99.90962569577887 l 4.215010559161377 -0.018139627338159603 a25.215049591632567,25.215049591632567 0 0,0 -0.0018679581426199392,0.43404768733329635 l -4.2146983037292545 -0.05441753819882147" fill="#ff2703" stroke="none" /><path d="M 120.99824983174949 100.27111621757518 l 4.630495661120962 0.05978605260916769 a25.630881605023674,25.630881605023674 0 0,0 -0.009493113831041412,0.4411076972539697 l -4.628780484604913 -0.1394835656532522" fill="#ff2d04" stroke="none" /><path d="M 120.9904718944345 100.63252640178507 l 8.530991836818512 0.2570727136263839 a29.5348642695684,29.5348642695684 0 0,0 -0.01968690982396019,0.5080316657391029 l -8.525302794143348 -0.403881626379493" fill="#ff6409" stroke="none" /><path d="M 120.9764740272857 100.99374915477107 l 11.847480621270686 0.5612680109268942 a32.86076805487209,32.86076805487209 0 0,0 -0.03163028738226051,0.5647800292354634 l -11.836063983000896 -0.765119756497781" fill="#ff910d" stroke="none" /><path d="M 120.95626037817324 101.35467743843564 l 2.2433024275719053 0.1450140020871639 a23.24798461790808,23.24798461790808 0 0,0 -0.029251988463032105,0.3991201417650348 l -2.2404738804445357 -0.18360728034896898" fill="#ff0a01" stroke="none" /><path d="M 120.92983693683757 101.71520430193887 l 8.449566247359781 0.6924436354055407 a29.47789171650212,29.47789171650212 0 0,0 -0.04579657705483516,0.50536141163289 l -8.436395074027871 -0.8377864355870012" fill="#ff6309" stroke="none" /><path d="M 120.89721153311464 102.0752229133903 l 2.5640513510301997 0.2546262263907971 a23.576663316362037,23.576663316362037 0 0,0 -0.04358056229646437,0.4035018815992585 l -2.5592884872326835 -0.29872442987484693" fill="#ff0f01" stroke="none" /><path d="M 120.81339534386255 102.79330883721812 l 31.402293635566156 4.2144159024496135 a52.68383415833915,52.68383415833915 0 0,0 -0.1283627795616865,0.8977689812854689 l -31.32509680498787 -4.754330355715492" fill="#7eff26" stroke="none" /><path d="M 120.64145759157962 103.86396538481128 l 4.739703348209955 0.8872459510431248 a25.822032061970873,25.822032061970873 0 0,0 -0.08554478577408875,0.43619101967597984 l -4.723728629460202 -0.9687006977870495" fill="#ff2f04" stroke="none" /><path d="M 120.41448212921028 104.9243191809786 l 2.211649131099976 0.5334872650179528 a23.275082534993317,23.275082534993317 0 0,0 -0.0972994716867165,0.3886630228928591 l -2.2021383451181986 -0.5714781273082079" fill="#ff0a01" stroke="none" /><path d="M 120.32669344350535 105.2749913415812 l 1.5288421455805183 0.39675066202951104 a22.579483901128498,22.579483901128498 0 0,0 -0.10086784857022556,0.37536678829050957 l -1.5217862206685155 -0.42300838349556885" fill="#ff0000" stroke="none" /><path d="M 120.23288151984713 105.62410040840565 l 2.3363210554761573 0.649423276134989 a23.42490137239582,23.42490137239582 0 0,0 -0.11133226843723895,0.3875622318514945 l -2.324796150152819 -0.6895429834910655" fill="#ff0d01" stroke="none" /><path d="M 120.13307415673323 105.97154293290107 l 1.7778012297983925 0.5273023030293159 a22.854352968410463,22.854352968410463 0 0,0 -0.11511327027394389,0.37619682766449164 l -1.768461187018316 -0.5578261032458647" fill="#ff0400" stroke="none" /><path d="M 120.02730092923936 106.31721596034902 l 2.4536012725683083 0.77393999192231 a23.572769386448293,23.572769386448293 0 0,0 -0.12539338121301255,0.38592114503003216 l -2.4399156403390485 -0.8160600369301374" fill="#ff0f01" stroke="none" /><path d="M 119.67450827220406 107.3425965602758 l 2.026868592759457 0.7564345777501557 a23.163420801122786,23.163420801122786 0 0,0 -0.14262680065561584,0.37235357018980914 l -2.013547512510334 -0.7912117147731087" fill="#ff0901" stroke="none" /><path d="M 119.54520255179757 107.68017299344265 l 18.316504813689196 7.197363405754025 a40.67984727035214,40.67984727035214 0 0,0 -0.26170195326824397,0.6495227859908033 l -18.189900246163557 -7.511585559587642" fill="#fff517" stroke="none" /><path d="M 119.26925614724726 108.34839909993367 l 17.922962537874252 7.765117821671056 a40.53278374729207,40.53278374729207 0 0,0 -0.28287813422976277,0.637815515041658 l -17.786643318913217 -8.072481673205402" fill="#fff417" stroke="none" /><path d="M 118.81262510543309 109.33194174019688 l 6.77540784697203 3.3609191136092735 a28.56319567253382,28.56319567253382 0 0,0 -0.22227787771240762,0.4385753402343028 l -6.716551299473353 -3.4770486655462705" fill="#ff5608" stroke="none" /><line stroke="#e1ed5e" stroke-width="0.3" x1="174.80103733775053" x2="179.2010983576182" y1="140.37084112569926" y2="142.7455964860345" /><path d="M 175.68104954172406 140.8457921977663 a86.0,86.0 0 0,1 -30.038265399797805,32.042727171017184" fill="none" id="id41" stroke="none" /><text fill="#e1ed5e" style="font-size:6.75px; font-family:Arial;" text-anchor="middle"><textPath startOffset="22.206326154141568" xlink:href="#id41">May</textPath></text><path d="M 118.12598468904814 110.60418214915192 l 20.134646172245304 11.779302431399444 a44.32715032428705,44.32715032428705 0 0,0 -0.39096361742178526,0.6552775109841701 l -19.92890167912529 -12.124142036269719" fill="#dcff1b" stroke="none" /><path d="M 117.75023020441432 111.22182372390056 l 2.3349348053862338 1.476162646404895 a23.762422253031776,23.762422253031776 0 0,0 -0.22155079578688458,0.34385175505915044 l -2.309179146222299 -1.5161360013854983" fill="#ff1201" stroke="none" /><path d="M 117.55443506779139 111.5257021239791 l 8.891902269277242 5.838149531753489 a31.637194927305377,31.637194927305377 0 0,0 -0.3028084730430509,0.45265758160621744 l -8.79009069082347 -5.990344027565513" fill="#ff800b" stroke="none" /><path d="M 116.71984013943494 112.70617746262583 l 14.114261108372117 10.726077815411156 a38.727411315179694,38.727411315179694 0 0,0 -0.4079161604623613,0.5272866250493949 l -13.927538130691687 -10.967442434573803" fill="#ffdd14" stroke="none" /><path d="M 116.498646956653 112.99209946851258 l 11.17885448732647 8.802951528386247 a35.228799782832596,35.228799782832596 0 0,0 -0.37926669574782385,0.4731935178657931 l -11.025669879523793 -8.99407287983029" fill="#ffb010" stroke="none" /><path d="M 116.27256486870786 113.27417163493432 l 4.5028398938647625 3.6731437286036486 a26.810985455218447,26.810985455218447 0 0,0 -0.2947982756383794,0.35510351381216393 l -4.4389456183328395 -3.7501084995295826" fill="#ff3d05" stroke="none" /><path d="M 115.32070863581623 114.36230785411682 l 45.96212590744871 43.08692356235047 a84.0,84.0 0 0,0 -0.997973794484142,1.0463715336699715 l -45.21364556158561 -43.87170221260295" fill="#4dd2ff" stroke="none" /><path d="M 114.55890576462653 115.13401014063108 l 6.562512562026453 6.8217442483236574 a30.46587374288776,30.46587374288776 0 0,0 -0.38106158601098167,0.3603175142383434 l -6.444115141624663 -6.933696399307922" fill="#ff700a" stroke="none" /><path d="M 114.29624159901734 115.38237550388516 l 6.978240031723736 7.5084005667333 a31.250459160977748,31.250459160977748 0 0,0 -0.3971791252110633,0.36281371385414085 l -6.847961357045809 -7.6274070471740245" fill="#ff7b0b" stroke="none" /><path d="M 114.0293411484842 115.62618273729858 l 10.334208632801744 11.510464449642102 a36.46889329954631,36.46889329954631 0 0,0 -0.47072249570836816,0.4153578724965292 l -10.134543784186787 -11.686645463910919" fill="#ffc011" stroke="none" /><path d="M 113.75828350139079 115.86535959552629 l 20.87399977686084 24.07084522014357 a52.861096282088205,52.861096282088205 0 0,0 -0.6925672634851028,0.5902208468679119 l -20.45656703679869 -24.42659045723443" fill="#7cff26" stroke="none" /><path d="M 113.20401910651253 116.32954008644616 l 2.830269370116715 3.5002219219727064 a25.501330715519487,25.501330715519487 0 0,0 -0.34371240879831727,0.2730659250314156 l -2.7695994686010468 -3.548421761009248" fill="#ff2b04" stroke="none" /><path d="M 112.63410532772338 116.77436683061366 l 4.696439109320992 6.235486437217054 a28.806268725599804,28.806268725599804 0 0,0 -0.39864450656290346,0.29490767571108045 l -4.588409632339524 -6.315404061667904" fill="#ff5908" stroke="none" /><path d="M 112.34349029814194 116.9893568818739 l 8.88650806450567 12.231229036106882 a36.11863053699734,36.11863053699734 0 0,0 -0.506129805836242,0.3611101778843428 l -8.674650930820544 -12.382383475835443" fill="#ffbc11" stroke="none" /><path d="M 111.7513745106137 117.40417183066458 l 17.948615589946566 26.58248952646658 a53.074624721427035,53.074624721427035 0 0,0 -0.7615584420689214,0.5047194088906958 l -17.48838244913768 -26.887506956448593" fill="#7aff26" stroke="none" /><line stroke="#e1ed5e" stroke-width="0.3" x1="143.8653032363475" x2="146.44561519142675" y1="172.8068346515853" y2="177.08958963109032" /><path d="M 144.38136562736335 173.6633856474863 a86.0,86.0 0 0,1 -40.68145358897372,12.25698825130547" fill="none" id="id42" stroke="none" /><text fill="#e1ed5e" style="font-size:6.75px; font-family:Arial;" text-anchor="middle"><textPath startOffset="21.466115282336833" xlink:href="#id42">June</textPath></text><path d="M 110.8373102113329 117.98757091392108 l 7.837264523197244 13.008149497718364 a36.18666087596469,36.18666087596469 0 0,0 -0.5363072145143067,0.31685975551401446 l -7.612189437654555 -13.141127825526127" fill="#ffbd11" stroke="none" /><path d="M 110.5260780823613 118.17145234162733 l 1.5032585706527488 2.5951157933678766 a23.99906857394564,23.99906857394564 0 0,0 -0.35924460947440534,0.20398846496794845 l -1.4583651942571443 -2.620607424130453" fill="#ff1502" stroke="none" /><path d="M 110.21172684928248 118.3499491758327 l 2.3165212776863924 4.162669873339501 a25.763831578087338,25.763831578087338 0 0,0 -0.3893739248449083,0.2123177095749923 l -2.2445245409728356 -4.201928234674264" fill="#ff2f04" stroke="none" /><path d="M 109.89434966115114 118.52300852407294 l 1.043378345823077 1.953287144216961 a23.2144906954638,23.2144906954638 0 0,0 -0.35408631252243217,0.18524122355911118 l -1.0096011307741493 -1.970957786720789" fill="#ff0a01" stroke="none" /><path d="M 109.57404056367764 118.69057910512821 l 22.042325687317945 43.031343890772284 a69.34832653517287,69.34832653517287 0 0,0 -1.0671257489800496,0.5350790037057522 l -21.298346030655136 -43.40439073538734" fill="#3bff98" stroke="none" /><path d="M 108.59647513512805 119.15986991738527 l 8.12613881451757 18.11158180177216 a40.851033408744584,40.851033408744584 0 0,0 -0.6440444085952722,0.28233014200768125 l -7.813173731264545 -18.2487764970743" fill="#fff817" stroke="none" /><path d="M 107.93186726928326 119.44442032107085 l 2.865287220248155 7.024052112779772 a28.585985693208457,28.585985693208457 0 0,0 -0.4572109578532125,0.18193367588858467 l -2.7439551863530767 -7.072332633074426" fill="#ff5608" stroke="none" /><path d="M 107.59598834532513 119.57807347666477 l 1.851555323827419 4.772240889273173 a26.118841687573905,26.118841687573905 0 0,0 -0.4205503892293665,0.15901617214020008 l -1.7691347138377775 -4.803405311520004" fill="#ff3404" stroke="none" /><path d="M 106.91757812671514 119.82793768551818 l 0.9879410902509728 2.8317474722560285 a23.99913676654378,23.99913676654378 0 0,0 -0.3912205189793785,0.13272324100427774 l -0.9390508383343673 -2.8483337001584292" fill="#ff1502" stroke="none" /><path d="M 105.88484417918355 120.15858648285463 l 2.1225570318030327 7.270838137353864 a28.57432079944175,28.57432079944175 0 0,0 -0.47333883803362237,0.13377028368216057 l -1.9970870256648048 -7.306297214374544" fill="#ff5608" stroke="none" /><path d="M 105.18746579009965 120.34920634021253 l 1.866302626192032 7.321065578137067 a28.5552026241468,28.5552026241468 0 0,0 -0.4773433373666082,0.11731937861901409 l -1.7400060040822125 -7.352106215070111" fill="#ff5608" stroke="none" /><path d="M 104.83641907484287 120.43548508189849 l 7.294574725967675 30.822013288033656 a52.67344824234409,52.67344824234409 0 0,0 -0.8841109127344884,0.20122076532036287 l -6.762943663840325 -30.943010786931705" fill="#7eff26" stroke="none" /><path d="M 104.13013068566511 120.58985236759428 l 0.8880950707079582 4.427401403478923 a25.515594760620456,25.515594760620456 0 0,0 -0.4313744034992763,0.08267393111036969 l -0.8117530526369775 -4.442032532937761" fill="#ff2b04" stroke="none" /><path d="M 103.41894727170886 120.7198165907248 l 1.1702202030799558 7.091875379071988 a28.187775157584156,28.187775157584156 0 0,0 -0.47941249385504,0.07487437192424984 l -1.0479718456163987 -7.110968058343343" fill="#ff5107" stroke="none" /><path d="M 103.06178313531738 120.77559828337769 l 1.730748666941097 11.743920926043128 a32.87076954814944,32.87076954814944 0 0,0 -0.560480131470424,0.0776774391152116 l -1.5283399442838428 -11.771972930650941" fill="#ff910d" stroke="none" /><path d="M 102.70371172650421 120.8252237178851 l 0.9676255767486714 7.4530945416259815 a28.515644849458575,28.515644849458575 0 0,0 -0.4873087119274683,0.059006298570899646 l -0.8391894417698229 -7.468646368922233" fill="#ff5507" stroke="none" /><path d="M 101.98527174616119 120.90594882070398 l 3.1221261313994155 32.87761952036521 a54.02552856361676,54.02552856361676 0 0,0 -0.9265524332953915,0.07994684267403897 l -2.5557293803624823 -32.92649061531791" fill="#6fff27" stroke="none" /><path d="M 101.62511606390274 120.93702456842531 l 0.5824761767708087 7.504275106533432 a28.52684684121066,28.52684684121066 0 0,0 -0.48989729945221444,0.03378618603196621 l -0.45321611653966387 -7.513189637081683" fill="#ff5607" stroke="none" /><line stroke="#e1ed5e" stroke-width="0.3" x1="102.19456741930631" x2="102.32365962044197" y1="184.97166512339345" y2="189.96999836594603" /><path d="M 102.22038585953345 185.97133177190398 a86.0,86.0 0 0,1 -42.740103519485714,-10.115201625700543" fill="none" id="id43" stroke="none" /><text fill="#e1ed5e" style="font-size:6.75px; font-family:Arial;" text-anchor="middle"><textPath startOffset="22.20632615414155" xlink:href="#id43">July</textPath></text><path d="M 100.54218724476979 120.99299961872073 l 0.430607202704453 16.672721332703304 a37.678281062537614,37.678281062537614 0 0,0 -0.6484975995978481,0.011164474285421363 l -0.14354991321393687 -16.677663284267886" fill="#ffd013" stroke="none" /><path d="M 99.81925306533755 120.99922214144158 l -0.31080738440525324 36.10967633014205 a57.11101391400997,57.11101391400997 0 0,0 -0.9829629799820915,-0.01692259912810266 l 0.9323300542800126 -36.09897625373479" fill="#4fff2b" stroke="none" /><path d="M 99.09653310690486 120.98055641714683 l -0.6512045594668385 15.122451197067324 a36.13646582217769,36.13646582217769 0 0,0 -0.6212235870083004,-0.032110163579662974 l 0.9114162148886279 -15.109001226725459" fill="#ffbc11" stroke="none" /><path d="M 98.01472825383883 120.90594882070398 l -1.2838604723420988 13.519721609703346 a34.58054380782751,34.58054380782751 0 0,0 -0.5920969688070031,-0.06137327175528399 l 1.5163900377546953 -13.495618969492302" fill="#ffa80f" stroke="none" /><path d="M 96.93821686468263 120.77559828337769 l -2.1559814066866263 14.62931946259809 a35.78733389643751,35.78733389643751 0 0,0 -0.6086643907083211,-0.09506086001321815 l 2.4074816610034646 -14.590040295237767" fill="#ffb711" stroke="none" /><path d="M 96.58105272829116 120.7198165907248 l -2.4799743400278653 15.029367051162003 a36.23260144183359,36.23260144183359 0 0,0 -0.6144894414167771,-0.10683686596000842 l 2.738312752916692 -14.98445160668099" fill="#ffbd11" stroke="none" /><path d="M 96.22490169976321 120.6578951692458 l -1.376326050262502 7.531459316765734 a28.656183960481133,28.656183960481133 0 0,0 -0.48447015946485467,-0.0928498591101346 l 1.5057638242990519 -7.506652259307132" fill="#ff5708" stroke="none" /><path d="M 95.51606077576429 120.51570834832081 l -4.7713243062973145 21.8306031835065 a43.345934104252336,43.345934104252336 0 0,0 -0.7275508751187468,-0.16558821047473665 l 5.146395330808924 -21.745238239454075" fill="#e8ff1a" stroke="none" /><path d="M 94.81253420990036 120.34920634021253 l -0.5972839933957325 2.3430044104603995 a23.41793668986672,23.41793668986672 0 0,0 -0.3897520325116141,-0.10293705418741651 l 0.6375264687188358 -2.332376006969401" fill="#ff0d01" stroke="none" /><path d="M 94.46302465271185 120.25689768951611 l -3.0616244862456026 11.200883170261829 a32.611775415010115,32.611775415010115 0 0,0 -0.5402200104597257,-0.15267157106775178 l 3.253975664809942 -11.146522805855556" fill="#ff8e0d" stroke="none" /><path d="M 93.08242187328487 119.8279376855182 l -3.119152179424782 8.94046354264323 a30.468949185402945,30.468949185402945 0 0,0 -0.49371368647425934,-0.17702816247807562 l 3.2725854265287677 -8.885447839125197" fill="#ff700a" stroke="none" /><path d="M 92.7421414339146 119.70592522655815 l -5.246294363328534 14.244295820719792 a36.17970908729374,36.17970908729374 0 0,0 -0.5825446212687532,-0.22026852940206898 l 5.490709205357571 -14.151879041211089" fill="#ffbd11" stroke="none" /><path d="M 92.40401165467489 119.57807347666478 l -11.462338643276594 29.54329285017857 a52.688978519424765,52.688978519424765 0 0,0 -0.8427198766456211,-0.3353356306734331 l 11.969179595964073 -29.341610375099073" fill="#7eff26" stroke="none" /><path d="M 92.06813273071674 119.44442032107085 l -1.7131150558163122 4.199582276501853 a25.535554485569875,25.535554485569875 0 0,0 -0.40556362945215,-0.16952563000318358 l 1.7851501447659246 -4.169471603478697" fill="#ff2b04" stroke="none" /><path d="M 91.7346041902142 119.30500536409082 l -2.9695118422454283 6.93571649350509 a28.54467784994922,28.54467784994922 0 0,0 -0.4500263183177736,-0.19727831289611122 l 3.088458835220945 -6.883573627314528" fill="#ff5607" stroke="none" /><path d="M 91.07499286063937 119.00905698771935 l -12.860684195548874 27.39151632676042 a51.2604091951319,51.2604091951319 0 0,0 -0.7954818090389235,-0.38187960968861406 l 13.330278672588038 -27.166082440572243" fill="#8dff24" stroke="none" /><path d="M 90.7491055286396 118.85261126421891 l -16.718787078472005 34.07160189487365 a58.95249526787455,58.95249526787455 0 0,0 -0.9071556418173436,-0.45486667104942213 l 17.302796627972107 -33.77876738291493" fill="#3dff2e" stroke="none" /><line stroke="#e1ed5e" stroke-width="0.3" x1="58.666819895761336" x2="56.23545636021788" y1="174.27360380694188" y2="178.64263932499728" /><path d="M 58.180547188652646 175.14741091055294 a86.0,86.0 0 0,1 -31.652253787137756,-30.449443065178592" fill="none" id="id44" stroke="none" /><text fill="#e1ed5e" style="font-size:6.75px; font-family:Arial;" text-anchor="middle"><textPath startOffset="22.20632615414155" xlink:href="#id44">August</textPath></text><path d="M 89.7882731507175 118.34994917583269 l -18.613679594744834 33.44782714813811 a59.278273328188995,59.278273328188995 0 0,0 -0.8873427769284725,-0.503856386963913 l 19.186671138594516 -33.12246759537956" fill="#3aff2e" stroke="none" /><path d="M 89.4739219176387 118.17145234162733 l -5.274500554097696 9.10551248952663 a31.522866234638848,31.522866234638848 0 0,0 -0.46718708426162747,-0.27602236421993087 l 5.430455509387706 -9.01337155301295" fill="#ff7f0b" stroke="none" /><path d="M 89.1626897886671 117.98757091392108 l -4.623148572300271 7.67341814234329 a29.958507058031778,29.958507058031778 0 0,0 -0.439421110135644,-0.26992833580871656 l 4.754548882368224 -7.5927013397061955" fill="#ff6909" stroke="none" /><path d="M 88.8546689885994 117.79835938074946 l -9.175970638430334 14.65342060481922 a38.28933696181193,38.28933696181193 0 0,0 -0.5555932266581646,-0.3546058842369437 l 9.426845667135423 -14.493300291758471" fill="#ffd814" stroke="none" /><path d="M 88.24862548938628 117.40417183066458 l -8.41873616240624 12.468424917886129 a36.04449196567203,36.04449196567203 0 0,0 -0.5112192275829028,-0.3516212462773108 l 8.632112274612034 -12.321662882243718" fill="#ffbb11" stroke="none" /><path d="M 87.95078237400918 117.19931262002967 l -9.70934157020378 13.859323168034535 a37.92194292635766,37.92194292635766 0 0,0 -0.5313995941952985,-0.37913950092403853 l 9.946468492247966 -13.690139405266278" fill="#ffd313" stroke="none" /><path d="M 87.65650970185807 116.9893568818739 l -8.85356523921417 12.185887126966428 a36.062584855070114,36.062584855070114 0 0,0 -0.4990632935447255,-0.369195093646097 l 9.06201350317746 -12.031682084580565" fill="#ffbb11" stroke="none" /><path d="M 87.07902340077011 116.55440617244103 l -9.368254827428116 12.002645028350251 a36.225888683036246,36.225888683036246 0 0,0 -0.48826030292326006,-0.38790351427810443 l 9.573472623068733 -11.839607600067017" fill="#ffbd11" stroke="none" /><path d="M 86.79598089348748 116.32954008644616 l -10.18733928084009 12.598782523622372 a37.20219746517367,37.20219746517367 0 0,0 -0.49448783791947765,-0.40692982604711475 l 10.402697247304257 -12.421557578718078" fill="#ffca12" stroke="none" /><path d="M 86.51685102203217 116.09983520530335 l -10.977038420576891 13.107361633573491 a38.096733649445895,38.096733649445895 0 0,0 -0.49912984079100514,-0.4253692787127442 l 11.201033737944954 -12.916467964637796" fill="#ffd513" stroke="none" /><path d="M 86.24171649860922 115.8653595955263 l -1.5591372721262646 1.7979185760033667 a23.37979415901277,23.37979415901277 0 0,0 -0.30177485687001454,-0.2662812244268223 l 1.5898544819028668 -1.7708142098042556" fill="#ff0c01" stroke="none" /><path d="M 85.97065885151581 115.62618273729859 l -13.026731604372907 14.509454604122118 a40.49923099000185,40.49923099000185 0 0,0 -0.5147268094036865,-0.4701907363354075 l 13.27455796324345 -14.283071101200134" fill="#fff316" stroke="none" /><path d="M 85.70375840098266 115.38237550388516 l -12.903272753495076 13.883578096284714 a39.95384363412142,39.95384363412142 0 0,0 -0.49973538100172726,-0.47253099464689746 l 13.140343968887619 -13.659412464891886" fill="#ffec16" stroke="none" /><path d="M 85.18274418774928 114.88116024355367 l -5.291804476586602 5.314627174657523 a28.49989710756289,28.49989710756289 0 0,0 -0.3446579074008708,-0.34913664054731014 l 5.382503009043006 -5.222750040129548" fill="#ff5507" stroke="none" /><path d="M 84.9287848128048 114.62390073753433 l -5.360095374362903 5.20100746521076 a28.468674653206193,28.468674653206193 0 0,0 -0.338226086518994,-0.3546286995050905 l 5.448828012260854 -5.1079716491231695" fill="#ff5507" stroke="none" /><path d="M 84.43433777217949 114.09645910891817 l -11.602416328804509 10.507293872233651 a36.653092000764204,36.653092000764204 0 0,0 -0.419487918828998,-0.4712991237652783 l 11.781563097281845 -10.306020578727509" fill="#ffc312" stroke="none" /><path d="M 83.95833913139862 113.55231037782056 l -11.704576682536695 9.888256418212665 a36.32236046794702,36.32236046794702 0 0,0 -0.39937992025513563,-0.4810788418674097 l 11.873052602685368 -9.685316319231495" fill="#ffbe11" stroke="none" /><path d="M 83.50135304334701 112.99209946851258 l -11.823425377483147 9.310528249157676 a36.04923001137519,36.04923001137519 0 0,0 -0.3797068534787621,-0.490822293120244 l 11.981939048179978 -9.10562796192418" fill="#ffbb11" stroke="none" /><path d="M 83.28015986056508 112.70617746262583 l -5.947873094042969 4.520063016621735 a28.470486196832965,28.470486196832965 0 0,0 -0.2931629462751536,-0.3927396745395493 l 6.024797307013208 -4.417010462572877" fill="#ff5507" stroke="none" /><path d="M 83.06392112726016 112.41649034213515 l -28.528608489526086 20.91541935098762 a56.37423170863683,56.37423170863683 0 0,0 -0.5670179488649468,-0.7875383381821385 l 28.88440623076664 -20.421247407354343" fill="#57ff2a" stroke="none" /><path d="M 82.85270091963577 112.12312394758628 l -12.245707082301752 8.657703122154087 a35.997105230573396,35.997105230573396 0 0,0 -0.3533528865247431,-0.5090311873424935 l 12.39292087598863 -8.445630672624581" fill="#ffba11" stroke="none" /><path d="M 82.24976979558568 111.22182372390057 l -12.78521845420117 8.082907439077914 a36.12597777303495,36.12597777303495 0 0,0 -0.32777505677774427,-0.5284777573758694 l 12.92245815064687 -7.861633350336781" fill="#ffbc11" stroke="none" /><line stroke="#e1ed5e" stroke-width="0.3" x1="26.63291911575756" x2="22.317208475507996" y1="142.92168965132927" y2="145.44649492493687" /><path d="M 25.769776987707644 143.4266507060508 a86.0,86.0 0 0,1 -11.730757126820373,-40.83630448921669" fill="none" id="id45" stroke="none" /><text fill="#e1ed5e" style="font-size:6.75px; font-family:Arial;" text-anchor="middle"><textPath startOffset="21.46611528233685" xlink:href="#id45">September</textPath></text><path d="M 81.87401531095188 110.60418214915194 l -13.102425939963668 7.665266943930337 a36.17991708916567,36.17991708916567 0 0,0 -0.3098517079932829,-0.5402525703644878 l 13.23242964410933 -7.438594527707543" fill="#ffbd11" stroke="none" /><path d="M 81.69416730710424 110.29060199501025 l -27.7932554317284 15.623945361664427 a52.88373748727673,52.88373748727673 0 0,0 -0.43924625591210675,-0.7973595421800986 l 28.05807809709202 -15.143215301086505" fill="#7cff26" stroke="none" /><path d="M 81.18737489456691 109.33194174019688 l -2.8504933430378796 1.4139779886628512 a24.181924897153657,24.181924897153657 0 0,0 -0.18176371875253103,-0.37448709726535306 l 2.8744103184051295 -1.3647019354322134" fill="#ff1802" stroke="none" /><path d="M 81.02952815118164 109.00673069616217 l -6.787621898741313 3.222602104815007 a28.513785688069014,28.513785688069014 0 0,0 -0.20669152151016054,-0.4451951491919053 l 6.8420880370913 -3.1052868883442746" fill="#ff5507" stroke="none" /><path d="M 80.87730276802145 108.67885076344099 l -15.182271888669492 6.890485707811148 a37.67273741744389,37.67273741744389 0 0,0 -0.2629178824335191,-0.5928104165937236 l 15.298630855834292 -6.6281269547247295" fill="#ffd013" stroke="none" /><path d="M 80.58989483394504 108.01547362559985 l -9.458458024820482 3.905904691818874 a31.233206714850613,31.233206714850613 0 0,0 -0.200929741692139,-0.49869114075170223 l 9.52429038077001 -3.7425141832243662" fill="#ff7b0b" stroke="none" /><path d="M 80.20201598880116 107.00284435728193 l -14.166903334847586 5.011046529913251 a36.027033553694864,36.027033553694864 0 0,0 -0.20176711808716571,-0.5864296902557485 l 14.251061283877979 -4.7664441365682055" fill="#ffbb11" stroke="none" /><path d="M 79.86692584326677 105.97154293290107 l -14.682548693257106 4.354897280148988 a36.31477608228455,36.31477608228455 0 0,0 -0.17259438299259036,-0.6008236894530602 l 14.7553357131358 -4.101516115191332" fill="#ffbe11" stroke="none" /><path d="M 79.76711848015287 105.62410040840567 l -8.728079717528793 2.4261297954915246 a30.059000018771897,30.059000018771897 0 0,0 -0.1342806007144579,-0.4997080688680912 l 8.768548394585025 -2.2755307934478943" fill="#ff6b09" stroke="none" /><path d="M 79.50377843672027 104.57218783832718 l -11.36881671605793 2.53609502438522 a32.648251864379894,32.648251864379894 0 0,0 -0.11763625529927972,-0.5495574216323218 l 11.41078701008165 -2.340023783336734" fill="#ff8e0d" stroke="none" /><path d="M 79.23777060512086 103.15116336523772 l -7.488300754576323 1.1365281905382907 a28.574057335330686,28.574057335330686 0 0,0 -0.06961994094610975,-0.4869217048257017 l 7.506754746539031 -1.0074610137321884" fill="#ff5608" stroke="none" /><path d="M 79.18660465613746 102.79330883721812 l -14.90129142717956 1.9998615479034463 a36.03489050204616,36.03489050204616 0 0,0 -0.07721503271653164,-0.615479783299107 l 14.93350796914294 -1.7430640103169306" fill="#ffbb11" stroke="none" /><path d="M 79.1416061653843 102.43462659150553 l -30.12075597461471 3.515744981780243 a51.32524366364103,51.32524366364103 0 0,0 -0.09487275399620308,-0.8784038739463033 l 30.176811030111963 -2.996744785949158" fill="#8dff24" stroke="none" /><path d="M 79.07016306316243 101.71520430193888 l -6.8967152391957125 0.5651871862745285 a27.919835088069895,27.919835088069895 0 0,0 -0.035130386883383165,-0.4793262178014061 l 6.905422184743431 -0.44638783197636167" fill="#ff4d07" stroke="none" /><path d="M 79.0235259727143 100.99374915477108 l -20.46551283838264 0.9695426437562746 a41.488465747245854,41.488465747245854 0 0,0 -0.027654763416069095,-0.7136465625897926 l 20.47916973464991 -0.6171188341524853" fill="#ffff18" stroke="none" /><line stroke="#e1ed5e" stroke-width="0.3" x1="15.007084014347285" x2="10.007500721073583" y1="101.09737516637583" y2="101.16192664675087" /><path d="M 14.007167355692545 101.11028546245083 a86.0,86.0 0 0,1 10.666146001902534,-42.60595125391555" fill="none" id="id46" stroke="none" /><text fill="#e1ed5e" style="font-size:6.75px; font-family:Arial;" text-anchor="middle"><textPath startOffset="22.20632615414155" xlink:href="#id46">October</textPath></text><path d="M 79.05617556472873 98.46500227214037 l -18.58250736204527 -1.361933999534357 a39.63234939774247,39.63234939774247 0 0,0 0.055722170162590026,-0.6799516150650142 l 18.556310708063183 1.6815995318071497" fill="#ffe815" stroke="none" /><path d="M 79.08570108090925 98.10471618934814 l -1.645926673650021 -0.14915623947793138 a22.652671231312453,22.652671231312453 0 0,0 0.03853421558847471,-0.3880342922290901 l 1.6431153323793177 0.17746606241145177" fill="#ff0100" stroke="none" /><path d="M 79.21141760316559 97.0276538004421 l -31.503719086703033 -4.504393705727649 a52.824108454913485,52.824108454913485 0 0,0 0.13644745561915161,-0.8990182499467845 l 31.42151573764458 5.046011068066526" fill="#7cff26" stroke="none" /><path d="M 79.32604984820605 96.31383870115002 l -16.32424132549161 -2.9106090594831615 a37.58169170953415,37.58169170953415 0 0,0 0.11903423896678185,-0.6358856643066937 l 16.271721362614965 3.191172801252428" fill="#ffcf13" stroke="none" /><path d="M 79.71946130924805 94.55025226153421 l -14.564460995664353 -3.9137342248847355 a36.081141855882876,36.081141855882876 0 0,0 0.1663396126057749,-0.5984120889591278 l 14.494934612492218 4.1638576172628055" fill="#ffbb11" stroke="none" /><path d="M 80.14247586403 93.16781622104843 l -13.495449718219831 -4.643247165313045 a35.27189221284926,35.27189221284926 0 0,0 0.20247228286987845,-0.5724164088839886 l 13.413524354540142 4.874861200623644" fill="#ffb110" stroke="none" /><path d="M 80.38941819471856 92.48833698450439 l -12.198731815760652 -4.672618259174792 a34.063017236030305,34.063017236030305 0 0,0 0.21444526614734935,-0.5457398116816742 l 12.116492999731612 4.881907075752229" fill="#ffa10e" stroke="none" /><path d="M 80.52162464483688 92.15188598940014 l -14.294433089799625 -5.759430063344678 a36.41109509455175,36.41109509455175 0 0,0 0.23923530856059133,-0.5793272756539254 l 14.193176094352834 6.004631909451915" fill="#ffc011" stroke="none" /><path d="M 80.95270993114464 91.15688171328213 l -15.81824335670144 -7.343963187714829 a38.43991451224288,38.43991451224288 0 0,0 0.28379970354984774,-0.5977545536239278 l 15.689485459309841 7.615160156979289" fill="#ffd914" stroke="none" /><path d="M 81.6062741919709 89.86733742301443 l -30.65971929742352 -16.88970432571504 a56.004006907879585,56.004006907879585 0 0,0 0.47241342289222843,-0.8403707660190044 l 30.364448233238864 17.41495860166883" fill="#5bff2a" stroke="none" /><line stroke="#e1ed5e" stroke-width="0.3" x1="26.266209847984243" x2="21.928928074336255" y1="57.711370442889674" y2="55.22380399835377" /><path d="M 25.398753493254645 57.213857153982495 a86.0,86.0 0 0,1 29.58750427330803,-30.492523968695096" fill="none" id="id47" stroke="none" /><text fill="#e1ed5e" style="font-size:6.75px; font-family:Arial;" text-anchor="middle"><textPath startOffset="21.46611528233685" xlink:href="#id47">November</textPath></text><path d="M 81.96595687620814 89.24020034530311 l -2.565556628464166 -1.5307091779455508 a23.98749918850251,23.98749918850251 0 0,0 0.21461295886389586,-0.352767275694225 l 2.5388278713140533 1.5746442268468503" fill="#ff1502" stroke="none" /><path d="M 82.15384107792192 88.93136811851018 l -4.8299332288181045 -2.9956447858269963 a26.683497398406526,26.683497398406526 0 0,0 0.2454531110959424,-0.38824787606165356 l 4.7776525214762 3.0783403096028654" fill="#ff3c05" stroke="none" /><path d="M 82.34701348167596 88.62581576622439 l -4.437802913007678 -2.8593681796187966 a26.279212164832547,26.279212164832547 0 0,0 0.2482801958878976,-0.3781477718624164 l 4.387926081761861 2.93533401545888" fill="#ff3605" stroke="none" /><path d="M 82.7489923806493 88.02491185347247 l -6.024924401878187 -4.18230647047685 a28.334262162026917,28.334262162026917 0 0,0 0.2815715685896904,-0.3982630153753398 l 5.952040213484618 4.285395986183976" fill="#ff5307" stroke="none" /><path d="M 83.17141714833178 87.43820079747576 l -4.138008579325436 -3.0888419619157554 a26.16372536723851,26.16372536723851 0 0,0 0.27250648719923215,-0.35858659430281054 l 4.084226151902095 3.1596133320995925" fill="#ff3405" stroke="none" /><path d="M 83.39014120810768 87.1503855733568 l -3.1197484644222326 -2.4134801733236664 a24.944327195896825,24.944327195896825 0 0,0 0.26565223760434087,-0.33735136435040686 l 3.0777421462239207 2.466823931627121" fill="#ff2303" stroke="none" /><path d="M 84.5562425177563 85.77008943001954 l -1.3036140976254482 -1.201152766631044 a22.77261887734313,22.77261887734313 0 0,0 0.2681016928948425,-0.28599219313026797 l 1.2827450827601499 1.223414376639362" fill="#ff0300" stroke="none" /><path d="M 84.80347519578584 85.50635884689758 l -9.174070848798372 -8.749743280697206 a33.67760164293223,33.67760164293223 0 0,0 0.40370742125221976,-0.4160559844846 l 9.022099163843034 8.90636346073193" fill="#ff9c0e" stroke="none" /><path d="M 87.80319425747018 82.90503203632743 l -11.192995451732397 -15.688033629796099 a40.271677310294386,40.271677310294386 0 0,0 0.5677709337292107,-0.397759822927356 l 10.921293378419525 15.878378295487398" fill="#fff016" stroke="none" /><path d="M 88.09926311788651 82.69761687909137 l -2.970929811075299 -4.319410329440414 a26.242492683486784,26.242492683486784 0 0,0 0.3743870292877797,-0.2527877934028002 l 2.8961380873809794 4.36991003514188" fill="#ff3505" stroke="none" /><path d="M 88.39885842347998 82.49532879139004 l -32.977972150074656 -49.75963406757382 a80.69562655396082,80.69562655396082 0 0,0 1.164449320040343,-0.7573902290193367 l 32.11655580425003 50.31992322075269" fill="#49f1ff" stroke="none" /><line stroke="#e1ed5e" stroke-width="0.3" x1="56.762969772571076" x2="54.21961505331055" y1="26.818313649435495" y2="22.513508569990535" /><path d="M 56.25429882871897 25.957352633546506 a86.0,86.0 0 0,1 42.265352541879196,-11.944610805530505" fill="none" id="id48" stroke="none" /><text fill="#e1ed5e" style="font-size:6.75px; font-family:Arial;" text-anchor="middle"><textPath startOffset="22.20632615414155" xlink:href="#id48">December</textPath></text><path d="M 96.75951476605007 79.25152402106235 l -1.1105106523392465 -7.11047942851738 a28.196676428208217,28.196676428208217 0 0,0 0.4801907685496948,-0.07076763695690293 l 0.987950903360903 7.128541549635252" fill="#ff5107" stroke="none" /></svg>