<?xml version="1.0" encoding="utf-8" ?>
<svg baseProfile="full" height="200mm" version="1.1" viewBox="0,0,200,200" width="200mm" xmlns="http://www.w3.org/2000/svg" xmlns:ev="http://www.w3.org/2001/xml-events" xmlns:xlink="http://www.w3.org/1999/xlink"><defs /><rect fill="#1a1a1a" height="200" width="200" x="0" y="0" /><text alignment-baseline="middle" fill="#e1ed5e" style="dominant-baseline: central; font-size:9.0px; font-family:Arial;" text-anchor="middle" x="100.0" y="100.0">2023</text><line stroke="#e1ed5e" stroke-width="0.3" x1="100.0" x2="100.0" y1="15.0" y2="10.0" /><path d="M 100.0 14.0 a86.0,86.0 0 0,1 42.46469731375804,11.215312516191453" fill="none" id="id61" stroke="none" /><text fill="#e1ed5e" style="font-size:6.75px; font-family:Arial;" text-anchor="middle"><textPath startOffset="22.20632615414155" xlink:href="#id61">January</textPath></text><line stroke="#e1ed5e" stroke-width="0.3" x1="143.23703022742887" x2="145.7803849466894" y1="26.81831364943548" y2="22.513508569990506" /><path d="M 143.74570117128098 25.957352633546492 a86.0,86.0 0 0,1 28.547481713284135,27.462654790039103" fill="none" id="id62" stroke="none" /><text fill="#e1ed5e" style="font-size:6.75px; font-family:Arial;" text-anchor="middle"><textPath startOffset="19.985693538727396" xlink:href="#id62">February</textPath></text><line stroke="#e1ed5e" stroke-width="0.3" x1="172.23445277983987" x2="176.4835382374775" y1="55.19839476539836" y2="52.563006222186495" /><path d="M 173.08426987136738 54.67131705675599 a86.0,86.0 0 0,1 12.851231095245387,41.99856678651699" fill="none" id="id63" stroke="none" /><text fill="#e1ed5e" style="font-size:6.75px; font-family:Arial;" text-anchor="middle"><textPath startOffset="22.20632615414155" xlink:href="#id63">March</textPath></text><path d="M 118.56541770881063 90.18545643968196 l 9.41064570068386 -4.974905149386939 a31.644713887615595,31.644713887615595 0 0,0 0.25043109230803684,0.4837531597234045 l -9.494886226152014 4.81217926740319" fill="#ff810b" stroke="none" /><path d="M 120.67395015179393 96.31383870115 l 7.323505849185133 -1.305779671275124 a28.439005207214485,28.439005207214485 0 0,0 0.08177993260382699,0.48266979152433964 l -7.344897643309183 1.1795240914349465" fill="#ff5507" stroke="none" /><path d="M 120.73433829027371 96.67025291283417 l 7.435300180297522 -1.194041920747615 a28.530566039789772,28.530566039789772 0 0,0 0.07369595545235468,0.4855642679322468 l -7.454752029189176 1.065878540423286" fill="#ff5708" stroke="none" /><path d="M 120.94382443527127 98.46500227214037 l 7.380700746748258 -0.5409403096977277 a28.400497275974512,28.400497275974512 0 0,0 0.03153727674554442,0.48786771252448424 l -7.388918614498218 0.4138135329202082" fill="#ff5507" stroke="none" /><path d="M 120.96714384426684 98.82574320788733 l 7.850192498917964 -0.4396469986429221 a28.862493990680285,28.862493990680285 0 0,0 0.023511101407758604,0.4962821911997649 l -7.856597208559219 0.30445370082015744" fill="#ff5b08" stroke="none" /><path d="M 120.98425023603335 99.18683210126433 l 10.843532800063915 -0.4202014693266478 a31.851671431668315,31.851671431668315 0 0,0 0.0165147966974479,0.5480457020320039 l -10.849159291217008 0.23348561986964492" fill="#ff840c" stroke="none" /><line stroke="#e1ed5e" stroke-width="0.3" x1="184.98032266829074" x2="189.97916517819016" y1="98.17113171792111" y2="98.06355123074" /><path d="M 185.9800911702706 98.14961562048488 a86.0,86.0 0 0,1 -9.607161424134198,41.387399972396054" fill="none" id="id64" stroke="none" /><text fill="#e1ed5e" style="font-size:6.75px; font-family:Arial;" text-anchor="middle"><textPath startOffset="21.466115282336823" xlink:href="#id64">April</textPath></text><path d="M 120.9904718944345 100.63252640178507 l 7.2654680129479745 0.21893744755366853 a28.268765992457833,28.268765992457833 0 0,0 -0.018842972896326183,0.48625340358630753 l -7.260622907200445 -0.34396809815398227" fill="#ff5307" stroke="none" /><path d="M 120.95626037817324 101.35467743843564 l 10.773366116815266 0.6964236820447844 a31.7958521401442,31.7958521401442 0 0,0 -0.040007420654404456,0.5458694687856497 l -10.759782137496524 -0.8817662873272044" fill="#ff830c" stroke="none" /><path d="M 120.92983693683757 101.71520430193887 l 7.852598618337681 0.6435220194126898 a28.87892287373013,28.87892287373013 0 0,0 -0.04486602465898329,0.495092843486345 l -7.840357997401623 -0.7785962514476055" fill="#ff5b08" stroke="none" /><path d="M 120.8583938346157 102.4346265915055 l 30.989859367261232 3.6171881824063927 a52.20024733795502,52.20024733795502 0 0,0 -0.11185392129281951,0.8915858067586258 l -30.923003936721567 -4.150091743452413" fill="#83ff25" stroke="none" /><path d="M 120.81339534386255 102.79330883721812 l 7.865564358582927 1.0556158699506135 a28.936083892191515,28.936083892191515 0 0,0 -0.0705020091527245,0.4930908878083559 l -7.8462282984136005 -1.1908522297393789" fill="#ff5c08" stroke="none" /><path d="M 120.41448212921028 104.9243191809786 l 30.634678878579336 7.389603902273662 a52.51332727317401,52.51332727317401 0 0,0 -0.21952742777644202,0.8769029493007422 l -30.50294013650783 -7.9158346909718" fill="#7fff26" stroke="none" /><path d="M 120.13307415673323 105.97154293290107 l 7.371918587308902 2.186537833182525 a28.689351816235813,28.689351816235813 0 0,0 -0.1445031112528717,0.4722445284684463 l -7.333188703549897 -2.3131093342030282" fill="#ff5908" stroke="none" /><path d="M 119.26925614724726 108.34839909993367 l 6.772691298286398 2.9342663518861376 a28.38100714304596,28.38100714304596 0 0,0 -0.19807093433899103,0.4465976677348786 l -6.721179279216134 -3.0504123561137035" fill="#ff5407" stroke="none" /><line stroke="#e1ed5e" stroke-width="0.3" x1="174.80103733775053" x2="179.2010983576182" y1="140.37084112569926" y2="142.7455964860345" /><path d="M 175.68104954172406 140.8457921977663 a86.0,86.0 0 0,1 -30.038265399797805,32.042727171017184" fill="none" id="id65" stroke="none" /><text fill="#e1ed5e" style="font-size:6.75px; font-family:Arial;" text-anchor="middle"><textPath startOffset="22.206326154141568" xlink:href="#id65">May</textPath></text><line stroke="#e1ed5e" stroke-width="0.3" x1="143.8653032363475" x2="146.44561519142675" y1="172.8068346515853" y2="177.08958963109032" /><path d="M 144.38136562736335 173.6633856474863 a86.0,86.0 0 0,1 -40.68145358897372,12.25698825130547" fill="none" id="id66" stroke="none" /><text fill="#e1ed5e" style="font-size:6.75px; font-family:Arial;" text-anchor="middle"><textPath startOffset="21.466115282336833" xlink:href="#id66">June</textPath></text><path d="M 109.89434966115114 118.52300852407294 l 3.5298931168665413 6.608240312095287 a28.491928018801502,28.491928018801502 0 0,0 -0.43458208328487435,0.2273528063569463 l -3.4156201310551717 -6.66802253739695" fill="#ff5608" stroke="none" /><path d="M 109.2508944713604 118.85261126421891 l 2.8566121255111523 5.8215557535158275 a27.4846545187011,27.4846545187011 0 0,0 -0.4265190824778499,0.2047550791113252 l -2.7559803750330696 -5.869865109126713" fill="#ff4806" stroke="none" /><path d="M 108.92500713936063 119.00905698771935 l 1.8775124424660505 3.998847334988916 a25.41767280139247,25.41767280139247 0 0,0 -0.3976437613509247,0.1825387476413292 l -1.8084006853477064 -4.03057315296432" fill="#ff2a04" stroke="none" /><path d="M 108.2653958097858 119.30500536409082 l 2.6473035274589725 6.18315322993545 a27.726038940666186,27.726038940666186 0 0,0 -0.44035358579985484,0.1840678345780726 l -2.5404784821616566 -6.227806107533496" fill="#ff4b07" stroke="none" /><path d="M 107.93186726928326 119.44442032107085 l 6.218173456502718 15.243419262169565 a37.46291322753774,37.46291322753774 0 0,0 -0.5991906182477291,0.23843031288581149 l -5.954861762213122 -15.348196419461445" fill="#ffce13" stroke="none" /><path d="M 107.59598834532513 119.57807347666477 l 0.8660787753183891 2.232251173765788 a23.394376275324273,23.394376275324273 0 0,0 -0.3766826326393553,0.1424291402125775 l -0.827525921918759 -2.2468285640849963" fill="#ff0d01" stroke="none" /><path d="M 106.57524785965236 119.94407469862006 l 3.462358600666438 10.502043426960935 a32.05806688446865,32.05806688446865 0 0,0 -0.5255670545699779,0.16826997401274804 l -3.28107020100552 -10.56008624763339" fill="#ff870c" stroke="none" /><path d="M 105.88484417918355 120.15858648285463 l 2.0770728317363827 7.115031602341371 a28.41201094512507,28.41201094512507 0 0,0 -0.47065014567999114,0.13301043236640236 l -1.9542915179517857 -7.149730828046292" fill="#ff5507" stroke="none" /><path d="M 105.18746579009965 120.34920634021253 l 2.706937855765927 10.618679564546122 a31.95827852582184,31.95827852582184 0 0,0 -0.5342308905595872,0.13130095512655554 l -2.5237536804631286 -10.663701777986708" fill="#ff860c" stroke="none" /><path d="M 104.48393922423573 120.51570834832081 l 2.1509665890804097 9.84148111777266 a31.07379808507278,31.07379808507278 0 0,0 -0.5235321470627711,0.10971125162472399 l -1.9812429805882608 -9.877048350123927" fill="#ff7a0b" stroke="none" /><path d="M 104.13013068566511 120.58985236759428 l 0.45642729259366666 2.2754172413144738 a23.320743306679038,23.320743306679038 0 0,0 -0.3942675774348199,0.07556231958012626 l -0.4171921005871424 -2.2829367592430683" fill="#ff0c01" stroke="none" /><path d="M 103.7750983002368 120.6578951692458 l 0.3105299394432445 1.6992656682683969 a22.727406337445323,22.727406337445323 0 0,0 -0.38544710204065724,0.06701491937834796 l -0.2812338659305373 -1.704359166167751" fill="#ff0300" stroke="none" /><path d="M 103.06178313531738 120.77559828337769 l 1.3454685326302407 9.129619081906007 a30.22823006610696,30.22823006610696 0 0,0 -0.5154221393190251,0.07143281197238727 l -1.1881178021243852 -9.151426459370997" fill="#ff6e0a" stroke="none" /><path d="M 102.34483914955558 120.86867818915974 l 0.16704605752108034 1.4866821111529085 a22.49603746108024,22.49603746108024 0 0,0 -0.38518294174017675,0.039925786829398936 l -0.14143051917530092 -1.489337266438066" fill="#ff0000" stroke="none" /><path d="M 101.98527174616119 120.90594882070398 l 0.14984041202713658 1.5778978324603488 a22.584996441245067,22.584996441245067 0 0,0 -0.38733880010007,0.03342122150930554 l -0.12265729418552489 -1.5802433062483177" fill="#ff0100" stroke="none" /><path d="M 101.62511606390274 120.93702456842531 l 0.8150576890259177 10.500716372735935 a31.532300953594365,31.532300953594365 0 0,0 -0.5415105696281988,0.037345739329838666 l -0.6341843586187885 -10.513190456582059" fill="#ff800b" stroke="none" /><path d="M 100.90346689309514 120.98055641714683 l 0.3195461188655953 7.420587766943128 a28.427464744378668,28.427464744378668 0 0,0 -0.4890602126490641,0.01684422257378172 l -0.1917655545418789 -7.424988787943004" fill="#ff5507" stroke="none" /><line stroke="#e1ed5e" stroke-width="0.3" x1="102.19456741930631" x2="102.32365962044197" y1="184.97166512339345" y2="189.96999836594603" /><path d="M 102.22038585953345 185.97133177190398 a86.0,86.0 0 0,1 -42.740103519485714,-10.115201625700543" fill="none" id="id67" stroke="none" /><text fill="#e1ed5e" style="font-size:6.75px; font-family:Arial;" text-anchor="middle"><textPath startOffset="22.20632615414155" xlink:href="#id67">July</textPath></text><path d="M 100.18074693466247 120.99922214144158 l 0.14071361657032305 16.348141661179245 a37.348747233224714,37.348747233224714 0 0,0 -0.6429211024655458,0.0 l 0.1407136165703118 -16.348141661179245" fill="#ffcc13" stroke="none" /><path d="M 99.81925306533755 120.99922214144158 l -0.042183138224632384 4.900847097941 a25.9010286363729,25.9010286363729 0 0,0 -0.44579408678235755,-0.007674749484903174 l 0.12653691489965788 -4.899394871176938" fill="#ff3104" stroke="none" /><path d="M 99.09653310690486 120.98055641714683 l -0.3058629092399792 7.102832513583097 a28.109415013576147,28.109415013576147 0 0,0 -0.4832302004675238,-0.024977481712133057 l 0.42808117812099195 -7.096515225108762" fill="#ff5107" stroke="none" /><path d="M 98.73552117531835 120.96189622390904 l -0.4519600161676482 7.492366634647043 a28.50598598747603,28.50598598747603 0 0,0 -0.48953905179989815,-0.03376147917638603 l 0.5808618287464764 -7.483476810954373" fill="#ff5608" stroke="none" /><path d="M 96.93821686468263 120.77559828337769 l -0.3273234256953802 2.2210390809672322 a23.24502900297362,23.24502900297362 0 0,0 -0.39534717663057356,-0.06174509826435652 l 0.3655064659344709 -2.21507567535577" fill="#ff0b01" stroke="none" /><path d="M 96.58105272829116 120.7198165907248 l -2.8151930848097404 17.06089031188251 a38.29159594539634,38.29159594539634 0 0,0 -0.6494091085680757,-0.11290809769705798 l 3.108451164849866 -17.009903635664447" fill="#ffd814" stroke="none" /><path d="M 96.22490169976321 120.6578951692458 l -0.4723063127047844 2.584529863769762 a23.627330940277325,23.627330940277325 0 0,0 -0.3994508411919359,-0.07655570441544723 l 0.5167247684684153 -2.5760169610058465" fill="#ff1101" stroke="none" /><path d="M 95.86986931433489 120.58985236759428 l -0.5040447482660345 2.5128035268907243 a23.562858301391053,23.562858301391053 0 0,0 -0.3969876409600767,-0.08319262000171987 l 0.547223850655498 -2.5037549261624634" fill="#ff1001" stroke="none" /><path d="M 95.16358092515715 120.4354850818985 l -4.041634661144092 17.07725561953658 a38.54900197245288,38.54900197245288 0 0,0 -0.644404786612242,-0.15837901825872439 l 4.334992732499543 -17.005155342963825" fill="#ffdc14" stroke="none" /><path d="M 94.81253420990036 120.34920634021253 l -0.6532744453455772 2.5626417644037516 a23.644598327460702,23.644598327460702 0 0,0 -0.3935244329205234,-0.10393337942222322 l 0.6972893210775899 -2.5510170356779467" fill="#ff1101" stroke="none" /><path d="M 94.46302465271185 120.25689768951611 l -0.7037542313755447 2.574668762164631 a23.669117691868482,23.669117691868482 0 0,0 -0.39208325349831935,-0.11080664385238774 l 0.747968652978478 -2.5621733249737217" fill="#ff1101" stroke="none" /><path d="M 94.11515582081647 120.15858648285463 l -0.738371713385928 2.5292989223801103 a23.634871121303973,23.634871121303973 0 0,0 -0.3895533509982302,-0.11736922910090146 l 0.7818000388244041 -2.5162143241734833" fill="#ff1101" stroke="none" /><path d="M 93.76903079525671 120.05430185196036 l -5.138824210341849 16.53924590092771 a38.319185004963416,38.319185004963416 0 0,0 -0.6282132128914386,-0.2011340324484369 l 5.422758768324228 -16.448339021819567" fill="#ffd914" stroke="none" /><path d="M 93.08242187328487 119.8279376855182 l -5.208278230688709 14.928550760867962 a36.81100218038304,36.81100218038304 0 0,0 -0.596479237885754,-0.2138762329910481 l 5.46447702920419 -14.836686986836956" fill="#ffc512" stroke="none" /><path d="M 92.40401165467489 119.57807347666478 l -0.9450438471600765 2.4357775495741665 a23.612684470820128,23.612684470820128 0 0,0 -0.37766681199153296,-0.1502814186461418 l 0.9868317351934676 -2.419149286521958" fill="#ff1001" stroke="none" /><path d="M 92.06813273071674 119.44442032107085 l -4.704320436561475 11.53231399215919 a33.45491456348058,33.45491456348058 0 0,0 -0.5313413727140367,-0.2221007368875294 l 4.902133268772974 -11.449628212251689" fill="#ff9a0e" stroke="none" /><path d="M 91.40352486487194 119.15986991738527 l -0.9030909652969685 2.0128139902306676 a23.206126345173665,23.206126345173665 0 0,0 -0.3630454856502092,-0.16665637620539334 l 0.9376044467145972 -1.9969705436912002" fill="#ff0a01" stroke="none" /><path d="M 91.07499286063937 119.00905698771935 l -0.913837059149454 1.9463492256776234 a23.150203125049075,23.150203125049075 0 0,0 -0.3592551396035572,-0.17246429890859022 l 0.9472048667532532 -1.9303306502694706" fill="#ff0a01" stroke="none" /><line stroke="#e1ed5e" stroke-width="0.3" x1="58.666819895761336" x2="56.23545636021788" y1="174.27360380694188" y2="178.64263932499728" /><path d="M 58.180547188652646 175.14741091055294 a86.0,86.0 0 0,1 -31.652253787137756,-30.449443065178592" fill="none" id="id68" stroke="none" /><text fill="#e1ed5e" style="font-size:6.75px; font-family:Arial;" text-anchor="middle"><textPath startOffset="22.20632615414155" xlink:href="#id68">August</textPath></text><path d="M 89.7882731507175 118.34994917583269 l -11.554282970074645 20.76245363720791 a44.76091193514603,44.76091193514603 0 0,0 -0.6700308505021145,-0.3804610036461328 l 11.909962587497967 -20.56048946776714" fill="#d7ff1c" stroke="none" /><path d="M 88.24862548938628 117.40417183066458 l -8.556255981086052 12.672096288606513 a36.29024331924073,36.29024331924073 0 0,0 -0.514704720380762,-0.35401860000609847 l 8.773117586089704 -12.522936899235313" fill="#ffbf11" stroke="none" /><path d="M 87.65650970185807 116.9893568818739 l -4.363993806759821 6.006522176672393 a28.424469718727078,28.424469718727078 0 0,0 -0.3933608622925949,-0.290998961994004 l 4.466739639470981 -5.930513265938623" fill="#ff5507" stroke="none" /><path d="M 87.07902340077011 116.55440617244103 l -4.541000197091217 5.81794735981979 a28.38032480800246,28.38032480800246 0 0,0 -0.38251610910251327,-0.3038939313732669 l 4.6404737989110885 -5.738919514441393" fill="#ff5407" stroke="none" /><path d="M 86.24171649860922 115.8653595955263 l -15.243981753067319 17.578591991915737 a44.26770027540525,44.26770027540525 0 0,0 -0.5713856513756069,-0.5041814034684482 l 15.544309757349513 -17.313587446674997" fill="#ddff1b" stroke="none" /><path d="M 84.9287848128048 114.62390073753433 l -23.5479439229732 22.849039724093533 a53.811343759631285,53.811343759631285 0 0,0 -0.6393132252153726,-0.6703173606977255 l 23.93776369956753 -22.44031524681331" fill="#71ff27" stroke="none" /><path d="M 84.19399662182784 113.82643327865904 l -6.805847060173205 5.953471477311838 a30.04231037056536,30.04231037056536 0 0,0 -0.33712835564872384,-0.39215644126995325 l 6.907317925392707 -5.835437936880354" fill="#ff6b09" stroke="none" /><path d="M 83.50135304334701 112.99209946851258 l -21.028534417627643 16.559225223053232 a47.7657841234131,47.7657841234131 0 0,0 -0.5031174199205903,-0.6503470861580772 l 21.3104586547663 -16.194800142781904" fill="#b4ff20" stroke="none" /><path d="M 82.85270091963577 112.12312394758628 l -6.047226771004028 4.275383507364973 a28.405933820592526,28.405933820592526 0 0,0 -0.2788368299518764,-0.4016852501791623 l 6.119924508118038 -4.170656994998798" fill="#ff5507" stroke="none" /><path d="M 82.6465618267979 111.8261652097733 l -12.323803476315172 8.398527972903066 a35.91346385768488,35.91346385768488 0 0,0 -0.34373784330183965,-0.5138414367732249 l 12.466544425027742 -8.18514962192402" fill="#ffba11" stroke="none" /><path d="M 82.24976979558568 111.22182372390057 l -30.01974739021641 18.978701096803494 a56.5158602415064,56.5158602415064 0 0,0 -0.5127747521709937,-0.8267561715351797 l 30.34198678205536 -18.459148593903052" fill="#55ff2b" stroke="none" /><line stroke="#e1ed5e" stroke-width="0.3" x1="26.63291911575756" x2="22.317208475507996" y1="142.92168965132927" y2="145.44649492493687" /><path d="M 25.769776987707644 143.4266507060508 a86.0,86.0 0 0,1 -11.730757126820373,-40.83630448921669" fill="none" id="id69" stroke="none" /><text fill="#e1ed5e" style="font-size:6.75px; font-family:Arial;" text-anchor="middle"><textPath startOffset="21.46611528233685" xlink:href="#id69">September</textPath></text><path d="M 81.18737489456691 109.33194174019688 l -23.20036581824466 11.508466306735034 a46.89791054957196,46.89791054957196 0 0,0 -0.35250868818210235,-0.7262723072796659 l 23.39502776304148 -11.107405043490084" fill="#beff1f" stroke="none" /><path d="M 80.73074385275274 108.34839909993369 l -28.53712404762576 12.363699921438274 a52.100297822640755,52.100297822640755 0 0,0 -0.34944170609083597,-0.8259769697874794 l 28.745716734908903 -11.870648425984635" fill="#84ff25" stroke="none" /><path d="M 80.20201598880116 107.00284435728193 l -13.982456409105811 4.945804881449542 a35.8313881062399,35.8313881062399 0 0,0 -0.20067141815836007,-0.5832450733768716 l 14.0655186582074 -4.704387104983374" fill="#ffb911" stroke="none" /><path d="M 79.86692584326677 105.97154293290107 l -31.492180081213526 9.340695014662014 a53.84822658264086,53.84822658264086 0 0,0 -0.2559261668368086,-0.8909125611177745 l 31.64829888493644 -8.797224978039644" fill="#71ff27" stroke="none" /><path d="M 79.50377843672027 104.57218783832718 l -15.568066860128368 3.472841359778573 a36.95071574794109,36.95071574794109 0 0,0 -0.13313863937561465,-0.6219793990275574 l 15.625539538228425 -3.204348141334852" fill="#ffc712" stroke="none" /><path d="M 79.4281124754447 104.21870165774334 l -8.198993929710976 1.6813775226902525 a29.36961957518055,29.36961957518055 0 0,0 -0.0972974477297376,-0.49611758978721826 l 8.226721310416382 -1.5399962058350796" fill="#ff6209" stroke="none" /><path d="M 79.1416061653843 102.43462659150553 l -14.62134619679102 1.7066279664946962 a35.720609485426785,35.720609485426785 0 0,0 -0.06602818329542681,-0.6113389730276061 l 14.648556681587499 -1.454692671582308" fill="#ffb711" stroke="none" /><path d="M 79.04373962182676 101.35467743843564 l -2.4107831929699484 0.15584047637992315 a23.415814946883287,23.415814946883287 0 0,0 -0.022539003191370997,-0.4024490428278853 l 2.413108547048851 -0.11431971721660027" fill="#ff0d01" stroke="none" /><path d="M 79.0235259727143 100.99374915477108 l -22.321627054737746 1.0574750546687175 a43.346661671534896,43.346661671534896 0 0,0 -0.02889337197248043,-0.7456095457973668 l 22.336522559561427 -0.6730882618573538" fill="#e7ff1a" stroke="none" /><line stroke="#e1ed5e" stroke-width="0.3" x1="15.007084014347285" x2="10.007500721073583" y1="101.09737516637583" y2="101.16192664675087" /><path d="M 14.007167355692545 101.11028546245083 a86.0,86.0 0 0,1 10.666146001902534,-42.60595125391555" fill="none" id="id70" stroke="none" /><text fill="#e1ed5e" style="font-size:6.75px; font-family:Arial;" text-anchor="middle"><textPath startOffset="22.20632615414155" xlink:href="#id70">October</textPath></text><path d="M 79.00175016825051 100.2711162175752 l -2.931046759737797 0.03784383543406782 a23.931291057477882,23.931291057477882 0 0,0 -0.001772855922086221,-0.41194928055368557 l 2.9312639129493863 0.012614923323293113" fill="#ff1502" stroke="none" /><path d="M 79.05617556472873 98.46500227214037 l -43.682020332935174 -3.2015070679475603 a64.79918432885572,64.79918432885572 0 0,0 0.09110616025642955,-1.1117259185702162 l 43.62043968885924 3.952946903725555" fill="#35ff65" stroke="none" /><path d="M 79.16333360222342 97.38593545837743 l -15.352003816360082 -1.9259860504117599 a36.47234447147281,36.47234447147281 0 0,0 0.08351124980615746,-0.6222558117156253 l 15.31657656749609 2.1899602041920447" fill="#ffc111" stroke="none" /><path d="M 79.26566170972629 96.67025291283419 l -15.67354753670177 -2.517029891441915 a36.87436713257137,36.87436713257137 0 0,0 0.10603687565504079,-0.6258356425194366 l 15.627898799526506 2.7864513222771796" fill="#ffc612" stroke="none" /><path d="M 79.54389044137918 95.25157060432595 l -61.3683286758625 -14.245288187022146 a84.0,84.0 0 0,0 0.3390687989567409,-1.4056590733624128 l 61.114027076644945 15.299532492043955" fill="#4dd2ff" stroke="none" /><line stroke="#e1ed5e" stroke-width="0.3" x1="26.266209847984243" x2="21.928928074336255" y1="57.711370442889674" y2="55.22380399835377" /><path d="M 25.398753493254645 57.213857153982495 a86.0,86.0 0 0,1 29.58750427330803,-30.492523968695096" fill="none" id="id71" stroke="none" /><text fill="#e1ed5e" style="font-size:6.75px; font-family:Arial;" text-anchor="middle"><textPath startOffset="21.46611528233685" xlink:href="#id71">November</textPath></text><line stroke="#e1ed5e" stroke-width="0.3" x1="56.762969772571076" x2="54.21961505331055" y1="26.818313649435495" y2="22.513508569990535" /><path d="M 56.25429882871897 25.957352633546506 a86.0,86.0 0 0,1 42.265352541879196,-11.944610805530505" fill="none" id="id72" stroke="none" /><text fill="#e1ed5e" style="font-size:6.75px; font-family:Arial;" text-anchor="middle"><textPath startOffset="22.20632615414155" xlink:href="#id72">December</textPath></text></svg>