<?xml version="1.0" encoding="utf-8" ?>
<svg baseProfile="full" height="200mm" version="1.1" viewBox="0,0,200,200" width="200mm" xmlns="http://www.w3.org/2000/svg" xmlns:ev="http://www.w3.org/2001/xml-events" xmlns:xlink="http://www.w3.org/1999/xlink"><defs /><rect fill="#1a1a1a" height="200" width="200" x="0" y="0" /><text alignment-baseline="middle" fill="#e1ed5e" style="dominant-baseline: central; font-size:9.0px; font-family:Arial;" text-anchor="middle" x="100.0" y="100.0">2021</text><line stroke="#e1ed5e" stroke-width="0.3" x1="100.0" x2="100.0" y1="15.0" y2="10.0" /><path d="M 100.0 14.0 a86.0,86.0 0 0,1 42.46469731375804,11.215312516191453" fill="none" id="id37" stroke="none" /><text fill="#e1ed5e" style="font-size:6.75px; font-family:Arial;" text-anchor="middle"><textPath startOffset="22.20632615414155" xlink:href="#id37">January</textPath></text><path d="M 101.08401301168833 79.027996857942 l 0.3882486221512784 -7.511304048809106 a28.521331365274264,28.521331365274264 0 0,0 0.49007517972438475,0.02956267317823852 l -0.5174858507152751 7.503508106250563" fill="#ff5607" stroke="none" /><path d="M 102.16513564639614 79.11191278185805 l 0.6287992754581302 -6.066323895380927 a27.09882563552085,27.09882563552085 0 0,0 0.46356192686015807,0.05208658375448756 l -0.7331279058280136 6.054601358155839" fill="#ff4206" stroke="none" /><path d="M 103.2404852339499 79.25152402106235 l 1.166192098431073 -7.4670016970359905 a28.557520648597755,28.557520648597755 0 0,0 0.4850301695448012,0.08003413387375292 l -1.2945514741147492 7.4458213002226135" fill="#ff5608" stroke="none" /><path d="M 103.95276090670814 79.375362276772 l 1.484494683341519 -7.745767014143787 a28.886737671703504,28.886737671703504 0 0,0 0.4875442929411012,0.0977967985854092 l -1.6176053857497454 7.7190662594811705" fill="#ff5b08" stroke="none" /><path d="M 104.66035177308747 79.52364482259891 l 1.6811479870078208 -7.386520366667367 a28.57541693119344,28.57541693119344 0 0,0 0.47867403864590047,0.11328667960956612 l -1.8080457126162446 7.356487774916932" fill="#ff5608" stroke="none" /><path d="M 105.71112130821622 79.79150937346287 l 2.049604841968554 -7.2524147188817745 a28.53647127393676,28.53647127393676 0 0,0 0.47154450874811765,0.13765677270539084 l -2.1741395684400984 7.21605961725768" fill="#ff5607" stroke="none" /><path d="M 106.40334571778207 80.00007090966166 l 2.295777214335704 -7.170529831994188 a28.529083017830366,28.529083017830366 0 0,0 0.46640591741396653,0.15376669795653758 l -2.4188659539920883 7.129949409778415" fill="#ff5607" stroke="none" /><path d="M 107.08798089147638 80.2323363322302 l 2.543457981681106 -7.093447725774562 a28.535660498116513,28.535660498116513 0 0,0 0.46094287555783076,0.16976915112489627 l -2.665183183011513 7.048615306843341" fill="#ff5607" stroke="none" /><path d="M 108.09893153111575 80.62456947434976 l 3.111226296991665 -7.443123668269042 a29.067206394548194,29.067206394548194 0 0,0 0.4599764190747417,0.196937897458062 l -3.238886473856722 7.388466242848189" fill="#ff5d08" stroke="none" /><path d="M 108.76106565485865 80.91482961587045 l 3.100326864113015 -6.753775029100111 a28.43138639878435,28.43138639878435 0 0,0 0.44301757679249987,0.20800269252123899 l -3.2161226522051125 6.699407353938869" fill="#ff5407" stroke="none" /><path d="M 109.41281617654863 81.2277094730956 l 3.349319663530443 -6.679658947118754 a28.47233469929816,28.47233469929816 0 0,0 0.4362226230172355,0.2234501704880283 l -3.463802774136434 6.621016251318226" fill="#ff5507" stroke="none" /><path d="M 110.36928655335952 81.73862282372117 l 0.7731368085811254 -1.3615732189202723 a22.565765676997653,22.565765676997653 0 0,0 0.33612596372317183,0.19470585361820425 l -0.7964595047696256 1.3480632079120185" fill="#ff0000" stroke="none" /><line stroke="#e1ed5e" stroke-width="0.3" x1="143.23703022742887" x2="145.7803849466894" y1="26.81831364943548" y2="22.513508569990506" /><path d="M 143.74570117128098 25.957352633546492 a86.0,86.0 0 0,1 28.547481713284135,27.462654790039103" fill="none" id="id38" stroke="none" /><text fill="#e1ed5e" style="font-size:6.75px; font-family:Arial;" text-anchor="middle"><textPath startOffset="19.985693538727396" xlink:href="#id38">February</textPath></text><path d="M 110.99172775467656 82.1063720568725 l 3.9131598209107583 -6.3703020562514805 a28.476200109137807,28.476200109137807 0 0,0 0.41545534888831864,0.2601581013599182 l -4.02223432217134 6.301999613568618" fill="#ff5507" stroke="none" /><path d="M 111.60114157652 82.49532879139004 l 4.479131026963487 -6.758448331151103 a29.10797376670313,29.10797376670313 0 0,0 0.41526725218294225,0.280390302386993 l -4.594802973552971 6.68034611646544" fill="#ff5e08" stroke="none" /><path d="M 111.90073688211348 82.69761687909136 l 8.597560878065975 -12.499922793958532 a36.17122680955547,36.17122680955547 0 0,0 0.5099606619698277,0.35726003314882365 l -8.811452679619453 12.350077918045773" fill="#ffbc11" stroke="none" /><path d="M 112.48926042617603 83.11751280151076 l 4.261658523205536 -5.760741069307573 a28.165742880959193,28.165742880959193 0 0,0 0.3872841232918767,0.29169437242154317 l -4.360188800255797 5.686530107380183" fill="#ff5107" stroke="none" /><path d="M 113.06298171725822 83.55741782278167 l 4.741765625091671 -5.9685355643323375 a28.622844483918122,28.622844483918122 0 0,0 0.3831325860879279,0.3097999061976966 l -4.84380160974409 5.8860295608705115" fill="#ff5708" stroke="none" /><path d="M 114.16331599549186 84.49514656593476 l 5.016535087662913 -5.491697093097155 a28.438034770561703,28.438034770561703 0 0,0 0.35857940036251246,0.3332604732421499 l -5.1103223718202715 5.404532033780365" fill="#ff5407" stroke="none" /><path d="M 114.42810811169701 84.74124197986012 l 12.764809764001697 -13.499700851570042 a39.579082092316455,39.579082092316455 0 0,0 0.49100067083276694,0.4723422563218001 l -12.995293678446883 13.27797550848594" fill="#ffe815" stroke="none" /><path d="M 115.9244219780498 86.31012108654704 l 10.939748457972195 -9.404663600330817 a35.42656555660745,35.42656555660745 0 0,0 0.3935543688075893,0.46584423923023316 l -11.1000134402669 9.214960411471477" fill="#ffb310" stroke="none" /><path d="M 116.15771136456269 86.58626213691792 l 11.424020141220137 -9.483942871574133 a35.84767350726319,35.84767350726319 0 0,0 0.39005940247439086,0.4781667062907005 l -11.585578035770935 9.285891995675332" fill="#ffb811" stroke="none" /><path d="M 117.04232023915458 87.72973835380427 l 25.45700379156087 -18.32873064625291 a52.36879674368201,52.36879674368201 0 0,0 0.5204146188791403,0.7360895718212197 l -25.76873103024389 17.8878145740999" fill="#81ff25" stroke="none" /><line stroke="#e1ed5e" stroke-width="0.3" x1="172.23445277983987" x2="176.4835382374775" y1="55.19839476539836" y2="52.563006222186495" /><path d="M 173.08426987136738 54.67131705675599 a86.0,86.0 0 0,1 12.851231095245387,41.99856678651699" fill="none" id="id39" stroke="none" /><text fill="#e1ed5e" style="font-size:6.75px; font-family:Arial;" text-anchor="middle"><textPath startOffset="22.20632615414155" xlink:href="#id39">March</textPath></text><path d="M 118.21658344932153 89.55222093294921 l 27.45257378885701 -15.744907741114867 a52.647210420649365,52.647210420649365 0 0,0 0.4440976682517824,0.7900001980704462 l -27.719529098401225 15.270024033109626" fill="#7eff26" stroke="none" /><path d="M 119.04729006885535 91.15688171328212 l 7.525867482287479 -3.4940475057316807 a29.297412207023456,29.297412207023456 0 0,0 0.2084269286999552,0.4592411093540004 l -7.584896727950781 3.3639843875356177" fill="#ff6008" stroke="none" /><path d="M 120.08093135843002 93.85539295169968 l 11.740009254733529 -3.592350490429967 a33.277328673099916,33.277328673099916 0 0,0 0.16289110226049203,0.5491878193177868 l -11.800106254105723 3.3897332843656502" fill="#ff960d" stroke="none" /><path d="M 120.53481517161879 95.60439243477599 l 14.93873599984377 -3.19773128840006 a36.2771502141545,36.2771502141545 0 0,0 0.1254510567023486,0.61174390551661 l -14.991566352461115 2.9401117267200383" fill="#ffbe11" stroke="none" /><path d="M 120.73433829027371 96.67025291283417 l 8.882825159909357 -1.4265013326172118 a29.996637642668365,29.996637642668365 0 0,0 0.07748289565483862,0.5105154723210835 l -8.906063949003496 1.2733867479040462" fill="#ff6a09" stroke="none" /><path d="M 120.96714384426684 98.82574320788733 l 5.692918192435461 -0.31882968438913123 a26.70183916937424,26.70183916937424 0 0,0 0.021751053415118324,0.45913035984761824 l -5.697562854084076 0.22078821791851322" fill="#ff3c05" stroke="none" /><path d="M 120.98425023603335 99.18683210126433 l 7.796944046991986 -0.30214206063769006 a28.80279605633328,28.80279605633328 0 0,0 0.014933983047290388,0.4955861929896534 l -7.800989724494922 0.16788572022303758" fill="#ff5908" stroke="none" /><line stroke="#e1ed5e" stroke-width="0.3" x1="184.98032266829074" x2="189.97916517819016" y1="98.17113171792111" y2="98.06355123074" /><path d="M 185.9800911702706 98.14961562048488 a86.0,86.0 0 0,1 -9.607161424134198,41.387399972396054" fill="none" id="id40" stroke="none" /><text fill="#e1ed5e" style="font-size:6.75px; font-family:Arial;" text-anchor="middle"><textPath startOffset="21.466115282336823" xlink:href="#id40">April</textPath></text><path d="M 120.99513854157772 99.54816195383933 l 8.517987121399491 -0.18331627821997948 a29.5199594751494,29.5199594751494 0 0,0 0.006560449559802267,0.5081140482757619 l -8.519880578077009 0.036665971883754825" fill="#ff6309" stroke="none" /><path d="M 120.99980553446 99.90962569577887 l 4.214633907115469 -0.01813800638664524 a25.21467293609873,25.21467293609873 0 0,0 -0.0018679302395706574,0.43404120364732185 l -4.214321679586395 -0.05441267546436133" fill="#ff2703" stroke="none" /><path d="M 120.99824983174949 100.27111621757518 l 4.630519494110759 0.05978636032576784 a25.63090543999991,25.63090543999991 0 0,0 -0.009493122658991462,0.44110810745411977 l -4.62880430876676 -0.13948428357000245" fill="#ff2d04" stroke="none" /><path d="M 120.9904718944345 100.63252640178507 l 8.530558441594481 0.25705965370457823 a29.534430677615326,29.534430677615326 0 0,0 -0.019686620806695625,0.5080242074877238 l -8.524869687936583 -0.40386110820630816" fill="#ff6409" stroke="none" /><path d="M 120.9764740272857 100.99374915477107 l 11.84765334203854 0.5612761934802082 a32.860940969353344,32.860940969353344 0 0,0 -0.031630453821910536,0.5647830011272225 l -11.836236537329102 -0.765130910942854" fill="#ff910d" stroke="none" /><path d="M 120.95626037817324 101.35467743843564 l 2.242645011564628 0.14497150468463815 a23.24732582975105,23.24732582975105 0 0,0 -0.029251159536831155,0.3991088317256078 l -2.239817293363459 -0.18355347290701618" fill="#ff0a01" stroke="none" /><path d="M 120.92983693683757 101.71520430193887 l 8.448111922992313 0.6923244532342211 a29.476432516805104,29.476432516805104 0 0,0 -0.04579431005582432,0.5053363954877114 l -8.434943016659412 -0.837642237270503" fill="#ff6309" stroke="none" /><path d="M 120.89721153311464 102.0752229133903 l 2.563560879866529 0.2545775195575627 a23.57617043268611,23.57617043268611 0 0,0 -0.04357965121980117,0.40349344616087696 l -2.5587989271456757 -0.298667287603231" fill="#ff0f01" stroke="none" /><path d="M 120.81339534386255 102.79330883721812 l 31.399622204627914 4.214057377013253 a52.68113877640957,52.68113877640957 0 0,0 -0.1283562123343389,0.8977230501126954 l -31.32243194127697 -4.753925899106357" fill="#7eff26" stroke="none" /><path d="M 120.64145759157962 103.86396538481128 l 4.739427858464325 0.8871943809039395 a25.82175178696449,25.82175178696449 0 0,0 -0.08554385726213735,0.43618628521354363 l -4.723454068226523 -0.9686443931854282" fill="#ff2f04" stroke="none" /><path d="M 120.41448212921028 104.9243191809786 l 2.2116512198855256 0.5334877688684392 a23.27508468368836,23.27508468368836 0 0,0 -0.09729948066915048,0.38866305877321783 l -2.2021404249213146 -0.5714786670390529" fill="#ff0a01" stroke="none" /><path d="M 120.32669344350535 105.2749913415812 l 1.5289013969815808 0.39676603839303276 a22.57954511518802,22.57954511518802 0 0,0 -0.10086812202778168,0.3753678059278046 l -1.521845198612022 -0.4230247774963856" fill="#ff0000" stroke="none" /><path d="M 120.23288151984713 105.62410040840565 l 2.336172525642531 0.6493819895442907 a23.424747211135937,23.424747211135937 0 0,0 -0.11133153575015117,0.3875596812716225 l -2.324648353006281 -0.6894991463204951" fill="#ff0d01" stroke="none" /><path d="M 120.13307415673323 105.97154293290107 l 1.7775414872321225 0.5272252624405858 a22.85408204138515,22.85408204138515 0 0,0 -0.11511190566318756,0.37619236803758416 l -1.7682028090628021 -0.5577446030302271" fill="#ff0400" stroke="none" /><path d="M 120.02730092923936 106.31721596034902 l 2.453514584704536 0.7739126479502728 a23.572678488271567,23.572678488271567 0 0,0 -0.1253928976877407,0.3859196568922632 l -2.4398294360005486 -0.8160312048203313" fill="#ff0f01" stroke="none" /><path d="M 119.67450827220406 107.3425965602758 l 2.0266545422913964 0.7563546933531093 a23.163192329855953,23.163192329855953 0 0,0 -0.14262539386315154,0.37234989749860253 l -2.013334868834738 -0.7911281576848557" fill="#ff0901" stroke="none" /><path d="M 119.54520255179757 107.68017299344265 l 18.313083376687562 7.196018972101364 a40.676171167388055,40.676171167388055 0 0,0 -0.2616783041301407,0.6494640907694827 l -18.186502458300026 -7.510182430713661" fill="#fff517" stroke="none" /><path d="M 119.26925614724726 108.34839909993367 l 17.919695904113887 7.763702553632869 a40.52922370800236,40.52922370800236 0 0,0 -0.282853288729924,0.637759494998542 l -17.78340153065269 -8.071010385124097" fill="#fff417" stroke="none" /><path d="M 118.81262510543309 109.33194174019688 l 6.774431924898755 3.3604350106263174 a28.562106278394303,28.562106278394303 0 0,0 -0.2222694000819597,0.438558613065156 l -6.715583855030526 -3.4765478353941677" fill="#ff5608" stroke="none" /><line stroke="#e1ed5e" stroke-width="0.3" x1="174.80103733775053" x2="179.2010983576182" y1="140.37084112569926" y2="142.7455964860345" /><path d="M 175.68104954172406 140.8457921977663 a86.0,86.0 0 0,1 -30.038265399797805,32.042727171017184" fill="none" id="id41" stroke="none" /><text fill="#e1ed5e" style="font-size:6.75px; font-family:Arial;" text-anchor="middle"><textPath startOffset="22.206326154141568" xlink:href="#id41">May</textPath></text><path d="M 118.12598468904814 110.60418214915192 l 20.133128250377013 11.778414406817296 a44.32539172414582,44.32539172414582 0 0,0 -0.39094810664187307,0.6552515140248589 l -19.92739926803691 -12.123228014728259" fill="#dcff1b" stroke="none" /><path d="M 117.75023020441432 111.22182372390056 l 2.3299245283539816 1.4729951130818701 a23.756494678207922,23.756494678207922 0 0,0 -0.22149552958105223,0.34376598068039715 l -2.304224135395879 -1.5128826936837203" fill="#ff1101" stroke="none" /><path d="M 117.55443506779139 111.5257021239791 l 8.88239531640497 5.831907558913613 a31.625821960328842,31.625821960328842 0 0,0 -0.30269961918378663,0.45249485985610294 l -8.780692591810462 -5.983939332975523" fill="#ff800b" stroke="none" /><path d="M 116.71984013943494 112.70617746262583 l 14.113455316719863 10.725465457180093 a38.72639924660989,38.72639924660989 0 0,0 -0.40790550033530654,0.5272728453981771 l -13.926742999166489 -10.966816296691523" fill="#ffdd14" stroke="none" /><path d="M 116.498646956653 112.99209946851258 l 11.177336311370878 8.801756018652776 a35.22686740042868,35.22686740042868 0 0,0 -0.3792458920788436,0.4731675620900299 l -11.02417250723718 -8.992851414321057" fill="#ffb010" stroke="none" /><path d="M 116.27256486870786 113.27417163493432 l 4.502144069516331 3.672576117295697 a26.810087482991268,26.810087482991268 0 0,0 -0.2947884020488918,0.3550916204375728 l -4.438259667573896 -3.7495289948470405" fill="#ff3d05" stroke="none" /><path d="M 115.32070863581623 114.36230785411682 l 45.96212590744871 43.08692356235047 a84.0,84.0 0 0,0 -0.997973794484142,1.0463715336699715 l -45.21364556158561 -43.87170221260295" fill="#4dd2ff" stroke="none" /><path d="M 114.55890576462653 115.13401014063108 l 6.5615791456302786 6.820773960210422 a30.46452736805461,30.46452736805461 0 0,0 -0.3810447458004033,0.3603015907681286 l -6.443198565439068 -6.932710187724472" fill="#ff700a" stroke="none" /><path d="M 114.29624159901734 115.38237550388516 l 6.977573868876891 7.507683793238257 a31.249480622689426,31.249480622689426 0 0,0 -0.39716668843439584,0.36280235315352827 l -6.847307630975631 -7.6266789129783685" fill="#ff7b0b" stroke="none" /><path d="M 114.0293411484842 115.62618273729858 l 10.331215553485734 11.507130693349188 a36.46441307022043,36.46441307022043 0 0,0 -0.47066466711696286,0.41530684548822905 l -10.131608533462183 -11.683260680609706" fill="#ffc011" stroke="none" /><path d="M 113.75828350139079 115.86535959552629 l 20.87072972354454 24.067074359356003 a52.856105025756314,52.856105025756314 0 0,0 -0.6925018698216667,0.5901651169692465 l -20.453362377145826 -24.4227638665482" fill="#7cff26" stroke="none" /><path d="M 113.20401910651253 116.32954008644616 l 2.8297889099736167 3.499627732195838 a25.500566579772357,25.500566579772357 0 0,0 -0.3437021096127091,0.273057742735481 l -2.7691293076435564 -3.5478193889364453" fill="#ff2b04" stroke="none" /><path d="M 112.63410532772338 116.77436683061366 l 4.69601780420909 6.234927068246213 a28.805568445910783,28.805568445910783 0 0,0 -0.39863481552468727,0.2949005065126881 l -4.5879980182658375 -6.31483752349867" fill="#ff5908" stroke="none" /><path d="M 112.34349029814194 116.9893568818739 l 8.886483706402391 12.231195510053912 a36.11858909651685,36.11858909651685 0 0,0 -0.506129225131436,0.3611097635668823 l -8.67462715342207 -12.382349535465014" fill="#ffbc11" stroke="none" /><path d="M 111.7513745106137 117.40417183066458 l 17.94687185895071 26.579907003558223 a53.07150863054933,53.07150863054933 0 0,0 -0.7615137298297557,0.5046897760566607 l -17.48668343038099 -26.884894800706203" fill="#7aff26" stroke="none" /><line stroke="#e1ed5e" stroke-width="0.3" x1="143.8653032363475" x2="146.44561519142675" y1="172.8068346515853" y2="177.08958963109032" /><path d="M 144.38136562736335 173.6633856474863 a86.0,86.0 0 0,1 -40.68145358897372,12.25698825130547" fill="none" id="id42" stroke="none" /><text fill="#e1ed5e" style="font-size:6.75px; font-family:Arial;" text-anchor="middle"><textPath startOffset="21.466115282336833" xlink:href="#id42">June</textPath></text><path d="M 110.8373102113329 117.98757091392108 l 7.835823634720142 13.005757937159931 a36.18386879403393,36.18386879403393 0 0,0 -0.5362658342474699,0.3168353073229811 l -7.61078992944429 -13.138711816776661" fill="#ffbd11" stroke="none" /><path d="M 110.5260780823613 118.17145234162733 l 1.5029305485335136 2.5945495199410558 a23.998414155039562,23.998414155039562 0 0,0 -0.3592348134082113,0.20398290250590181 l -1.4580469682041033 -2.6200355882415858" fill="#ff1502" stroke="none" /><path d="M 110.21172684928248 118.3499491758327 l 2.3158772520416404 4.161512592301381 a25.762507165601633,25.762507165601633 0 0,0 -0.38935390873487785,0.21230679519586956 l -2.243900531438114 -4.2007600392570215" fill="#ff2e04" stroke="none" /><path d="M 109.89434966115114 118.52300852407294 l 1.0432964885380458 1.953133900877043 a23.214316959640374,23.214316959640374 0 0,0 -0.3540836625622036,0.18523983722516443 l -1.0095219234493464 -1.9708031570469242" fill="#ff0a01" stroke="none" /><path d="M 109.57404056367764 118.69057910512821 l 22.03851486318388 43.023904345320204 a69.33996775433388,69.33996775433388 0 0,0 -1.066997124819828,0.5350145088816234 l -21.29466383068129 -43.396886695111135" fill="#3bff98" stroke="none" /><path d="M 108.59647513512805 119.15986991738527 l 8.126060891827853 18.111408127263118 a40.85084305438907,40.85084305438907 0 0,0 -0.6440414075290055,0.28232882642842316 l -7.813098809641094 -18.248601506985995" fill="#fff817" stroke="none" /><path d="M 107.93186726928326 119.44442032107085 l 2.8652202264416333 7.023887882127809 a28.585808323884287,28.585808323884287 0 0,0 -0.4572081209666532,0.18193254703287606 l -2.743891029433114 -7.0721672735667545" fill="#ff5608" stroke="none" /><path d="M 107.59598834532513 119.57807347666477 l 1.8513782396720626 4.771784468535343 a26.11835211767287,26.11835211767287 0 0,0 -0.4205425064597208,0.15901319155122187 l -1.7689655124520671 -4.802945910193197" fill="#ff3404" stroke="none" /><path d="M 106.91757812671514 119.82793768551818 l 0.9879467110771352 2.831763583297906 a23.99915382993609,23.99915382993609 0 0,0 -0.3912207971372664,0.13272333537053566 l -0.9390561810026418 -2.8483499055665646" fill="#ff1502" stroke="none" /><path d="M 105.88484417918355 120.15858648285463 l 2.1223622298457854 7.270170841503264 a28.573625650857075,28.573625650857075 0 0,0 -0.4733273227704726,0.1337670293537716 l -1.996903738970707 -7.305626664195554" fill="#ff5608" stroke="none" /><path d="M 105.18746579009965 120.34920634021253 l 1.866131271315087 7.320393393318999 a28.55450894199805,28.55450894199805 0 0,0 -0.4773317414218582,0.11731652861792247 l -1.7398462451500178 -7.351431180250952" fill="#ff5608" stroke="none" /><path d="M 104.83641907484287 120.43548508189849 l 7.294876791898766 30.823289617427992 a52.67475982937878,52.67475982937878 0 0,0 -0.8841329274012525,0.20122577578684478 l -6.763223715104651 -30.944292126792522" fill="#7eff26" stroke="none" /><path d="M 104.13013068566511 120.58985236759428 l 0.887909580622486 4.426476683714296 a25.514651620538125,25.514651620538125 0 0,0 -0.4313584584862657,0.08267087521067676 l -0.8115835075645159 -4.4411047572734415" fill="#ff2b04" stroke="none" /><path d="M 103.41894727170886 120.7198165907248 l 1.1701603739408153 7.091512797057334 a28.187407672559644,28.187407672559644 0 0,0 -0.47940624373735347,0.07487339578440737 l -1.0479182665949447 -7.110604500188847" fill="#ff5107" stroke="none" /><path d="M 103.06178313531738 120.77559828337769 l 1.7306146355662724 11.743011461891793 a32.86985026067971,32.86985026067971 0 0,0 -0.5604644566818815,0.07767526673234863 l -1.5282215876975602 -11.771061294116745" fill="#ff910d" stroke="none" /><path d="M 102.70371172650421 120.8252237178851 l 0.9676385796129384 7.453194695630819 a28.515745844008745,28.515745844008745 0 0,0 -0.48731043784053857,0.05900650755493675 l -0.8392007187210195 -7.468746731911106" fill="#ff5507" stroke="none" /><path d="M 101.98527174616119 120.90594882070398 l 3.1191488269983267 32.846266949336496 a53.99403494439623,53.99403494439623 0 0,0 -0.9260123092040983,0.07990023849471854 l -2.5532922000526868 -32.89509144010987" fill="#70ff27" stroke="none" /><path d="M 101.62511606390274 120.93702456842531 l 0.5825179187305279 7.5048128850069755 a28.52738623724124,28.52738623724124 0 0,0 -0.4899065626091343,0.03378682487350154 l -0.4532485953424633 -7.513728054396762" fill="#ff5607" stroke="none" /><line stroke="#e1ed5e" stroke-width="0.3" x1="102.19456741930631" x2="102.32365962044197" y1="184.97166512339345" y2="189.96999836594603" /><path d="M 102.22038585953345 185.97133177190398 a86.0,86.0 0 0,1 -42.740103519485714,-10.115201625700543" fill="none" id="id43" stroke="none" /><text fill="#e1ed5e" style="font-size:6.75px; font-family:Arial;" text-anchor="middle"><textPath startOffset="22.20632615414155" xlink:href="#id43">July</textPath></text><path d="M 100.54218724476979 120.99299961872073 l 0.43057488187226095 16.67146989932041 a37.67702921184843,37.67702921184843 0 0,0 -0.6484760534406431,0.011164103348785336 l -0.14353913853894995 -16.676411479948356" fill="#ffd013" stroke="none" /><path d="M 99.81925306533755 120.99922214144158 l -0.31080871052174847 36.10983039867395 a57.111167988248916,57.111167988248916 0 0,0 -0.9829656318221249,-0.01692264478193373 l 0.9323340322365412 -36.099130276612854" fill="#4fff2b" stroke="none" /><path d="M 99.09653310690486 120.98055641714683 l -0.6512682245963771 15.123929646197334 a36.13794564145002,36.13794564145002 0 0,0 -0.6212490266470576,-0.03211147851840482 l 0.9115053196569237 -15.110478360916728" fill="#ffbc11" stroke="none" /><path d="M 98.01472825383883 120.90594882070398 l -1.283787577789646 13.518953991977545 a34.57977273676156,34.57977273676156 0 0,0 -0.592083766329812,-0.06137190326454144 l 1.5163039407250511 -13.494852720257242" fill="#ffa80f" stroke="none" /><path d="M 96.93821686468263 120.77559828337769 l -2.1561072631766742 14.630173456419021 a35.788197114429835,35.788197114429835 0 0,0 -0.6086790721611186,-0.09506315295420578 l 2.40762219894631 -14.59089199611771" fill="#ffb711" stroke="none" /><path d="M 96.58105272829116 120.7198165907248 l -2.480001280426986 15.029530317829872 a36.232766916272524,36.232766916272524 0 0,0 -0.6144922477925686,-0.10683735388441211 l 2.738342499691605 -14.984614385424454" fill="#ffbd11" stroke="none" /><path d="M 96.22490169976321 120.6578951692458 l -1.3761262540125787 7.530366002192742 a28.655072540084973,28.655072540084973 0 0,0 -0.4844513694536898,-0.09284625795977425 l 1.5055452380379635 -7.5055625458845" fill="#ff5708" stroke="none" /><path d="M 95.51606077576429 120.51570834832081 l -4.77097739879297 21.829015951203143 a43.34430940391031,43.34430940391031 0 0,0 -0.7275236049218974,-0.16558200386671784 l 5.146021153107729 -21.74365721375874" fill="#e8ff1a" stroke="none" /><path d="M 94.81253420990036 120.34920634021253 l -0.5972991832366241 2.3430639966281133 a23.41799818167633,23.41799818167633 0 0,0 -0.3897530559390021,-0.10293732448389147 l 0.6375426819871155 -2.3324353228406403" fill="#ff0d01" stroke="none" /><path d="M 94.46302465271185 120.25689768951611 l -3.061651336779574 11.20098140232635 a32.61187725061133,32.61187725061133 0 0,0 -0.5402216973850418,-0.15267204780969637 l 3.2540042022692295 -11.146620561178132" fill="#ff8e0d" stroke="none" /><path d="M 93.08242187328487 119.8279376855182 l -3.118691779866662 8.939143893832386 a30.46755152996004,30.46755152996004 0 0,0 -0.49369103910244033,-0.17702004193629622 l 3.2721023795988287 -8.884136310856132" fill="#ff700a" stroke="none" /><path d="M 92.7421414339146 119.70592522655815 l -5.246207347115633 14.244059561640158 a36.179457313240235,36.179457313240235 0 0,0 -0.5825405673494612,-0.22026699655667287 l 5.490618135225377 -14.151644314976853" fill="#ffbd11" stroke="none" /><path d="M 92.40401165467489 119.57807347666478 l -11.460621824137371 29.538867881402187 a52.68423217171007,52.68423217171007 0 0,0 -0.8426439624473762,-0.33530542284726095 l 11.967386862626606 -29.33721561414886" fill="#7eff26" stroke="none" /><path d="M 92.06813273071674 119.44442032107085 l -1.7132332538054862 4.199872030642282 a25.535867420429774,25.535867420429774 0 0,0 -0.4055685995810593,-0.16952770751747073 l 1.7852733128840077 -4.169759280104837" fill="#ff2b04" stroke="none" /><path d="M 91.7346041902142 119.30500536409082 l -2.969298944742507 6.935219241161648 a28.54413693845941,28.54413693845941 0 0,0 -0.450017790479149,-0.19727457454226827 l 3.088237409879399 -6.883080113324928" fill="#ff5607" stroke="none" /><path d="M 91.07499286063937 119.00905698771935 l -12.859784077432593 27.389599197025856 a51.2582912718466,51.2582912718466 0 0,0 -0.7954489421642176,-0.3818638315914385 l 13.329345687597051 -27.164181088934857" fill="#8dff24" stroke="none" /><path d="M 90.7491055286396 118.85261126421891 l -16.706659536302496 34.04688689690022 a58.92496513158902,58.92496513158902 0 0,0 -0.9067320105810754,-0.45465425355311706 l 17.29024545456633 -33.754264802437795" fill="#3dff2e" stroke="none" /><line stroke="#e1ed5e" stroke-width="0.3" x1="58.666819895761336" x2="56.23545636021788" y1="174.27360380694188" y2="178.64263932499728" /><path d="M 58.180547188652646 175.14741091055294 a86.0,86.0 0 0,1 -31.652253787137756,-30.449443065178592" fill="none" id="id44" stroke="none" /><text fill="#e1ed5e" style="font-size:6.75px; font-family:Arial;" text-anchor="middle"><textPath startOffset="22.20632615414155" xlink:href="#id44">August</textPath></text><path d="M 89.7882731507175 118.34994917583269 l -18.60584278603399 33.43374480499799 a59.262157250530755,59.262157250530755 0 0,0 -0.8871015336482696,-0.5037194027333509 l 19.178593086603467 -33.10852223647001" fill="#3aff2e" stroke="none" /><path d="M 89.4739219176387 118.17145234162733 l -5.273574314681586 9.103913497454267 a31.521018345274346,31.521018345274346 0 0,0 -0.46715969747395997,-0.27600618362304574 l 5.429501883183928 -9.01178874153747" fill="#ff7f0b" stroke="none" /><path d="M 89.1626897886671 117.98757091392108 l -4.622517460387928 7.672370634238741 a29.95728412079913,29.95728412079913 0 0,0 -0.4394031725116044,-0.26991731705496597 l 4.753899832831841 -7.591664850355397" fill="#ff6909" stroke="none" /><path d="M 88.8546689885994 117.79835938074946 l -9.173769066132571 14.649904838897308 a38.28518876574617,38.28518876574617 0 0,0 -0.555533034713883,-0.35456746689021995 l 9.424583902893378 -14.489822943183283" fill="#ffd814" stroke="none" /><path d="M 88.24862548938628 117.40417183066458 l -8.417996480003893 12.467329423940383 a36.043170134729166,36.043170134729166 0 0,0 -0.5112004800473778,-0.35160835155142756 l 8.63135384467416 -12.320580283023853" fill="#ffbb11" stroke="none" /><path d="M 87.95078237400918 117.19931262002967 l -9.706547454260487 13.8553347867888 a37.91707319650212,37.91707319650212 0 0,0 -0.5313313547468584,-0.37909081388944627 l 9.943606136856234 -13.686199711055135" fill="#ffd313" stroke="none" /><path d="M 87.65650970185807 116.9893568818739 l -8.853783808145764 12.186187961292251 a36.062956706746796,36.062956706746796 0 0,0 -0.49906843952977403,-0.36919890052281273 l 9.062237218094102 -12.031979112029672" fill="#ffbb11" stroke="none" /><path d="M 87.07902340077011 116.55440617244103 l -9.367152743546477 12.001233034135058 a36.224097505617365,36.224097505617365 0 0,0 -0.4882361610495635,-0.38788433451355653 l 9.572346397313398 -11.83821478561637" fill="#ffbd11" stroke="none" /><path d="M 86.79598089348748 116.32954008644616 l -10.187500982077548 12.59898250113057 a37.20245463883869,37.20245463883869 0 0,0 -0.4944912562457662,-0.4069326390969317 l 10.402862366868003 -12.421754743176455" fill="#ffca12" stroke="none" /><path d="M 86.51685102203217 116.09983520530335 l -10.976118847251247 13.106263597867866 a38.09530141430037,38.09530141430037 0 0,0 -0.4991110761560436,-0.42535328708373993 l 11.200095399984345 -12.915385920561175" fill="#ffd513" stroke="none" /><path d="M 86.24171649860922 115.8653595955263 l -1.5591171087476647 1.7978953246106972 a23.379763382575394,23.379763382575394 0 0,0 -0.30177445962293353,-0.2662808739024604 l 1.589833921277186 -1.7707913089359482" fill="#ff0c01" stroke="none" /><path d="M 85.97065885151581 115.62618273729859 l -13.026913438436347 14.50965713482353 a40.49950317066178,40.49950317066178 0 0,0 -0.5147302686961037,-0.4701938963170116 l 13.274743256599306 -14.283270471919943" fill="#fff316" stroke="none" /><path d="M 85.70375840098266 115.38237550388516 l -12.90396474126844 13.884322656713431 a39.954860107097204,39.954860107097204 0 0,0 -0.4997480948601105,-0.4725430163935579 l 13.141048670519368 -13.660145003573943" fill="#ffed16" stroke="none" /><path d="M 85.18274418774928 114.88116024355367 l -5.291574516360078 5.314396222649681 a28.499571192641923,28.499571192641923 0 0,0 -0.34465396601279397,-0.34913264794199717 l 5.382269107428406 -5.222523080727019" fill="#ff5507" stroke="none" /><path d="M 84.9287848128048 114.62390073753433 l -5.35984111019301 5.200760747614638 a28.46832036541311,28.46832036541311 0 0,0 -0.33822187735312254,-0.3546242862115023 l 5.44856953892509 -5.107729344820635" fill="#ff5507" stroke="none" /><path d="M 84.43433777217949 114.09645910891817 l -11.600795846984562 10.505826343555638 a36.65090577073295,36.65090577073295 0 0,0 -0.41946289782706253,-0.471271012404358 l 11.779917594459963 -10.304581161410416" fill="#ffc312" stroke="none" /><path d="M 83.95833913139862 113.55231037782056 l -11.70484740722143 9.88848513174704 a36.32271487129877,36.32271487129877 0 0,0 -0.3993838170718771,-0.4810835358342064 l 11.873327224186845 -9.685540338799072" fill="#ffbe11" stroke="none" /><path d="M 83.50135304334701 112.99209946851258 l -11.821826584676721 9.30926925651269 a36.04719501729215,36.04719501729215 0 0,0 -0.3796854188683731,-0.4907945859969016 l 11.980318820763163 -9.104396676402537" fill="#ffbb11" stroke="none" /><path d="M 83.28015986056508 112.70617746262583 l -5.947488095923055 4.519770438798406 a28.470002641939452,28.470002641939452 0 0,0 -0.2931579670705033,-0.3927330040812302 l 6.024407329688644 -4.4167245552078676" fill="#ff5507" stroke="none" /><path d="M 83.06392112726016 112.41649034213515 l -28.52573381970286 20.913311820055274 a56.37066724328795,56.37066724328795 0 0,0 -0.5669820970977535,-0.7874885432131911 l 28.88149570917622 -20.419189671390942" fill="#57ff2a" stroke="none" /><path d="M 82.85270091963577 112.12312394758628 l -12.244076996144948 8.656550652809992 a35.99510889230855,35.99510889230855 0 0,0 -0.35333329017431875,-0.5090029573381423 l 12.391271193481401 -8.444506433284836" fill="#ffba11" stroke="none" /><path d="M 82.24976979558568 111.22182372390057 l -12.785471382989119 8.083067342484258 a36.12627700884686,36.12627700884686 0 0,0 -0.3277777717778989,-0.5284821348205936 l 12.922713794434973 -7.8617888762984" fill="#ffbc11" stroke="none" /><line stroke="#e1ed5e" stroke-width="0.3" x1="26.63291911575756" x2="22.317208475507996" y1="142.92168965132927" y2="145.44649492493687" /><path d="M 25.769776987707644 143.4266507060508 a86.0,86.0 0 0,1 -11.730757126820373,-40.83630448921669" fill="none" id="id45" stroke="none" /><text fill="#e1ed5e" style="font-size:6.75px; font-family:Arial;" text-anchor="middle"><textPath startOffset="21.46611528233685" xlink:href="#id45">September</textPath></text><path d="M 81.87401531095188 110.60418214915194 l -13.101107750403813 7.664495768049985 a36.178389890437884,36.178389890437884 0 0,0 -0.3098386287722033,-0.5402297656400848 l 13.231098375328394 -7.437846156551593" fill="#ffbd11" stroke="none" /><path d="M 81.69416730710424 110.29060199501025 l -27.793305236965843 15.6239733596192 a52.88379462261736,52.88379462261736 0 0,0 -0.4392467304716905,-0.7973604036435883 l 28.05812837688905 -15.143242437577788" fill="#7cff26" stroke="none" /><path d="M 81.18737489456691 109.33194174019688 l -2.850605626653305 1.4140336865865413 a24.182050236169914,24.182050236169914 0 0,0 -0.1817646608646994,-0.37448903829546426 l 2.8745235441327233 -1.3647556923257922" fill="#ff1802" stroke="none" /><path d="M 81.02952815118164 109.00673069616217 l -6.787297895143272 3.222448275581059 a28.513427021420494,28.513427021420494 0 0,0 -0.20668892159739877,-0.4451895492111155 l 6.841761433580498 -3.105138659091116" fill="#ff5507" stroke="none" /><path d="M 80.87730276802145 108.67885076344099 l -15.179352498075358 6.889160740157302 a37.66953142606448,37.66953142606448 0 0,0 -0.2628955078326178,-0.5927599677754133 l 15.295689090639257 -6.626852435889193" fill="#ffd013" stroke="none" /><path d="M 80.58989483394504 108.01547362559985 l -9.45767486544752 3.905581283303314 a31.232359406364054,31.232359406364054 0 0,0 -0.20092429077968893,-0.4986776120340272 l 9.523501770484597 -3.7422043034264814" fill="#ff7b0b" stroke="none" /><path d="M 80.20201598880116 107.00284435728193 l -14.16655769861314 5.0109242731848544 a36.02666693248135,36.02666693248135 0 0,0 -0.20176506484829523,-0.5864237225824911 l 14.250713594404663 -4.766327847513066" fill="#ffbb11" stroke="none" /><path d="M 79.86692584326677 105.97154293290107 l -14.679960804748264 4.3541297030161665 a36.312076759853085,36.312076759853085 0 0,0 -0.1725815538376342,-0.6007790294816308 l 14.752734995472002 -4.1007931980299395" fill="#ffbe11" stroke="none" /><path d="M 79.76711848015287 105.62410040840567 l -8.726312394998406 2.425638535788591 a30.05716568918806,30.05716568918806 0 0,0 -0.13427240633413015,-0.4996775745305073 l 8.766772877674311 -2.2750700280825447" fill="#ff6b09" stroke="none" /><path d="M 79.50377843672027 104.57218783832718 l -11.368862341261037 2.536105202212295 a32.64829861100889,32.64829861100889 0 0,0 -0.11763642373397587,-0.5495582085031475 l 11.410832803719453 -2.3400331742929836" fill="#ff8e0d" stroke="none" /><path d="M 79.23777060512086 103.15116336523772 l -7.487671278450905 1.1364326525270307 a28.573420650397562,28.573420650397562 0 0,0 -0.06961838967997609,-0.48691085527397593 l 7.50612371914748 -1.0073763252726542" fill="#ff5608" stroke="none" /><path d="M 79.18660465613746 102.79330883721812 l -14.899981594163954 1.9996857587985295 a36.03356892558671,36.03356892558671 0 0,0 -0.07721220086195592,-0.6154572106318519 l 14.932195304272758 -1.7429107938792692" fill="#ffbb11" stroke="none" /><path d="M 79.1416061653843 102.43462659150553 l -30.121098623793007 3.5157849763650444 a51.32558863904045,51.32558863904045 0 0,0 -0.09487339167006233,-0.8784097780142751 l 30.17715431696412 -2.9967788764659873" fill="#8dff24" stroke="none" /><path d="M 79.07016306316243 101.71520430193888 l -6.896202094874441 0.5651451339952863 a27.91932022353563,27.91932022353563 0 0,0 -0.035129739050391885,-0.4793173786349458 l 6.904908392589168 -0.4463546188635799" fill="#ff4d07" stroke="none" /><path d="M 79.0235259727143 100.99374915477108 l -20.465779186763857 0.9695552618673244 a41.488732394347664,41.488732394347664 0 0,0 -0.027654941153721798,-0.7136511492088493 l 20.479436260768782 -0.6171268656444783" fill="#ffff18" stroke="none" /><line stroke="#e1ed5e" stroke-width="0.3" x1="15.007084014347285" x2="10.007500721073583" y1="101.09737516637583" y2="101.16192664675087" /><path d="M 14.007167355692545 101.11028546245083 a86.0,86.0 0 0,1 10.666146001902534,-42.60595125391555" fill="none" id="id46" stroke="none" /><text fill="#e1ed5e" style="font-size:6.75px; font-family:Arial;" text-anchor="middle"><textPath startOffset="22.20632615414155" xlink:href="#id46">October</textPath></text><path d="M 79.05617556472873 98.46500227214037 l -18.582652636514123 -1.3619446468724445 a39.63249506186678,39.63249506186678 0 0,0 0.055722374962992836,-0.6799541141486689 l 18.55645577773163 1.6816126782288918" fill="#ffe815" stroke="none" /><path d="M 79.08570108090925 98.10471618934814 l -1.645394536642078 -0.14910801645787677 a22.65213691375249,22.65213691375249 0 0,0 0.03853330666661565,-0.38802513951000944 l 1.6425841042932334 0.17740868667231652" fill="#ff0100" stroke="none" /><path d="M 79.21141760316559 97.0276538004421 l -31.499446269078845 -4.5037827793554595 a52.819792183202644,52.819792183202644 0 0,0 0.13643630646188362,-0.8989447909305649 l 31.41725406917766 5.045326682678117" fill="#7cff26" stroke="none" /><path d="M 79.32604984820605 96.31383870115002 l -16.32446480531801 -2.910648905892827 a37.58191871387149,37.58191871387149 0 0,0 0.11903495796817079,-0.6358895052408635 l 16.271944123439976 3.1912164885962633" fill="#ffcf13" stroke="none" /><path d="M 79.71946130924805 94.55025226153421 l -14.5623190545512 -3.9131586465475263 a36.078923928437156,36.078923928437156 0 0,0 0.16632938761917157,-0.5983753042420239 l 14.492802896365667 4.163245254208492" fill="#ffbb11" stroke="none" /><path d="M 80.14247586403 93.16781622104843 l -13.49514063509473 -4.643140822110377 a35.2715653470435,35.2715653470435 0 0,0 0.20247040655245593,-0.5724111042819675 l 13.413217147732464 4.8747495528189555" fill="#ffb110" stroke="none" /><path d="M 80.38941819471856 92.48833698450439 l -12.188945170473735 -4.668869569708184 a34.05253720269596,34.05253720269596 0 0,0 0.2143792886233372,-0.5455719060795758 l 12.106772331968706 4.877990480683523" fill="#ffa10e" stroke="none" /><path d="M 80.52162464483688 92.15188598940014 l -14.29324608786468 -5.758951803410449 a36.40981536561238,36.40981536561238 0 0,0 0.23922690023486293,-0.5793069142262316 l 14.191997500743618 6.004133288089992" fill="#ffc011" stroke="none" /><path d="M 80.95270993114464 91.15688171328213 l -15.817843712281237 -7.343777644109008 a38.439473896659564,38.439473896659564 0 0,0 0.283796450510045,-0.5977477018924746 l 15.68908906792944 7.614967761642015" fill="#ffd914" stroke="none" /><path d="M 81.6062741919709 89.86733742301443 l -30.651733987572968 -16.88530540995796 a55.99489013031033,55.99489013031033 0 0,0 0.4723365196787794,-0.8402339637833697 l 30.356539826601757 17.410422883676116" fill="#5bff2a" stroke="none" /><line stroke="#e1ed5e" stroke-width="0.3" x1="26.266209847984243" x2="21.928928074336255" y1="57.711370442889674" y2="55.22380399835377" /><path d="M 25.398753493254645 57.213857153982495 a86.0,86.0 0 0,1 29.58750427330803,-30.492523968695096" fill="none" id="id47" stroke="none" /><text fill="#e1ed5e" style="font-size:6.75px; font-family:Arial;" text-anchor="middle"><textPath startOffset="21.46611528233685" xlink:href="#id47">November</textPath></text><path d="M 81.96595687620814 89.24020034530311 l -2.565494201433916 -1.5306719315924222 a23.98742649445236,23.98742649445236 0 0,0 0.21461230847991578,-0.3527662066339687 l 2.5387660946677832 1.5746059114334654" fill="#ff1502" stroke="none" /><path d="M 82.15384107792192 88.93136811851018 l -4.830183857325853 -2.9958002318646217 a26.683792318937364,26.683792318937364 0 0,0 0.24545582397726898,-0.3882521671884124 l 4.7779004371026215 3.0785000467672496" fill="#ff3c05" stroke="none" /><path d="M 82.34701348167596 88.62581576622439 l -4.437424398388409 -2.8591242948228572 a26.278761883686272,26.278761883686272 0 0,0 0.24827594173101875,-0.37814129248962897 l 4.38755182129947 2.935083651290153" fill="#ff3605" stroke="none" /><path d="M 82.7489923806493 88.02491185347247 l -6.024451261808811 -4.181978032036531 a28.33368619906428,28.33368619906428 0 0,0 0.28156584496103504,-0.3982549197085131 l 5.951572797043898 4.285059452076831" fill="#ff5307" stroke="none" /><path d="M 83.17141714833178 87.43820079747576 l -4.13773529373338 -3.088637966204257 a26.16338434045784,26.16338434045784 0 0,0 0.2725029352581864,-0.35858192036474823 l 4.083956418251085 3.1594046624500316" fill="#ff3405" stroke="none" /><path d="M 83.39014120810768 87.1503855733568 l -3.1197223460120598 -2.413459967763561 a24.94429417414628,24.94429417414628 0 0,0 0.2656518859291141,-0.33735091775858206 l 3.0777163794889746 2.466803279475191" fill="#ff2303" stroke="none" /><path d="M 84.5562425177563 85.77008943001954 l -1.303628162015228 -1.2011657255893167 a22.77263800171657,22.77263800171657 0 0,0 0.26810191804579775,-0.28599243330560886 l 1.2827589219989741 1.2234275757729756" fill="#ff0300" stroke="none" /><path d="M 84.80347519578584 85.50635884689758 l -9.173121861119299 -8.74883818646965 a33.67629024170614,33.67629024170614 0 0,0 0.40369170094016116,-0.4160397833211692 l 9.021165896476019 8.905442165340943" fill="#ff9c0e" stroke="none" /><path d="M 87.80319425747018 82.90503203632743 l -11.193639307973507 -15.688936054746316 a40.2727858776807,40.2727858776807 0 0,0 0.5677865628855325,-0.39777077215015305 l 10.921921605504314 15.879291669660411" fill="#fff016" stroke="none" /><path d="M 88.09926311788651 82.69761687909137 l -2.9707701406604383 -4.319178185942213 a26.24221092961345,26.24221092961345 0 0,0 0.374383009662171,-0.25278507933364597 l 2.8959824365917277 4.369675177574524" fill="#ff3505" stroke="none" /><path d="M 88.39885842347998 82.49532879139004 l -32.97852247489614 -49.76046443887775 a80.69662273361908,80.69662273361908 0 0,0 1.1644636950538998,-0.7573995789280212 l 32.11709175405795 50.320762941965306" fill="#49f1ff" stroke="none" /><line stroke="#e1ed5e" stroke-width="0.3" x1="56.762969772571076" x2="54.21961505331055" y1="26.818313649435495" y2="22.513508569990535" /><path d="M 56.25429882871897 25.957352633546506 a86.0,86.0 0 0,1 42.265352541879196,-11.944610805530505" fill="none" id="id48" stroke="none" /><text fill="#e1ed5e" style="font-size:6.75px; font-family:Arial;" text-anchor="middle"><textPath startOffset="22.20632615414155" xlink:href="#id48">December</textPath></text><path d="M 96.75951476605007 79.25152402106235 l -1.110416694797587 -7.109877828554592 a28.196067535331874,28.196067535331874 0 0,0 0.48018039907444826,-0.07076610876580111 l 0.9878673152944901 7.127938421481362" fill="#ff5107" stroke="none" /></svg>