<?xml version="1.0" encoding="utf-8" ?>
<svg baseProfile="full" height="200mm" version="1.1" viewBox="0,0,200,200" width="200mm" xmlns="http://www.w3.org/2000/svg" xmlns:ev="http://www.w3.org/2001/xml-events" xmlns:xlink="http://www.w3.org/1999/xlink"><defs /><rect fill="#1a1a1a" height="200" width="200" x="0" y="0" /><text alignment-baseline="middle" fill="#e1ed5e" style="dominant-baseline: central; font-size:9.0px; font-family:Arial;" text-anchor="middle" x="100.0" y="100.0">2023</text><line stroke="#e1ed5e" stroke-width="0.3" x1="100.0" x2="100.0" y1="15.0" y2="10.0" /><path d="M 100.0 14.0 a86.0,86.0 0 0,1 42.46469731375804,11.215312516191453" fill="none" id="id61" stroke="none" /><text fill="#e1ed5e" style="font-size:6.75px; font-family:Arial;" text-anchor="middle"><textPath startOffset="22.20632615414155" xlink:href="#id61">January</textPath></text><line stroke="#e1ed5e" stroke-width="0.3" x1="143.23703022742887" x2="145.7803849466894" y1="26.81831364943548" y2="22.513508569990506" /><path d="M 143.74570117128098 25.957352633546492 a86.0,86.0 0 0,1 28.547481713284135,27.462654790039103" fill="none" id="id62" stroke="none" /><text fill="#e1ed5e" style="font-size:6.75px; font-family:Arial;" text-anchor="middle"><textPath startOffset="19.985693538727396" xlink:href="#id62">February</textPath></text><line stroke="#e1ed5e" stroke-width="0.3" x1="172.23445277983987" x2="176.4835382374775" y1="55.19839476539836" y2="52.563006222186495" /><path d="M 173.08426987136738 54.67131705675599 a86.0,86.0 0 0,1 12.851231095245387,41.99856678651699" fill="none" id="id63" stroke="none" /><text fill="#e1ed5e" style="font-size:6.75px; font-family:Arial;" text-anchor="middle"><textPath startOffset="22.20632615414155" xlink:href="#id63">March</textPath></text><path d="M 118.56541770881063 90.18545643968196 l 13.536112332404532 -7.155818749001014 a36.3111749726802,36.3111749726802 0 0,0 0.2873607024443771,0.5550894120479916 l -13.657282468009026 6.9217566146926774" fill="#ffb811" stroke="none" /><path d="M 120.67395015179393 96.31383870115 l 10.534005953957848 -1.8782112167357348 a31.700138261382016,31.700138261382016 0 0,0 0.0911577304360197,0.5380180851766397 l -10.564775545914092 1.6966073432432578" fill="#ff7a0b" stroke="none" /><path d="M 120.73433829027371 96.67025291283417 l 10.694809013832195 -1.7174895414100293 a31.831837801924436,31.831837801924436 0 0,0 0.08222331436907196,0.5417489087904308 l -10.722788221640567 1.5331415202275158" fill="#ff7c0b" stroke="none" /><path d="M 120.94382443527127 98.46500227214037 l 10.616274119488569 -0.7780793188996629 a31.644749109613723,31.644749109613723 0 0,0 0.035139849859511456,0.5435979240609516 l -10.628094560352496 0.595222330585676" fill="#ff7a0b" stroke="none" /><path d="M 120.96714384426684 98.82574320788733 l 11.29158305137671 -0.6323807472427355 a32.30927730739772,32.30927730739772 0 0,0 0.02631881691966417,0.5555486280351842 l -11.30079547652987 0.4379210125845515" fill="#ff830c" stroke="none" /><path d="M 120.98425023603335 99.18683210126433 l 15.597152706653482 -0.6044106294038474 a36.60885917559654,36.60885917559654 0 0,0 0.01898135449210271,0.6298987470884412 l -15.60524575560123 0.33584173489040703" fill="#ffbc11" stroke="none" /><line stroke="#e1ed5e" stroke-width="0.3" x1="184.98032266829074" x2="189.97916517819016" y1="98.17113171792111" y2="98.06355123074" /><path d="M 185.9800911702706 98.14961562048488 a86.0,86.0 0 0,1 -9.607161424134198,41.387399972396054" fill="none" id="id64" stroke="none" /><text fill="#e1ed5e" style="font-size:6.75px; font-family:Arial;" text-anchor="middle"><textPath startOffset="21.466115282336823" xlink:href="#id64">April</textPath></text><path d="M 120.9904718944345 100.63252640178507 l 10.45052531980978 0.3149158918649997 a31.45526907730903,31.45526907730903 0 0,0 -0.02096698465113467,0.5410647091438462 l -10.443556202307441 -0.49475784802285205" fill="#ff770b" stroke="none" /><path d="M 120.95626037817324 101.35467743843564 l 15.496226145750548 1.0017239508251743 a36.52856965833942,36.52856965833942 0 0,0 -0.04596240559251364,0.6271205070085889 l -15.476687181493697 -1.2683175943305331" fill="#ffbb11" stroke="none" /><path d="M 120.92983693683757 101.71520430193887 l 11.295043972527754 0.9256311012232644 a32.332908332678215,32.332908332678215 0 0,0 -0.05023210418523532,0.5543070839103407 l -11.277437272065443 -1.1199195736821759" fill="#ff830c" stroke="none" /><path d="M 120.8583938346157 102.4346265915055 l 44.575285363275725 5.202901811609065 a65.87790383338674,65.87790383338674 0 0,0 -0.14116220221350864,1.1252016423713416 l -44.47912165181537 -5.969421208267802" fill="#36ff6f" stroke="none" /><path d="M 120.81339534386255 102.79330883721812 l 11.313693672241738 1.5183798699893762 a32.41512776708661,32.41512776708661 0 0,0 -0.07897860826767156,0.5523762022755003 l -11.285881012957466 -1.7129015442452857" fill="#ff840c" stroke="none" /><path d="M 120.41448212921028 104.9243191809786 l 44.064399803879176 10.629080266605124 a66.32823267446065,66.32823267446065 0 0,0 -0.2772794462677286,1.1075935552812055 l -43.87490904331639 -11.386001661283727" fill="#37ff74" stroke="none" /><path d="M 120.13307415673323 105.97154293290107 l 10.60364201107931 3.1450787406501 a32.06023255560277,32.06023255560277 0 0,0 -0.16148163198143153,0.5277313165800146 l -10.547933606591746 -3.3271370297821723" fill="#ff7f0b" stroke="none" /><path d="M 119.26925614724726 108.34839909993367 l 9.74172369486202 4.220598693821754 a31.616714834699387,31.616714834699387 0 0,0 -0.22065292526353403,0.4975140957982253 l -9.667629684867213 -4.387661126112667" fill="#ff790b" stroke="none" /><line stroke="#e1ed5e" stroke-width="0.3" x1="174.80103733775053" x2="179.2010983576182" y1="140.37084112569926" y2="142.7455964860345" /><path d="M 175.68104954172406 140.8457921977663 a86.0,86.0 0 0,1 -30.038265399797805,32.042727171017184" fill="none" id="id65" stroke="none" /><text fill="#e1ed5e" style="font-size:6.75px; font-family:Arial;" text-anchor="middle"><textPath startOffset="22.206326154141568" xlink:href="#id65">May</textPath></text><line stroke="#e1ed5e" stroke-width="0.3" x1="143.8653032363475" x2="146.44561519142675" y1="172.8068346515853" y2="177.08958963109032" /><path d="M 144.38136562736335 173.6633856474863 a86.0,86.0 0 0,1 -40.68145358897372,12.25698825130547" fill="none" id="id66" stroke="none" /><text fill="#e1ed5e" style="font-size:6.75px; font-family:Arial;" text-anchor="middle"><textPath startOffset="21.466115282336833" xlink:href="#id66">June</textPath></text><path d="M 109.89434966115114 118.52300852407294 l 5.077338077642735 9.505180200073367 a31.776261531280113,31.776261531280113 0 0,0 -0.48467741200792236,0.25356031469339296 l -4.912969763108317 -9.591169933711477" fill="#ff7b0b" stroke="none" /><path d="M 109.2508944713604 118.85261126421891 l 4.108902178542107 8.373626543311449 a30.327416501887225,30.327416501887225 0 0,0 -0.4706343262021782,0.22593307697794898 l -3.964155184339696 -8.443113896788958" fill="#ff6709" stroke="none" /><path d="M 108.92500713936063 119.00905698771935 l 2.7005818872620857 5.751873829721691 a27.354305239980633,27.354305239980633 0 0,0 -0.4279411773752675,0.1964468053436916 l -2.6011727141193988 -5.797507705399455" fill="#ff3d05" stroke="none" /><path d="M 108.2653958097858 119.30500536409082 l 3.8078362596364013 8.89374218846578 a30.674619739043898,30.674619739043898 0 0,0 -0.48718386438255457,0.20364289482368983 l -3.6541809357563846 -8.957970126309442" fill="#ff6c0a" stroke="none" /><path d="M 107.93186726928326 119.44442032107085 l 8.944114685295231 21.925874379445823 a44.67997370790248,44.67997370790248 0 0,0 -0.7146219757851424,0.2843628322816686 l -8.565371633468223 -22.07658405613356" fill="#ddff1b" stroke="none" /><path d="M 107.59598834532513 119.57807347666477 l 1.2457529445157147 3.210832030371714 a24.444030012359143,24.444030012359143 0 0,0 -0.39358354627658165,0.14881961959648332 l -1.1902991774788583 -3.231799900074828" fill="#ff1302" stroke="none" /><path d="M 106.57524785965236 119.94407469862006 l 4.980197580946237 15.105960214483845 a36.90573487603863,36.90573487603863 0 0,0 -0.6050407981691881,0.1937149570151107 l -4.7194354376861085 -15.189448018158663" fill="#ffc011" stroke="none" /><path d="M 105.88484417918355 120.15858648285463 l 2.9876261488546016 10.23414015160535 a31.66131017502167,31.66131017502167 0 0,0 -0.5244753803267898,0.14822198132332406 l -2.8110196004232075 -10.284050926267193" fill="#ff7a0b" stroke="none" /><path d="M 105.18746579009965 120.34920634021253 l 3.8936132607588405 15.27372764624001 a36.76220100226721,36.76220100226721 0 0,0 -0.6145357098788456,0.151037925908682 l -3.630124266136784 -15.338486830462722" fill="#ffbe11" stroke="none" /><path d="M 104.48393922423573 120.51570834832081 l 3.093913669592899 14.155818650969744 a35.48997941592867,35.48997941592867 0 0,0 -0.5979360833833895,0.12530331989663201 l -2.8497861247801315 -14.206977951592917" fill="#ffae10" stroke="none" /><path d="M 104.13013068566511 120.58985236759428 l 0.6565172359718285 3.2729213659892125 a24.33811760563896,24.33811760563896 0 0,0 -0.41146761668401965,0.0788587480386737 l -0.6000820047161051 -3.283737312376354" fill="#ff1202" stroke="none" /><path d="M 103.7750983002368 120.6578951692458 l 0.44666097062532867 2.4441947662112034 a23.484671824980957,23.484671824980957 0 0,0 -0.3982900011956351,0.06924782201764271 l -0.4045219979576436 -2.451521166749852" fill="#ff0500" stroke="none" /><path d="M 103.06178313531737 120.77559828337769 l 1.9352989982477993 13.131888435217927 a34.27372879365965,34.27372879365965 0 0,0 -0.5844020168774373,0.08099279445590754 l -1.7089683901835309 -13.163255795166437" fill="#ff9d0e" stroke="none" /><path d="M 102.34483914955558 120.86867818915974 l 0.24027620114593573 2.138418202024086 a23.151874777858843,23.151874777858843 0 0,0 -0.3964123570279497,0.04108976163828558 l -0.20343124751238337 -2.14223733211813" fill="#ff0000" stroke="none" /><path d="M 101.98527174616119 120.90594882070398 l 0.21552789400898476 2.269621340402688 a23.27983185825342,23.27983185825342 0 0,0 -0.39925541551292604,0.03444943722962941 l -0.1764281607545167 -2.272995029910981" fill="#ff0200" stroke="none" /><path d="M 101.62511606390274 120.93702456842531 l 1.1723650838584996 15.104051402311743 a36.149482124928426,36.149482124928426 0 0,0 -0.620802353943124,0.042814165015520364 l -0.9121999691364455 -15.12199391184355" fill="#ffb610" stroke="none" /><path d="M 100.90346689309514 120.98055641714683 l 0.459629689388292 10.673646929297295 a31.683538656393992,31.683538656393992 0 0,0 -0.5450770334992657,0.018773555146483815 l -0.27583230421437394 -10.679977282869872" fill="#ff7a0b" stroke="none" /><line stroke="#e1ed5e" stroke-width="0.3" x1="102.19456741930631" x2="102.32365962044197" y1="184.97166512339345" y2="189.96999836594603" /><path d="M 102.22038585953345 185.97133177190398 a86.0,86.0 0 0,1 -42.740103519485714,-10.115201625700543" fill="none" id="id67" stroke="none" /><text fill="#e1ed5e" style="font-size:6.75px; font-family:Arial;" text-anchor="middle"><textPath startOffset="22.20632615414155" xlink:href="#id67">July</textPath></text><path d="M 100.18074693466247 120.99922214144158 l 0.20240006702795954 23.514888243609438 a44.515759288115156,44.515759288115156 0 0,0 -0.7662940033808137,0.0 l 0.2024000670279433 -23.514888243609438" fill="#dfff1b" stroke="none" /><path d="M 99.81925306533755 120.99922214144158 l -0.060675506835888814 7.049294910427601 a28.04955603221297,28.04955603221297 0 0,0 -0.4827733443169544,-0.008311380939044257 l 0.18200854104551115 -7.047206052209396" fill="#ff4706" stroke="none" /><path d="M 99.09653310690486 120.98055641714683 l -0.4399479939498251 10.216593190319482 a31.22606134608349,31.22606134608349 0 0,0 -0.5368086058280234,-0.027746873274916952 l 0.6157446681913374 -10.207506510282363" fill="#ff740a" stroke="none" /><path d="M 98.73552117531835 120.96189622390904 l -0.6500915817238855 10.776892428834312 a31.796482273745212,31.796482273745212 0 0,0 -0.5460474087688173,-0.037658626319363654 l 0.8355017512716328 -10.764105457998664" fill="#ff7c0b" stroke="none" /><path d="M 96.93821686468263 120.77559828337769 l -0.47081643493582603 3.1947047472468593 a24.2292114420532,24.2292114420532 0 0,0 -0.41208597048321677,-0.06435935361345713 l 0.5257382690275605 -3.1861270862862963" fill="#ff1001" stroke="none" /><path d="M 96.58105272829116 120.7198165907248 l -4.04932573655641 24.54009375102623 a45.87193680093882,45.87193680093882 0 0,0 -0.7779684510582624,-0.13525978727184287 l 4.471143159086722 -24.466755385233384" fill="#ceff1d" stroke="none" /><path d="M 96.22490169976321 120.6578951692458 l -0.679357347775951 3.7175436920231086 a24.779108030749846,24.779108030749846 0 0,0 -0.4189231349020374,-0.08028761584943772 l 0.7432480972496834 -3.7052988778252027" fill="#ff1802" stroke="none" /><path d="M 95.86986931433489 120.58985236759428 l -0.725009372374076 3.6143737519289862 a24.68637168617917,24.68637168617917 0 0,0 -0.4159166232808573,-0.08715937229008745 l 0.7871174570843207 -3.6013583989123577" fill="#ff1702" stroke="none" /><path d="M 95.16358092515715 120.4354850818985 l -5.813418390175987 24.563633330541343 a46.24218524170437,46.24218524170437 0 0,0 -0.7730079635903002,-0.18998655026018038 l 6.235379638509499 -24.459925521967133" fill="#caff1d" stroke="none" /><path d="M 94.81253420990036 120.34920634021253 l -0.9396588244146096 3.6860602230684094 a24.803945146080235,24.803945146080235 0 0,0 -0.4128198040254584,-0.10902946230393533 l 1.0029690712515567 -3.6693394114608924" fill="#ff1802" stroke="none" /><path d="M 94.46302465271185 120.25689768951611 l -1.0122680880029455 3.703359651597638 a24.8392133818102,24.8392133818102 0 0,0 -0.41146610211097756,-0.11628443048036706 l 1.0758653582185382 -3.6853864277787496" fill="#ff1902" stroke="none" /><path d="M 94.11515582081647 120.15858648285463 l -1.0620612839282244 3.6381004475685397 a24.78995369858494,24.78995369858494 0 0,0 -0.4085915884546588,-0.12310529387348017 l 1.124527846823129 -3.619279784589334" fill="#ff1802" stroke="none" /><path d="M 93.76903079525671 120.05430185196036 l -7.391597131598786 23.789769323899822 a45.91162043385023,45.91162043385023 0 0,0 -0.7526852822695835,-0.24098605836492185 l 7.80000375895931 -23.659010418875194" fill="#ceff1d" stroke="none" /><path d="M 93.08242187328487 119.8279376855182 l -7.491498610334075 21.472972895412195 a43.74227597220085,43.74227597220085 0 0,0 -0.7087924231845837,-0.254147745327476 l 7.860010594148385 -21.340837609044762" fill="#e8ff1a" stroke="none" /><path d="M 92.40401165467489 119.57807347666478 l -1.3593349575658706 3.503580899383877 a24.75804079879239,24.75804079879239 0 0,0 -0.39598590965762687,-0.1575709656705691 l 1.4194419432653556 -3.479663089307241" fill="#ff1802" stroke="none" /><path d="M 92.06813273071674 119.44442032107085 l -6.7666143113107555 16.587883830233196 a38.91493676247135,38.91493676247135 0 0,0 -0.6180591458159841,-0.25834877307716225 l 7.0511449166242 -16.46895001413606" fill="#ffda14" stroke="none" /><path d="M 91.40352486487194 119.15986991738527 l -1.2989906475547248 2.895197326791064 a24.173254522330783,24.173254522330783 0 0,0 -0.37817560747836304,-0.1736018730510853 l 1.3486342508005074 -2.8724083834059044" fill="#ff0f01" stroke="none" /><path d="M 91.07499286063937 119.00905698771935 l -1.314447645740432 2.7995955426253443 a24.092815515946636,24.092815515946636 0 0,0 -0.3738830175644867,-0.17948656926451623 l 1.3624433313051607 -2.7765546968612655" fill="#ff0e01" stroke="none" /><line stroke="#e1ed5e" stroke-width="0.3" x1="58.666819895761336" x2="56.23545636021788" y1="174.27360380694188" y2="178.64263932499728" /><path d="M 58.180547188652646 175.14741091055294 a86.0,86.0 0 0,1 -31.652253787137756,-30.449443065178592" fill="none" id="id68" stroke="none" /><text fill="#e1ed5e" style="font-size:6.75px; font-family:Arial;" text-anchor="middle"><textPath startOffset="22.20632615414155" xlink:href="#id68">August</textPath></text><path d="M 89.7882731507175 118.34994917583269 l -16.619483633514502 29.86435932968597 a55.177290624291125,55.177290624291125 0 0,0 -0.8259547307472774,-0.46899865221263987 l 17.131087131182987 -29.5738575116787" fill="#66ff29" stroke="none" /><path d="M 88.24862548938628 117.40417183066458 l -12.307172726348899 18.22732725312986 a42.993225304826865,42.993225304826865 0 0,0 -0.6097731507095058,-0.4194075332664329 l 12.619102761681296 -18.012778930498325" fill="#f1ff19" stroke="none" /><path d="M 87.65650970185807 116.9893568818739 l -6.277094289281975 8.639679092860563 a31.679230662559373,31.679230662559373 0 0,0 -0.43840288362461033,-0.32431997257277717 l 6.424882143325149 -8.530349171548016" fill="#ff7a0b" stroke="none" /><path d="M 87.07902340077011 116.55440617244103 l -6.531697263327114 8.368436291339098 a31.615733375606048,31.615733375606048 0 0,0 -0.4261236402005257,-0.3385383914299948 l 6.674778396244998 -8.254763985903972" fill="#ff790b" stroke="none" /><path d="M 86.24171649860922 115.8653595955263 l -21.926683456763165 25.28474702121523 a54.46786338175689,54.46786338175689 0 0,0 -0.703044328117355,-0.6203548780011814 l 22.358670137787108 -24.90356900144176" fill="#6eff28" stroke="none" /><path d="M 84.9287848128048 114.62390073753433 l -33.870961066504165 32.8656691825544 a68.19527745851005,68.19527745851005 0 0,0 -0.8102035691805959,-0.8494952031346703 l 34.43167118706372 -32.277766862837225" fill="#39ff8a" stroke="none" /><path d="M 84.19399662182784 113.82643327865904 l -9.789414377482629 8.563371871369387 a34.00630507336438,34.00630507336438 0 0,0 -0.3816114529695021,-0.44390033302422344 l 9.93536834002291 -8.393594439183635" fill="#ff9a0e" stroke="none" /><path d="M 83.50135304334701 112.99209946851258 l -30.247085387792026 23.818507240214824 a59.499447549394105,59.499447549394105 0 0,0 -0.6267081989150991,-0.8101048282131464 l 30.65260040392519 -23.294324417888422" fill="#3aff2e" stroke="none" /><path d="M 82.85270091963577 112.12312394758628 l -8.698227887368674 6.14963874536223 a31.65256894270384,31.65256894270384 0 0,0 -0.31070627846842785,-0.44759556770304276 l 8.802795072999235 -5.999001915472174" fill="#ff7a0b" stroke="none" /><path d="M 82.6465618267979 111.8261652097733 l -17.726348810024515 12.080299448506112 a42.451272151092454,42.451272151092454 0 0,0 -0.4063130416063584,-0.6073828679240828 l 17.931664957041605 -11.773379666376208" fill="#f8ff18" stroke="none" /><path d="M 82.24976979558568 111.22182372390057 l -43.17989283507381 27.298640087023227 a72.0854078563467,72.0854078563467 0 0,0 -0.6540390076472087,-1.054519130880996 l 43.64339648238897 -26.551324624776967" fill="#3effb5" stroke="none" /><line stroke="#e1ed5e" stroke-width="0.3" x1="26.63291911575756" x2="22.317208475507996" y1="142.92168965132927" y2="145.44649492493687" /><path d="M 25.769776987707644 143.4266507060508 a86.0,86.0 0 0,1 -11.730757126820373,-40.83630448921669" fill="none" id="id69" stroke="none" /><text fill="#e1ed5e" style="font-size:6.75px; font-family:Arial;" text-anchor="middle"><textPath startOffset="21.46611528233685" xlink:href="#id69">September</textPath></text><path d="M 81.18737489456691 109.33194174019688 l -33.371010646572 16.55358172610173 a58.25111299728306,58.25111299728306 0 0,0 -0.437845165961388,-0.9020907273347902 l 33.65100906914811 -15.976702042801655" fill="#46ff2c" stroke="none" /><path d="M 80.73074385275274 108.34839909993369 l -41.04731269655113 17.783735176489316 a65.73413815461242,65.73413815461242 0 0,0 -0.4408851838688747,-1.0421223392881196 l 41.34734886161232 -17.074538311535033" fill="#36ff6d" stroke="none" /><path d="M 80.20201598880116 107.00284435728193 l -20.112126909936908 7.113961419734537 a42.33321578953534,42.33321578953534 0 0,0 -0.23708449202420248,-0.6890785106130671 l 20.23160223290434 -6.766710206032173" fill="#f9ff18" stroke="none" /><path d="M 79.86692584326677 105.97154293290107 l -45.297814914086224 13.435496458230068 a68.24832908230644,68.24832908230644 0 0,0 -0.32436598869687727,-1.1291605594737928 l 45.5223735396692 -12.653778423251678" fill="#39ff8a" stroke="none" /><path d="M 79.50377843672027 104.57218783832718 l -22.392841949385936 4.995275802931057 a43.94323758577954,43.94323758577954 0 0,0 -0.1583336815946807,-0.7396822484135839 l 22.47550966970506 -4.609079735101309" fill="#e6ff1a" stroke="none" /><path d="M 79.4281124754447 104.21870165774334 l -11.79329308266336 2.4184647625891835 a33.0387181020855,33.0387181020855 0 0,0 -0.10945265870286429,-0.5580967486660153 l 11.833175674341891 -2.215104286855214" fill="#ff8d0d" stroke="none" /><path d="M 79.1416061653843 102.43462659150553 l -21.031095088018954 2.4547845704590276 a42.17387371003848,42.17387371003848 0 0,0 -0.07795679591471372,-0.7217831110359295 l 21.070234185434717 -2.092405137538316" fill="#fbff18" stroke="none" /><path d="M 79.04373962182676 101.35467743843564 l -3.4676294429767682 0.22415828427806841 a24.474867032018615,24.474867032018615 0 0,0 -0.02355839877426402,-0.42065103575166024 l 3.4709741926385638 -0.16443553219097073" fill="#ff1402" stroke="none" /><path d="M 79.0235259727143 100.99374915477108 l -32.10704779088788 1.5210540895903872 a53.1430571568701,53.1430571568701 0 0,0 -0.03542330733156699,-0.9141181622998634 l 32.12847323107065 -0.968158680276527" fill="#7cff26" stroke="none" /><line stroke="#e1ed5e" stroke-width="0.3" x1="15.007084014347285" x2="10.007500721073583" y1="101.09737516637583" y2="101.16192664675087" /><path d="M 14.007167355692545 101.11028546245083 a86.0,86.0 0 0,1 10.666146001902534,-42.60595125391555" fill="none" id="id70" stroke="none" /><text fill="#e1ed5e" style="font-size:6.75px; font-family:Arial;" text-anchor="middle"><textPath startOffset="22.20632615414155" xlink:href="#id70">October</textPath></text><path d="M 79.00175016825051 100.2711162175752 l -4.215967687366874 0.05443392768334144 a25.216319081071145,25.216319081071145 0 0,0 -0.0018680521877704412,-0.43406954011423926 l 4.2162800368441475 0.018145090634573226" fill="#ff1e03" stroke="none" /><path d="M 79.05617556472873 98.46500227214037 l -62.831473305813795 -4.604993183578899 a84.0,84.0 0 0,0 0.11810206472201168,-1.4411443311688876 l 62.742896757272284 5.685851431955564" fill="#4dd2ff" stroke="none" /><path d="M 79.16333360222342 97.38593545837743 l -22.0820605509197 -2.7703054984976445 a43.25515649752862,43.25515649752862 0 0,0 0.09904195170384332,-0.737977580199388 l 22.03110260015802 3.1500014207616926" fill="#eeff19" stroke="none" /><path d="M 79.26566170972629 96.67025291283419 l -22.544563556213806 -3.6204528826435216 a43.83341903911032,43.83341903911032 0 0,0 0.1260485037607565,-0.7439454043926884 l 22.478903190932826 4.007984075352039" fill="#e7ff1a" stroke="none" /><line stroke="#e1ed5e" stroke-width="0.3" x1="26.266209847984243" x2="21.928928074336255" y1="57.71137044288968" y2="55.22380399835378" /><path d="M 25.398753493254645 57.2138571539825 a86.0,86.0 0 0,1 29.58750427330803,-30.4925239686951" fill="none" id="id71" stroke="none" /><text fill="#e1ed5e" style="font-size:6.75px; font-family:Arial;" text-anchor="middle"><textPath startOffset="21.46611528233685" xlink:href="#id71">November</textPath></text><line stroke="#e1ed5e" stroke-width="0.3" x1="56.76296977257108" x2="54.21961505331056" y1="26.818313649435495" y2="22.513508569990535" /><path d="M 56.25429882871898 25.957352633546506 a86.0,86.0 0 0,1 42.26535254187918,-11.944610805530505" fill="none" id="id72" stroke="none" /><text fill="#e1ed5e" style="font-size:6.75px; font-family:Arial;" text-anchor="middle"><textPath startOffset="22.20632615414155" xlink:href="#id72">December</textPath></text></svg>