<?xml version="1.0" encoding="utf-8" ?>
<svg baseProfile="full" height="200mm" version="1.1" viewBox="0,0,200,200" width="200mm" xmlns="http://www.w3.org/2000/svg" xmlns:ev="http://www.w3.org/2001/xml-events" xmlns:xlink="http://www.w3.org/1999/xlink"><defs /><rect fill="#1a1a1a" height="200" width="200" x="0" y="0" /><text alignment-baseline="middle" fill="#e1ed5e" style="dominant-baseline: central; font-size:9.0px; font-family:Arial;" text-anchor="middle" x="100.0" y="100.0">2020</text><line stroke="#e1ed5e" stroke-width="0.3" x1="100.0" x2="100.0" y1="15.0" y2="10.0" /><path d="M 100.0 14.0 a86.0,86.0 0 0,1 42.35913384403234,11.155469271406648" fill="none" id="id25" stroke="none" /><text fill="#e1ed5e" style="font-size:6.75px; font-family:Arial;" text-anchor="middle"><textPath startOffset="22.145653131862478" xlink:href="#id25">January</textPath></text><line stroke="#e1ed5e" stroke-width="0.3" x1="143.13028292997686" x2="145.6673583964461" y1="26.7553504044142" y2="22.446841604673864" /><path d="M 143.63769802327073 25.89364864446614 a86.0,86.0 0 0,1 29.32050498858742,28.57503671076993" fill="none" id="id26" stroke="none" /><text fill="#e1ed5e" style="font-size:6.75px; font-family:Arial;" text-anchor="middle"><textPath startOffset="20.669276256404974" xlink:href="#id26">February</textPath></text><path d="M 113.03279911837588 83.53348406188908 l 15.692548083677389 -19.827021868625806 a46.285704687382015,46.285704687382015 0 0,0 0.6187940921212597,0.49845671847742307 l -16.03059294615391 19.554716856354975" fill="#e9ff1a" stroke="none" /><line stroke="#e1ed5e" stroke-width="0.3" x1="172.87174338648825" x2="177.1583165268699" y1="56.24261187166439" y2="53.66864786411523" /><path d="M 173.72905801456457 55.72781907015455 a86.0,86.0 0 0,1 12.242430191666344,42.057860355516425" fill="none" id="id27" stroke="none" /><text fill="#e1ed5e" style="font-size:6.75px; font-family:Arial;" text-anchor="middle"><textPath startOffset="22.145653131862474" xlink:href="#id27">March</textPath></text><path d="M 120.51834098615036 95.52812308129327 l 33.31883168214799 -7.261684288132449 a55.10097657492844,55.10097657492844 0 0,0 0.19348914992610303,0.9259156262571689 l -33.438578542898455 6.6886522105898765" fill="#7dff26" stroke="none" /><line stroke="#e1ed5e" stroke-width="0.3" x1="184.99686870605535" x2="189.99668451229388" y1="99.2704041080226" y2="99.22748670261217" /><path d="M 185.99683186730306 99.26182062694052 a86.0,86.0 0 0,1 -10.086455211305974,41.156179273409016" fill="none" id="id28" stroke="none" /><text fill="#e1ed5e" style="font-size:6.75px; font-family:Arial;" text-anchor="middle"><textPath startOffset="21.40746469413373" xlink:href="#id28">April</textPath></text><path d="M 120.9064616781168 101.97986365728391 l 17.425686986900374 1.650230675077915 a38.50365185458158,38.50365185458158 0 0,0 -0.06796372642705716,0.6574874014593035 l -17.39479086799165 -1.9491225988201502" fill="#ffac0f" stroke="none" /><path d="M 120.65975698304385 103.76489593502545 l 28.195725856250153 5.138200500054879 a49.66007782507887,49.66007782507887 0 0,0 -0.16003245676093394,0.837357437052686 l -28.10336710720706 -5.621460502140879" fill="#beff1f" stroke="none" /><line stroke="#e1ed5e" stroke-width="0.3" x1="174.33088141563837" x2="178.70328620479359" y1="141.23008692659167" y2="143.65538615756765" /><path d="M 175.20536237346943 141.71514677278685 a86.0,86.0 0 0,1 -30.301960400862466,31.631185727798858" fill="none" id="id29" stroke="none" /><text fill="#e1ed5e" style="font-size:6.75px; font-family:Arial;" text-anchor="middle"><textPath startOffset="22.145653131862474" xlink:href="#id29">May</textPath></text><line stroke="#e1ed5e" stroke-width="0.3" x1="143.1302829299769" x2="145.66735839644613" y1="173.24464959558577" y2="177.55315839532614" /><path d="M 143.63769802327073 174.10635135553383 a86.0,86.0 0 0,1 -40.68552437913181,11.842963189579606" fill="none" id="id30" stroke="none" /><text fill="#e1ed5e" style="font-size:6.75px; font-family:Arial;" text-anchor="middle"><textPath startOffset="21.407464694133747" xlink:href="#id30">June</textPath></text><path d="M 110.65571695917076 118.09573695890943 l 5.233710781963798 8.887985106240595 a31.314456253142904,31.314456253142904 0 0,0 -0.4655528146232027,0.26878704284469507 l -5.080365499480196 -8.976519046361462" fill="#ff4206" stroke="none" /><path d="M 108.73861861582097 119.09545874513695 l 6.242001914789915 13.639900685806365 a36.000315950769235,36.000315950769235 0 0,0 -0.5641534034457591,0.25233864161969133 l -6.006935108488529 -13.745043078335907" fill="#ff880c" stroke="none" /><path d="M 108.07796709384702 119.3841803445677 l 5.79705550576643 13.910822869882512 a36.070396327044065,36.070396327044065 0 0,0 -0.5735975207861463,0.2332771181641957 l -5.5574035237898425 -14.008287244626" fill="#ff890c" stroke="none" /><path d="M 106.38641147887787 120.00534299687104 l 4.592812107176259 14.386918510986227 a36.1022298781863,36.1022298781863 0 0,0 -0.5920067158464462,0.1834051938663728 l -4.345164758458189 -14.463640292659244" fill="#ff890c" stroke="none" /><path d="M 105.3480935250658 120.30758222061773 l 3.9707031875462553 15.07740675753652 a36.59149378141164,36.59149378141164 0 0,0 -0.6088035352476675,0.15475547795224925 l -3.7112943590731904 -15.143347467324041" fill="#ff900d" stroke="none" /><path d="M 104.29559338865022 120.5559693870025 l 4.036647610606844 19.316820099638118 a40.73408378146807,40.73408378146807 0 0,0 -0.6856972274012066,0.13715864955110268 l -3.7044538976746786 -19.383268145852085" fill="#ffcb12" stroke="none" /><path d="M 103.94208987418118 120.62667999033965 l 2.7915162854370066 14.606392787909446 a35.87075228246887,35.87075228246887 0 0,0 -0.6058147579040879,0.11039962964150807 l -2.5403667939818617 -14.652160591482318" fill="#ff860c" stroke="none" /><path d="M 103.58742460773223 120.69131181640829 l 2.5395492436564826 14.647445178461076 a35.865966521453586,35.865966521453586 0 0,0 -0.6075395793536374,0.09997040658671374 l -2.287732161249773 -14.688881583543461" fill="#ff860c" stroke="none" /><path d="M 103.2317021107853 120.74984581791261 l 2.3021698983002272 14.781582212341112 a35.95978472240957,35.95978472240957 0 0,0 -0.6107596389636095,0.08976063426437883 l -2.0480851537289326 -14.818923919904373" fill="#ff870c" stroke="none" /><path d="M 101.08105385017728 120.97215588758144 l 0.7991380810914488 15.50306528171946 a36.52364824395045,36.52364824395045 0 0,0 -0.6264227250641762,0.026901287145348767 l -0.532889595426443 -15.51449913729064" fill="#ff8f0d" stroke="none" /><line stroke="#e1ed5e" stroke-width="0.3" x1="101.45913802915013" x2="101.54496967792366" y1="184.9874750549273" y2="189.98673829345242" /><path d="M 101.47630435890484 185.9873277026323 a86.0,86.0 0 0,1 -42.54439059252881,-10.42667462771756" fill="none" id="id31" stroke="none" /><text fill="#e1ed5e" style="font-size:6.75px; font-family:Arial;" text-anchor="middle"><textPath startOffset="22.145653131862474" xlink:href="#id31">July</textPath></text><path d="M 100.36049292484886 120.99690560180557 l 0.4332627497930675 25.235383085529207 a46.23910212515041,46.23910212515041 0 0,0 -0.7937556746419167,0.006813437815636042 l -3.090898563091861e-15 -25.23910212515041" fill="#e9ff1a" stroke="none" /><path d="M 100.0 121.0 l 3.050585703536299e-15 24.909922645943595 a45.909922645943595,45.909922645943595 0 0,0 -0.7881048711533696,-0.006764932463916871 l 0.4276119463045144 -24.906252111674114" fill="#eeff19" stroke="none" /><path d="M 98.91894614982273 120.97215588758144 l -3.2431615505318008 62.916467662744324 a84.0,84.0 0 0,0 -1.4394225914702146,-0.08659208870123303 l 4.322728494134462 -62.8515235962184" fill="#4dd2ff" stroke="none" /><path d="M 98.19965949673042 120.92268563240118 l -1.2704211590548904 14.764219592562272 a35.8187769434179,35.8187769434179 0 0,0 -0.6121606992384492,-0.057972254678960784 l 1.523681421678355 -14.740235582378126" fill="#ff850c" stroke="none" /><path d="M 96.05791012581884 120.62667999033965 l -2.6698783569949613 13.969931747004596 a35.22277200327408,35.22277200327408 0 0,0 -0.5929225567856744,-0.11860111712180864 l 2.909297399311594 -13.922041233219927" fill="#ff7c0b" stroke="none" /><path d="M 94.30408787586889 120.21278271476187 l -6.944693841156676 24.644268481100898 a46.60407665814142,46.60407665814142 0 0,0 -0.7681683103531295,-0.22360259973888946 l 7.366722163891412 -24.521422187059493" fill="#e5ff1a" stroke="none" /><line stroke="#e1ed5e" stroke-width="0.3" x1="58.13341422392154" x2="55.67067388415222" y1="173.97424548756322" y2="178.32567169271397" /><path d="M 57.64086615596768 174.84453072859336 a86.0,86.0 0 0,1 -31.369924170532247,-30.572349798747897" fill="none" id="id32" stroke="none" /><text fill="#e1ed5e" style="font-size:6.75px; font-family:Arial;" text-anchor="middle"><textPath startOffset="22.145653131862474" xlink:href="#id32">August</textPath></text><path d="M 89.65649057296885 118.27599006163327 l -15.892084898743269 28.079791265915514 a53.26504362256851,53.26504362256851 0 0,0 -0.7918927532719177,-0.457199494270859 l 16.371770119875585 -27.802844874368486" fill="#92ff23" stroke="none" /><path d="M 86.68645165197938 116.24036423190432 l -9.554738569560474 11.65522747610383 a36.07107682457933,36.07107682457933 0 0,0 -0.4754952314029378,-0.396675033610262 l 9.753408135125303 -11.489490258581696" fill="#ff890c" stroke="none" /><line stroke="#e1ed5e" stroke-width="0.3" x1="26.387840678322732" x2="22.057713659400548" y1="142.50000000000003" y2="145.00000000000006" /><path d="M 25.521815274538298 143.00000000000003 a86.0,86.0 0 0,1 -11.493303480769221,-40.785679425670985" fill="none" id="id33" stroke="none" /><text fill="#e1ed5e" style="font-size:6.75px; font-family:Arial;" text-anchor="middle"><textPath startOffset="21.40746469413373" xlink:href="#id33">September</textPath></text><path d="M 81.29705330413844 109.54985784667822 l -13.202158727461077 6.741116315346892 a35.823617785214,35.823617785214 0 0,0 -0.274954943985255,-0.5500940729855777 l 13.315933584658069 -6.513490386197561" fill="#ff850c" stroke="none" /><path d="M 80.16572619554312 106.89939002012753 l -5.754289141678164 2.001640466821702 a27.092487840320523,27.092487840320523 0 0,0 -0.14902749102049476,-0.44057329675231405 l 5.787802054271027 -1.9025654955952263" fill="#ff0000" stroke="none" /><path d="M 79.48165901384964 104.47187691870673 l -6.718304500076047 1.46422319655437 a27.87601373799311,27.87601373799311 0 0,0 -0.09788766981576244,-0.46842793580379505 l 6.742449880716177 -1.3486788094651658" fill="#ff0c01" stroke="none" /><path d="M 79.2786578344484 103.40968896794605 l -8.844128459287626 1.455297972390194 a29.96306311440594,29.96306311440594 0 0,0 -0.07915743012162649,-0.5082474850897738 l 8.86780738154752 -1.30326230536897" fill="#ff2d04" stroke="none" /><line stroke="#e1ed5e" stroke-width="0.3" x1="15.003131293944662" x2="10.003315487706104" y1="100.72959589197737" y2="100.7725132973878" /><path d="M 14.003168132696942 100.73817937305945 a86.0,86.0 0 0,1 10.791469493833604,-42.45332614584628" fill="none" id="id34" stroke="none" /><text fill="#e1ed5e" style="font-size:6.75px; font-family:Arial;" text-anchor="middle"><textPath startOffset="22.145653131862435" xlink:href="#id34">October</textPath></text><path d="M 79.22317932658666 96.9465228501225 l -25.540685593728714 -3.7536012404656076 a46.81503714640222,46.81503714640222 0 0,0 0.1236775431606654,-0.7940985473746018 l 25.47248655842978 4.191487969771659" fill="#e2ff1b" stroke="none" /><path d="M 79.56144815229197 95.17655741523228 l -24.443747605082756 -5.768657877925514 a46.1152187068626,46.1152187068626 0 0,0 0.18844099916560744,-0.7689035822443195 l 24.34111907940085 6.187417284777951" fill="#ebff1a" stroke="none" /><path d="M 79.64726062577567 94.8264132398404 l -24.242621100187623 -6.1623794836353 a46.01358828132404,46.01358828132404 0 0,0 0.2011681633402835,-0.7638682827920732 l 24.133263456042613 6.577628270800158" fill="#ecff1a" stroke="none" /><path d="M 79.94057633289273 93.78553927170692 l -23.81100865125587 -7.376711346244533 a45.92749492580421,45.92749492580421 0 0,0 0.2397749504680535,-0.7510916172620308 l 23.680868985010562 7.7843719971979555" fill="#edff19" stroke="none" /><path d="M 80.5471966667186 92.08871423366112 l -7.603556016724075 -3.0923000381005963 a29.208311862076016,29.208311862076016 0 0,0 0.1928779990470737,-0.46283698294285724 l 7.549352173140523 3.222369530484717" fill="#ff2103" stroke="none" /><line stroke="#e1ed5e" stroke-width="0.3" x1="26.387840678322718" x2="22.05771365940052" y1="57.49999999999999" y2="54.99999999999999" /><path d="M 25.521815274538284 56.99999999999999 a86.0,86.0 0 0,1 29.574782752854787,-30.34633250058573" fill="none" id="id35" stroke="none" /><text fill="#e1ed5e" style="font-size:6.75px; font-family:Arial;" text-anchor="middle"><textPath startOffset="21.40746469413373" xlink:href="#id35">November</textPath></text><line stroke="#e1ed5e" stroke-width="0.3" x1="56.869717070023135" x2="54.33264160355391" y1="26.7553504044142" y2="22.446841604673864" /><path d="M 56.362301976729285 25.89364864446614 a86.0,86.0 0 0,1 42.16139366436587,-11.88097634709845" fill="none" id="id36" stroke="none" /><text fill="#e1ed5e" style="font-size:6.75px; font-family:Arial;" text-anchor="middle"><textPath startOffset="22.145653131862474" xlink:href="#id36">December</textPath></text><path d="M 99.63950707515114 79.00309439819443 l -0.44472627788954944 -25.903076126679263 a46.90689356690197,46.90689356690197 0 0,0 0.8052192027383952,-0.006911838417141524 l 6.345358856511531e-15 25.90689356690197" fill="#e1ff1b" stroke="none" /></svg>