<?xml version="1.0" encoding="utf-8" ?>
<svg baseProfile="full" height="200mm" version="1.1" viewBox="0,0,200,200" width="200mm" xmlns="http://www.w3.org/2000/svg" xmlns:ev="http://www.w3.org/2001/xml-events" xmlns:xlink="http://www.w3.org/1999/xlink"><defs /><rect fill="#1a1a1a" height="200" width="200" x="0" y="0" /><text alignment-baseline="middle" fill="#e1ed5e" style="dominant-baseline: central; font-size:9.0px; font-family:Arial;" text-anchor="middle" x="100.0" y="100.0">2021</text><line stroke="#e1ed5e" stroke-width="0.3" x1="100.0" x2="100.0" y1="15.0" y2="10.0" /><path d="M 100.0 14.0 a86.0,86.0 0 0,1 42.46469731375804,11.215312516191453" fill="none" id="id37" stroke="none" /><text fill="#e1ed5e" style="font-size:6.75px; font-family:Arial;" text-anchor="middle"><textPath startOffset="22.20632615414155" xlink:href="#id37">January</textPath></text><path d="M 101.08401301168833 79.027996857942 l 0.3882486221512784 -7.511304048809106 a28.521331365274264,28.521331365274264 0 0,0 0.49007517972438475,0.02956267317823852 l -0.5174858507152751 7.503508106250563" fill="#ff5607" stroke="none" /><path d="M 102.16513564639614 79.11191278185805 l 0.6287992754581302 -6.066323895380927 a27.09882563552085,27.09882563552085 0 0,0 0.46356192686015807,0.05208658375448756 l -0.7331279058280136 6.054601358155839" fill="#ff4206" stroke="none" /><path d="M 103.2404852339499 79.25152402106235 l 1.1661338799196024 -7.466628930212639 a28.55714336289743,28.55714336289743 0 0,0 0.4850237616024085,0.08003307650835276 l -1.2944868476608862 7.445449590764662" fill="#ff5608" stroke="none" /><path d="M 103.95276090670814 79.375362276772 l 1.484494683341519 -7.745767014143787 a28.886737671703504,28.886737671703504 0 0,0 0.4875442929411012,0.0977967985854092 l -1.6176053857497454 7.7190662594811705" fill="#ff5b08" stroke="none" /><path d="M 104.66035177308747 79.52364482259891 l 1.681147987007821 -7.386520366667367 a28.57541693119344,28.57541693119344 0 0,0 0.47867403864589964,0.11328667960956612 l -1.8080457126162446 7.356487774916932" fill="#ff5608" stroke="none" /><path d="M 105.71112130821622 79.79150937346287 l 2.0494596121154722 -7.251900830983706 a28.53593725850439,28.53593725850439 0 0,0 0.4715356845300739,0.1376541966741679 l -2.1739855143689732 7.2155483053908345" fill="#ff5607" stroke="none" /><path d="M 106.40334571778207 80.00007090966166 l 2.295777214335704 -7.170529831994188 a28.529083017830366,28.529083017830366 0 0,0 0.46640591741396653,0.15376669795653758 l -2.4188659539920883 7.129949409778415" fill="#ff5607" stroke="none" /><path d="M 107.08798089147638 80.2323363322302 l 2.5432917450266417 -7.092984108515286 a28.535167978484026,28.535167978484026 0 0,0 0.4609349197785811,0.16976622094425703 l -2.665008990577799 7.048154619764704" fill="#ff5607" stroke="none" /><path d="M 108.09893153111575 80.62456947434976 l 3.111226296991665 -7.443123668269042 a29.067206394548194,29.067206394548194 0 0,0 0.4599764190747417,0.196937897458062 l -3.238886473856722 7.388466242848189" fill="#ff5d08" stroke="none" /><path d="M 108.76106565485865 80.91482961587045 l 3.100326864113015 -6.753775029100111 a28.43138639878435,28.43138639878435 0 0,0 0.44301757679249987,0.20800269252123899 l -3.2161226522051125 6.699407353938869" fill="#ff5407" stroke="none" /><path d="M 109.41281617654863 81.2277094730956 l 3.349538706150105 -6.680095791057587 a28.472823383548082,28.472823383548082 0 0,0 0.43623011011401136,0.22345400566979728 l -3.4640293038528718 6.621449260075289" fill="#ff5507" stroke="none" /><path d="M 110.36928655335952 81.73862282372117 l 0.7731368085811254 -1.3615732189202723 a22.565765676997653,22.565765676997653 0 0,0 0.33612596372317183,0.19470585361820425 l -0.7964595047696256 1.3480632079120185" fill="#ff0000" stroke="none" /><line stroke="#e1ed5e" stroke-width="0.3" x1="143.23703022742887" x2="145.7803849466894" y1="26.81831364943548" y2="22.513508569990506" /><path d="M 143.74570117128098 25.957352633546492 a86.0,86.0 0 0,1 28.547481713284135,27.462654790039103" fill="none" id="id38" stroke="none" /><text fill="#e1ed5e" style="font-size:6.75px; font-family:Arial;" text-anchor="middle"><textPath startOffset="19.985693538727396" xlink:href="#id38">February</textPath></text><path d="M 110.99172775467656 82.1063720568725 l 3.9131598209107583 -6.3703020562514805 a28.476200109137807,28.476200109137807 0 0,0 0.41545534888831864,0.2601581013599182 l -4.02223432217134 6.301999613568618" fill="#ff5507" stroke="none" /><path d="M 111.60114157652 82.49532879139004 l 4.47871483247249 -6.757820345734695 a29.10722038530068,29.10722038530068 0 0,0 0.41525650411001386,0.2803830452401734 l -4.594376030989046 6.679725388195851" fill="#ff5e08" stroke="none" /><path d="M 111.90073688211348 82.69761687909136 l 8.596756855325836 -12.498753831933273 a36.16980803375107,36.16980803375107 0 0,0 0.5099406593347993,0.35724602002470207 l -8.810628654244287 12.348922969144635" fill="#ffbc11" stroke="none" /><path d="M 112.48926042617603 83.11751280151076 l 4.261658523205536 -5.760741069307573 a28.165742880959193,28.165742880959193 0 0,0 0.3872841232918767,0.29169437242154317 l -4.360188800255797 5.686530107380183" fill="#ff5107" stroke="none" /><path d="M 113.06298171725822 83.55741782278167 l 4.741765625091671 -5.968535564332338 a28.622844483918122,28.622844483918122 0 0,0 0.3831325860879279,0.3097999061976998 l -4.84380160974409 5.8860295608705115" fill="#ff5708" stroke="none" /><path d="M 114.16331599549186 84.49514656593476 l 5.01687182632468 -5.492065727363167 a28.438534054196932,28.438534054196932 0 0,0 0.3585856959039581,0.33326632426181074 l -5.110665406023485 5.404894817026716" fill="#ff5407" stroke="none" /><path d="M 114.42810811169701 84.74124197986012 l 12.764648467982175 -13.499530269473452 a39.578847327204926,39.578847327204926 0 0,0 0.4909977584401303,0.47233945460239124 l -12.995129470034723 13.277807728108758" fill="#ffe815" stroke="none" /><path d="M 115.9244219780498 86.31012108654704 l 10.939748457972195 -9.404663600330817 a35.42656555660745,35.42656555660745 0 0,0 0.3935543688075893,0.46584423923023316 l -11.1000134402669 9.214960411471477" fill="#ffb310" stroke="none" /><path d="M 116.15771136456269 86.58626213691792 l 11.423172016247731 -9.483238778909133 a35.84657120855153,35.84657120855153 0 0,0 0.39004740833544815,0.4781520028945558 l -11.584717916659589 9.285202606406475" fill="#ffb811" stroke="none" /><path d="M 117.04232023915458 87.72973835380427 l 25.45700379156087 -18.328730646252914 a52.36879674368201,52.36879674368201 0 0,0 0.5204146188791345,0.7360895718212197 l -25.768731030243888 17.887814574099902" fill="#81ff25" stroke="none" /><line stroke="#e1ed5e" stroke-width="0.3" x1="172.23445277983987" x2="176.4835382374775" y1="55.19839476539836" y2="52.563006222186495" /><path d="M 173.08426987136738 54.67131705675599 a86.0,86.0 0 0,1 12.851231095245387,41.99856678651699" fill="none" id="id39" stroke="none" /><text fill="#e1ed5e" style="font-size:6.75px; font-family:Arial;" text-anchor="middle"><textPath startOffset="22.20632615414155" xlink:href="#id39">March</textPath></text><path d="M 118.21658344932153 89.55222093294921 l 27.45257378885701 -15.744907741114869 a52.647210420649365,52.647210420649365 0 0,0 0.4440976682517824,0.7900001980704491 l -27.719529098401225 15.270024033109626" fill="#7eff26" stroke="none" /><path d="M 119.04729006885535 91.15688171328212 l 7.5252830981592025 -3.4937761927022395 a29.29676791239417,29.29676791239417 0 0,0 0.20842234507496432,0.4592310099439156 l -7.584307760197514 3.363723173916261" fill="#ff6008" stroke="none" /><path d="M 120.08093135843002 93.85539295169968 l 11.740009254733529 -3.592350490429967 a33.277328673099916,33.277328673099916 0 0,0 0.16289110226049203,0.5491878193177868 l -11.800106254105723 3.3897332843656502" fill="#ff960d" stroke="none" /><path d="M 120.53481517161879 95.60439243477599 l 14.939229515903527 -3.197836928646037 a36.27765491006573,36.27765491006573 0 0,0 0.12545280200579728,0.6117524162360585 l -14.99206161382432 2.940208856246567" fill="#ffbe11" stroke="none" /><path d="M 120.73433829027371 96.67025291283417 l 8.881402242668536 -1.4262728249854957 a29.99519649409449,29.99519649409449 0 0,0 0.07747917309213333,0.5104909452839647 l -8.904637309199968 1.2731827673094482" fill="#ff6a09" stroke="none" /><path d="M 120.96714384426684 98.82574320788733 l 5.692657842249587 -0.3188151035775357 a26.70157841121166,26.70157841121166 0 0,0 0.021750841004104734,0.459125876186839 l -5.697302291487188 0.22077812076769693" fill="#ff3c05" stroke="none" /><path d="M 120.98425023603335 99.18683210126433 l 7.796944046991986 -0.30214206063769006 a28.80279605633328,28.80279605633328 0 0,0 0.014933983047290388,0.4955861929896533 l -7.800989724494922 0.1678857202230376" fill="#ff5908" stroke="none" /><line stroke="#e1ed5e" stroke-width="0.3" x1="184.98032266829074" x2="189.97916517819016" y1="98.17113171792111" y2="98.06355123074" /><path d="M 185.9800911702706 98.14961562048488 a86.0,86.0 0 0,1 -9.607161424134198,41.387399972396054" fill="none" id="id40" stroke="none" /><text fill="#e1ed5e" style="font-size:6.75px; font-family:Arial;" text-anchor="middle"><textPath startOffset="21.466115282336823" xlink:href="#id40">April</textPath></text><path d="M 120.99513854157772 99.54816195383933 l 8.517987121399491 -0.1833162782199795 a29.5199594751494,29.5199594751494 0 0,0 0.006560449559802267,0.508114048275762 l -8.519880578077009 0.036665971883754825" fill="#ff6309" stroke="none" /><path d="M 120.99980553446 99.90962569577887 l 4.214633907115469 -0.01813800638664524 a25.21467293609873,25.21467293609873 0 0,0 -0.0018679302395706574,0.43404120364732185 l -4.214321679586395 -0.05441267546436133" fill="#ff2703" stroke="none" /><path d="M 120.99824983174949 100.27111621757518 l 5.458695184840699 0.07047924485459767 a26.459150157758835,26.459150157758835 0 0,0 -0.009799886254048729,0.4553622063120301 l -5.4566732359016425 -0.16443126695674262" fill="#ff3805" stroke="none" /><path d="M 120.9904718944345 100.63252640178507 l 8.530447919833682 0.2570563232443566 a29.534320105685907,29.534320105685907 0 0,0 -0.01968654710330618,0.5080223055307358 l -8.524759239879174 -0.40385587578909854" fill="#ff6409" stroke="none" /><path d="M 120.9764740272857 100.99374915477107 l 11.847701350794164 0.5612784678691384 a32.86098903195275,32.86098903195275 0 0,0 -0.03163050008479243,0.5647838271820564 l -11.836284499821842 -0.7651340113866181" fill="#ff910d" stroke="none" /><path d="M 120.95626037817324 101.35467743843564 l 2.242645011564628 0.14497150468463815 a23.24732582975105,23.24732582975105 0 0,0 -0.029251159536831155,0.39910883172560807 l -2.239817293363459 -0.18355347290701624" fill="#ff0a01" stroke="none" /><path d="M 120.92983693683757 101.71520430193887 l 8.448553248659982 0.692360619960509 a29.476875321928194,29.476875321928194 0 0,0 -0.04579499799372486,0.5053439868251185 l -8.435383654389181 -0.8376859953341983" fill="#ff6309" stroke="none" /><path d="M 120.89721153311464 102.0752229133903 l 2.563822376397326 0.25460348778742065 a23.576433215456817,23.576433215456817 0 0,0 -0.043580136963723266,0.40349794354632196 l -2.5590599379325507 -0.2986977532185337" fill="#ff0f01" stroke="none" /><path d="M 120.81339534386255 102.79330883721812 l 31.399622204627914 4.214057377013253 a52.68113877640957,52.68113877640957 0 0,0 -0.1283562123343389,0.8977230501126954 l -31.32243194127697 -4.753925899106357" fill="#7eff26" stroke="none" /><path d="M 120.64145759157962 103.86396538481128 l 4.739151084372165 0.8871425703422691 a25.82147020530246,25.82147020530246 0 0,0 -0.0855429244214183,0.4361815286788144 l -4.723178226975083 -0.9685878260890284" fill="#ff2f04" stroke="none" /><path d="M 120.5718875245553 104.21870165774334 l 1.548751507512961 0.3176043299079169 a22.580981891863384,22.580981891863384 0 0,0 -0.0813624619711327,0.3800983353708304 l -1.5430550068173852 -0.34421648469491634" fill="#ff0000" stroke="none" /><path d="M 120.49622156327973 104.57218783832717 l 1.7044832487319408 0.3802270363063696 a22.74637789276723,22.74637789276723 0 0,0 -0.08853695505164656,0.3814148851350981 l -1.6976857277497412 -0.409510578790032" fill="#ff0300" stroke="none" /><path d="M 120.41448212921028 104.9243191809786 l 2.53949924438159 0.6125702704598898 a23.612335879718756,23.612335879718756 0 0,0 -0.0987093301573375,0.3942947066578739 l -2.5285785999291917 -0.6561928165151601" fill="#ff0f01" stroke="none" /><path d="M 120.32669344350535 105.2749913415812 l 2.9008912602654253 0.7528118787887739 a23.996981119181402,23.996981119181402 0 0,0 -0.10720014098954567,0.39893160405340033 l -2.8875030429341026 -0.8026344160177225" fill="#ff1502" stroke="none" /><path d="M 120.23288151984713 105.62410040840565 l 3.173911284971901 0.8822468384715114 a24.294248370852593,24.294248370852593 0 0,0 -0.11546404136804632,0.40194547546132003 l -3.1582546067177555 -0.9367497894374135" fill="#ff1902" stroke="none" /><path d="M 120.13307415673323 105.97154293290107 l 1.7775414872321225 0.5272252624405858 a22.85408204138515,22.85408204138515 0 0,0 -0.11511190566318756,0.37619236803758416 l -1.7682028090628021 -0.5577446030302271" fill="#ff0400" stroke="none" /><path d="M 120.02730092923936 106.31721596034902 l 4.290453859595841 1.353338809595113 a25.49883543318459,25.49883543318459 0 0,0 -0.1356389289499148,0.4174536986292397 l -4.266522679629679 -1.426991408202148" fill="#ff2b04" stroke="none" /><path d="M 119.67450827220406 107.3425965602758 l 2.0266545422913964 0.7563546933531095 a23.163192329855953,23.163192329855953 0 0,0 -0.14262539386315154,0.37234989749860126 l -2.013334868834738 -0.7911281576848557" fill="#ff0901" stroke="none" /><path d="M 119.54520255179757 107.68017299344265 l 18.311638662457675 7.195451280097037 a40.6746189195284,40.6746189195284 0 0,0 -0.26166831819548503,0.6494393064985966 l -18.1850677300048 -7.5095899544384475" fill="#fff517" stroke="none" /><path d="M 119.26925614724726 108.34839909993367 l 17.92126680573697 7.764383146261666 a40.530935706318886,40.530935706318886 0 0,0 -0.2828652367592674,0.6377864346505238 l -17.78496048424643 -8.071717917404877" fill="#fff417" stroke="none" /><path d="M 118.81262510543309 109.33194174019688 l 6.774431924898755 3.3604350106263174 a28.562106278394303,28.562106278394303 0 0,0 -0.2222694000819597,0.438558613065156 l -6.715583855030526 -3.4765478353941677" fill="#ff5608" stroke="none" /><line stroke="#e1ed5e" stroke-width="0.3" x1="174.80103733775053" x2="179.2010983576182" y1="140.37084112569926" y2="142.7455964860345" /><path d="M 175.68104954172406 140.8457921977663 a86.0,86.0 0 0,1 -30.038265399797805,32.042727171017184" fill="none" id="id41" stroke="none" /><text fill="#e1ed5e" style="font-size:6.75px; font-family:Arial;" text-anchor="middle"><textPath startOffset="22.206326154141568" xlink:href="#id41">May</textPath></text><path d="M 118.12598468904814 110.60418214915192 l 20.133128250377013 11.778414406817292 a44.32539172414582,44.32539172414582 0 0,0 -0.3909481066418682,0.6552515140248589 l -19.927399268036915 -12.123228014728255" fill="#dcff1b" stroke="none" /><path d="M 117.75023020441432 111.22182372390056 l 2.3299245283539816 1.4729951130818701 a23.756494678207922,23.756494678207922 0 0,0 -0.22149552958105223,0.34376598068039455 l -2.304224135395879 -1.5128826936837199" fill="#ff1101" stroke="none" /><path d="M 117.55443506779139 111.5257021239791 l 8.88239531640497 5.8319075589136125 a31.625821960328842,31.625821960328842 0 0,0 -0.30269961918378663,0.45249485985610294 l -8.780692591810462 -5.983939332975522" fill="#ff800b" stroke="none" /><path d="M 116.71984013943494 112.70617746262582 l 14.111562595584525 10.72402709111724 a38.724022002359305,38.724022002359305 0 0,0 -0.4078804608009239,0.5272404784246286 l -13.924875317565533 -10.965345563655118" fill="#ffdd14" stroke="none" /><path d="M 116.498646956653 112.99209946851258 l 11.177542340665575 8.801918259416952 a35.22712964103544,35.22712964103544 0 0,0 -0.3792487153123636,0.4731710845079342 l -11.024375713298356 -8.99301717750314" fill="#ffb010" stroke="none" /><path d="M 116.27256486870786 113.27417163493432 l 4.50205923279013 3.672506912639048 a26.809977999866476,26.809977999866476 0 0,0 -0.29478719823501276,0.35509017036620927 l -4.438176034661574 -3.7494583401190256" fill="#ff3d05" stroke="none" /><path d="M 115.32070863581623 114.36230785411682 l 45.962125907448716 43.08692356235047 a84.0,84.0 0 0,0 -0.9979737944841514,1.0463715336699715 l -45.21364556158561 -43.87170221260295" fill="#4dd2ff" stroke="none" /><path d="M 114.55890576462653 115.13401014063108 l 7.066316549710613 7.345449448547408 a31.19256872343177,31.19256872343177 0 0,0 -0.3901509541403617,0.36891207913442575 l -6.938829761179443 -7.4659961644277555" fill="#ff7a0b" stroke="none" /><path d="M 114.29624159901734 115.38237550388516 l 7.253187154509811 7.804236353860663 a31.65433381142465,31.65433381142465 0 0,0 -0.40231218836169147,0.3675026453384871 l -7.117775416681256 -7.927931765785733" fill="#ff810b" stroke="none" /><path d="M 114.0293411484842 115.62618273729858 l 10.331215553485734 11.507130693349188 a36.46441307022043,36.46441307022043 0 0,0 -0.47066466711696286,0.41530684548822905 l -10.131608533462183 -11.683260680609706" fill="#ffc011" stroke="none" /><path d="M 113.75828350139079 115.86535959552629 l 20.870729723544546 24.06707435935601 a52.85610502575632,52.85610502575632 0 0,0 -0.6925018698216668,0.5901651169692466 l -20.45336237714583 -24.422763866548202" fill="#7cff26" stroke="none" /><path d="M 113.20401910651253 116.32954008644616 l 4.193452523764953 5.186083913923913 a27.669371067149513,27.669371067149513 0 0,0 -0.3729337219895229,0.2962811035147486 l -4.10356130905808 -5.257498931443788" fill="#ff4a06" stroke="none" /><path d="M 112.63410532772338 116.77436683061366 l 4.6959732698749495 6.234867939780996 a28.805494422385358,28.805494422385358 0 0,0 -0.3986337911271144,0.29489974868785357 l -4.58795450832927 -6.314777637208618" fill="#ff5908" stroke="none" /><path d="M 112.34349029814194 116.9893568818739 l 8.886483706402391 12.231195510053912 a36.11858909651685,36.11858909651685 0 0,0 -0.506129225131436,0.3611097635668823 l -8.67462715342207 -12.382349535465014" fill="#ffbc11" stroke="none" /><path d="M 111.7513745106137 117.40417183066458 l 17.94687185895071 26.579907003558223 a53.07150863054933,53.07150863054933 0 0,0 -0.7615137298297557,0.5046897760566607 l -17.48668343038099 -26.884894800706203" fill="#7aff26" stroke="none" /><line stroke="#e1ed5e" stroke-width="0.3" x1="143.8653032363475" x2="146.44561519142675" y1="172.8068346515853" y2="177.08958963109032" /><path d="M 144.38136562736335 173.6633856474863 a86.0,86.0 0 0,1 -40.68145358897372,12.25698825130547" fill="none" id="id42" stroke="none" /><text fill="#e1ed5e" style="font-size:6.75px; font-family:Arial;" text-anchor="middle"><textPath startOffset="21.466115282336833" xlink:href="#id42">June</textPath></text><path d="M 110.8373102113329 117.98757091392108 l 7.836301841574362 13.006551656222507 a36.18479543946003,36.18479543946003 0 0,0 -0.5362795676678874,0.3168434212698349 l -7.611254402878092 -13.139513649786092" fill="#ffbd11" stroke="none" /><path d="M 110.5260780823613 118.17145234162733 l 1.5029305485335136 2.5945495199410558 a23.998414155039562,23.998414155039562 0 0,0 -0.3592348134082126,0.20398290250590181 l -1.458046968204103 -2.6200355882415858" fill="#ff1502" stroke="none" /><path d="M 110.21172684928248 118.3499491758327 l 2.3158715221982047 4.161502296066731 a25.762495382412176,25.762495382412176 0 0,0 -0.3893537306531842,0.21230669809153208 l -2.2438949796763703 -4.200749645918033" fill="#ff2e04" stroke="none" /><path d="M 109.89434966115114 118.52300852407294 l 1.0434171589390302 1.953359805453148 a23.214573073332275,23.214573073332275 0 0,0 -0.3540875690167513,0.1852418808975534 l -1.0096386873957832 -1.9710311052954181" fill="#ff0a01" stroke="none" /><path d="M 109.57404056367764 118.69057910512821 l 22.367177659877626 43.66552456404189 a70.06086701151412,70.06086701151412 0 0,0 -1.078090257101361,0.5405768356972326 l -21.612233495093502 -44.044069240648426" fill="#3cffa0" stroke="none" /><path d="M 108.59647513512805 119.15986991738528 l 8.125998480337634 18.111269024198766 a40.85069059174897,40.85069059174897 0 0,0 -0.6440390038514829,0.2823277727268293 l -7.813038801828398 -18.24846135022005" fill="#fff817" stroke="none" /><path d="M 107.93186726928326 119.44442032107085 l 2.8650004504879742 7.023349116680238 a28.585226456479027,28.585226456479027 0 0,0 -0.4571988144429406,0.18192884377502605 l -2.7436805600031673 -7.071624804861333" fill="#ff5608" stroke="none" /><path d="M 107.59598834532513 119.57807347666477 l 1.8513700526811219 4.771763367198308 a26.118329483776932,26.118329483776932 0 0,0 -0.4205421420219,0.15901305375202177 l -1.7689576898989472 -4.802924671056961" fill="#ff3404" stroke="none" /><path d="M 106.91757812671514 119.82793768551818 l 0.9879467110771352 2.831763583297906 a23.99915382993609,23.99915382993609 0 0,0 -0.3912207971372664,0.13272333537053566 l -0.9390561810026418 -2.8483499055665646" fill="#ff1502" stroke="none" /><path d="M 105.88484417918355 120.15858648285463 l 2.122181298549158 7.269551059724942 a28.57297999956819,28.57297999956819 0 0,0 -0.47331662743906106,0.13376400674628147 l -1.9967335030054925 -7.305003859809743" fill="#ff5608" stroke="none" /><path d="M 105.18746579009965 120.34920634021253 l 1.866131271315087 7.320393393318999 a28.55450894199805,28.55450894199805 0 0,0 -0.47733174142185897,0.11731652861792247 l -1.7398462451500176 -7.351431180250952" fill="#ff5608" stroke="none" /><path d="M 104.83641907484287 120.43548508189849 l 7.294876791898765 30.823289617427992 a52.67475982937878,52.67475982937878 0 0,0 -0.884132927401251,0.20122577578684478 l -6.763223715104651 -30.944292126792522" fill="#7eff26" stroke="none" /><path d="M 104.13013068566511 120.58985236759428 l 0.8879694479678301 4.426775139113432 a25.514956021136534,25.514956021136534 0 0,0 -0.4313636047753416,0.08267186150922629 l -0.8116382286207847 -4.441404198971127" fill="#ff2b04" stroke="none" /><path d="M 103.41894727170886 120.7198165907248 l 1.1702076062348392 7.091799038520439 a28.187697784718644,28.187697784718644 0 0,0 -0.47941117791157856,0.07487416640094491 l -1.0479605647147434 -7.11089151226849" fill="#ff5107" stroke="none" /><path d="M 103.06178313531737 120.77559828337769 l 1.7534560512049537 11.898000909073435 a33.02651378229866,33.02651378229866 0 0,0 -0.5631357294388201,0.07804548079576765 l -1.5483917305793025 -11.926420955361806" fill="#ff930d" stroke="none" /><path d="M 102.70371172650421 120.8252237178851 l 0.9676385796129384 7.453194695630819 a28.515745844008745,28.515745844008745 0 0,0 -0.48731043784053857,0.05900650755493675 l -0.8392007187210195 -7.468746731911106" fill="#ff5507" stroke="none" /><path d="M 101.98527174616119 120.90594882070398 l 3.1190887261531675 32.8456340560334 a53.99339920384798,53.99339920384798 0 0,0 -0.9260014060816739,0.07989929772743788 l -2.5532430023299515 -32.894457606039495" fill="#70ff27" stroke="none" /><path d="M 101.62511606390274 120.93702456842531 l 0.5824596185011275 7.504061779678305 a28.52663287270033,28.52663287270033 0 0,0 -0.48989362492779365,0.03378593261524843 l -0.4532032327944038 -7.512976056809839" fill="#ff5607" stroke="none" /><line stroke="#e1ed5e" stroke-width="0.3" x1="102.19456741930631" x2="102.32365962044197" y1="184.97166512339345" y2="189.96999836594603" /><path d="M 102.22038585953345 185.97133177190398 a86.0,86.0 0 0,1 -42.740103519485714,-10.115201625700543" fill="none" id="id43" stroke="none" /><text fill="#e1ed5e" style="font-size:6.75px; font-family:Arial;" text-anchor="middle"><textPath startOffset="22.20632615414155" xlink:href="#id43">July</textPath></text><path d="M 100.54218724476979 120.99299961872073 l 0.43060139532606795 16.672496476265977 a37.678056131119064,37.678056131119064 0 0,0 -0.6484937282034827,0.011164407635856478 l -0.14354797722991727 -16.677438361180993" fill="#ffd013" stroke="none" /><path d="M 99.81925306533755 120.99922214144158 l -0.3108064502197569 36.10956779624743 a57.11090537609501,57.11090537609501 0 0,0 -0.982961111887918,-0.01692256696716733 l 0.9323272520003429 -36.098867752001105" fill="#4fff2b" stroke="none" /><path d="M 99.09653310690486 120.98055641714683 l -0.6512682245963771 15.123929646197334 a36.13794564145002,36.13794564145002 0 0,0 -0.6212490266470576,-0.03211147851840482 l 0.9115053196569237 -15.110478360916728" fill="#ffbc11" stroke="none" /><path d="M 98.01472825383883 120.90594882070398 l -1.349974839539035 14.21594044201436 a35.27989477266159,35.27989477266159 0 0,0 -0.604071435973039,-0.06261447423768586 l 1.5944788721176677 -14.190596599320912" fill="#ffb110" stroke="none" /><path d="M 96.93821686468263 120.77559828337769 l -2.5056929150572778 17.002271919346676 a38.18591712431934,38.18591712431934 0 0,0 -0.6494590529535348,-0.10143214727131772 l 2.7979878316193303 -16.95662146472825" fill="#ffd614" stroke="none" /><path d="M 96.58105272829116 120.7198165907248 l -2.480001280426986 15.029530317829872 a36.232766916272524,36.232766916272524 0 0,0 -0.6144922477925696,-0.10683735388441211 l 2.7383424996916053 -14.984614385424454" fill="#ffbd11" stroke="none" /><path d="M 96.22490169976321 120.6578951692458 l -1.376126254012579 7.530366002192742 a28.655072540084973,28.655072540084973 0 0,0 -0.4844513694536898,-0.09284625795977425 l 1.5055452380379637 -7.5055625458845" fill="#ff5708" stroke="none" /><path d="M 95.51606077576429 120.51570834832081 l -4.771174750290776 21.829918908528978 a43.345233676351725,43.345233676351725 0 0,0 -0.7275391186081877,-0.16558553473120902 l 5.1462340182918265 -21.744556640220082" fill="#e8ff1a" stroke="none" /><path d="M 94.81253420990036 120.34920634021253 l -0.5972991832366241 2.3430639966281133 a23.41799818167633,23.41799818167633 0 0,0 -0.3897530559390028,-0.10293732448389147 l 0.6375426819871156 -2.3324353228406403" fill="#ff0d01" stroke="none" /><path d="M 94.46302465271185 120.25689768951611 l -3.0618623610008764 11.201753429614321 a32.61267759888261,32.61267759888261 0 0,0 -0.5402349553001944,-0.15267579462894873 l 3.2542284844056857 -11.147388841646851" fill="#ff8e0d" stroke="none" /><path d="M 93.08242187328487 119.8279376855182 l -3.4026637780758153 9.753096260077205 a31.329617971878783,31.329617971878783 0 0,0 -0.5076598175606536,-0.18202874890607906 l 3.5700431562661956 -9.693079970131167" fill="#ff7c0b" stroke="none" /><path d="M 92.7421414339146 119.70592522655815 l -5.246207347115633 14.244059561640158 a36.179457313240235,36.179457313240235 0 0,0 -0.5825405673494612,-0.22026699655667287 l 5.490618135225377 -14.151644314976853" fill="#ffbd11" stroke="none" /><path d="M 92.40401165467489 119.57807347666478 l -11.460621824137371 29.538867881402187 a52.68423217171007,52.68423217171007 0 0,0 -0.8426439624473762,-0.33530542284726095 l 11.967386862626606 -29.33721561414886" fill="#7eff26" stroke="none" /><path d="M 92.06813273071674 119.44442032107085 l -1.7131584590769602 4.1996886765731976 a25.53566939778949,25.53566939778949 0 0,0 -0.4055654545238131,-0.16952639288328614 l 1.7851953730982344 -4.1695772406699385" fill="#ff2b04" stroke="none" /><path d="M 91.7346041902142 119.30500536409082 l -2.969298944742507 6.935219241161648 a28.54413693845941,28.54413693845941 0 0,0 -0.4500177904791475,-0.19727457454226827 l 3.088237409879399 -6.883080113324928" fill="#ff5607" stroke="none" /><path d="M 91.07499286063937 119.00905698771935 l -12.858717425644883 27.38732737311558 a51.25578150494198,51.25578150494198 0 0,0 -0.7954099944860991,-0.3818451343390951 l 13.328240088131224 -27.16192796227692" fill="#8dff24" stroke="none" /><path d="M 90.7491055286396 118.85261126421891 l -16.70699142215761 34.047563254741064 a58.92571852932574,58.92571852932574 0 0,0 -0.9067436037970112,-0.45466006663225683 l 17.29058893363738 -33.754935347199506" fill="#3dff2e" stroke="none" /><line stroke="#e1ed5e" stroke-width="0.3" x1="58.666819895761336" x2="56.23545636021788" y1="174.27360380694188" y2="178.64263932499728" /><path d="M 58.180547188652646 175.14741091055294 a86.0,86.0 0 0,1 -31.652253787137756,-30.449443065178592" fill="none" id="id44" stroke="none" /><text fill="#e1ed5e" style="font-size:6.75px; font-family:Arial;" text-anchor="middle"><textPath startOffset="22.20632615414155" xlink:href="#id44">August</textPath></text><path d="M 89.7882731507175 118.34994917583269 l -18.60584278603399 33.43374480499799 a59.262157250530755,59.262157250530755 0 0,0 -0.8871015336482696,-0.5037194027333509 l 19.178593086603467 -33.10852223647001" fill="#3aff2e" stroke="none" /><path d="M 89.4739219176387 118.17145234162733 l -5.651396554778583 9.75615821536437 a32.274790736088406,32.274790736088406 0 0,0 -0.47833103966220214,-0.2826064094986859 l 5.818495465469168 -9.657433233571934" fill="#ff890c" stroke="none" /><path d="M 89.1626897886671 117.98757091392108 l -4.622819472305375 7.672871908141213 a29.957869344451744,29.957869344451744 0 0,0 -0.43941175637149466,-0.26992258996280216 l 4.754210428609179 -7.592160851350032" fill="#ff6909" stroke="none" /><path d="M 88.8546689885994 117.79835938074946 l -9.538853663085392 15.232920888783637 a38.973080092452115,38.973080092452115 0 0,0 -0.5655146064025205,-0.3609381782036274 l 9.799650071534836 -15.066468281756206" fill="#ffe015" stroke="none" /><path d="M 88.24862548938628 117.40417183066458 l -8.507737817027786 12.600239293204334 a36.20354014725831,36.20354014725831 0 0,0 -0.5134750088161752,-0.353172793178863 l 8.723369710466852 -12.451925710660367" fill="#ffbd11" stroke="none" /><path d="M 87.95078237400918 117.19931262002967 l -9.707008154635048 13.855992400420835 a37.91787612895517,37.91787612895517 0 0,0 -0.5313426062267878,-0.3790988415216347 l 9.944078088710722 -13.686849297054984" fill="#ffd313" stroke="none" /><path d="M 87.65650970185807 116.9893568818739 l -8.853783808145769 12.186187961292255 a36.0629567067468,36.0629567067468 0 0,0 -0.49906843952977414,-0.3691989005228088 l 9.062237218094106 -12.031979112029678" fill="#ffbb11" stroke="none" /><path d="M 87.07902340077011 116.55440617244103 l -9.366310163691995 12.00015351750281 a36.22272809078961,36.22272809078961 0 0,0 -0.48821770378259405,-0.3878696709443936 l 9.571485360191948 -11.837149932553285" fill="#ffbd11" stroke="none" /><path d="M 86.79598089348748 116.32954008644616 l -10.187500982077548 12.59898250113057 a37.20245463883869,37.20245463883869 0 0,0 -0.4944912562457662,-0.4069326390969317 l 10.402862366868003 -12.421754743176455" fill="#ffca12" stroke="none" /><path d="M 86.51685102203217 116.09983520530335 l -11.939202200611637 14.256253359414668 a39.59530341335983,39.59530341335983 0 0,0 -0.5187635683057905,-0.4421015672454665 l 12.182831245494485 -14.04862740194625" fill="#ffe815" stroke="none" /><path d="M 86.24171649860922 115.8653595955263 l -1.5591171087476647 1.7978953246106972 a23.379763382575394,23.379763382575394 0 0,0 -0.30177445962293353,-0.2662808739024604 l 1.589833921277186 -1.7707913089359482" fill="#ff0c01" stroke="none" /><path d="M 85.97065885151581 115.62618273729859 l -13.026575885192837 14.509281160741011 a40.498997899741454,40.498997899741454 0 0,0 -0.5147238469324715,-0.4701880301881876 l 13.274399281592164 -14.282900363966245" fill="#fff316" stroke="none" /><path d="M 85.70375840098266 115.38237550388516 l -12.90396474126844 13.884322656713435 a39.954860107097204,39.954860107097204 0 0,0 -0.4997480948601105,-0.47254301639356233 l 13.141048670519368 -13.660145003573943" fill="#ffed16" stroke="none" /><path d="M 85.18274418774928 114.88116024355367 l -5.291250401052707 5.314070709485334 a28.499111834880875,28.499111834880875 0 0,0 -0.34464841085993975,-0.3491270206014848 l 5.3819394369681826 -5.222203194903182" fill="#ff5507" stroke="none" /><path d="M 84.9287848128048 114.62390073753433 l -5.359841110193009 5.2007607476146385 a28.46832036541311,28.46832036541311 0 0,0 -0.33822187735312254,-0.3546242862115023 l 5.448569538925089 -5.107729344820636" fill="#ff5507" stroke="none" /><path d="M 84.4343377721795 114.09645910891817 l -11.60079584698456 10.505826343555638 a36.65090577073295,36.65090577073295 0 0,0 -0.4194628978270666,-0.4712710124043539 l 11.779917594459963 -10.304581161410418" fill="#ffc312" stroke="none" /><path d="M 83.95833913139862 113.55231037782056 l -11.70484740722143 9.88848513174704 a36.32271487129877,36.32271487129877 0 0,0 -0.39938381707187304,-0.4810835358342023 l 11.873327224186843 -9.685540338799074" fill="#ffbe11" stroke="none" /><path d="M 83.50135304334701 112.99209946851258 l -11.822637663046525 9.309907951969654 a36.04822738351046,36.04822738351046 0 0,0 -0.37969629279073613,-0.4908086420073754 l 11.98114077305533 -9.105021315849026" fill="#ffbb11" stroke="none" /><path d="M 83.28015986056508 112.70617746262583 l -5.947488095923055 4.519770438798406 a28.470002641939452,28.470002641939452 0 0,0 -0.2931579670705033,-0.3927330040812302 l 6.024407329688644 -4.4167245552078676" fill="#ff5507" stroke="none" /><path d="M 83.06392112726016 112.41649034213515 l -28.52411116696145 20.912122190965583 a56.368655224577736,56.368655224577736 0 0,0 -0.5669618600020527,-0.7874604356572492 l 28.879852819339114 -20.418028149857193" fill="#57ff2a" stroke="none" /><path d="M 82.85270091963577 112.12312394758628 l -12.244076996144948 8.656550652809992 a35.99510889230855,35.99510889230855 0 0,0 -0.35333329017431875,-0.5090029573381423 l 12.391271193481401 -8.444506433284836" fill="#ffba11" stroke="none" /><path d="M 82.24976979558568 111.22182372390057 l -12.785471382989119 8.083067342484258 a36.12627700884686,36.12627700884686 0 0,0 -0.3277777717778989,-0.5284821348205936 l 12.922713794434973 -7.8617888762984" fill="#ffbc11" stroke="none" /><line stroke="#e1ed5e" stroke-width="0.3" x1="26.63291911575756" x2="22.317208475507996" y1="142.92168965132927" y2="145.44649492493687" /><path d="M 25.769776987707644 143.4266507060508 a86.0,86.0 0 0,1 -11.730757126820373,-40.83630448921669" fill="none" id="id45" stroke="none" /><text fill="#e1ed5e" style="font-size:6.75px; font-family:Arial;" text-anchor="middle"><textPath startOffset="21.46611528233685" xlink:href="#id45">September</textPath></text><path d="M 81.87401531095188 110.60418214915194 l -13.101903674404735 7.664961404716211 a36.1793120143559,36.1793120143559 0 0,0 -0.3098465260172488,-0.5402435351524804 l 13.23190219657436 -7.438298023705422" fill="#ffbd11" stroke="none" /><path d="M 81.69416730710424 110.29060199501025 l -27.793305236965843 15.623973359619201 a52.88379462261736,52.88379462261736 0 0,0 -0.4392467304716905,-0.7973604036435913 l 28.05812837688905 -15.143242437577788" fill="#7cff26" stroke="none" /><path d="M 81.18737489456691 109.33194174019688 l -2.8505430244420995 1.414002632962472 a24.18198035509654,24.18198035509654 0 0,0 -0.18176413560280147,-0.37448795610037716 l 2.8744604166596197 -1.36472572089681" fill="#ff1802" stroke="none" /><path d="M 81.02952815118164 109.00673069616217 l -6.786838516067358 3.2222301732767415 a28.51291849634684,28.51291849634684 0 0,0 -0.20668523538672334,-0.4451816094412629 l 6.8412983682939075 -3.104928496556653" fill="#ff5507" stroke="none" /><path d="M 80.87730276802145 108.67885076344099 l -15.179352498075358 6.889160740157301 a37.66953142606448,37.66953142606448 0 0,0 -0.262895507832622,-0.5927599677754133 l 15.295689090639259 -6.626852435889192" fill="#ffd013" stroke="none" /><path d="M 80.58989483394504 108.01547362559985 l -9.457267116720198 3.9054129019812263 a31.23191825866287,31.23191825866287 0 0,0 -0.20092145278439577,-0.4986705683624519 l 9.523091183761982 -3.742042965775969" fill="#ff7b0b" stroke="none" /><path d="M 80.20201598880116 107.00284435728193 l -14.165455848203756 5.010534532142658 a36.025498184260115,36.025498184260115 0 0,0 -0.20175851934795544,-0.5864046982946248 l 14.249605198494939 -4.7659571307587365" fill="#ffbb11" stroke="none" /><path d="M 79.86692584326677 105.97154293290107 l -14.679277291105173 4.353926970386605 a36.31136381425952,36.31136381425952 0 0,0 -0.1725781653985991,-0.6007672338808282 l 14.752048093389876 -4.100602261001181" fill="#ffbe11" stroke="none" /><path d="M 79.76711848015287 105.62410040840567 l -8.727291892195323 2.4259108049945275 a30.058182323477897,30.058182323477897 0 0,0 -0.13427694787786618,-0.4996944753042324 l 8.767756916414962 -2.275325396514756" fill="#ff6b09" stroke="none" /><path d="M 79.50377843672027 104.57218783832718 l -11.368862341261037 2.536105202212295 a32.64829861100889,32.64829861100889 0 0,0 -0.11763642373397587,-0.5495582085031466 l 11.410832803719453 -2.340033174292984" fill="#ff8e0d" stroke="none" /><path d="M 79.23777060512086 103.15116336523772 l -7.487238547050882 1.1363669752190309 a28.572982963325156,28.572982963325156 0 0,0 -0.0696173232669086,-0.48690339678346645 l 7.50568992133439 -1.0073181064551644" fill="#ff5608" stroke="none" /><path d="M 79.18660465613746 102.79330883721812 l -14.899981594163954 1.9996857587985295 a36.03356892558671,36.03356892558671 0 0,0 -0.07721220086195592,-0.6154572106318519 l 14.932195304272758 -1.7429107938792692" fill="#ffbb11" stroke="none" /><path d="M 79.1416061653843 102.43462659150553 l -30.121098623793007 3.5157849763650444 a51.32558863904045,51.32558863904045 0 0,0 -0.09487339167006233,-0.8784097780142751 l 30.17715431696412 -2.9967788764659873" fill="#8dff24" stroke="none" /><path d="M 79.07016306316243 101.71520430193888 l -7.774739736983899 0.6371414685921034 a28.800802986157013,28.800802986157013 0 0,0 -0.03623887276784549,-0.4944506269987576 l 7.784555168416079 -0.5032177050965849" fill="#ff5908" stroke="none" /><path d="M 79.0235259727143 100.99374915477108 l -20.465779186763857 0.9695552618673243 a41.488732394347664,41.488732394347664 0 0,0 -0.027654941153721798,-0.7136511492088491 l 20.479436260768782 -0.6171268656444783" fill="#ffff18" stroke="none" /><line stroke="#e1ed5e" stroke-width="0.3" x1="15.007084014347285" x2="10.007500721073583" y1="101.09737516637583" y2="101.16192664675087" /><path d="M 14.007167355692545 101.11028546245083 a86.0,86.0 0 0,1 10.666146001902534,-42.60595125391555" fill="none" id="id46" stroke="none" /><text fill="#e1ed5e" style="font-size:6.75px; font-family:Arial;" text-anchor="middle"><textPath startOffset="22.20632615414155" xlink:href="#id46">October</textPath></text><path d="M 79.05617556472873 98.46500227214037 l -18.582652636514123 -1.3619446468724445 a39.63249506186678,39.63249506186678 0 0,0 0.055722374962992836,-0.6799541141486695 l 18.55645577773163 1.681612678228892" fill="#ffe815" stroke="none" /><path d="M 79.08570108090925 98.10471618934814 l -1.645394536642078 -0.1491080164578768 a22.65213691375249,22.65213691375249 0 0,0 0.03853330666661565,-0.3880251395100091 l 1.6425841042932334 0.17740868667231652" fill="#ff0100" stroke="none" /><path d="M 79.21141760316559 97.0276538004421 l -31.50112291188194 -4.504022505315058 a52.82148587727917,52.82148587727917 0 0,0 0.13644068136292972,-0.8989736160622943 l 31.418926337079707 5.045595233769443" fill="#7cff26" stroke="none" /><path d="M 79.32604984820605 96.31383870115002 l -16.32446480531801 -2.9106489058928267 a37.58191871387149,37.58191871387149 0 0,0 0.11903495796817079,-0.6358895052408646 l 16.271944123439976 3.1912164885962633" fill="#ffcf13" stroke="none" /><path d="M 79.71946130924805 94.55025226153421 l -14.56316549625865 -3.9133861007513446 a36.07980039804812,36.07980039804812 0 0,0 0.16633342827886385,-0.5983898406448046 l 14.493645297413426 4.163487244815092" fill="#ffbb11" stroke="none" /><path d="M 80.14247586403 93.16781622104843 l -13.49514063509473 -4.643140822110377 a35.2715653470435,35.2715653470435 0 0,0 0.20247040655245593,-0.5724111042819675 l 13.413217147732464 4.8747495528189555" fill="#ffb110" stroke="none" /><path d="M 80.38941819471856 92.48833698450439 l -12.188945170473735 -4.668869569708184 a34.05253720269596,34.05253720269596 0 0,0 0.2143792886233372,-0.5455719060795758 l 12.106772331968706 4.877990480683523" fill="#ffa10e" stroke="none" /><path d="M 80.52162464483688 92.15188598940014 l -14.29324608786468 -5.758951803410449 a36.40981536561238,36.40981536561238 0 0,0 0.23922690023486293,-0.5793069142262316 l 14.191997500743618 6.004133288089992" fill="#ffc011" stroke="none" /><path d="M 80.95270993114464 91.15688171328213 l -15.818860679967564 -7.34424979345474 a38.44059512289887,38.44059512289887 0 0,0 0.2838047284596285,-0.5977651373654399 l 15.690097757666184 7.615457346460711" fill="#ffda14" stroke="none" /><path d="M 81.6062741919709 89.86733742301443 l -30.651065768688817 -16.884937304194544 a55.99412722905185,55.99412722905185 0 0,0 0.47233008433933227,-0.8402225160325647 l 30.355878043057054 17.410043330161894" fill="#5bff2a" stroke="none" /><line stroke="#e1ed5e" stroke-width="0.3" x1="26.266209847984243" x2="21.928928074336255" y1="57.71137044288968" y2="55.22380399835378" /><path d="M 25.398753493254645 57.2138571539825 a86.0,86.0 0 0,1 29.58750427330803,-30.4925239686951" fill="none" id="id47" stroke="none" /><text fill="#e1ed5e" style="font-size:6.75px; font-family:Arial;" text-anchor="middle"><textPath startOffset="21.46611528233685" xlink:href="#id47">November</textPath></text><path d="M 81.96595687620814 89.24020034530311 l -2.56560659058726 -1.5307389872584776 a23.98755736761286,23.98755736761286 0 0,0 0.2146134793846437,-0.35276813129347273 l 2.5388773129163993 1.5746748917590248" fill="#ff1502" stroke="none" /><path d="M 82.15384107792192 88.93136811851018 l -4.830183857325853 -2.9958002318646217 a26.683792318937364,26.683792318937364 0 0,0 0.24545582397726898,-0.3882521671884124 l 4.7779004371026215 3.0785000467672496" fill="#ff3c05" stroke="none" /><path d="M 82.34701348167596 88.62581576622439 l -4.437424398388409 -2.8591242948228572 a26.278761883686272,26.278761883686272 0 0,0 0.24827594173101875,-0.378141292489626 l 4.38755182129947 2.9350836512901526" fill="#ff3605" stroke="none" /><path d="M 82.7489923806493 88.02491185347247 l -6.024451261808811 -4.181978032036531 a28.33368619906428,28.33368619906428 0 0,0 0.28156584496103504,-0.3982549197085131 l 5.951572797043898 4.285059452076831" fill="#ff5307" stroke="none" /><path d="M 83.17141714833178 87.43820079747577 l -4.13773529373338 -3.0886379662042565 a26.16338434045784,26.16338434045784 0 0,0 0.2725029352581864,-0.35858192036474823 l 4.083956418251085 3.159404662450031" fill="#ff3405" stroke="none" /><path d="M 83.39014120810768 87.1503855733568 l -3.1197223460120598 -2.4134599677635604 a24.94429417414628,24.94429417414628 0 0,0 0.2656518859291141,-0.33735091775858483 l 3.0777163794889746 2.466803279475191" fill="#ff2303" stroke="none" /><path d="M 84.5562425177563 85.77008943001954 l -1.3035932753024382 -1.2011335808989037 a22.772590563716495,22.772590563716495 0 0,0 0.26810135955894765,-0.28599183755077673 l 1.2827245937730323 1.2233948353277329" fill="#ff0300" stroke="none" /><path d="M 84.80347519578584 85.50635884689758 l -9.173800198876457 -8.749485149124565 a33.67722763318767,33.67722763318767 0 0,0 0.4037029378418221,-0.4160513639360822 l 9.021832997331519 8.906100708610769" fill="#ff9c0e" stroke="none" /><path d="M 87.80319425747018 82.90503203632743 l -11.90757461418425 -16.689583391880664 a41.50201275452984,41.50201275452984 0 0,0 0.5851168391056212,-0.40991173814731746 l 11.618526635494968 16.892079972791922" fill="#feff18" stroke="none" /><path d="M 88.09926311788651 82.69761687909137 l -2.970813483144139 -4.319241201221504 a26.242287411613407,26.242287411613407 0 0,0 0.3743841007882762,-0.25278581606686096 l 2.8960246879493257 4.369738929587031" fill="#ff3505" stroke="none" /><path d="M 88.39885842347998 82.49532879139004 l -32.97852247489613 -49.76046443887775 a80.69662273361908,80.69662273361908 0 0,0 1.164463695053891,-0.7573995789280212 l 32.11709175405795 50.320762941965306" fill="#49f1ff" stroke="none" /><line stroke="#e1ed5e" stroke-width="0.3" x1="56.76296977257108" x2="54.21961505331056" y1="26.818313649435495" y2="22.513508569990535" /><path d="M 56.25429882871898 25.957352633546506 a86.0,86.0 0 0,1 42.26535254187918,-11.944610805530505" fill="none" id="id48" stroke="none" /><text fill="#e1ed5e" style="font-size:6.75px; font-family:Arial;" text-anchor="middle"><textPath startOffset="22.20632615414155" xlink:href="#id48">December</textPath></text><path d="M 89.63071344664047 81.73862282372117 l -1.1240799898129352 -1.9796201565700864 a23.276499898483728,23.276499898483728 0 0,0 0.3501183623165708,-0.19484048956406505 l 1.0898375384243189 1.998676043694336" fill="#ff0a01" stroke="none" /><path d="M 96.75951476605007 79.25152402106235 l -1.110416694797587 -7.109877828554592 a28.196067535331874,28.196067535331874 0 0,0 0.4801803990744475,-0.07076610876580111 l 0.9878673152944903 7.127938421481362" fill="#ff5107" stroke="none" /></svg>