<?xml version="1.0" encoding="utf-8" ?>
<svg baseProfile="full" height="200mm" version="1.1" viewBox="0,0,200,200" width="200mm" xmlns="http://www.w3.org/2000/svg" xmlns:ev="http://www.w3.org/2001/xml-events" xmlns:xlink="http://www.w3.org/1999/xlink"><defs /><rect fill="#1a1a1a" height="200" width="200" x="0" y="0" /><text alignment-baseline="middle" fill="#e1ed5e" style="dominant-baseline: central; font-size:9.0px; font-family:Arial;" text-anchor="middle" x="100.0" y="100.0">2022</text><line stroke="#e1ed5e" stroke-width="0.3" x1="100.0" x2="100.0" y1="15.0" y2="10.0" /><path d="M 100.0 14.0 a86.0,86.0 0 0,1 42.46469731375804,11.215312516191453" fill="none" id="id49" stroke="none" /><text fill="#e1ed5e" style="font-size:6.75px; font-family:Arial;" text-anchor="middle"><textPath startOffset="22.20632615414155" xlink:href="#id49">January</textPath></text><path d="M 101.44485096284872 79.0497635885617 l 0.4300988658273469 -6.236403027761875 a27.25121650233484,27.25121650233484 0 0,0 0.4676955132977306,0.036302173176105054 l -0.5373845684874188 6.228075592397305" fill="#ff0000" stroke="none" /><path d="M 102.16513564639614 79.11191278185805 l 0.66838444028664 -6.448220695638566 a27.482768536642258,27.482768536642258 0 0,0 0.4701297875284382,0.052824559427130276 l -0.7792809313248035 6.435760182740835" fill="#ff0400" stroke="none" /><line stroke="#e1ed5e" stroke-width="0.3" x1="143.23703022742887" x2="145.7803849466894" y1="26.81831364943548" y2="22.513508569990506" /><path d="M 143.74570117128098 25.957352633546492 a86.0,86.0 0 0,1 28.547481713284135,27.462654790039103" fill="none" id="id50" stroke="none" /><text fill="#e1ed5e" style="font-size:6.75px; font-family:Arial;" text-anchor="middle"><textPath startOffset="19.985693538727396" xlink:href="#id50">February</textPath></text><path d="M 115.68641384162765 86.03803664274999 l 13.006725835123548 -11.576860800769802 a38.41259954603191,38.41259954603191 0 0,0 0.4353576777657833,0.4976890848705235 l -13.204075376467179 11.35125615969633" fill="#ffa90f" stroke="none" /><line stroke="#e1ed5e" stroke-width="0.3" x1="172.23445277983987" x2="176.4835382374775" y1="55.19839476539836" y2="52.563006222186495" /><path d="M 173.08426987136738 54.67131705675599 a86.0,86.0 0 0,1 12.851231095245387,41.99856678651699" fill="none" id="id51" stroke="none" /><text fill="#e1ed5e" style="font-size:6.75px; font-family:Arial;" text-anchor="middle"><textPath startOffset="22.20632615414155" xlink:href="#id51">March</textPath></text><line stroke="#e1ed5e" stroke-width="0.3" x1="184.98032266829074" x2="189.97916517819016" y1="98.17113171792111" y2="98.06355123074" /><path d="M 185.9800911702706 98.14961562048488 a86.0,86.0 0 0,1 -9.607161424134198,41.387399972396054" fill="none" id="id52" stroke="none" /><text fill="#e1ed5e" style="font-size:6.75px; font-family:Arial;" text-anchor="middle"><textPath startOffset="21.466115282336823" xlink:href="#id52">April</textPath></text><path d="M 120.89721153311464 102.0752229133903 l 12.353279539872714 1.226757393733408 a33.41404241547923,33.41404241547923 0 0,0 -0.0617645821007208,0.5718633211819445 l -12.330332656270942 -1.4392170368001436" fill="#ff5f08" stroke="none" /><path d="M 119.54520255179757 107.68017299344265 l 15.168864288805178 5.960516476784412 a37.297920127495026,37.297920127495026 0 0,0 -0.23994530966005945,0.5955245808046348 l -15.064016364887728 -6.220740425431861" fill="#ff990e" stroke="none" /><line stroke="#e1ed5e" stroke-width="0.3" x1="174.80103733775053" x2="179.2010983576182" y1="140.37084112569926" y2="142.7455964860345" /><path d="M 175.68104954172406 140.8457921977663 a86.0,86.0 0 0,1 -30.038265399797805,32.042727171017184" fill="none" id="id53" stroke="none" /><text fill="#e1ed5e" style="font-size:6.75px; font-family:Arial;" text-anchor="middle"><textPath startOffset="22.206326154141568" xlink:href="#id53">May</textPath></text><line stroke="#e1ed5e" stroke-width="0.3" x1="143.8653032363475" x2="146.44561519142675" y1="172.8068346515853" y2="177.08958963109032" /><path d="M 144.38136562736335 173.6633856474863 a86.0,86.0 0 0,1 -40.68145358897372,12.25698825130547" fill="none" id="id54" stroke="none" /><text fill="#e1ed5e" style="font-size:6.75px; font-family:Arial;" text-anchor="middle"><textPath startOffset="21.466115282336833" xlink:href="#id54">June</textPath></text><path d="M 104.48393922423573 120.51570834832081 l 5.736514003764382 26.246709054658925 a47.86628610573668,47.86628610573668 0 0,0 -0.80645241589876,0.168999944741554 l -5.283870126436244 -26.34156498012702" fill="#d6ff1c" stroke="none" /><line stroke="#e1ed5e" stroke-width="0.3" x1="102.19456741930631" x2="102.32365962044197" y1="184.97166512339345" y2="189.96999836594603" /><path d="M 102.22038585953345 185.97133177190398 a86.0,86.0 0 0,1 -42.740103519485714,-10.115201625700543" fill="none" id="id55" stroke="none" /><text fill="#e1ed5e" style="font-size:6.75px; font-family:Arial;" text-anchor="middle"><textPath startOffset="22.20632615414155" xlink:href="#id55">July</textPath></text><path d="M 98.01472825383883 120.90594882070398 l -5.214925316946732 54.915888462470825 a76.16294273952278,76.16294273952278 0 0,0 -1.3040815026536696,-0.13517337981760696 l 6.159439416205996 -54.81798571419746" fill="#42ffda" stroke="none" /><path d="M 96.22490169976321 120.6578951692458 l -8.625344424266261 47.199157940855386 a68.98079904256528,68.98079904256528 0 0,0 -1.1662103634682137,-0.22350699176273567 l 9.43652240230617 -47.04369375074418" fill="#39ff86" stroke="none" /><path d="M 95.86986931433489 120.58985236759428 l -5.909688635023834 29.46144463561826 a51.04831342655574,51.04831342655574 0 0,0 -0.86006329380687,-0.18023462545600547 l 6.415943390260091 -29.355354029435713" fill="#aeff20" stroke="none" /><path d="M 93.42475214034765 119.94407469862007 l -7.3477635875909675 22.287273268883734 a44.46725760503402,44.46725760503402 0 0,0 -0.7248803891181178,-0.24591878471811304 l 7.73031370964631 -22.157491497267497" fill="#fffc17" stroke="none" /><path d="M 92.06813273071674 119.44442032107085 l -9.814121074189865 24.058634463971675 a46.98335745683885,46.98335745683885 0 0,0 -0.74620431621374,-0.31191346469630526 l 10.226796849901065 -23.886135956255394" fill="#e1ff1b" stroke="none" /><path d="M 91.07499286063937 119.00905698771935 l -23.457520704975725 49.961343549517174 a76.19412221330498,76.19412221330498 0 0,0 -1.1824142477217834,-0.5676306941019649 l 24.31404762069775 -49.55015857891565" fill="#42ffda" stroke="none" /><path d="M 90.42595943632237 118.69057910512821 l -3.4041472479769723 6.645625010740287 a28.46676303824395,28.46676303824395 0 0,0 -0.43419824651295397,-0.22715200109912373 l 3.518036397016422 -6.5860435906964465" fill="#ff1302" stroke="none" /><line stroke="#e1ed5e" stroke-width="0.3" x1="58.666819895761336" x2="56.23545636021788" y1="174.27360380694188" y2="178.64263932499728" /><path d="M 58.180547188652646 175.14741091055294 a86.0,86.0 0 0,1 -31.652253787137756,-30.449443065178592" fill="none" id="id56" stroke="none" /><text fill="#e1ed5e" style="font-size:6.75px; font-family:Arial;" text-anchor="middle"><textPath startOffset="22.20632615414155" xlink:href="#id56">August</textPath></text><path d="M 89.1626897886671 117.98757091392108 l -19.94544558220998 33.10508879265808 a59.64929111177429,59.64929111177429 0 0,0 -0.8749153510342544,-0.5374444678028195 l 20.512340133176544 -32.75685585802688" fill="#4aff2c" stroke="none" /><path d="M 86.51685102203217 116.09983520530335 l -40.44944693390351 48.29950561591003 a84.0,84.0 0 0,0 -1.1005380936917737,-0.937902439108194 l 41.274850504172335 -47.596078786578886" fill="#4dd2ff" stroke="none" /><path d="M 85.18274418774928 114.88116024355367 l -41.0544646371512 41.23152591275626 a79.18511661703008,79.18511661703008 0 0,0 -0.9576096533793086,-0.9700535230943064 l 41.75811491558604 -40.518731895681285" fill="#46fffb" stroke="none" /><line stroke="#e1ed5e" stroke-width="0.3" x1="26.63291911575756" x2="22.317208475507996" y1="142.92168965132927" y2="145.44649492493687" /><path d="M 25.769776987707644 143.4266507060508 a86.0,86.0 0 0,1 -11.730757126820373,-40.83630448921669" fill="none" id="id57" stroke="none" /><text fill="#e1ed5e" style="font-size:6.75px; font-family:Arial;" text-anchor="middle"><textPath startOffset="21.46611528233685" xlink:href="#id57">September</textPath></text><path d="M 80.58989483394504 108.01547362559985 l -28.500366377331606 11.76933010218536 a51.83485065143563,51.83485065143563 0 0,0 -0.33346441968417584,-0.8276313424381019 l 28.698733411273167 -11.276999391904454" fill="#a4ff21" stroke="none" /><line stroke="#e1ed5e" stroke-width="0.3" x1="15.007084014347285" x2="10.007500721073583" y1="101.09737516637583" y2="101.16192664675087" /><path d="M 14.007167355692545 101.11028546245083 a86.0,86.0 0 0,1 10.666146001902534,-42.60595125391555" fill="none" id="id58" stroke="none" /><text fill="#e1ed5e" style="font-size:6.75px; font-family:Arial;" text-anchor="middle"><textPath startOffset="22.20632615414155" xlink:href="#id58">October</textPath></text><path d="M 79.54389044137918 95.25157060432595 l -28.868126945182244 -6.701091534132132 a50.635677503171316,50.635677503171316 0 0,0 0.2043925994685853,-0.847339279978402 l 28.748501545452843 7.197016045769931" fill="#b3ff20" stroke="none" /><path d="M 80.2630227832202 92.82701384747504 l -28.23016708939994 -10.259656045180845 a51.03669216243452,51.03669216243452 0 0,0 0.30718112892317473,-0.8230927046653581 l 28.049381371975137 10.744071886875545" fill="#aeff20" stroke="none" /><path d="M 80.52162464483688 92.15188598940014 l -17.162016610571612 -6.914820181646843 a39.50269040669617,39.50269040669617 0 0,0 0.25954831360822084,-0.6285168285898675 l 17.04044661007719 7.209211580690021" fill="#ffb811" stroke="none" /><line stroke="#e1ed5e" stroke-width="0.3" x1="26.266209847984243" x2="21.928928074336255" y1="57.71137044288968" y2="55.22380399835378" /><path d="M 25.398753493254645 57.2138571539825 a86.0,86.0 0 0,1 29.58750427330803,-30.4925239686951" fill="none" id="id59" stroke="none" /><text fill="#e1ed5e" style="font-size:6.75px; font-family:Arial;" text-anchor="middle"><textPath startOffset="21.46611528233685" xlink:href="#id59">November</textPath></text><path d="M 82.7489923806493 88.02491185347247 l -37.09377267362575 -25.749289969338093 a66.15499867221435,66.15499867221435 0 0,0 0.6574149218943964,-0.9298667846963594 l 36.645045131927475 26.38398325436624" fill="#35ff63" stroke="none" /><line stroke="#e1ed5e" stroke-width="0.3" x1="56.76296977257108" x2="54.21961505331056" y1="26.818313649435495" y2="22.513508569990535" /><path d="M 56.25429882871898 25.957352633546506 a86.0,86.0 0 0,1 42.26535254187918,-11.944610805530505" fill="none" id="id60" stroke="none" /><text fill="#e1ed5e" style="font-size:6.75px; font-family:Arial;" text-anchor="middle"><textPath startOffset="22.20632615414155" xlink:href="#id60">December</textPath></text><path d="M 91.90106846888425 80.62456947434976 l -6.0740746343257594 -14.531276210058262 a36.74967843977663,36.74967843977663 0 0,0 0.5857481029158741,-0.23894135843836234 l 5.823042661821505 14.633678454680203" fill="#ff910d" stroke="none" /></svg>