<?xml version="1.0" encoding="utf-8" ?>
<svg baseProfile="full" height="200mm" version="1.1" viewBox="0,0,200,200" width="200mm" xmlns="http://www.w3.org/2000/svg" xmlns:ev="http://www.w3.org/2001/xml-events" xmlns:xlink="http://www.w3.org/1999/xlink"><defs /><rect fill="#1a1a1a" height="200" width="200" x="0" y="0" /><text alignment-baseline="middle" fill="#e1ed5e" style="dominant-baseline: central; font-size:9.0px; font-family:Arial;" text-anchor="middle" x="100.0" y="100.0">2022</text><line stroke="#e1ed5e" stroke-width="0.3" x1="100.0" x2="100.0" y1="15.0" y2="10.0" /><path d="M 100.0 14.0 a86.0,86.0 0 0,1 42.46469731375804,11.215312516191453" fill="none" id="id49" stroke="none" /><text fill="#e1ed5e" style="font-size:6.75px; font-family:Arial;" text-anchor="middle"><textPath startOffset="22.20632615414155" xlink:href="#id49">January</textPath></text><path d="M 101.44485096284872 79.0497635885617 l 0.42992869322384963 -6.23393553708935 a27.248743150573773,27.248743150573773 0 0,0 0.4676530647148808,0.036298878349103544 l -0.5371719473010717 6.225611396551781" fill="#ff0000" stroke="none" /><path d="M 102.16513564639614 79.11191278185805 l 0.6683229556752281 -6.447627524523453 a27.482172187475037,27.482172187475037 0 0,0 0.47011958617238103,0.0528234131859144 l -0.7792092453573345 6.435168157866937" fill="#ff0400" stroke="none" /><line stroke="#e1ed5e" stroke-width="0.3" x1="143.23703022742887" x2="145.7803849466894" y1="26.81831364943548" y2="22.513508569990506" /><path d="M 143.74570117128098 25.957352633546492 a86.0,86.0 0 0,1 28.547481713284135,27.462654790039103" fill="none" id="id50" stroke="none" /><text fill="#e1ed5e" style="font-size:6.75px; font-family:Arial;" text-anchor="middle"><textPath startOffset="19.985693538727396" xlink:href="#id50">February</textPath></text><path d="M 115.68641384162765 86.03803664274999 l 13.001847940947837 -11.572519146875585 a38.40606932320826,38.40606932320826 0 0,0 0.4352836660436557,0.4976044766779118 l -13.199123470569342 11.346999113994725" fill="#ffa90f" stroke="none" /><line stroke="#e1ed5e" stroke-width="0.3" x1="172.23445277983987" x2="176.4835382374775" y1="55.19839476539836" y2="52.563006222186495" /><path d="M 173.08426987136738 54.67131705675599 a86.0,86.0 0 0,1 12.851231095245387,41.99856678651699" fill="none" id="id51" stroke="none" /><text fill="#e1ed5e" style="font-size:6.75px; font-family:Arial;" text-anchor="middle"><textPath startOffset="22.20632615414155" xlink:href="#id51">March</textPath></text><line stroke="#e1ed5e" stroke-width="0.3" x1="184.98032266829074" x2="189.97916517819016" y1="98.17113171792111" y2="98.06355123074" /><path d="M 185.9800911702706 98.14961562048488 a86.0,86.0 0 0,1 -9.607161424134198,41.387399972396054" fill="none" id="id52" stroke="none" /><text fill="#e1ed5e" style="font-size:6.75px; font-family:Arial;" text-anchor="middle"><textPath startOffset="21.466115282336823" xlink:href="#id52">April</textPath></text><path d="M 120.89721153311464 102.0752229133903 l 12.352718246626788 1.2267016538274766 a33.413478361363886,33.413478361363886 0 0,0 -0.06176353946821668,0.5718536676998626 l -12.329772405657518 -1.4391516434121308" fill="#ff6008" stroke="none" /><path d="M 119.54520255179757 107.68017299344265 l 15.168938849693362 5.960545775049206 a37.29800023813331,37.29800023813331 0 0,0 -0.2399458250285221,0.5955258599069043 l -15.064090410407447 -6.220771002798924" fill="#ff990e" stroke="none" /><line stroke="#e1ed5e" stroke-width="0.3" x1="174.80103733775053" x2="179.2010983576182" y1="140.37084112569926" y2="142.7455964860345" /><path d="M 175.68104954172406 140.8457921977663 a86.0,86.0 0 0,1 -30.038265399797805,32.042727171017184" fill="none" id="id53" stroke="none" /><text fill="#e1ed5e" style="font-size:6.75px; font-family:Arial;" text-anchor="middle"><textPath startOffset="22.206326154141568" xlink:href="#id53">May</textPath></text><line stroke="#e1ed5e" stroke-width="0.3" x1="143.8653032363475" x2="146.44561519142675" y1="172.8068346515853" y2="177.08958963109032" /><path d="M 144.38136562736335 173.6633856474863 a86.0,86.0 0 0,1 -40.68145358897372,12.25698825130547" fill="none" id="id54" stroke="none" /><text fill="#e1ed5e" style="font-size:6.75px; font-family:Arial;" text-anchor="middle"><textPath startOffset="21.466115282336833" xlink:href="#id54">June</textPath></text><path d="M 104.48393922423573 120.51570834832081 l 5.736627558218762 26.247228608995236 a47.86681792461796,47.86681792461796 0 0,0 -0.8064613759969111,0.16900182241723896 l -5.283974720792473 -26.342086412139018" fill="#d6ff1c" stroke="none" /><line stroke="#e1ed5e" stroke-width="0.3" x1="102.19456741930631" x2="102.32365962044197" y1="184.97166512339345" y2="189.96999836594603" /><path d="M 102.22038585953345 185.97133177190398 a86.0,86.0 0 0,1 -42.740103519485714,-10.115201625700543" fill="none" id="id55" stroke="none" /><text fill="#e1ed5e" style="font-size:6.75px; font-family:Arial;" text-anchor="middle"><textPath startOffset="22.20632615414155" xlink:href="#id55">July</textPath></text><path d="M 98.01472825383883 120.90594882070398 l -5.214992508281658 54.91659602233605 a76.16365348254129,76.16365348254129 0 0,0 -1.304093672178511,-0.13517464123861486 l 6.159518777065762 -54.81869201264168" fill="#42ffda" stroke="none" /><path d="M 96.22490169976321 120.6578951692458 l -8.62406958624315 47.192181839004604 a68.97370741306159,68.97370741306159 0 0,0 -1.1660904702234864,-0.22348401393703538 l 9.435127671038332 -47.0367406267191" fill="#39ff86" stroke="none" /><path d="M 95.86986931433489 120.58985236759428 l -5.908840478947911 29.457216341233163 a51.04400090500377,51.04400090500377 0 0,0 -0.859990636333164,-0.18021939937595471 l 6.415022576710461 -29.351140961130668" fill="#aeff20" stroke="none" /><path d="M 93.42475214034765 119.94407469862007 l -7.348035735621266 22.288098749650576 a44.468126790311636,44.468126790311636 0 0,0 -0.7248945580908899,-0.24592359160296898 l 7.730600026649382 -22.158312171149483" fill="#fffc17" stroke="none" /><path d="M 92.06813273071674 119.44442032107085 l -9.813371047442816 24.05679582562505 a46.98137172496094,46.98137172496094 0 0,0 -0.7461727782015911,-0.31190028180467033 l 10.22601528514187 -23.884310500800403" fill="#e1ff1b" stroke="none" /><path d="M 91.07499286063937 119.00905698771935 l -23.45751988757986 49.96134180857464 a76.19412029002213,76.19412029002213 0 0,0 -1.1824142178754253,-0.5676306797738992 l 24.314046773455527 -49.55015685230117" fill="#42ffda" stroke="none" /><path d="M 90.42595943632237 118.69057910512821 l -3.3713379314743936 6.581574193178149 a28.394798057317498,28.394798057317498 0 0,0 -0.4331005780324659,-0.22657775282914858 l 3.4841294120333552 -6.522567021404283" fill="#ff1202" stroke="none" /><line stroke="#e1ed5e" stroke-width="0.3" x1="58.666819895761336" x2="56.23545636021788" y1="174.27360380694188" y2="178.64263932499728" /><path d="M 58.180547188652646 175.14741091055294 a86.0,86.0 0 0,1 -31.652253787137756,-30.449443065178592" fill="none" id="id56" stroke="none" /><text fill="#e1ed5e" style="font-size:6.75px; font-family:Arial;" text-anchor="middle"><textPath startOffset="22.20632615414155" xlink:href="#id56">August</textPath></text><path d="M 89.1626897886671 117.98757091392108 l -19.946411783083246 33.10669247534188 a59.65116336770707,59.65116336770707 0 0,0 -0.8749428126423662,-0.5374613369654639 l 20.51333379565792 -32.75844267154804" fill="#4aff2c" stroke="none" /><path d="M 86.51685102203217 116.09983520530335 l -40.44944693390351 48.29950561591003 a84.0,84.0 0 0,0 -1.1005380936917737,-0.937902439108194 l 41.274850504172335 -47.596078786578886" fill="#4dd2ff" stroke="none" /><path d="M 85.18274418774928 114.88116024355367 l -41.05462653965909 41.23168851352352 a79.18534607602767,79.18534607602767 0 0,0 -0.9576124282966318,-0.9700563340709044 l 41.75827959301126 -40.51889168547195" fill="#46fffb" stroke="none" /><line stroke="#e1ed5e" stroke-width="0.3" x1="26.63291911575756" x2="22.317208475507996" y1="142.92168965132927" y2="145.44649492493687" /><path d="M 25.769776987707644 143.4266507060508 a86.0,86.0 0 0,1 -11.730757126820373,-40.83630448921669" fill="none" id="id57" stroke="none" /><text fill="#e1ed5e" style="font-size:6.75px; font-family:Arial;" text-anchor="middle"><textPath startOffset="21.46611528233685" xlink:href="#id57">September</textPath></text><path d="M 80.58989483394504 108.01547362559985 l -28.50044527246602 11.769362682218476 a51.83493600892383,51.83493600892383 0 0,0 -0.33346496880672394,-0.827632705315233 l 28.698812855530132 -11.27703060906044" fill="#a4ff21" stroke="none" /><line stroke="#e1ed5e" stroke-width="0.3" x1="15.007084014347285" x2="10.007500721073583" y1="101.09737516637583" y2="101.16192664675087" /><path d="M 14.007167355692545 101.11028546245083 a86.0,86.0 0 0,1 10.666146001902534,-42.60595125391555" fill="none" id="id58" stroke="none" /><text fill="#e1ed5e" style="font-size:6.75px; font-family:Arial;" text-anchor="middle"><textPath startOffset="22.20632615414155" xlink:href="#id58">October</textPath></text><path d="M 79.54389044137918 95.25157060432595 l -28.861331746725376 -6.699514180432027 a50.628701632848305,50.628701632848305 0 0,0 0.20436444113558408,-0.847222545509186 l 28.741734505328978 7.19532195760061" fill="#b3ff20" stroke="none" /><path d="M 80.2630227832202 92.82701384747504 l -28.227215971962533 -10.258583524080958 a51.03355219497624,51.03355219497624 0 0,0 0.3071622299956042,-0.8230420649354248 l 28.046449153465304 10.742948726045725" fill="#aeff20" stroke="none" /><path d="M 80.52162464483688 92.15188598940014 l -17.16012894609276 -6.9140596148247315 a39.500655280391584,39.500655280391584 0 0,0 0.25953494202276944,-0.6284844482350722 l 17.038572317183792 7.208418633513115" fill="#ffb811" stroke="none" /><line stroke="#e1ed5e" stroke-width="0.3" x1="26.266209847984243" x2="21.928928074336255" y1="57.711370442889674" y2="55.22380399835377" /><path d="M 25.398753493254645 57.213857153982495 a86.0,86.0 0 0,1 29.58750427330803,-30.492523968695096" fill="none" id="id59" stroke="none" /><text fill="#e1ed5e" style="font-size:6.75px; font-family:Arial;" text-anchor="middle"><textPath startOffset="21.46611528233685" xlink:href="#id59">November</textPath></text><path d="M 82.7489923806493 88.02491185347247 l -37.092639361998565 -25.74850326128414 a66.15361906908066,66.15361906908066 0 0,0 0.657401212096126,-0.9298473931589726 l 36.64392553009856 26.383177154774895" fill="#35ff63" stroke="none" /><line stroke="#e1ed5e" stroke-width="0.3" x1="56.762969772571076" x2="54.21961505331055" y1="26.818313649435495" y2="22.513508569990535" /><path d="M 56.25429882871897 25.957352633546506 a86.0,86.0 0 0,1 42.265352541879196,-11.944610805530505" fill="none" id="id60" stroke="none" /><text fill="#e1ed5e" style="font-size:6.75px; font-family:Arial;" text-anchor="middle"><textPath startOffset="22.20632615414155" xlink:href="#id60">December</textPath></text><path d="M 91.90106846888425 80.62456947434976 l -6.074233375414759 -14.531655973355392 a36.75009004504285,36.75009004504285 0 0,0 0.5857546634359678,-0.2389440346392334 l 5.823194842390412 14.634060894178202" fill="#ff910d" stroke="none" /></svg>