<?xml version="1.0" encoding="utf-8" ?>
<svg baseProfile="full" height="200mm" version="1.1" viewBox="0,0,200,200" width="200mm" xmlns="http://www.w3.org/2000/svg" xmlns:ev="http://www.w3.org/2001/xml-events" xmlns:xlink="http://www.w3.org/1999/xlink"><defs /><rect fill="#1a1a1a" height="200" width="200" x="0" y="0" /><text alignment-baseline="middle" fill="#e1ed5e" style="dominant-baseline: central; font-size:9.0px; font-family:Arial;" text-anchor="middle" x="100.0" y="100.0">2021</text><line stroke="#e1ed5e" stroke-width="0.3" x1="100.0" x2="100.0" y1="15.0" y2="10.0" /><path d="M 100.0 14.0 a86.0,86.0 0 0,1 42.46469731375804,11.215312516191453" fill="none" id="id37" stroke="none" /><text fill="#e1ed5e" style="font-size:6.75px; font-family:Arial;" text-anchor="middle"><textPath startOffset="22.20632615414155" xlink:href="#id37">January</textPath></text><path d="M 101.08401301168833 79.027996857942 l 0.3882553734176386 -7.5114346630893705 a28.52146215391982,28.52146215391982 0 0,0 0.490077427034237,0.029562808742105946 l -0.5174948492914876 7.50363858496696" fill="#ff5607" stroke="none" /><path d="M 102.16513564639614 79.11191278185805 l 0.6288102096666592 -6.066429382860106 a27.098931688173714,27.098931688173714 0 0,0 0.46356374103368614,0.0520867875980216 l -0.7331406542100707 6.0547066417914825" fill="#ff4206" stroke="none" /><path d="M 103.2404852339499 79.25152402106235 l 1.1662123773787227 -7.467131540941398 a28.55765206653979,28.55765206653979 0 0,0 0.4850324015896447,0.08003450218027701 l -1.2945739851072426 7.445950775821496" fill="#ff5608" stroke="none" /><path d="M 103.95276090670814 79.375362276772 l 1.484432099930236 -7.745440467657508 a28.886405182168225,28.886405182168225 0 0,0 0.48753868125253913,0.09779567293347567 l -1.6175371906499005 7.7187408386468235" fill="#ff5b08" stroke="none" /><path d="M 104.66035177308747 79.52364482259891 l 1.6811772205380988 -7.386648811080624 a28.575548660334444,28.575548660334444 0 0,0 0.4786762452740691,0.11328720184716033 l -1.8080771527746915 7.356615697092595" fill="#ff5608" stroke="none" /><path d="M 105.71112130821622 79.79150937346287 l 2.049640482605588 -7.252540831328097 a28.536602325850616,28.536602325850616 0 0,0 0.4715466742860269,0.13765740488528952 l -2.174177374615042 7.216185097524104" fill="#ff5607" stroke="none" /><path d="M 106.40334571778207 80.00007090966166 l 2.29581713567114 -7.170654520541879 a28.529213941269628,28.529213941269628 0 0,0 0.46640805780756983,0.1537674036106565 l -2.418908015721127 7.130073392671986" fill="#ff5607" stroke="none" /><path d="M 107.08798089147638 80.2323363322302 l 2.543502209944467 -7.09357107393931 a28.535791535931768,28.535791535931768 0 0,0 0.4609449922408273,0.1697699307171073 l -2.665229527957871 7.048737875415878" fill="#ff5607" stroke="none" /><path d="M 108.09893153111575 80.62456947434976 l 3.1112803981944492 -7.443253096958725 a29.067346675430198,29.067346675430198 0 0,0 0.45997863896119695,0.196938847897591 l -3.2389427949459613 7.388594721098343" fill="#ff5d08" stroke="none" /><path d="M 108.76106565485865 80.91482961587045 l 3.1003807757852484 -6.75389247068665 a28.431515623374317,28.431515623374317 0 0,0 0.4430195903687605,0.20800363792229243 l -3.216178577453607 6.699523850124354" fill="#ff5407" stroke="none" /><path d="M 109.41281617654863 81.2277094730956 l 3.3495969513741675 -6.680211951433759 a28.472953328686962,28.472953328686962 0 0,0 0.43623210099427917,0.22345502547599666 l -3.4640895399572025 6.621564400645262" fill="#ff5507" stroke="none" /><path d="M 110.36928655335952 81.73862282372117 l 0.7731502526791345 -1.361596895355799 a22.565792904141656,22.565792904141656 0 0,0 0.33612636928220085,0.1947060885441709 l -0.7964733544266638 1.3480866494215786" fill="#ff0000" stroke="none" /><line stroke="#e1ed5e" stroke-width="0.3" x1="143.23703022742887" x2="145.7803849466894" y1="26.81831364943548" y2="22.513508569990506" /><path d="M 143.74570117128098 25.957352633546492 a86.0,86.0 0 0,1 28.547481713284135,27.462654790039103" fill="none" id="id38" stroke="none" /><text fill="#e1ed5e" style="font-size:6.75px; font-family:Arial;" text-anchor="middle"><textPath startOffset="19.985693538727396" xlink:href="#id38">February</textPath></text><path d="M 110.99172775467656 82.1063720568725 l 3.913227866958453 -6.370412829615561 a28.47633011299466,28.47633011299466 0 0,0 0.4154572455879309,0.26015928907304137 l -4.022304264918647 6.302109199219576" fill="#ff5507" stroke="none" /><path d="M 111.60114157652 82.49532879139004 l 4.478792712972404 -6.757937857665358 a29.107361361987103,29.107361361987103 0 0,0 0.4152585153458925,0.2803844032356166 l -4.594455922724839 6.679841542131072" fill="#ff5e08" stroke="none" /><path d="M 111.90073688211348 82.69761687909136 l 8.597710381297214 -12.500140155472389 a36.17149062245102,36.17149062245102 0 0,0 0.5099643813404633,0.3572626388056432 l -8.811605902221327 12.35029267390281" fill="#ffbc11" stroke="none" /><path d="M 112.48926042617603 83.11751280151076 l 4.261732629307104 -5.760841242998276 a28.165867486266457,28.165867486266457 0 0,0 0.3872858366376736,0.29169566287807597 l -4.36026461970316 5.686628990614352" fill="#ff5107" stroke="none" /><path d="M 113.06298171725822 83.55741782278167 l 4.74184807978932 -5.968639351367438 a28.622977037778192,28.622977037778192 0 0,0 0.3831343603945742,0.30980134089694317 l -4.843885838748386 5.886131913206365" fill="#ff5708" stroke="none" /><path d="M 114.16331599549186 84.49514656593476 l 5.016959064851906 -5.492161229050687 a28.438663403077683,28.438663403077683 0 0,0 0.35858732688318967,0.333267840079256 l -5.110754275529942 5.40498880289679" fill="#ff5407" stroke="none" /><path d="M 114.42810811169701 84.74124197986012 l 12.764870432818325 -13.499765013190201 a39.57917039531081,39.57917039531081 0 0,0 0.4910017662808464,0.47234331014198466 l -12.99535544271159 13.278038616285915" fill="#ffe815" stroke="none" /><path d="M 115.9244219780498 86.31012108654704 l 10.939468624824329 -9.404423033865326 a35.42619653246872,35.42619653246872 0 0,0 0.39355026931164017,0.4658393867200769 l -11.099729507623087 9.214724697516141" fill="#ffb310" stroke="none" /><path d="M 116.15771136456269 86.58626213691792 l 11.424218793832088 -9.48410778812713 a35.84793169388114,35.84793169388114 0 0,0 0.39006221180922546,0.4781701502030283 l -11.585779497717722 9.286053468316" fill="#ffb811" stroke="none" /><path d="M 117.04232023915458 87.72973835380427 l 25.457446464125624 -18.329049365072702 a52.369342216582965,52.369342216582965 0 0,0 0.5204200395129817,0.7360972389233696 l -25.769179123442488 17.888125625817537" fill="#81ff25" stroke="none" /><line stroke="#e1ed5e" stroke-width="0.3" x1="172.23445277983987" x2="176.4835382374775" y1="55.19839476539836" y2="52.563006222186495" /><path d="M 173.08426987136738 54.67131705675599 a86.0,86.0 0 0,1 12.851231095245387,41.99856678651699" fill="none" id="id39" stroke="none" /><text fill="#e1ed5e" style="font-size:6.75px; font-family:Arial;" text-anchor="middle"><textPath startOffset="22.20632615414155" xlink:href="#id39">March</textPath></text><path d="M 118.21658344932153 89.55222093294921 l 27.453051162445337 -15.745181529764487 a52.64776073489368,52.64776073489368 0 0,0 0.4441023103452713,0.7900084558367844 l -27.720011114083043 15.27028956399291" fill="#7eff26" stroke="none" /><path d="M 119.04729006885535 91.15688171328212 l 7.525998349811704 -3.4941082638233794 a29.297556490960897,29.297556490960897 0 0,0 0.20842795516119106,0.4592433710252711 l -7.5850286219362415 3.3640428839560452" fill="#ff6008" stroke="none" /><path d="M 120.08093135843002 93.85539295169968 l 11.740213402089182 -3.5924129579150677 a33.277542163918255,33.277542163918255 0 0,0 0.16289214728892754,0.5491913426341599 l -11.800311446489813 3.389792228534378" fill="#ff960d" stroke="none" /><path d="M 120.53481517161879 95.60439243477599 l 14.939489294591517 -3.197892535923564 a36.27792057364255,36.27792057364255 0 0,0 0.12545372070465435,0.6117568961379538 l -14.992322311211169 2.9402599836221985" fill="#ffbe11" stroke="none" /><path d="M 120.73433829027371 96.67025291283417 l 8.882979623609327 -1.4265261380895564 a29.99679408545684,29.99679408545684 0 0,0 0.07748329975480475,0.5105181348349627 l -8.906218816803431 1.2734088908625116" fill="#ff6a09" stroke="none" /><path d="M 120.96714384426684 98.82574320788733 l 5.693017186752222 -0.3188352285276034 a26.701938318818122,26.701938318818122 0 0,0 0.02175113418127216,0.459132064693474 l -5.6976619291669905 0.2207920572111296" fill="#ff3c05" stroke="none" /><path d="M 120.98425023603335 99.18683210126433 l 7.797079628274323 -0.30214731459459704 a28.802931739376373,28.802931739376373 0 0,0 0.014934053397691835,0.49558852757698474 l -7.80112537612766 0.16788863959261321" fill="#ff5908" stroke="none" /><line stroke="#e1ed5e" stroke-width="0.3" x1="184.98032266829074" x2="189.97916517819016" y1="98.17113171792111" y2="98.06355123074" /><path d="M 185.9800911702706 98.14961562048488 a86.0,86.0 0 0,1 -9.607161424134198,41.387399972396054" fill="none" id="id40" stroke="none" /><text fill="#e1ed5e" style="font-size:6.75px; font-family:Arial;" text-anchor="middle"><textPath startOffset="21.466115282336823" xlink:href="#id40">April</textPath></text><path d="M 120.99513854157772 99.54816195383933 l 8.518409473787626 -0.1833253676993115 a29.520381925333915,29.520381925333915 0 0,0 0.006560543444183422,0.5081213197245467 l -8.520303024349525 0.03666778991430215" fill="#ff6309" stroke="none" /><path d="M 120.99980553446 99.90962569577887 l 4.214707195504645 -0.01813832178895544 a25.214746225166582,25.214746225166582 0 0,0 -0.0018679356689040626,0.4340424652331971 l -4.214394962546239 -0.05441362164792637" fill="#ff2703" stroke="none" /><path d="M 120.99824983174949 100.27111621757518 l 4.630607845692012 0.059787501065911325 a25.630993798945116,25.630993798945116 0 0,0 -0.009493155385197988,0.44110962811234183 l -4.6288926276218065 -0.139486944968368" fill="#ff2d04" stroke="none" /><path d="M 120.9904718944345 100.63252640178507 l 8.530675051627417 0.25706316762865367 a29.534547340580502,29.534547340580502 0 0,0 -0.019686698570156945,0.5080262142171262 l -8.524986220206058 -0.4038666288597861" fill="#ff6409" stroke="none" /><path d="M 120.9764740272857 100.99374915477107 l 11.84808032921994 0.5612964217678633 a32.86136843541831,32.86136843541831 0 0,0 -0.03163086528138886,0.5647903480126109 l -11.836663113051022 -0.7651584861158974" fill="#ff910d" stroke="none" /><path d="M 120.95626037817324 101.35467743843564 l 2.2426840089826756 0.14497402559826653 a23.247364908563977,23.247364908563977 0 0,0 -0.02925120870810358,0.3991095026285532 l -2.2398562416102346 -0.18355666472359" fill="#ff0a01" stroke="none" /><path d="M 120.92983693683757 101.71520430193887 l 8.448258827451406 0.6923364920838773 a29.47657991373181,29.47657991373181 0 0,0 -0.04579453905031201,0.5053389224228011 l -8.435089692124018 -0.8376568030552489" fill="#ff6309" stroke="none" /><path d="M 120.89721153311464 102.0752229133903 l 2.563866958777726 0.25460791509472874 a23.576478017127457,23.576478017127457 0 0,0 -0.04358021977790151,0.40349871030276035 l -2.559104437498773 -0.29870294728228053" fill="#ff0f01" stroke="none" /><path d="M 120.81339534386255 102.79330883721812 l 31.400168213553673 4.21413065537713 a52.681689680635024,52.681689680635024 0 0,0 -0.1283575545980291,0.8977324379018184 l -31.322976607939044 -4.754008565259358" fill="#7eff26" stroke="none" /><path d="M 120.64145759157962 103.86396538481128 l 4.739510272510485 0.8872098083523248 a25.82183563254379,25.82183563254379 0 0,0 -0.08554413503083125,0.4361877015501295 l -4.723536204503991 -0.9686612369703992" fill="#ff2f04" stroke="none" /><path d="M 120.41448212921028 104.9243191809786 l 2.2116896783516458 0.5334970457024625 a23.27512424520079,23.27512424520079 0 0,0 -0.09729964605263529,0.3886637193980293 l -2.2021787180039496 -0.5714886044978876" fill="#ff0a01" stroke="none" /><path d="M 120.32669344350535 105.2749913415812 l 1.528932779643344 0.3967741825247646 a22.57957753737704,22.57957753737704 0 0,0 -0.10086826686530175,0.3753683449220977 l -1.5218764364362651 -0.4230334606224105" fill="#ff0000" stroke="none" /><path d="M 120.23288151984713 105.62410040840565 l 2.3362735893237763 0.6494100820475956 a23.4248521065906,23.4248521065906 0 0,0 -0.11133203429009082,0.3875614167545547 l -2.324748918147586 -0.6895289743067323" fill="#ff0d01" stroke="none" /><path d="M 120.13307415673323 105.97154293290107 l 1.777470587700212 0.5272042333818623 a22.854008088934645,22.854008088934645 0 0,0 -0.11511153317797941,0.3761911507343721 l -1.7681322820160998 -0.5577223566682915" fill="#ff0400" stroke="none" /><path d="M 120.02730092923936 106.31721596034902 l 2.453557248939605 0.7739261055393741 a23.572723224651153,23.572723224651153 0 0,0 -0.12539313565918173,0.3859203892930495 l -2.439871862264176 -0.8160453948102189" fill="#ff0f01" stroke="none" /><path d="M 119.67450827220406 107.3425965602758 l 2.0266897838450144 0.7563678456264366 a23.163229945669052,23.163229945669052 0 0,0 -0.14262562547933305,0.3723505021753652 l -2.0133698787721745 -0.7911419146349457" fill="#ff0901" stroke="none" /><path d="M 119.54520255179757 107.68017299344265 l 18.313118773857898 7.196032881212358 a40.67620919925675,40.67620919925675 0 0,0 -0.26167854879709485,0.6494646980127978 l -18.186537610803413 -7.5101969470679695" fill="#fff517" stroke="none" /><path d="M 119.26925614724726 108.34839909993367 l 17.921578439156416 7.76451816134157 a40.53127533031674,40.53127533031674 0 0,0 -0.2828676069937781,0.6377917789036217 l -17.785269747431368 -8.07185827673788" fill="#fff417" stroke="none" /><path d="M 118.81262510543309 109.33194174019688 l 6.774205109183274 3.360322499425421 a28.56185309044215,28.56185309044215 0 0,0 -0.22226742978139136,0.4385547254752122 l -6.7153590096156135 -3.4764314366033275" fill="#ff5608" stroke="none" /><line stroke="#e1ed5e" stroke-width="0.3" x1="174.80103733775053" x2="179.2010983576182" y1="140.37084112569926" y2="142.7455964860345" /><path d="M 175.68104954172406 140.8457921977663 a86.0,86.0 0 0,1 -30.038265399797805,32.042727171017184" fill="none" id="id41" stroke="none" /><text fill="#e1ed5e" style="font-size:6.75px; font-family:Arial;" text-anchor="middle"><textPath startOffset="22.206326154141568" xlink:href="#id41">May</textPath></text><path d="M 118.12598468904814 110.60418214915192 l 20.133478345918185 11.778619222001236 a44.32579733004755,44.32579733004755 0 0,0 -0.39095168406901265,0.655257509998518 l -19.927745786150943 -12.123438825885858" fill="#dcff1b" stroke="none" /><path d="M 117.75023020441432 111.22182372390056 l 2.329965043478033 1.4730207270358875 a23.75654261097247,23.75654261097247 0 0,0 -0.22149597648591812,0.34376667428667346 l -2.3042642036150642 -1.5129090012440138" fill="#ff1101" stroke="none" /><path d="M 117.55443506779139 111.5257021239791 l 8.882549772630378 5.832008970120433 a31.62600673304987,31.62600673304987 0 0,0 -0.3027013876953643,0.4524975035409568 l -8.780845279524293 -5.984043387867196" fill="#ff800b" stroke="none" /><path d="M 116.71984013943494 112.70617746262583 l 14.113700735996767 10.725651962604731 a38.7267074914718,38.7267074914718 0 0,0 -0.40790874708112,0.5272770422548068 l -13.926985171697579 -10.96700699897279" fill="#ffdd14" stroke="none" /><path d="M 116.498646956653 112.99209946851258 l 11.177337943233882 8.80175730368703 a35.22686947751556,35.22686947751556 0 0,0 -0.379245914440374,0.4731675899894773 l -11.024174116738653 -8.992852727254757" fill="#ffb010" stroke="none" /><path d="M 116.27256486870786 113.27417163493432 l 4.502222357427919 3.6726399798265117 a26.810188514768164,26.810188514768164 0 0,0 -0.29478951293657857,0.3550929585733546 l -4.438336844597797 -3.749594195513637" fill="#ff3d05" stroke="none" /><path d="M 115.32070863581623 114.36230785411682 l 45.96212590744871 43.08692356235047 a84.0,84.0 0 0,0 -0.997973794484142,1.0463715336699715 l -45.21364556158561 -43.87170221260295" fill="#4dd2ff" stroke="none" /><path d="M 114.55890576462653 115.13401014063108 l 6.561601489592543 6.820797186801552 a30.464559597345406,30.464559597345406 0 0,0 -0.38104514891848784,0.36030197194143887 l -6.4432205062832475 -6.932733795488912" fill="#ff700a" stroke="none" /><path d="M 114.29624159901734 115.38237550388516 l 6.977484467984024 7.507587600256702 a31.249349300150058,31.249349300150058 0 0,0 -0.3971650193846376,0.3628008285161469 l -6.847219899132523 -7.626581195359432" fill="#ff7b0b" stroke="none" /><path d="M 114.0293411484842 115.62618273729858 l 10.331395203287551 11.5073307911729 a36.46468198134022,36.46468198134022 0 0,0 -0.4706681380891251,0.4153099082175992 l -10.131784712291838 -11.683463841162787" fill="#ffc011" stroke="none" /><path d="M 113.75828350139079 115.86535959552629 l 20.87109264525876 24.06749286239823 a52.856658972474875,52.856658972474875 0 0,0 -0.692509127434353,0.5901713020642283 l -20.45371804124736 -24.423188554685403" fill="#7cff26" stroke="none" /><path d="M 113.20401910651253 116.32954008644616 l 2.829838117253654 3.4996885873222534 a25.50064484025293,25.50064484025293 0 0,0 -0.3437031644242635,0.2730585807415741 l -2.7691774601120396 -3.5478810820689537" fill="#ff2b04" stroke="none" /><path d="M 112.63410532772338 116.77436683061366 l 4.696099463396577 6.235035487570769 a28.805704177163037,28.805704177163037 0 0,0 -0.39863669388382483,0.29490189607787287 l -4.5880777990941874 -6.314947332388411" fill="#ff5908" stroke="none" /><path d="M 112.34349029814194 116.9893568818739 l 8.88663823372093 12.231408198661367 a36.1188519940937,36.1188519940937 0 0,0 -0.5061329091110761,0.3611123919885398 l -8.67477799676097 -12.382564852494125" fill="#ffbc11" stroke="none" /><path d="M 111.7513745106137 117.40417183066458 l 17.947183937617154 26.580369202318938 a53.07206632292731,53.07206632292731 0 0,0 -0.7615217320594608,0.504695079498161 l -17.48698750681773 -26.88536230290842" fill="#7aff26" stroke="none" /><line stroke="#e1ed5e" stroke-width="0.3" x1="143.8653032363475" x2="146.44561519142675" y1="172.8068346515853" y2="177.08958963109032" /><path d="M 144.38136562736335 173.6633856474863 a86.0,86.0 0 0,1 -40.68145358897372,12.25698825130547" fill="none" id="id42" stroke="none" /><text fill="#e1ed5e" style="font-size:6.75px; font-family:Arial;" text-anchor="middle"><textPath startOffset="21.466115282336833" xlink:href="#id42">June</textPath></text><path d="M 110.8373102113329 117.98757091392108 l 7.836438107250507 13.00677782752009 a36.185059488300865,36.185059488300865 0 0,0 -0.5362834810242153,0.3168457333497319 l -7.61138675519791 -13.13974213316357" fill="#ffbd11" stroke="none" /><path d="M 110.5260780823613 118.17145234162733 l 1.5029566830356718 2.594594636636631 a23.99846629454879,23.99846629454879 0 0,0 -0.35923559389006926,0.20398334568387014 l -1.4580723222244034 -2.6200811481151294" fill="#ff1502" stroke="none" /><path d="M 110.21172684928248 118.3499491758327 l 2.3159175228972066 4.1615849569625025 a25.762589980974525,25.762589980974525 0 0,0 -0.38935516034012463,0.2123074776708437 l -2.243939550688433 -4.200833086393116" fill="#ff2e04" stroke="none" /><path d="M 109.89434966115114 118.52300852407294 l 1.0434353029497556 1.953393772482497 a23.214611582606587,23.214611582606587 0 0,0 -0.35408815639155605,0.18524218818429017 l -1.009656244031704 -1.971065379611504" fill="#ff0a01" stroke="none" /><path d="M 109.57404056367764 118.69057910512821 l 22.039850586594145 43.02651196369158 a69.34289757183664,69.34289757183664 0 0,0 -1.0670422085854099,0.5350371148176097 l -21.295954470325977 -43.399516919418495" fill="#3bff98" stroke="none" /><path d="M 108.59647513512805 119.15986991738527 l 8.12613978355689 18.1115839615722 a40.85103577597364,40.85103577597364 0 0,0 -0.6440444459162532,0.28233015836810255 l -7.813174662982885 -18.248778673234757" fill="#fff817" stroke="none" /><path d="M 107.93186726928326 119.44442032107085 l 2.8652700498378434 7.024010020714456 a28.585940233721516,28.585940233721516 0 0,0 -0.4572102307635193,0.18193338656459032 l -2.7439387430324578 -7.072290251685114" fill="#ff5608" stroke="none" /><path d="M 107.59598834532513 119.57807347666477 l 1.8514995614718932 4.772097166107196 a26.11868752600693,26.11868752600693 0 0,0 -0.420547907009528,0.15901523357705227 l -1.7690814337020904 -4.80326064979088" fill="#ff3404" stroke="none" /><path d="M 106.91757812671514 119.82793768551818 l 0.9879638905106609 2.8318128249155907 a23.999205982307547,23.999205982307547 0 0,0 -0.39122164729608777,0.13272362379056646 l -0.9390725102773462 -2.8483994356042803" fill="#ff1502" stroke="none" /><path d="M 105.88484417918355 120.15858648285463 l 2.122218201220265 7.269677470155585 a28.57311168633332,28.57311168633332 0 0,0 -0.4733188088543529,0.13376462323603294 l -1.9967682242613065 -7.305130886730137" fill="#ff5608" stroke="none" /><path d="M 105.18746579009965 120.34920634021253 l 1.8661637215249705 7.320520687848433 a28.554640307569436,28.554640307569436 0 0,0 -0.4773339373957788,0.11731706833488437 l -1.7398764993859805 -7.351559014497346" fill="#ff5608" stroke="none" /><path d="M 104.83641907484287 120.43548508189849 l 7.29408268736229 30.819934260673854 a52.67131178341586,52.67131178341586 0 0,0 -0.8840750527952574,0.20121260371494384 l -6.76248748517417 -30.94092359796648" fill="#7eff26" stroke="none" /><path d="M 104.13013068566511 120.58985236759428 l 0.8879848888938775 4.426852116432538 a25.51503453183551,25.51503453183551 0 0,0 -0.43136493210109034,0.08267211589436524 l -0.8116523422210828 -4.4414814306753705" fill="#ff2b04" stroke="none" /><path d="M 103.41894727170886 120.7198165907248 l 1.1702279550082688 7.09192235801612 a28.187822771800356,28.187822771800356 0 0,0 -0.479413303668869,0.07487449840051527 l -1.0479787877308826 -7.11101516376374" fill="#ff5107" stroke="none" /><path d="M 103.06178313531738 120.77559828337769 l 1.7306447292735139 11.743215661452924 a32.87005666584433,32.87005666584433 0 0,0 -0.5604679761003616,0.07767575449168096 l -1.5282481619863217 -11.771265981437208" fill="#ff910d" stroke="none" /><path d="M 102.70371172650421 120.8252237178851 l 0.9676257652558437 7.453095993594399 a28.515646313612677,28.515646313612677 0 0,0 -0.4873087369486471,0.05900630160061595 l -0.8391896052558163 -7.4686478239203655" fill="#ff5507" stroke="none" /><path d="M 101.98527174616119 120.90594882070398 l 3.1191429640759565 32.84620520970047 a53.99397292700743,53.99397292700743 0 0,0 -0.9260112455890994,0.07990014672154097 l -2.5532874007453157 -32.89502960870068" fill="#70ff27" stroke="none" /><path d="M 101.62511606390274 120.93702456842531 l 0.5825280481512252 7.504943386412205 a28.527517131175138,28.527517131175138 0 0,0 -0.48990881047708434,0.03378697989963624 l -0.4532564768952105 -7.513858710828127" fill="#ff5607" stroke="none" /><line stroke="#e1ed5e" stroke-width="0.3" x1="102.19456741930631" x2="102.32365962044197" y1="184.97166512339345" y2="189.96999836594603" /><path d="M 102.22038585953345 185.97133177190398 a86.0,86.0 0 0,1 -42.740103519485714,-10.115201625700543" fill="none" id="id43" stroke="none" /><text fill="#e1ed5e" style="font-size:6.75px; font-family:Arial;" text-anchor="middle"><textPath startOffset="22.20632615414155" xlink:href="#id43">July</textPath></text><path d="M 100.54218724476979 120.99299961872073 l 0.43060888306600814 16.672786394782552 a37.678346146312634,37.678346146312634 0 0,0 -0.6484987197835542,0.011164493570434163 l -0.14355047338978597 -16.677728365632145" fill="#ffd013" stroke="none" /><path d="M 99.81925306533755 120.99922214144158 l -0.31081411518327734 36.11045831354429 a57.11179592637865,57.11179592637865 0 0,0 -0.9829764395436649,-0.016922830846661328 l 0.93235024461961 -36.09975800541847" fill="#4fff2b" stroke="none" /><path d="M 99.09653310690486 120.98055641714683 l -0.651279549518103 15.124192636641151 a36.138208875618375,36.138208875618375 0 0,0 -0.6212535519173232,-0.03211171242318807 l 0.9115211698489152 -15.110741117455762" fill="#ffbc11" stroke="none" /><path d="M 98.01472825383883 120.90594882070398 l -1.2838099016084386 13.519189073453955 a34.58000887581686,34.58000887581686 0 0,0 -0.5920878095634764,-0.06137232236224255 l 1.5163303077775083 -13.495087382635951" fill="#ffa80f" stroke="none" /><path d="M 96.93821686468263 120.77559828337769 l -2.1561447557873468 14.63042786092238 a35.78845426681109,35.78845426681109 0 0,0 -0.6086834457615077,-0.09506383602063892 l 2.4076640651573715 -14.591145717554634" fill="#ffb711" stroke="none" /><path d="M 96.58105272829116 120.7198165907248 l -2.4800444052399606 15.029791666761085 a36.23303179929074,36.23303179929074 0 0,0 -0.6144967400953961,-0.10683813492884132 l 2.7383901168074067 -14.984874953311238" fill="#ffbd11" stroke="none" /><path d="M 96.22490169976321 120.6578951692458 l -1.3761501835112444 7.530496947941853 a28.655205654359627,28.655205654359627 0 0,0 -0.48445361992409286,-0.09284668926778317 l 1.5055714180070323 -7.505693060325601" fill="#ff5708" stroke="none" /><path d="M 95.51606077576429 120.51570834832081 l -4.771257716384541 21.830298509611275 a43.345622238257214,43.345622238257214 0 0,0 -0.7275456405244911,-0.16558701909812643 l 5.146323506301895 -21.74493475693546" fill="#e8ff1a" stroke="none" /><path d="M 94.81253420990036 120.34920634021253 l -0.5971243849637232 2.342378304178833 a23.417290559905037,23.417290559905037 0 0,0 -0.3897412787689096,-0.10293421402622902 l 0.6373561065441221 -2.331752740849022" fill="#ff0d01" stroke="none" /><path d="M 94.46302465271185 120.25689768951611 l -3.0619156038127677 11.20194821722408 a32.61287953206447,32.61287953206447 0 0,0 -0.5402383003602006,-0.1526767399763189 l 3.2542850722775825 -11.14758268390924" fill="#ff8e0d" stroke="none" /><path d="M 93.08242187328487 119.8279376855182 l -3.118746010886941 8.939299336860424 a30.46771616148353,30.46771616148353 0 0,0 -0.49369370676373303,-0.17702099846472494 l 3.2721592782804003 -8.884290797355742" fill="#ff700a" stroke="none" /><path d="M 92.7421414339146 119.70592522655815 l -5.2462985735647685 14.244307251997991 a36.17972126925624,36.17972126925624 0 0,0 -0.5825448174156242,-0.220268603568032 l 5.490713611740675 -14.151890398323326" fill="#ffbd11" stroke="none" /><path d="M 92.40401165467489 119.57807347666478 l -11.46011818583131 29.537569792554045 a52.68283980458858,52.68283980458858 0 0,0 -0.8426216926011609,-0.3352965612158546 l 11.966860954474331 -29.335926386932123" fill="#7eff26" stroke="none" /><path d="M 92.06813273071674 119.44442032107085 l -1.7131882492382509 4.199761705079336 a25.53574826867397,25.53574826867397 0 0,0 -0.4055667071757635,-0.1695269164919036 l 1.7852264159114766 -4.169649745567459" fill="#ff2b04" stroke="none" /><path d="M 91.7346041902142 119.30500536409082 l -2.9693505779665164 6.935339837886767 a28.544268123671728,28.544268123671728 0 0,0 -0.45001985870351047,-0.1972754811910488 l 3.08829111132777 -6.883199803401266" fill="#ff5607" stroke="none" /><path d="M 91.07499286063937 119.00905698771935 l -12.860007696584566 27.39007547554721 a51.25881743413623,51.25881743413623 0 0,0 -0.7954571073844445,-0.38186775139334705 l 13.329577471969252 -27.1646534476543" fill="#8dff24" stroke="none" /><path d="M 90.7491055286396 118.85261126421891 l -16.706950048881506 34.047478939187194 a58.92562460988899,58.92562460988899 0 0,0 -0.906742158573247,-0.4546593419670608 l 17.290546115137516 -33.754851756310835" fill="#3dff2e" stroke="none" /><line stroke="#e1ed5e" stroke-width="0.3" x1="58.666819895761336" x2="56.23545636021788" y1="174.27360380694188" y2="178.64263932499728" /><path d="M 58.180547188652646 175.14741091055294 a86.0,86.0 0 0,1 -31.652253787137756,-30.449443065178592" fill="none" id="id44" stroke="none" /><text fill="#e1ed5e" style="font-size:6.75px; font-family:Arial;" text-anchor="middle"><textPath startOffset="22.20632615414155" xlink:href="#id44">August</textPath></text><path d="M 89.7882731507175 118.34994917583269 l -18.606166323564672 33.43432618533965 a59.26282259227409,59.26282259227409 0 0,0 -0.887111493219576,-0.5037250580378676 l 19.178926583705458 -33.109097961507146" fill="#3aff2e" stroke="none" /><path d="M 89.4739219176387 118.17145234162733 l -5.2741522519716675 9.1049112061774 a31.522171356205554,31.522171356205554 0 0,0 -0.4671767857619051,-0.2760162796847691 l 5.430096908761954 -9.012776354198882" fill="#ff7f0b" stroke="none" /><path d="M 89.1626897886671 117.98757091392108 l -4.622899858644984 7.6730053319295894 a29.95802511309718,29.95802511309718 0 0,0 -0.43941404113258004,-0.2699239934496699 l 4.754293099709872 -7.592292871651542" fill="#ff6909" stroke="none" /><path d="M 88.8546689885994 117.79835938074946 l -9.173928589064417 14.650159586510238 a38.28548933838644,38.28548933838644 0 0,0 -0.5555373961402305,-0.35457025055886865 l 9.424747787251572 -14.490074907127566" fill="#ffd814" stroke="none" /><path d="M 88.24862548938628 117.40417183066458 l -8.418142860784693 12.467546218687199 a36.04343172084354,36.04343172084354 0 0,0 -0.5112041901246752,-0.351610903376423 l 8.631503935532258 -12.320794525945674" fill="#ffbb11" stroke="none" /><path d="M 87.95078237400918 117.19931262002967 l -9.707594993590636 13.856830066978786 a37.91889890225464,37.91889890225464 0 0,0 -0.5313569383330657,-0.3791090670989189 l 9.944679259772588 -13.687676738035648" fill="#ffd313" stroke="none" /><path d="M 87.65650970185807 116.9893568818739 l -8.853937766844838 12.186399867262157 a36.063218636930436,36.063218636930436 0 0,0 -0.49907206433206297,-0.3692015820648893 l 9.062394801595465 -12.0321883364575" fill="#ffbb11" stroke="none" /><path d="M 87.07902340077011 116.55440617244103 l -9.367315629232603 12.001441723918461 a36.22436223788295,36.22436223788295 0 0,0 -0.48823972916785924,-0.38788716924252786 l 9.572512851117821 -11.838420640670803" fill="#ffbd11" stroke="none" /><path d="M 86.79598089348748 116.32954008644616 l -10.186929573378144 12.598275834381043 a37.20154585624827,37.20154585624827 0 0,0 -0.4944791767996879,-0.4069226985351739 l 10.402278878722521 -12.421058016988688" fill="#ffca12" stroke="none" /><path d="M 86.51685102203217 116.09983520530335 l -10.97630971129483 13.106491503059251 a38.09559868498408,38.09559868498408 0 0,0 -0.49911497089070506,-0.4253566062611129 l 11.200290158762591 -12.915610506575186" fill="#ffd513" stroke="none" /><path d="M 86.24171649860922 115.8653595955263 l -1.559144220279522 1.7979265882637583 a23.379804764348705,23.379804764348705 0 0,0 -0.3017749937584624,-0.2662813452149617 l 1.5898615669445721 -1.7708221012765077" fill="#ff0c01" stroke="none" /><path d="M 85.97065885151581 115.62618273729859 l -13.026802404692313 14.509533463044798 a40.49933696837188,40.49933696837188 0 0,0 -0.5147281563405773,-0.47019196673032165 l 13.274630110499745 -14.2831487297279" fill="#fff316" stroke="none" /><path d="M 85.70375840098266 115.38237550388516 l -12.904189128679237 13.884564091595971 a39.95518971370004,39.95518971370004 0 0,0 -0.49975221751931587,-0.47254691462515996 l 13.14127718058937 -13.66038254022488" fill="#ffed16" stroke="none" /><path d="M 85.18274418774928 114.88116024355367 l -5.291666531700216 5.31448863483712 a28.49970160289922,28.49970160289922 0 0,0 -0.34465554310362395,-0.34913424552668154 l 5.382362699859373 -5.222613895329774" fill="#ff5507" stroke="none" /><path d="M 84.9287848128048 114.62390073753433 l -5.359934312622892 5.20085118379156 a28.468450232248877,28.468450232248877 0 0,0 -0.3382234202542996,-0.354625903937218 l 5.448664284256149 -5.107818163271841" fill="#ff5507" stroke="none" /><path d="M 84.43433777217949 114.09645910891817 l -11.6009975735543 10.506009029669462 a36.651177924779624,36.651177924779624 0 0,0 -0.41946601258023636,-0.4712745118625681 l 11.780122435782875 -10.30476034806603" fill="#ffc312" stroke="none" /><path d="M 83.95833913139862 113.55231037782056 l -11.705050943146722 9.888657082896934 a36.322981318424546,36.322981318424546 0 0,0 -0.39938674677221797,-0.48108706484699726 l 11.873533689812476 -9.685708760936174" fill="#ffbe11" stroke="none" /><path d="M 83.50135304334701 112.99209946851258 l -11.822843247229928 9.31006984222447 a36.048489057565476,36.048489057565476 0 0,0 -0.37969904900583523,-0.4908122047869325 l 11.981349113453831 -9.105179643324284" fill="#ffbb11" stroke="none" /><path d="M 83.28015986056508 112.70617746262583 l -5.947099057464692 4.519474790535592 a28.469514012409654,28.469514012409654 0 0,0 -0.2931529356119043,-0.3927262636202076 l 6.024013259771682 -4.416435647406076" fill="#ff5507" stroke="none" /><path d="M 83.06392112726016 112.41649034213515 l -28.5246071735438 20.912485832454596 a56.36927025113185,56.36927025113185 0 0,0 -0.5669680460037887,-0.7874690274726174 l 28.880355011923196 -20.41838319953084" fill="#57ff2a" stroke="none" /><path d="M 82.85270091963577 112.12312394758628 l -12.243652489704031 8.6562505271648 a35.99458900662758,35.99458900662758 0 0,0 -0.3533281868999066,-0.5089956056907313 l 12.390841583766072 -8.444213659287056" fill="#ffba11" stroke="none" /><path d="M 82.24976979558568 111.22182372390057 l -12.785950985203433 8.08337055046774 a36.12684441819224,36.12684441819224 0 0,0 -0.32778291994666453,-0.5284904353078564 l 12.923198544818053 -7.86208378379462" fill="#ffbc11" stroke="none" /><line stroke="#e1ed5e" stroke-width="0.3" x1="26.63291911575756" x2="22.317208475507996" y1="142.92168965132927" y2="145.44649492493687" /><path d="M 25.769776987707644 143.4266507060508 a86.0,86.0 0 0,1 -11.730757126820373,-40.83630448921669" fill="none" id="id45" stroke="none" /><text fill="#e1ed5e" style="font-size:6.75px; font-family:Arial;" text-anchor="middle"><textPath startOffset="21.46611528233685" xlink:href="#id45">September</textPath></text><path d="M 81.87401531095188 110.60418214915194 l -13.10133556594002 7.664629046185425 a36.178653827892454,36.178653827892454 0 0,0 -0.30984088918288644,-0.5402337068566414 l 13.231328451275285 -7.437975493470477" fill="#ffbd11" stroke="none" /><path d="M 81.69416730710424 110.29060199501025 l -27.793788535543037 15.624245045337412 a52.884349050831105,52.884349050831105 0 0,0 -0.4392513354888211,-0.797368763087298 l 28.058616280483374 -15.143505763852291" fill="#7cff26" stroke="none" /><path d="M 81.18737489456691 109.33194174019688 l -2.8505925926160236 1.4140272210945712 a24.18203568664366,24.18203568664366 0 0,0 -0.18176455150301665,-0.374488812978006 l 2.8745104007337594 -1.3647494521512806" fill="#ff1802" stroke="none" /><path d="M 81.02952815118164 109.00673069616217 l -6.787415919659887 3.222504310826 a28.51355767261719,28.51355767261719 0 0,0 -0.2066898686654215,-0.4451915891113813 l 6.841880405165136 -3.1051926544357915" fill="#ff5507" stroke="none" /><path d="M 80.87730276802145 108.67885076344099 l -15.179616452268732 6.889280535969832 a37.66982129302172,37.66982129302172 0 0,0 -0.2628975308129428,-0.592764529061995 l 15.295955067812955 -6.626967670415141" fill="#ffd013" stroke="none" /><path d="M 80.58989483394504 108.01547362559985 l -9.45783932522541 3.9056491975676035 a31.232537337153513,31.232537337153513 0 0,0 -0.20092543544561745,-0.49868045300098846 l 9.523667374928415 -3.7422693767238098" fill="#ff7b0b" stroke="none" /><path d="M 80.20201598880116 107.00284435728193 l -14.165702171719378 5.010621660470495 a36.02575946307644,36.02575946307644 0 0,0 -0.20175998262340689,-0.5864089512580287 l 14.249852985286012 -4.766040006123169" fill="#ffbb11" stroke="none" /><path d="M 79.86692584326677 105.97154293290107 l -14.680216075005246 4.354205417101715 a36.31234302199243,36.31234302199243 0 0,0 -0.1725828193101116,-0.600783434757339 l 14.752991531201463 -4.10086450683978" fill="#ffbe11" stroke="none" /><path d="M 79.76711848015287 105.62410040840567 l -8.726464137093444 2.4256807152862487 a30.057323184500465,30.057323184500465 0 0,0 -0.134273109902617,-0.4996801927705808 l 8.766925323337835 -2.275109589340129" fill="#ff6b09" stroke="none" /><path d="M 79.50377843672027 104.57218783832718 l -11.369060034732437 2.5361493026179653 a32.64850116360555,32.64850116360555 0 0,0 -0.11763715355954422,-0.5495616180052314 l 11.411031227016421 -2.3400738651965702" fill="#ff8e0d" stroke="none" /><path d="M 79.23777060512086 103.15116336523772 l -7.4878014817802505 1.136452413986827 a28.57355234482518,28.57355234482518 0 0,0 -0.06961871054999347,-0.48691309943813016 l 7.506254243346842 -1.0073938425682962" fill="#ff5608" stroke="none" /><path d="M 79.18660465613746 102.79330883721812 l -14.899044290807845 1.9995599658798577 a36.03262321874008,36.03262321874008 0 0,0 -0.07721017441525148,-0.6154410578577788 l 14.931255974469945 -1.7428011537346704" fill="#ffbb11" stroke="none" /><path d="M 79.1416061653843 102.43462659150553 l -30.121010512032356 3.51577469181307 a51.325499929095265,51.325499929095265 0 0,0 -0.09487322769311443,-0.8784082597913903 l 30.17706604122652 -2.9967701101368975" fill="#8dff24" stroke="none" /><path d="M 79.07016306316243 101.71520430193888 l -6.896322013129291 0.5651549613201345 a27.91944054379228,27.91944054379228 0 0,0 -0.03512989044445108,-0.4793194442866003 l 6.905028462238078 -0.44636238053677363" fill="#ff4d07" stroke="none" /><path d="M 79.0235259727143 100.99374915477108 l -20.46613506678165 0.9695721214914167 a41.48908867349944,41.48908867349944 0 0,0 -0.027655178636971055,-0.7136572775962796 l 20.479792378269824 -0.6171375968811403" fill="#ffff18" stroke="none" /><line stroke="#e1ed5e" stroke-width="0.3" x1="15.007084014347285" x2="10.007500721073583" y1="101.09737516637583" y2="101.16192664675087" /><path d="M 14.007167355692545 101.11028546245083 a86.0,86.0 0 0,1 10.666146001902534,-42.60595125391555" fill="none" id="id46" stroke="none" /><text fill="#e1ed5e" style="font-size:6.75px; font-family:Arial;" text-anchor="middle"><textPath startOffset="22.20632615414155" xlink:href="#id46">October</textPath></text><path d="M 79.05617556472873 98.46500227214037 l -18.581142956958516 -1.3618340006676495 a39.63098133304587,39.63098133304587 0 0,0 0.05572024669514547,-0.6799281438902263 l 18.554948226443873 1.6814760617656543" fill="#ffe815" stroke="none" /><path d="M 79.08570108090925 98.10471618934814 l -1.6454231484545887 -0.1491106093014263 a22.652165642808388,22.652165642808388 0 0,0 0.038533355537303894,-0.3880256316311707 l 1.642612667235056 0.17741177163702732" fill="#ff0100" stroke="none" /><path d="M 79.21141760316559 97.0276538004421 l -31.5016706858064 -4.50410082589082 a52.82203922200437,52.82203922200437 0 0,0 0.13644211068151252,-0.898983033485909 l 31.419472681685583 5.045682971768821" fill="#7cff26" stroke="none" /><path d="M 79.32604984820605 96.31383870115002 l -16.323369568547783 -2.910453625389302 a37.58080620407022,37.58080620407022 0 0,0 0.11903143426416724,-0.6358706814731765 l 16.270852410373752 3.1910023843250515" fill="#ffcf13" stroke="none" /><path d="M 79.71946130924805 94.55025226153421 l -14.562572279132432 -3.9132266925748005 a36.07918613627527,36.07918613627527 0 0,0 0.16633059643762826,-0.5983796530051748 l 14.493054912128443 4.163317648998918" fill="#ffbb11" stroke="none" /><path d="M 80.14247586403 93.16781622104843 l -13.495375302480001 -4.643221561818517 a35.271813515700224,35.271813515700224 0 0,0 0.20247183112231343,-0.5724151317327894 l 13.41345039054788 4.874834319977917" fill="#ffb110" stroke="none" /><path d="M 80.38941819471856 92.48833698450439 l -12.185030874030936 -4.667370232456846 a34.048345576658804,34.048345576658804 0 0,0 0.2143529000519755,-0.5455047500437994 l 12.102884424097269 4.876423987396409" fill="#ffa10e" stroke="none" /><path d="M 80.52162464483688 92.15188598940014 l -14.293494633528423 -5.759051945987554 a36.41008332733113,36.41008332733113 0 0,0 0.23922866084943112,-0.5793111776940592 l 14.19224428579279 6.004237694134925" fill="#ffc011" stroke="none" /><path d="M 80.95270993114464 91.15688171328213 l -15.819135754586947 -7.344377502823793 a38.44089839790472,38.44089839790472 0 0,0 0.2838069675217556,-0.5977698534013095 l 15.69037059322344 7.6155897718656345" fill="#ffda14" stroke="none" /><path d="M 81.6062741919709 89.86733742301443 l -30.651598760945372 -16.885230916850738 a55.994735742927965,55.994735742927965 0 0,0 0.4723352173671095,-0.8402316471162249 l 30.356405902285832 17.41034607390175" fill="#5bff2a" stroke="none" /><line stroke="#e1ed5e" stroke-width="0.3" x1="26.266209847984243" x2="21.928928074336255" y1="57.711370442889674" y2="55.22380399835377" /><path d="M 25.398753493254645 57.213857153982495 a86.0,86.0 0 0,1 29.58750427330803,-30.492523968695096" fill="none" id="id47" stroke="none" /><text fill="#e1ed5e" style="font-size:6.75px; font-family:Arial;" text-anchor="middle"><textPath startOffset="21.46611528233685" xlink:href="#id47">November</textPath></text><path d="M 81.96595687620814 89.24020034530311 l -2.5656512039934123 -1.5307656053223706 a23.987609318333107,23.987609318333107 0 0,0 0.21461394418081522,-0.3527688952961688 l 2.5389214615263804 1.5747022738256138" fill="#ff1502" stroke="none" /><path d="M 82.15384107792192 88.93136811851018 l -4.830267849530664 -2.9958523259202683 a26.68389115456405,26.68389115456405 0 0,0 0.2454567331351539,-0.3882536052578516 l 4.777983520149547 3.0785535788923357" fill="#ff3c05" stroke="none" /><path d="M 82.34701348167596 88.62581576622439 l -4.437230674725543 -2.858999474661147 a26.278531429937498,26.278531429937498 0 0,0 0.2482737644548687,-0.37813797634867813 l 4.387360274912754 2.934955514987492" fill="#ff3605" stroke="none" /><path d="M 82.7489923806493 88.02491185347247 l -6.025084942290711 -4.182417912407285 a28.334457591113576,28.334457591113576 0 0,0 0.28157351066512415,-0.3982657623033134 l 5.952198811821709 4.2855101750423845" fill="#ff5307" stroke="none" /><path d="M 83.17141714833178 87.43820079747576 l -4.137807244930377 -3.088691674617914 a26.163474126695352,26.163474126695352 0 0,0 0.2725038704205855,-0.3585831509288469 l 4.084027434285683 3.159459601427787" fill="#ff3405" stroke="none" /><path d="M 83.39014120810768 87.1503855733568 l -3.1196859713183005 -2.4134318278018942 a24.944248185280358,24.944248185280358 0 0,0 0.26565139615662836,-0.33735029579726233 l 3.077680494567701 2.4667745175522042" fill="#ff2303" stroke="none" /><path d="M 84.5562425177563 85.77008943001954 l -1.3036508308425065 -1.2011866126943669 a22.772668826169323,22.772668826169323 0 0,0 0.26810228094160743,-0.2859928204175564 l 1.2827812279304431 1.2234488499899734" fill="#ff0300" stroke="none" /><path d="M 84.80347519578584 85.50635884689758 l -9.173959722349675 -8.749637294171288 a33.67744807786043,33.67744807786043 0 0,0 0.4037055804038189,-0.4160540873285078 l 9.021989878242737 8.906255577049919" fill="#ff9c0e" stroke="none" /><path d="M 87.80319425747018 82.90503203632743 l -11.193794385533836 -15.689153410501723 a40.27305288437373,40.27305288437373 0 0,0 0.5677903272839769,-0.39777340935183014 l 10.922072918666201 15.879511662617494" fill="#fff016" stroke="none" /><path d="M 88.09926311788651 82.69761687909137 l -2.9708651427044996 -4.3193163086299 a26.242378569898673,26.242378569898673 0 0,0 0.3743854012927653,-0.2527866941732993 l 2.8960750470051946 4.369814915101864" fill="#ff3505" stroke="none" /><path d="M 88.39885842347998 82.49532879139004 l -32.979095939363724 -49.76132972501263 a80.69766079989384,80.69766079989384 0 0,0 1.1644786744972653,-0.7574093219746664 l 32.11765023908217 50.32163797114683" fill="#49f1ff" stroke="none" /><line stroke="#e1ed5e" stroke-width="0.3" x1="56.762969772571076" x2="54.21961505331055" y1="26.818313649435495" y2="22.513508569990535" /><path d="M 56.25429882871897 25.957352633546506 a86.0,86.0 0 0,1 42.265352541879196,-11.944610805530505" fill="none" id="id48" stroke="none" /><text fill="#e1ed5e" style="font-size:6.75px; font-family:Arial;" text-anchor="middle"><textPath startOffset="22.20632615414155" xlink:href="#id48">December</textPath></text><path d="M 96.75951476605007 79.25152402106235 l -1.1104360038651524 -7.110001462422864 a28.196192667955415,28.196192667955415 0 0,0 0.4801825300891025,-0.07076642282196643 l 0.9878844933474011 7.1280623694058" fill="#ff5107" stroke="none" /></svg>