<?xml version="1.0" encoding="utf-8" ?>
<svg baseProfile="full" height="200mm" version="1.1" viewBox="0,0,200,200" width="200mm" xmlns="http://www.w3.org/2000/svg" xmlns:ev="http://www.w3.org/2001/xml-events" xmlns:xlink="http://www.w3.org/1999/xlink"><defs /><rect fill="#1a1a1a" height="200" width="200" x="0" y="0" /><text alignment-baseline="middle" fill="#e1ed5e" style="dominant-baseline: central; font-size:9.0px; font-family:Arial;" text-anchor="middle" x="100.0" y="100.0">2021</text><line stroke="#e1ed5e" stroke-width="0.3" x1="100.0" x2="100.0" y1="15.0" y2="10.0" /><path d="M 100.0 14.0 a86.0,86.0 0 0,1 42.46469731375804,11.215312516191453" fill="none" id="id37" stroke="none" /><text fill="#e1ed5e" style="font-size:6.75px; font-family:Arial;" text-anchor="middle"><textPath startOffset="22.20632615414155" xlink:href="#id37">January</textPath></text><path d="M 101.08401301168833 79.027996857942 l 0.38823302372714547 -7.511002271804217 a28.5210291854081,28.5210291854081 0 0,0 0.4900699874403948,0.029562359965488734 l -0.5174650600071522 7.503206642458424" fill="#ff5607" stroke="none" /><path d="M 102.16513564639614 79.11191278185805 l 0.6288102096666592 -6.066429382860106 a27.098931688173714,27.098931688173714 0 0,0 0.46356374103368614,0.0520867875980216 l -0.7331406542100707 6.0547066417914825" fill="#ff4206" stroke="none" /><path d="M 103.2404852339499 79.25152402106235 l 1.1661541578548886 -7.4667587676359926 a28.557274774278834,28.557274774278834 0 0,0 0.4850259935358241,0.08003344479649029 l -1.2945093575295878 7.4455790598998774" fill="#ff5608" stroke="none" /><path d="M 103.95276090670814 79.375362276772 l 1.4845204972618922 -7.7459017055072374 a28.886874814409737,28.886874814409737 0 0,0 0.4875466076069005,0.0977972628855933 l -1.617633514335918 7.719200486544436" fill="#ff5b08" stroke="none" /><path d="M 104.66035177308747 79.52364482259891 l 1.6811772205380988 -7.386648811080624 a28.575548660334444,28.575548660334444 0 0,0 0.4786762452740691,0.11328720184716033 l -1.8080771527746915 7.356615697092595" fill="#ff5608" stroke="none" /><path d="M 105.71112130821622 79.79150937346287 l 2.049640482605588 -7.252540831328097 a28.536602325850616,28.536602325850616 0 0,0 0.4715466742860269,0.13765740488528952 l -2.174177374615042 7.216185097524104" fill="#ff5607" stroke="none" /><path d="M 106.40334571778207 80.00007090966166 l 2.295706156990165 -7.170307894598526 a28.5288499827387,28.5288499827387 0 0,0 0.4664021076544432,0.15376544193872127 l -2.4187910868870253 7.129728728400568" fill="#ff5607" stroke="none" /><path d="M 107.08798089147638 80.2323363322302 l 2.543502209944467 -7.09357107393931 a28.535791535931768,28.535791535931768 0 0,0 0.4609449922408273,0.1697699307171073 l -2.665229527957871 7.048737875415878" fill="#ff5607" stroke="none" /><path d="M 108.09893153111575 80.62456947434976 l 3.1112803981944492 -7.443253096958725 a29.067346675430198,29.067346675430198 0 0,0 0.45997863896119695,0.196938847897591 l -3.2389427949459613 7.388594721098343" fill="#ff5d08" stroke="none" /><path d="M 108.76106565485865 80.91482961587045 l 3.1003807757852484 -6.75389247068665 a28.431515623374317,28.431515623374317 0 0,0 0.4430195903687605,0.20800363792229243 l -3.216178577453607 6.699523850124354" fill="#ff5407" stroke="none" /><path d="M 109.41281617654863 81.2277094730956 l 3.3495969513741675 -6.680211951433759 a28.472953328686962,28.472953328686962 0 0,0 0.43623210099427917,0.22345502547599666 l -3.4640895399572025 6.621564400645262" fill="#ff5507" stroke="none" /><path d="M 110.36928655335952 81.73862282372117 l 0.7731502526791345 -1.361596895355799 a22.565792904141656,22.565792904141656 0 0,0 0.33612636928220085,0.1947060885441709 l -0.7964733544266638 1.3480866494215786" fill="#ff0000" stroke="none" /><line stroke="#e1ed5e" stroke-width="0.3" x1="143.23703022742887" x2="145.7803849466894" y1="26.81831364943548" y2="22.513508569990506" /><path d="M 143.74570117128098 25.957352633546492 a86.0,86.0 0 0,1 28.547481713284135,27.462654790039103" fill="none" id="id38" stroke="none" /><text fill="#e1ed5e" style="font-size:6.75px; font-family:Arial;" text-anchor="middle"><textPath startOffset="19.985693538727396" xlink:href="#id38">February</textPath></text><path d="M 110.99172775467656 82.1063720568725 l 3.913227866958453 -6.370412829615561 a28.47633011299466,28.47633011299466 0 0,0 0.4154572455879309,0.26015928907304137 l -4.022304264918647 6.302109199219576" fill="#ff5507" stroke="none" /><path d="M 111.60114157652 82.49532879139004 l 4.479208914700622 -6.7585658540018265 a29.108114756490128,29.108114756490128 0 0,0 0.4152692636057195,0.28039166050863096 l -4.594882872712883 6.680462281194526" fill="#ff5e08" stroke="none" /><path d="M 111.90073688211348 82.69761687909136 l 8.5969063445759 -12.498971173120017 a36.17007182197548,36.17007182197548 0 0,0 0.5099443783576085,0.357248625437847 l -8.81078186251716 12.349137704918235" fill="#ffbc11" stroke="none" /><path d="M 112.48926042617603 83.11751280151076 l 4.261732629307104 -5.760841242998276 a28.165867486266457,28.165867486266457 0 0,0 0.3872858366376736,0.29169566287807597 l -4.36026461970316 5.686628990614352" fill="#ff5107" stroke="none" /><path d="M 113.06298171725822 83.55741782278167 l 4.74184807978932 -5.968639351367438 a28.622977037778192,28.622977037778192 0 0,0 0.3831343603945742,0.30980134089694317 l -4.843885838748386 5.886131913206365" fill="#ff5708" stroke="none" /><path d="M 114.16331599549186 84.49514656593476 l 5.016959064851906 -5.492161229050687 a28.438663403077683,28.438663403077683 0 0,0 0.35858732688318967,0.333267840079256 l -5.110754275529942 5.40498880289679" fill="#ff5407" stroke="none" /><path d="M 114.42810811169701 84.74124197986012 l 12.76411184481339 -13.49896275202646 a39.578066276324435,39.578066276324435 0 0,0 0.4909880690667037,0.4723301334328317 l -12.994583157492512 13.277249531831327" fill="#ffe815" stroke="none" /><path d="M 115.9244219780498 86.31012108654704 l 10.939938689570038 -9.404827138294303 a35.426816420567235,35.426816420567235 0 0,0 0.3935571556599358,0.46584753798439293 l -11.100206458717091 9.215120650680804" fill="#ffb310" stroke="none" /><path d="M 116.15771136456269 86.58626213691792 l 11.424218793832088 -9.48410778812713 a35.84793169388114,35.84793169388114 0 0,0 0.39006221180922546,0.4781701502030283 l -11.585779497717722 9.286053468316" fill="#ffb811" stroke="none" /><path d="M 117.04232023915458 87.72973835380427 l 25.457446464125624 -18.329049365072702 a52.369342216582965,52.369342216582965 0 0,0 0.5204200395129817,0.7360972389233696 l -25.769179123442488 17.888125625817537" fill="#81ff25" stroke="none" /><line stroke="#e1ed5e" stroke-width="0.3" x1="172.23445277983987" x2="176.4835382374775" y1="55.19839476539836" y2="52.563006222186495" /><path d="M 173.08426987136738 54.67131705675599 a86.0,86.0 0 0,1 12.851231095245387,41.99856678651699" fill="none" id="id39" stroke="none" /><text fill="#e1ed5e" style="font-size:6.75px; font-family:Arial;" text-anchor="middle"><textPath startOffset="22.20632615414155" xlink:href="#id39">March</textPath></text><path d="M 118.21658344932153 89.55222093294921 l 27.453051162445337 -15.745181529764487 a52.64776073489368,52.64776073489368 0 0,0 0.4441023103452713,0.7900084558367844 l -27.720011114083043 15.27028956399291" fill="#7eff26" stroke="none" /><path d="M 119.04729006885535 91.15688171328212 l 7.525998349811704 -3.4941082638233794 a29.297556490960897,29.297556490960897 0 0,0 0.20842795516119106,0.4592433710252711 l -7.5850286219362415 3.3640428839560452" fill="#ff6008" stroke="none" /><path d="M 120.08093135843002 93.85539295169968 l 11.740213402089182 -3.5924129579150677 a33.277542163918255,33.277542163918255 0 0,0 0.16289214728892754,0.5491913426341599 l -11.800311446489813 3.389792228534378" fill="#ff960d" stroke="none" /><path d="M 120.53481517161879 95.60439243477599 l 14.939489294591517 -3.197892535923564 a36.27792057364255,36.27792057364255 0 0,0 0.12545372070465435,0.6117568961379538 l -14.992322311211169 2.9402599836221985" fill="#ffbe11" stroke="none" /><path d="M 120.73433829027371 96.67025291283417 l 8.882979623609327 -1.4265261380895564 a29.99679408545684,29.99679408545684 0 0,0 0.07748329975480475,0.5105181348349627 l -8.906218816803431 1.2734088908625116" fill="#ff6a09" stroke="none" /><path d="M 120.96714384426684 98.82574320788733 l 5.693017186752222 -0.3188352285276034 a26.701938318818122,26.701938318818122 0 0,0 0.02175113418127216,0.459132064693474 l -5.6976619291669905 0.2207920572111296" fill="#ff3c05" stroke="none" /><path d="M 120.98425023603335 99.18683210126433 l 7.797079628274323 -0.30214731459459704 a28.802931739376373,28.802931739376373 0 0,0 0.014934053397691835,0.49558852757698474 l -7.80112537612766 0.16788863959261321" fill="#ff5908" stroke="none" /><line stroke="#e1ed5e" stroke-width="0.3" x1="184.98032266829074" x2="189.97916517819016" y1="98.17113171792111" y2="98.06355123074" /><path d="M 185.9800911702706 98.14961562048488 a86.0,86.0 0 0,1 -9.607161424134198,41.387399972396054" fill="none" id="id40" stroke="none" /><text fill="#e1ed5e" style="font-size:6.75px; font-family:Arial;" text-anchor="middle"><textPath startOffset="21.466115282336823" xlink:href="#id40">April</textPath></text><path d="M 120.99513854157772 99.54816195383933 l 8.518533970515742 -0.18332804700329766 a29.52050645088945,29.52050645088945 0 0,0 0.006560571118463486,0.5081234631280357 l -8.52042754875192 0.03666832581479925" fill="#ff6309" stroke="none" /><path d="M 120.99980553446 99.90962569577887 l 4.214707195504645 -0.01813832178895544 a25.214746225166582,25.214746225166582 0 0,0 -0.0018679356689040626,0.4340424652331971 l -4.214394962546239 -0.05441362164792637" fill="#ff2703" stroke="none" /><path d="M 120.99824983174949 100.27111621757518 l 4.630487099717932 0.05978594206970724 a25.630873042907066,25.630873042907066 0 0,0 -0.009493110659822066,0.4411075498998677 l -4.628771926373102 -0.1394833077596898" fill="#ff2d04" stroke="none" /><path d="M 120.9904718944345 100.63252640178507 l 8.530738278308975 0.25706507290003505 a29.53461059596225,29.53461059596225 0 0,0 -0.019686740733986952,0.508027302278228 l -8.525049404723786 -0.40386962219226924" fill="#ff6409" stroke="none" /><path d="M 120.9764740272857 100.99374915477107 l 11.84808032921994 0.5612964217678633 a32.86136843541831,32.86136843541831 0 0,0 -0.03163086528138886,0.5647903480126109 l -11.836663113051022 -0.7651584861158974" fill="#ff910d" stroke="none" /><path d="M 120.95626037817324 101.35467743843564 l 2.2426840089826756 0.14497402559826653 a23.247364908563977,23.247364908563977 0 0,0 -0.02925120870810358,0.3991095026285532 l -2.2398562416102346 -0.18355666472359" fill="#ff0a01" stroke="none" /><path d="M 120.92983693683757 101.71520430193887 l 8.448700160793305 0.6923726594390698 a29.477022726554857,29.477022726554857 0 0,0 -0.04579522700017513,0.5053465138922147 l -8.435530337516054 -0.837700561879855" fill="#ff6309" stroke="none" /><path d="M 120.89721153311464 102.0752229133903 l 2.5636054576997593 0.2545819464133086 a23.576215229787213,23.576215229787213 0 0,0 -0.0435797340255328,0.4034942128391106 l -2.5588434221731746 -0.2986724811372106" fill="#ff0f01" stroke="none" /><path d="M 120.81339534386255 102.79330883721812 l 31.398361798170928 4.213888221311522 a52.67986706964768,52.67986706964768 0 0,0 -0.12835311385418172,0.8977013793496927 l -31.321174633300142 -4.753735072641624" fill="#7eff26" stroke="none" /><path d="M 120.64145759157962 103.86396538481128 l 4.739233493605493 0.8871579968897189 a25.82155404598533,25.82155404598533 0 0,0 -0.08554320217389098,0.4361829449326887 l -4.7232603584559385 -0.9686046688903525" fill="#ff2f04" stroke="none" /><path d="M 120.41448212921028 104.9243191809786 l 2.2116896783516458 0.5334970457024625 a23.27512424520079,23.27512424520079 0 0,0 -0.09729964605263529,0.3886637193980293 l -2.2021787180039496 -0.5714886044978876" fill="#ff0a01" stroke="none" /><path d="M 120.32669344350535 105.2749913415812 l 1.528932779643344 0.3967741825247646 a22.57957753737704,22.57957753737704 0 0,0 -0.10086826686530175,0.3753683449220977 l -1.5218764364362651 -0.4230334606224105" fill="#ff0000" stroke="none" /><path d="M 120.23288151984713 105.62410040840565 l 2.3362735893237763 0.6494100820475956 a23.4248521065906,23.4248521065906 0 0,0 -0.11133203429009082,0.3875614167545547 l -2.324748918147586 -0.6895289743067323" fill="#ff0d01" stroke="none" /><path d="M 120.13307415673323 105.97154293290107 l 1.7775723969517252 0.5272344303757066 a22.854114282070633,22.854114282070633 0 0,0 -0.11511206805372852,0.37619289873926787 l -1.768233556391864 -0.5577543016670315" fill="#ff0400" stroke="none" /><path d="M 120.02730092923936 106.31721596034902 l 2.453557248939605 0.7739261055393741 a23.572723224651153,23.572723224651153 0 0,0 -0.12539313565918173,0.3859203892930495 l -2.439871862264176 -0.8160453948102189" fill="#ff0f01" stroke="none" /><path d="M 119.67450827220406 107.3425965602758 l 2.0266897838450144 0.7563678456264366 a23.163229945669052,23.163229945669052 0 0,0 -0.14262562547933305,0.3723505021753652 l -2.0133698787721745 -0.7911419146349457" fill="#ff0901" stroke="none" /><path d="M 119.54520255179757 107.68017299344265 l 18.31340182341653 7.19614410388044 a40.67651331688948,40.67651331688948 0 0,0 -0.26168050524933956,0.6494695537668218 l -18.1868187039098 -7.510313025490075" fill="#fff517" stroke="none" /><path d="M 119.26925614724726 108.34839909993367 l 17.920007510216884 7.763837556877929 a40.52956330223023,40.52956330223023 0 0,0 -0.28285565875667007,0.6377648387831856 l -17.78371076672894 -8.071150732153802" fill="#fff417" stroke="none" /><path d="M 118.81262510543309 109.33194174019688 l 6.774549725688649 3.36049344532653 a28.56223777607599,28.56223777607599 0 0,0 -0.22227042339272451,0.43856063215437646 l -6.715700632509655 -3.4766082891836008" fill="#ff5608" stroke="none" /><line stroke="#e1ed5e" stroke-width="0.3" x1="174.80103733775053" x2="179.2010983576182" y1="140.37084112569926" y2="142.7455964860345" /><path d="M 175.68104954172406 140.8457921977663 a86.0,86.0 0 0,1 -30.038265399797805,32.042727171017184" fill="none" id="id41" stroke="none" /><text fill="#e1ed5e" style="font-size:6.75px; font-family:Arial;" text-anchor="middle"><textPath startOffset="22.206326154141568" xlink:href="#id41">May</textPath></text><path d="M 118.12598468904814 110.60418214915192 l 20.133478345918185 11.778619222001236 a44.32579733004755,44.32579733004755 0 0,0 -0.39095168406901265,0.655257509998518 l -19.927745786150943 -12.123438825885858" fill="#dcff1b" stroke="none" /><path d="M 117.75023020441432 111.22182372390056 l 2.329965043478033 1.4730207270358875 a23.75654261097247,23.75654261097247 0 0,0 -0.22149597648591812,0.34376667428667346 l -2.3042642036150642 -1.5129090012440138" fill="#ff1101" stroke="none" /><path d="M 117.55443506779139 111.5257021239791 l 8.882549772630378 5.832008970120433 a31.62600673304987,31.62600673304987 0 0,0 -0.3027013876953643,0.4524975035409568 l -8.780845279524293 -5.984043387867196" fill="#ff800b" stroke="none" /><path d="M 116.71984013943494 112.70617746262583 l 14.113700735996767 10.725651962604731 a38.7267074914718,38.7267074914718 0 0,0 -0.40790874708112,0.5272770422548068 l -13.926985171697579 -10.96700699897279" fill="#ffdd14" stroke="none" /><path d="M 116.498646956653 112.99209946851258 l 11.177736707268025 8.802071316224522 a35.227377036998405,35.227377036998405 0 0,0 -0.3792513787312139,0.47317440753247325 l -11.024567416481958 -8.993173557335245" fill="#ffb010" stroke="none" /><path d="M 116.27256486870786 113.27417163493432 l 4.502222357427919 3.6726399798265117 a26.810188514768164,26.810188514768164 0 0,0 -0.29478951293657857,0.3550929585733546 l -4.438336844597797 -3.749594195513637" fill="#ff3d05" stroke="none" /><path d="M 115.32070863581623 114.36230785411682 l 45.96212590744871 43.08692356235047 a84.0,84.0 0 0,0 -0.997973794484142,1.0463715336699715 l -45.21364556158561 -43.87170221260295" fill="#4dd2ff" stroke="none" /><path d="M 114.55890576462653 115.13401014063108 l 6.5613203139409775 6.820504904178744 a30.464154025060076,30.464154025060076 0 0,0 -0.3810400760943964,0.3602971752696307 l -6.4429444034557735 -6.932436716194296" fill="#ff700a" stroke="none" /><path d="M 114.29624159901734 115.38237550388516 l 6.977881544614256 7.508014844143687 a31.249932572975794,31.249932572975794 0 0,0 -0.3971724325170173,0.3628076002368121 l -6.847609562630375 -7.627015210967082" fill="#ff7b0b" stroke="none" /><path d="M 114.0293411484842 115.62618273729858 l 10.331395203287551 11.5073307911729 a36.46468198134022,36.46468198134022 0 0,0 -0.4706681380891251,0.4153099082175992 l -10.131784712291838 -11.683463841162787" fill="#ffc011" stroke="none" /><path d="M 113.75828350139079 115.86535959552629 l 20.86979436365952 24.065995749446156 a52.85467733620598,52.85467733620598 0 0,0 -0.692483164741475,0.590149176094109 l -20.452445722340997 -24.42166931576321" fill="#7cff26" stroke="none" /><path d="M 113.20401910651253 116.32954008644616 l 2.829838117253654 3.4996885873222534 a25.50064484025293,25.50064484025293 0 0,0 -0.3437031644242635,0.2730585807415741 l -2.7691774601120396 -3.5478810820689537" fill="#ff2b04" stroke="none" /><path d="M 112.63410532772338 116.77436683061366 l 4.696204903524824 6.235175480973072 a28.80587943632352,28.80587943632352 0 0,0 -0.39863911926221096,0.2949036903148203 l -4.5881808138440485 -6.315089120027661" fill="#ff5908" stroke="none" /><path d="M 112.34349029814194 116.9893568818739 l 8.88663823372093 12.231408198661367 a36.1188519940937,36.1188519940937 0 0,0 -0.5061329091110761,0.3611123919885398 l -8.67477799676097 -12.382564852494125" fill="#ffbc11" stroke="none" /><path d="M 111.7513745106137 117.40417183066458 l 17.945936406104185 26.578521567151128 a53.069836952929045,53.069836952929045 0 0,0 -0.7614897432220157,0.5046738790410003 l -17.485771964142206 -26.883493467283447" fill="#7aff26" stroke="none" /><line stroke="#e1ed5e" stroke-width="0.3" x1="143.8653032363475" x2="146.44561519142675" y1="172.8068346515853" y2="177.08958963109032" /><path d="M 144.38136562736335 173.6633856474863 a86.0,86.0 0 0,1 -40.68145358897372,12.25698825130547" fill="none" id="id42" stroke="none" /><text fill="#e1ed5e" style="font-size:6.75px; font-family:Arial;" text-anchor="middle"><textPath startOffset="21.466115282336833" xlink:href="#id42">June</textPath></text><path d="M 110.8373102113329 117.98757091392108 l 7.836438107250507 13.00677782752009 a36.185059488300865,36.185059488300865 0 0,0 -0.5362834810242153,0.3168457333497319 l -7.61138675519791 -13.13974213316357" fill="#ffbd11" stroke="none" /><path d="M 110.5260780823613 118.17145234162733 l 1.5029566830356718 2.594594636636631 a23.99846629454879,23.99846629454879 0 0,0 -0.35923559389006926,0.20398334568387014 l -1.4580723222244034 -2.6200811481151294" fill="#ff1502" stroke="none" /><path d="M 110.21172684928248 118.3499491758327 l 2.3160519981038434 4.161826602008792 a25.762866523755296,25.762866523755296 0 0,0 -0.3893593397863227,0.2123097566381485 l -2.2440698464488724 -4.201077010406711" fill="#ff2e04" stroke="none" /><path d="M 109.89434966115114 118.52300852407294 l 1.043314630450432 1.9531678639781342 a23.21435546446112,23.21435546446112 0 0,0 -0.3540842498690789,0.18524014447636378 l -1.0095394780548574 -1.9708374273992146" fill="#ff0a01" stroke="none" /><path d="M 109.57404056367764 118.69057910512821 l 22.039850586594145 43.02651196369158 a69.34289757183664,69.34289757183664 0 0,0 -1.0670422085854099,0.5350371148176097 l -21.295954470325977 -43.399516919418495" fill="#3bff98" stroke="none" /><path d="M 108.59647513512805 119.15986991738527 l 8.126244894618855 18.111818233671222 a40.85129254776284,40.85129254776284 0 0,0 -0.644048494098669,0.2823319329723086 l -7.813275725862432 -18.249014719937986" fill="#fff817" stroke="none" /><path d="M 107.93186726928326 119.44442032107085 l 2.8652700498378434 7.024010020714456 a28.585940233721516,28.585940233721516 0 0,0 -0.4572102307635193,0.18193338656459032 l -2.7439387430324578 -7.072290251685114" fill="#ff5608" stroke="none" /><path d="M 107.59598834532513 119.57807347666477 l 1.8514995614718932 4.772097166107196 a26.11868752600693,26.11868752600693 0 0,0 -0.420547907009528,0.15901523357705227 l -1.7690814337020904 -4.80326064979088" fill="#ff3404" stroke="none" /><path d="M 106.91757812671514 119.82793768551818 l 0.9878223769562028 2.831407202906261 a23.998776383307842,23.998776383307842 0 0,0 -0.3912146442132164,0.1327212479646304 l -0.9389379998057594 -2.8479914377690148" fill="#ff1502" stroke="none" /><path d="M 105.88484417918355 120.15858648285463 l 2.1223991356631116 7.270297262711308 a28.57375734884945,28.57375734884945 0 0,0 -0.4733295043717474,0.13376764589608328 l -1.9969384631867582 -7.3057537019459104" fill="#ff5608" stroke="none" /><path d="M 105.18746579009965 120.34920634021253 l 1.8661637215249705 7.320520687848433 a28.554640307569436,28.554640307569436 0 0,0 -0.4773339373957788,0.11731706833488437 l -1.7398764993859805 -7.351559014497346" fill="#ff5608" stroke="none" /><path d="M 104.83641907484287 120.43548508189849 l 7.295003642719289 30.82382560448997 a52.67531062268055,52.67531062268055 0 0,0 -0.8841421723317632,0.2012278799029301 l -6.763341320994663 -30.944830217970583" fill="#7eff26" stroke="none" /><path d="M 104.13013068566511 120.58985236759428 l 0.8879250205074984 4.426553655843552 a25.51473012594387,25.51473012594387 0 0,0 -0.4313597857225262,0.08267112957866493 l -0.8115976202132679 -4.441181983770685" fill="#ff2b04" stroke="none" /><path d="M 103.41894727170886 120.7198165907248 l 1.1701807218929212 7.0916361115755535 a28.187532654596588,28.187532654596588 0 0,0 -0.47940836940884346,0.07487372777057746 l -1.0479364888755607 -7.110728146693237" fill="#ff5107" stroke="none" /><path d="M 103.06178313531738 120.77559828337769 l 1.7306447292735139 11.743215661452924 a32.87005666584433,32.87005666584433 0 0,0 -0.5604679761003616,0.07767575449168096 l -1.5282481619863217 -11.771265981437208" fill="#ff910d" stroke="none" /><path d="M 102.70371172650421 120.8252237178851 l 0.9676554059077881 7.453324299445883 a28.51587653552751,28.51587653552751 0 0,0 -0.4873126712501636,0.05900677798973904 l -0.8392153116062442 -7.468876606160973" fill="#ff5507" stroke="none" /><path d="M 101.98527174616119 120.90594882070398 l 3.1191429640759565 32.84620520970047 a53.99397292700743,53.99397292700743 0 0,0 -0.9260112455890994,0.07990014672154097 l -2.5532874007453157 -32.89502960870068" fill="#70ff27" stroke="none" /><path d="M 101.62511606390274 120.93702456842531 l 0.5825280481512252 7.504943386412205 a28.527517131175138,28.527517131175138 0 0,0 -0.48990881047708434,0.03378697989963624 l -0.4532564768952105 -7.513858710828127" fill="#ff5607" stroke="none" /><line stroke="#e1ed5e" stroke-width="0.3" x1="102.19456741930631" x2="102.32365962044197" y1="184.97166512339345" y2="189.96999836594603" /><path d="M 102.22038585953345 185.97133177190398 a86.0,86.0 0 0,1 -42.740103519485714,-10.115201625700543" fill="none" id="id43" stroke="none" /><text fill="#e1ed5e" style="font-size:6.75px; font-family:Arial;" text-anchor="middle"><textPath startOffset="22.20632615414155" xlink:href="#id43">July</textPath></text><path d="M 100.54218724476979 120.99299961872073 l 0.43061195607037844 16.672905378731727 a37.67846516993851,37.67846516993851 0 0,0 -0.6485007683519469,0.011164528838396847 l -0.1435514978257636 -16.677847384849283" fill="#ffd013" stroke="none" /><path d="M 99.81925306533755 120.99922214144158 l -0.31081007684534717 36.109989138476756 a57.111326733931804,57.111326733931804 0 0,0 -0.9829683640644512,-0.016922691819963188 l 0.9323381308024662 -36.09928896937763" fill="#4fff2b" stroke="none" /><path d="M 99.09653310690486 120.98055641714683 l -0.6512057053994509 15.12247780822929 a36.136492458001364,36.136492458001364 0 0,0 -0.6212240449059268,-0.032110187247739966 l 0.9114178187188665 -15.109027814219349" fill="#ffbc11" stroke="none" /><path d="M 98.01472825383883 120.90594882070398 l -1.2838099016084386 13.519189073453955 a34.58000887581686,34.58000887581686 0 0,0 -0.5920878095634764,-0.06137232236224255 l 1.5163303077775083 -13.495087382635951" fill="#ffa80f" stroke="none" /><path d="M 96.93821686468263 120.77559828337769 l -2.156016414696105 14.629557007946499 a35.787574007564444,35.787574007564444 0 0,0 -0.6086684744741921,-0.0950614978134603 l 2.4075207527788143 -14.590277202785932" fill="#ffb711" stroke="none" /><path d="M 96.58105272829116 120.7198165907248 l -2.4800444052399606 15.029791666761085 a36.23303179929074,36.23303179929074 0 0,0 -0.6144967400953961,-0.10683813492884132 l 2.7383901168074067 -14.984874953311238" fill="#ffbd11" stroke="none" /><path d="M 96.22490169976321 120.6578951692458 l -1.3761501835112444 7.530496947941853 a28.655205654359627,28.655205654359627 0 0,0 -0.48445361992409286,-0.09284668926778317 l 1.5055714180070323 -7.505693060325601" fill="#ff5708" stroke="none" /><path d="M 95.51606077576429 120.51570834832081 l -4.771257716384541 21.830298509611275 a43.345622238257214,43.345622238257214 0 0,0 -0.7275456405244911,-0.16558701909812643 l 5.146323506301895 -21.74493475693546" fill="#e8ff1a" stroke="none" /><path d="M 94.81253420990036 120.34920634021253 l -0.5973095696891514 2.3431047402347556 a23.418040228315654,23.418040228315654 0 0,0 -0.3897537557343493,-0.102937509306203 l 0.63755376823499 -2.332475881624971" fill="#ff0d01" stroke="none" /><path d="M 94.46302465271185 120.25689768951611 l -3.0619156038127677 11.20194821722408 a32.61287953206447,32.61287953206447 0 0,0 -0.5402383003602006,-0.1526767399763189 l 3.2542850722775825 -11.14758268390924" fill="#ff8e0d" stroke="none" /><path d="M 93.08242187328487 119.8279376855182 l -3.118651507166544 8.939028459705913 a30.467429272330712,30.467429272330712 0 0,0 -0.4936890580605439,-0.17701933160515426 l 3.272060125856815 -8.8840215870608" fill="#ff700a" stroke="none" /><path d="M 92.7421414339146 119.70592522655815 l -5.245897717974754 14.243218882720532 a36.178561427504896,36.178561427504896 0 0,0 -0.5825261423187035,-0.22026154224434108 l 5.49029408105374 -14.150809090369558" fill="#ffbd11" stroke="none" /><path d="M 92.40401165467489 119.57807347666478 l -11.46011818583131 29.537569792554045 a52.68283980458858,52.68283980458858 0 0,0 -0.8426216926011609,-0.3352965612158546 l 11.966860954474331 -29.335926386932123" fill="#7eff26" stroke="none" /><path d="M 92.06813273071674 119.44442032107085 l -1.7132630452673845 4.199945062336769 a25.535946294757675,25.535946294757675 0 0,0 -0.40556985228770065,-0.1695282311489484 l 1.7853043570525473 -4.169831788167848" fill="#ff2b04" stroke="none" /><path d="M 91.7346041902142 119.30500536409082 l -2.9693505779665164 6.935339837886767 a28.544268123671728,28.544268123671728 0 0,0 -0.45001985870351047,-0.1972754811910488 l 3.08829111132777 -6.883199803401266" fill="#ff5607" stroke="none" /><path d="M 91.07499286063937 119.00905698771935 l -12.860007696584566 27.39007547554721 a51.25881743413623,51.25881743413623 0 0,0 -0.7954571073844445,-0.38186775139334705 l 13.329577471969252 -27.1646534476543" fill="#8dff24" stroke="none" /><path d="M 90.7491055286396 118.85261126421891 l -16.706950048881506 34.047478939187194 a58.92562460988899,58.92562460988899 0 0,0 -0.906742158573247,-0.4546593419670608 l 17.290546115137516 -33.754851756310835" fill="#3dff2e" stroke="none" /><line stroke="#e1ed5e" stroke-width="0.3" x1="58.666819895761336" x2="56.23545636021788" y1="174.27360380694188" y2="178.64263932499728" /><path d="M 58.180547188652646 175.14741091055294 a86.0,86.0 0 0,1 -31.652253787137756,-30.449443065178592" fill="none" id="id44" stroke="none" /><text fill="#e1ed5e" style="font-size:6.75px; font-family:Arial;" text-anchor="middle"><textPath startOffset="22.20632615414155" xlink:href="#id44">August</textPath></text><path d="M 89.7882731507175 118.34994917583269 l -18.606166323564672 33.43432618533965 a59.26282259227409,59.26282259227409 0 0,0 -0.887111493219576,-0.5037250580378676 l 19.178926583705458 -33.109097961507146" fill="#3aff2e" stroke="none" /><path d="M 89.4739219176387 118.17145234162733 l -5.2741522519716675 9.1049112061774 a31.522171356205554,31.522171356205554 0 0,0 -0.4671767857619051,-0.2760162796847691 l 5.430096908761954 -9.012776354198882" fill="#ff7f0b" stroke="none" /><path d="M 89.1626897886671 117.98757091392108 l -4.622899858644984 7.6730053319295894 a29.95802511309718,29.95802511309718 0 0,0 -0.43941404113258004,-0.2699239934496699 l 4.754293099709872 -7.592292871651542" fill="#ff6909" stroke="none" /><path d="M 88.8546689885994 117.79835938074946 l -9.173928589064417 14.650159586510238 a38.28548933838644,38.28548933838644 0 0,0 -0.5555373961402305,-0.35457025055886865 l 9.424747787251572 -14.490074907127566" fill="#ffd814" stroke="none" /><path d="M 88.24862548938628 117.40417183066458 l -8.417391544697296 12.46643349487158 a36.04208910021469,36.04208910021469 0 0,0 -0.5111851477289197,-0.35159780584298445 l 8.630733577049106 -12.319694899663494" fill="#ffbb11" stroke="none" /><path d="M 87.95078237400918 117.19931262002967 l -9.707594993590636 13.856830066978786 a37.91889890225464,37.91889890225464 0 0,0 -0.5313569383330657,-0.3791090670989189 l 9.944679259772588 -13.687676738035648" fill="#ffd313" stroke="none" /><path d="M 87.65650970185807 116.9893568818739 l -8.853937766844838 12.186399867262157 a36.063218636930436,36.063218636930436 0 0,0 -0.49907206433206297,-0.3692015820648893 l 9.062394801595465 -12.0321883364575" fill="#ffbb11" stroke="none" /><path d="M 87.07902340077011 116.55440617244103 l -9.367315629232603 12.001441723918461 a36.22436223788295,36.22436223788295 0 0,0 -0.48823972916785924,-0.38788716924252786 l 9.572512851117821 -11.838420640670803" fill="#ffbd11" stroke="none" /><path d="M 86.79598089348748 116.32954008644616 l -10.186929573378144 12.598275834381043 a37.20154585624827,37.20154585624827 0 0,0 -0.4944791767996879,-0.4069226985351739 l 10.402278878722521 -12.421058016988688" fill="#ffca12" stroke="none" /><path d="M 86.51685102203217 116.09983520530335 l -10.976275675190623 13.10645086153926 a38.095545673763226,38.095545673763226 0 0,0 -0.4991142763565628,-0.4253560143640493 l 11.200255428124242 -12.91557045695226" fill="#ffd513" stroke="none" /><path d="M 86.24171649860922 115.8653595955263 l -1.559144220279522 1.7979265882637583 a23.379804764348705,23.379804764348705 0 0,0 -0.3017749937584624,-0.2662813452149617 l 1.5898615669445721 -1.7708221012765077" fill="#ff0c01" stroke="none" /><path d="M 85.97065885151581 115.62618273729859 l -13.027139963805547 14.509909443665142 a40.49984224807838,40.49984224807838 0 0,0 -0.5147345782158779,-0.4701978329611475 l 13.27497409148828 -14.283518844117419" fill="#fff316" stroke="none" /><path d="M 85.70375840098266 115.38237550388516 l -12.904189128679237 13.884564091595971 a39.95518971370004,39.95518971370004 0 0,0 -0.49975221751931587,-0.47254691462515996 l 13.14127718058937 -13.66038254022488" fill="#ffed16" stroke="none" /><path d="M 85.18274418774928 114.88116024355367 l -5.291342410756793 5.3141631160124145 a28.499242237150384,28.499242237150384 0 0,0 -0.34464998785417417,-0.34912861808831835 l 5.382033023666501 -5.222294003943431" fill="#ff5507" stroke="none" /><path d="M 84.9287848128048 114.62390073753433 l -5.359934312622892 5.20085118379156 a28.468450232248877,28.468450232248877 0 0,0 -0.3382234202542996,-0.354625903937218 l 5.448664284256149 -5.107818163271841" fill="#ff5507" stroke="none" /><path d="M 84.43433777217949 114.09645910891817 l -11.6009975735543 10.506009029669462 a36.651177924779624,36.651177924779624 0 0,0 -0.41946601258023636,-0.4712745118625681 l 11.780122435782875 -10.30476034806603" fill="#ffc312" stroke="none" /><path d="M 83.95833913139862 113.55231037782056 l -11.705050943146722 9.888657082896934 a36.322981318424546,36.322981318424546 0 0,0 -0.39938674677221797,-0.48108706484699726 l 11.873533689812476 -9.685708760936174" fill="#ffbe11" stroke="none" /><path d="M 83.50135304334701 112.99209946851258 l -11.822843247229928 9.31006984222447 a36.048489057565476,36.048489057565476 0 0,0 -0.37969904900583523,-0.4908122047869325 l 11.981349113453831 -9.105179643324284" fill="#ffbb11" stroke="none" /><path d="M 83.28015986056508 112.70617746262583 l -5.9475915169631275 4.519849033215432 a28.470132538028373,28.470132538028373 0 0,0 -0.29315930462125234,-0.39273479594903793 l 6.024512088279464 -4.416801357757086" fill="#ff5507" stroke="none" /><path d="M 83.06392112726016 112.41649034213515 l -28.5246071735438 20.912485832454596 a56.36927025113185,56.36927025113185 0 0,0 -0.5669680460037887,-0.7874690274726174 l 28.880355011923196 -20.41838319953084" fill="#57ff2a" stroke="none" /><path d="M 82.85270091963577 112.12312394758628 l -12.243652489704031 8.6562505271648 a35.99458900662758,35.99458900662758 0 0,0 -0.3533281868999066,-0.5089956056907313 l 12.390841583766072 -8.444213659287056" fill="#ffba11" stroke="none" /><path d="M 82.24976979558568 111.22182372390057 l -12.785950985203433 8.08337055046774 a36.12684441819224,36.12684441819224 0 0,0 -0.32778291994666453,-0.5284904353078564 l 12.923198544818053 -7.86208378379462" fill="#ffbc11" stroke="none" /><line stroke="#e1ed5e" stroke-width="0.3" x1="26.63291911575756" x2="22.317208475507996" y1="142.92168965132927" y2="145.44649492493687" /><path d="M 25.769776987707644 143.4266507060508 a86.0,86.0 0 0,1 -11.730757126820373,-40.83630448921669" fill="none" id="id45" stroke="none" /><text fill="#e1ed5e" style="font-size:6.75px; font-family:Arial;" text-anchor="middle"><textPath startOffset="21.46611528233685" xlink:href="#id45">September</textPath></text><path d="M 81.87401531095188 110.60418214915194 l -13.102131503781289 7.66509469094862 a36.17957596784531,36.17957596784531 0 0,0 -0.30984878656525733,-0.5402474766084774 l 13.232132286498924 -7.438427368481836" fill="#ffbd11" stroke="none" /><path d="M 81.69416730710424 110.29060199501025 l -27.79298696182509 15.623794441628776 a52.88342950522183,52.88342950522183 0 0,0 -0.43924369784849526,-0.797354898551604 l 28.0578070691251 -15.14306902467935" fill="#7cff26" stroke="none" /><path d="M 81.18737489456691 109.33194174019688 l -2.8506551959158233 1.4140582752586341 a24.182105568932197,24.182105568932197 0 0,0 -0.18176507677404838,-0.3744898951919115 l 2.8745735293045906 -1.364779424101438" fill="#ff1802" stroke="none" /><path d="M 81.02952815118164 109.00673069616217 l -6.787415919659887 3.222504310826 a28.51355767261719,28.51355767261719 0 0,0 -0.2066898686654215,-0.4451915891113813 l 6.841880405165136 -3.1051926544357915" fill="#ff5507" stroke="none" /><path d="M 80.87730276802145 108.67885076344099 l -15.179616452268732 6.889280535969832 a37.66982129302172,37.66982129302172 0 0,0 -0.2628975308129428,-0.592764529061995 l 15.295955067812955 -6.626967670415141" fill="#ffd013" stroke="none" /><path d="M 80.58989483394504 108.01547362559985 l -9.45783932522541 3.9056491975676035 a31.232537337153513,31.232537337153513 0 0,0 -0.20092543544561745,-0.49868045300098846 l 9.523667374928415 -3.7422693767238098" fill="#ff7b0b" stroke="none" /><path d="M 80.20201598880116 107.00284435728193 l -14.165702171719378 5.010621660470495 a36.02575946307644,36.02575946307644 0 0,0 -0.20175998262340689,-0.5864089512580287 l 14.249852985286012 -4.766040006123169" fill="#ffbb11" stroke="none" /><path d="M 79.86692584326677 105.97154293290107 l -14.680216075005246 4.354205417101715 a36.31234302199243,36.31234302199243 0 0,0 -0.1725828193101116,-0.600783434757339 l 14.752991531201463 -4.10086450683978" fill="#ffbe11" stroke="none" /><path d="M 79.76711848015287 105.62410040840567 l -8.727443651322867 2.4259529892266825 a30.058339836468583,30.058339836468583 0 0,0 -0.13427765152532273,-0.4996970938381939 l 8.767909379189964 -2.2753649622129495" fill="#ff6b09" stroke="none" /><path d="M 79.50377843672027 104.57218783832718 l -11.369060034732437 2.5361493026179653 a32.64850116360555,32.64850116360555 0 0,0 -0.11763715355954422,-0.5495616180052314 l 11.411031227016421 -2.3400738651965702" fill="#ff8e0d" stroke="none" /><path d="M 79.23777060512086 103.15116336523772 l -7.487368742855448 1.136386735536762 a28.57311465014182,28.57311465014182 0 0,0 -0.06961764411838209,-0.4869056408179239 l 7.50582043799043 -1.0073356227384376" fill="#ff5608" stroke="none" /><path d="M 79.18660465613746 102.79330883721812 l -14.900240690368715 1.9997205313912032 a36.03383034474538,36.03383034474538 0 0,0 -0.07721276102707945,-0.6154616756990379 l 14.932454960642643 -1.7429411014047567" fill="#ffbb11" stroke="none" /><path d="M 79.1416061653843 102.43462659150553 l -30.121622400435765 3.5158461124502383 a51.32611597156591,51.32611597156591 0 0,0 -0.0948743664241091,-0.8784188030261438 l 30.177679068360927 -2.996830987539312" fill="#8dff24" stroke="none" /><path d="M 79.07016306316243 101.71520430193888 l -6.896322013129291 0.5651549613201345 a27.91944054379228,27.91944054379228 0 0,0 -0.03512989044445108,-0.4793194442866003 l 6.905028462238078 -0.44636238053677363" fill="#ff4d07" stroke="none" /><path d="M 79.0235259727143 100.99374915477108 l -20.46613506678165 0.9695721214914167 a41.48908867349944,41.48908867349944 0 0,0 -0.027655178636971055,-0.7136572775962796 l 20.479792378269824 -0.6171375968811403" fill="#ffff18" stroke="none" /><line stroke="#e1ed5e" stroke-width="0.3" x1="15.007084014347285" x2="10.007500721073583" y1="101.09737516637583" y2="101.16192664675087" /><path d="M 14.007167355692545 101.11028546245083 a86.0,86.0 0 0,1 10.666146001902534,-42.60595125391555" fill="none" id="id46" stroke="none" /><text fill="#e1ed5e" style="font-size:6.75px; font-family:Arial;" text-anchor="middle"><textPath startOffset="22.20632615414155" xlink:href="#id46">October</textPath></text><path d="M 79.05617556472873 98.46500227214037 l -18.581142956958516 -1.3618340006676495 a39.63098133304587,39.63098133304587 0 0,0 0.05572024669514547,-0.6799281438902263 l 18.554948226443873 1.6814760617656543" fill="#ffe815" stroke="none" /><path d="M 79.08570108090925 98.10471618934814 l -1.6454231484545887 -0.1491106093014263 a22.652165642808388,22.652165642808388 0 0,0 0.038533355537303894,-0.3880256316311707 l 1.642612667235056 0.17741177163702732" fill="#ff0100" stroke="none" /><path d="M 79.21141760316559 97.0276538004421 l -31.5016706858064 -4.50410082589082 a52.82203922200437,52.82203922200437 0 0,0 0.13644211068151252,-0.898983033485909 l 31.419472681685583 5.045682971768821" fill="#7cff26" stroke="none" /><path d="M 79.32604984820605 96.31383870115002 l -16.324748671901947 -2.9106995192496385 a37.58220705732878,37.58220705732878 0 0,0 0.11903587125180541,-0.6358943840385586 l 16.27222707674028 3.19127198075077" fill="#ffcf13" stroke="none" /><path d="M 79.71946130924805 94.55025226153421 l -14.563418735558688 -3.913454150733829 a36.0800626211272,36.0800626211272 0 0,0 0.16633463716758373,-0.5983941896607297 l 14.493897327824744 4.163559643813501" fill="#ffbb11" stroke="none" /><path d="M 80.14247586403 93.16781622104843 l -13.494166058176752 -4.642805508978451 a35.27053469915722,35.27053469915722 0 0,0 0.2024644902940054,-0.572394378222636 l 13.412248487072938 4.874397513627697" fill="#ffb110" stroke="none" /><path d="M 80.38941819471856 92.48833698450439 l -12.185030874030936 -4.667370232456846 a34.048345576658804,34.048345576658804 0 0,0 0.2143529000519755,-0.5455047500437994 l 12.102884424097269 4.876423987396409" fill="#ffa10e" stroke="none" /><path d="M 80.52162464483688 92.15188598940014 l -14.293494633528423 -5.759051945987554 a36.41008332733113,36.41008332733113 0 0,0 0.23922866084943112,-0.5793111776940592 l 14.19224428579279 6.004237694134925" fill="#ffc011" stroke="none" /><path d="M 80.95270993114464 91.15688171328213 l -15.819135754586947 -7.344377502823793 a38.44089839790472,38.44089839790472 0 0,0 0.2838069675217556,-0.5977698534013095 l 15.69037059322344 7.6155897718656345" fill="#ffda14" stroke="none" /><path d="M 81.6062741919709 89.86733742301443 l -30.651598760945372 -16.885230916850738 a55.994735742927965,55.994735742927965 0 0,0 0.4723352173671095,-0.8402316471162249 l 30.356405902285832 17.41034607390175" fill="#5bff2a" stroke="none" /><line stroke="#e1ed5e" stroke-width="0.3" x1="26.266209847984243" x2="21.928928074336255" y1="57.711370442889674" y2="55.22380399835377" /><path d="M 25.398753493254645 57.213857153982495 a86.0,86.0 0 0,1 29.58750427330803,-30.492523968695096" fill="none" id="id47" stroke="none" /><text fill="#e1ed5e" style="font-size:6.75px; font-family:Arial;" text-anchor="middle"><textPath startOffset="21.46611528233685" xlink:href="#id47">November</textPath></text><path d="M 81.96595687620814 89.24020034530311 l -2.5655388128857326 -1.5306985484902835 a23.98747844289685,23.98747844289685 0 0,0 0.21461277325572642,-0.3527669706031968 l 2.538810241343789 1.5746332923005546" fill="#ff1502" stroke="none" /><path d="M 82.15384107792192 88.93136811851018 l -4.830267849530664 -2.9958523259202683 a26.68389115456405,26.68389115456405 0 0,0 0.2454567331351539,-0.3882536052578516 l 4.777983520149547 3.0785535788923357" fill="#ff3c05" stroke="none" /><path d="M 82.34701348167596 88.62581576622439 l -4.43750156088779 -2.8591740122167373 a26.278853676227172,26.278853676227172 0 0,0 0.2482768089666837,-0.37814261334904425 l 4.387628116563186 2.9351346895434487" fill="#ff3605" stroke="none" /><path d="M 82.7489923806493 88.02491185347247 l -6.025084942290711 -4.182417912407285 a28.334457591113576,28.334457591113576 0 0,0 0.28157351066512415,-0.3982657623033134 l 5.952198811821709 4.2855101750423845" fill="#ff5307" stroke="none" /><path d="M 83.17141714833178 87.43820079747576 l -4.137321144490153 -3.088328821953719 a26.16286753317915,26.16286753317915 0 0,0 0.27249755248741897,-0.35857483726937955 l 4.083547651778625 3.159088435104125" fill="#ff3405" stroke="none" /><path d="M 83.39014120810768 87.1503855733568 l -3.119776594952883 -2.4135019354877523 a24.94436276159013,24.94436276159013 0 0,0 0.26565261637206367,-0.33735184534695034 l 3.077769897986848 2.4668461747877504" fill="#ff2303" stroke="none" /><path d="M 84.5562425177563 85.77008943001954 l -1.3036159435230705 -1.2011544674449888 a22.772621387344348,22.772621387344348 0 0,0 0.2681017224450483,-0.28599222465236723 l 1.2827468991075663 1.223416108975406" fill="#ff0300" stroke="none" /><path d="M 84.80347519578584 85.50635884689758 l -9.173959722349675 -8.749637294171288 a33.67744807786043,33.67744807786043 0 0,0 0.4037055804038189,-0.4160540873285078 l 9.021989878242737 8.906255577049919" fill="#ff9c0e" stroke="none" /><path d="M 87.80319425747018 82.90503203632743 l -11.193794385533836 -15.689153410501723 a40.27305288437373,40.27305288437373 0 0,0 0.5677903272839769,-0.39777340935183014 l 10.922072918666201 15.879511662617494" fill="#fff016" stroke="none" /><path d="M 88.09926311788651 82.69761687909137 l -2.9708217994671147 -4.3192532922548335 a26.242302086568767,26.242302086568767 0 0,0 0.3743843101476893,-0.2527859574272732 l 2.896032794912886 4.369751161980772" fill="#ff3505" stroke="none" /><path d="M 88.39885842347998 82.49532879139004 l -32.979095939363724 -49.76132972501263 a80.69766079989384,80.69766079989384 0 0,0 1.1644786744972653,-0.7574093219746664 l 32.11765023908217 50.32163797114683" fill="#49f1ff" stroke="none" /><line stroke="#e1ed5e" stroke-width="0.3" x1="56.762969772571076" x2="54.21961505331055" y1="26.818313649435495" y2="22.513508569990535" /><path d="M 56.25429882871897 25.957352633546506 a86.0,86.0 0 0,1 42.265352541879196,-11.944610805530505" fill="none" id="id48" stroke="none" /><text fill="#e1ed5e" style="font-size:6.75px; font-family:Arial;" text-anchor="middle"><textPath startOffset="22.20632615414155" xlink:href="#id48">December</textPath></text><path d="M 96.75951476605007 79.25152402106235 l -1.1104360038651524 -7.110001462422864 a28.196192667955415,28.196192667955415 0 0,0 0.4801825300891025,-0.07076642282196643 l 0.9878844933474011 7.1280623694058" fill="#ff5107" stroke="none" /></svg>