<?xml version="1.0" encoding="utf-8" ?>
<svg baseProfile="full" height="200mm" version="1.1" viewBox="0,0,200,200" width="200mm" xmlns="http://www.w3.org/2000/svg" xmlns:ev="http://www.w3.org/2001/xml-events" xmlns:xlink="http://www.w3.org/1999/xlink"><defs /><rect fill="#1a1a1a" height="200" width="200" x="0" y="0" /><text alignment-baseline="middle" fill="#e1ed5e" style="dominant-baseline: central; font-size:9.0px; font-family:Arial;" text-anchor="middle" x="100.0" y="100.0">2019</text><line stroke="#e1ed5e" stroke-width="0.3" x1="100.0" x2="100.0" y1="15.0" y2="10.0" /><path d="M 100.0 14.0 a86.0,86.0 0 0,1 42.46469731375804,11.215312516191453" fill="none" id="id13" stroke="none" /><text fill="#e1ed5e" style="font-size:6.75px; font-family:Arial;" text-anchor="middle"><textPath startOffset="22.20632615414155" xlink:href="#id13">January</textPath></text><path d="M 100.0 79.0 l 0.0 -63.0 a84.0,84.0 0 0,0 1.4459219170901134,0.012445506434235476 l -1.084441437817585 62.990665870174325" fill="#4dd2ff" stroke="none" /><line stroke="#e1ed5e" stroke-width="0.3" x1="143.23703022742887" x2="145.7803849466894" y1="26.81831364943548" y2="22.513508569990506" /><path d="M 143.74570117128098 25.957352633546492 a86.0,86.0 0 0,1 28.547481713284135,27.462654790039103" fill="none" id="id14" stroke="none" /><text fill="#e1ed5e" style="font-size:6.75px; font-family:Arial;" text-anchor="middle"><textPath startOffset="19.985693538727396" xlink:href="#id14">February</textPath></text><line stroke="#e1ed5e" stroke-width="0.3" x1="172.23445277983987" x2="176.4835382374775" y1="55.19839476539836" y2="52.563006222186495" /><path d="M 173.08426987136738 54.67131705675599 a86.0,86.0 0 0,1 12.851231095245387,41.99856678651699" fill="none" id="id15" stroke="none" /><text fill="#e1ed5e" style="font-size:6.75px; font-family:Arial;" text-anchor="middle"><textPath startOffset="22.20632615414155" xlink:href="#id15">March</textPath></text><line stroke="#e1ed5e" stroke-width="0.3" x1="184.98032266829074" x2="189.97916517819016" y1="98.17113171792111" y2="98.06355123074" /><path d="M 185.9800911702706 98.14961562048488 a86.0,86.0 0 0,1 -9.607161424134198,41.387399972396054" fill="none" id="id16" stroke="none" /><text fill="#e1ed5e" style="font-size:6.75px; font-family:Arial;" text-anchor="middle"><textPath startOffset="21.466115282336823" xlink:href="#id16">April</textPath></text><line stroke="#e1ed5e" stroke-width="0.3" x1="174.80103733775053" x2="179.2010983576182" y1="140.37084112569926" y2="142.7455964860345" /><path d="M 175.68104954172406 140.8457921977663 a86.0,86.0 0 0,1 -30.038265399797805,32.042727171017184" fill="none" id="id17" stroke="none" /><text fill="#e1ed5e" style="font-size:6.75px; font-family:Arial;" text-anchor="middle"><textPath startOffset="22.206326154141568" xlink:href="#id17">May</textPath></text><line stroke="#e1ed5e" stroke-width="0.3" x1="143.8653032363475" x2="146.44561519142675" y1="172.8068346515853" y2="177.08958963109032" /><path d="M 144.38136562736335 173.6633856474863 a86.0,86.0 0 0,1 -40.68145358897372,12.25698825130547" fill="none" id="id18" stroke="none" /><text fill="#e1ed5e" style="font-size:6.75px; font-family:Arial;" text-anchor="middle"><textPath startOffset="21.466115282336833" xlink:href="#id18">June</textPath></text><path d="M 105.18746579009965 120.34920634021253 l 4.692299894687586 18.406787173303144 a39.99545978240491,39.99545978240491 0 0,0 -0.6685845134189641,0.16432180681798653 l -4.3747620965254095 -18.484830238435162" fill="#ffb110" stroke="none" /><path d="M 104.83641907484287 120.43548508189849 l 3.462841270817099 14.631660332921914 a36.035848953912605,36.035848953912605 0 0,0 -0.6048528883703097,0.1376625481611454 l -3.210468233053927 -14.689099614660742" fill="#ff760a" stroke="none" /><path d="M 103.7750983002368 120.6578951692458 l 1.353950376036978 7.40901632436387 a28.531713252339138,28.531713252339138 0 0,0 -0.4838856676421489,0.08412972580075645 l -1.226215736922779 -7.431224628685633" fill="#ff0000" stroke="none" /><path d="M 102.34483914955558 120.86867818915974 l 2.6005626320541624 23.14457462439514 a44.29021813009556,44.29021813009556 0 0,0 -0.7583485108957105,0.07860592385432764 l -2.2017815245528496 -23.185909916705224" fill="#ffed16" stroke="none" /><line stroke="#e1ed5e" stroke-width="0.3" x1="102.19456741930631" x2="102.32365962044197" y1="184.97166512339345" y2="189.96999836594603" /><path d="M 102.22038585953345 185.97133177190398 a86.0,86.0 0 0,1 -42.740103519485714,-10.115201625700543" fill="none" id="id19" stroke="none" /><text fill="#e1ed5e" style="font-size:6.75px; font-family:Arial;" text-anchor="middle"><textPath startOffset="22.20632615414155" xlink:href="#id19">July</textPath></text><path d="M 100.54218724476979 120.99299961872073 l 0.6334226055477218 24.525550250445914 a45.53372860541924,45.53372860541924 0 0,0 -0.7837011898802775,0.01349212670532376 l -0.21116172577477632 -24.532819854430397" fill="#fffe18" stroke="none" /><path d="M 97.2962882734958 120.8252237178851 l -2.9589087545229953 22.790867890868885 a43.98214089758896,43.98214089758896 0 0,0 -0.7499403406580465,-0.10393489774325354 l 3.3507776863678727 -22.736558427633028" fill="#ffe915" stroke="none" /><path d="M 96.22490169976321 120.6578951692458 l -4.413702093757679 24.1524293964498 a45.55240542030319,45.55240542030319 0 0,0 -0.7701228170651185,-0.14759587079827882 l 4.828792525394492 -24.072876327303053" fill="#ffff18" stroke="none" /><path d="M 94.46302465271185 120.25689768951611 l -5.203356114927527 19.03635935706824 a40.734687543262325,40.734687543262325 0 0,0 -0.674777532061819,-0.19069887073125819 l 5.53026481509396 -18.94397169299846" fill="#ffbb11" stroke="none" /><path d="M 93.42475214034765 119.94407469862007 l -7.7366825151469865 23.466944105397957 a45.709385301663275,45.709385301663275 0 0,0 -0.7451288608377921,-0.2527881656980005 l 8.139481108922004 -23.330292952801834" fill="#fdff18" stroke="none" /><path d="M 92.7421414339146 119.70592522655815 l -8.42308811086709 22.869658175081167 a45.37149315016393,45.37149315016393 0 0,0 -0.7305453791733935,-0.27622975212016015 l 8.815503710800767 -22.72128017285437" fill="#fffc17" stroke="none" /><path d="M 91.07499286063937 119.00905698771935 l -8.838025391402356 18.823797639686067 a41.79533722734314,41.79533722734314 0 0,0 -0.6485986161451912,-0.3113667510226891 l 9.160736675547788 -18.668876612163814" fill="#ffca12" stroke="none" /><line stroke="#e1ed5e" stroke-width="0.3" x1="58.666819895761336" x2="56.23545636021788" y1="174.27360380694188" y2="178.64263932499728" /><path d="M 58.180547188652646 175.14741091055294 a86.0,86.0 0 0,1 -31.652253787137756,-30.449443065178592" fill="none" id="id20" stroke="none" /><text fill="#e1ed5e" style="font-size:6.75px; font-family:Arial;" text-anchor="middle"><textPath startOffset="22.20632615414155" xlink:href="#id20">August</textPath></text><path d="M 89.1626897886671 117.98757091392108 l -21.450155800166 35.60257951891613 a62.56504363346851,62.56504363346851 0 0,0 -0.917682609345285,-0.5637156108970475 l 22.059817609443595 -35.228075441190704" fill="#30ff2f" stroke="none" /><line stroke="#e1ed5e" stroke-width="0.3" x1="26.63291911575756" x2="22.317208475507996" y1="142.92168965132927" y2="145.44649492493687" /><path d="M 25.769776987707644 143.4266507060508 a86.0,86.0 0 0,1 -11.730757126820373,-40.83630448921669" fill="none" id="id21" stroke="none" /><text fill="#e1ed5e" style="font-size:6.75px; font-family:Arial;" text-anchor="middle"><textPath startOffset="21.46611528233685" xlink:href="#id21">September</textPath></text><path d="M 81.87401531095188 110.60418214915194 l -18.524749306978112 10.837470034787275 a42.461991837695265,42.461991837695265 0 0,0 -0.3636525938763593,-0.6340589497917997 l 18.70855389700685 -10.51699123913717" fill="#ffd413" stroke="none" /><path d="M 79.97269907076064 106.31721596034903 l -48.154351485226975 15.189337736399933 a71.49314357250105,71.49314357250105 0 0,0 -0.3600981209212399,-1.1768214943084545 l 48.40867637865435 -14.358189269539432" fill="#3cffa1" stroke="none" /><path d="M 79.35854240842038 103.8639653848113 l -23.890145190211367 4.472101528854704 a45.30511734787067,45.30511734787067 0 0,0 -0.13689385123633016,-0.7677734171399317 l 23.963585483786886 -4.060209360981559" fill="#fffb17" stroke="none" /><line stroke="#e1ed5e" stroke-width="0.3" x1="15.007084014347285" x2="10.007500721073583" y1="101.09737516637583" y2="101.16192664675087" /><path d="M 14.007167355692545 101.11028546245083 a86.0,86.0 0 0,1 10.666146001902534,-42.60595125391555" fill="none" id="id22" stroke="none" /><text fill="#e1ed5e" style="font-size:6.75px; font-family:Arial;" text-anchor="middle"><textPath startOffset="22.20632615414155" xlink:href="#id22">October</textPath></text><path d="M 79.00175016825051 100.2711162175752 l -34.890311646887945 0.4504817972696843 a55.89321969475783,55.89321969475783 0 0,0 -0.004140630160835158,-0.9621366263016484 l 34.89289657433828 0.15016430723563948" fill="#7cff26" stroke="none" /><path d="M 80.803312248108 91.48605970444005 l -30.447006425796648 -13.50357927565987 a54.30715919358079,54.30715919358079 0 0,0 0.38635065503920885,-0.8512724556588944 l 30.210053453794085 14.025673740160837" fill="#8fff24" stroke="none" /><line stroke="#e1ed5e" stroke-width="0.3" x1="26.266209847984243" x2="21.928928074336255" y1="57.711370442889674" y2="55.22380399835377" /><path d="M 25.398753493254645 57.213857153982495 a86.0,86.0 0 0,1 29.58750427330803,-30.492523968695096" fill="none" id="id23" stroke="none" /><text fill="#e1ed5e" style="font-size:6.75px; font-family:Arial;" text-anchor="middle"><textPath startOffset="21.46611528233685" xlink:href="#id23">November</textPath></text><path d="M 82.15384107792192 88.93136811851018 l -15.711841439272098 -9.74487506420734 a39.488497814312495,39.488497814312495 0 0,0 0.3632422877822283,-0.5745620664473925 l 15.541771555243907 10.013884778368947" fill="#ffa90f" stroke="none" /><path d="M 83.6137871275137 86.86637796730984 l -39.36544315984355 -31.551576659841526 a71.44938161060777,71.44938161060777 0 0,0 0.7774424494396736,-0.9530525171830675 l 38.816502218327486 32.224513346632676" fill="#3cffa1" stroke="none" /><line stroke="#e1ed5e" stroke-width="0.3" x1="56.762969772571076" x2="54.21961505331055" y1="26.818313649435495" y2="22.513508569990535" /><path d="M 56.25429882871897 25.957352633546506 a86.0,86.0 0 0,1 42.265352541879196,-11.944610805530505" fill="none" id="id24" stroke="none" /><text fill="#e1ed5e" style="font-size:6.75px; font-family:Arial;" text-anchor="middle"><textPath startOffset="22.20632615414155" xlink:href="#id24">December</textPath></text><path d="M 89.3179101791058 81.91981866633112 l -13.498808116030439 -22.847673312842538 a47.53740749138443,47.53740749138443 0 0,0 0.7080883996872674,-0.41017050504257546 l 13.10352298387785 23.07664797527516" fill="#e5ff1a" stroke="none" /><path d="M 91.23893434514133 80.91482961587045 l -9.205557283318292 -20.053454243384326 a43.065432513049984,43.065432513049984 0 0,0 0.6763690342269639,-0.3034670699735174 l 8.859006130624554 20.208941643874375" fill="#ffdc14" stroke="none" /></svg>