<?xml version="1.0" encoding="utf-8" ?>
<svg baseProfile="full" height="200mm" version="1.1" viewBox="0,0,200,200" width="200mm" xmlns="http://www.w3.org/2000/svg" xmlns:ev="http://www.w3.org/2001/xml-events" xmlns:xlink="http://www.w3.org/1999/xlink"><defs /><rect fill="#1a1a1a" height="200" width="200" x="0" y="0" /><text alignment-baseline="middle" fill="#e1ed5e" style="dominant-baseline: central; font-size:9.0px; font-family:Arial;" text-anchor="middle" x="100.0" y="100.0">2023</text><line stroke="#e1ed5e" stroke-width="0.3" x1="100.0" x2="100.0" y1="15.0" y2="10.0" /><path d="M 100.0 14.0 a86.0,86.0 0 0,1 42.46469731375804,11.215312516191453" fill="none" id="id61" stroke="none" /><text fill="#e1ed5e" style="font-size:6.75px; font-family:Arial;" text-anchor="middle"><textPath startOffset="22.20632615414155" xlink:href="#id61">January</textPath></text><line stroke="#e1ed5e" stroke-width="0.3" x1="143.23703022742887" x2="145.7803849466894" y1="26.81831364943548" y2="22.513508569990506" /><path d="M 143.74570117128098 25.957352633546492 a86.0,86.0 0 0,1 28.547481713284135,27.462654790039103" fill="none" id="id62" stroke="none" /><text fill="#e1ed5e" style="font-size:6.75px; font-family:Arial;" text-anchor="middle"><textPath startOffset="19.985693538727396" xlink:href="#id62">February</textPath></text><line stroke="#e1ed5e" stroke-width="0.3" x1="172.23445277983987" x2="176.4835382374775" y1="55.19839476539836" y2="52.563006222186495" /><path d="M 173.08426987136738 54.67131705675599 a86.0,86.0 0 0,1 12.851231095245387,41.99856678651699" fill="none" id="id63" stroke="none" /><text fill="#e1ed5e" style="font-size:6.75px; font-family:Arial;" text-anchor="middle"><textPath startOffset="22.20632615414155" xlink:href="#id63">March</textPath></text><path d="M 118.56541770881063 90.18545643968196 l 1.744593615731419 -0.9222733528113919 a22.973371485898383,22.973371485898383 0 0,0 0.1818075061649844,0.3511942337437988 l -1.7602105550565197 0.8921063968072482" fill="#ff1802" stroke="none" /><path d="M 120.67395015179393 96.31383870115 l 1.3577360082373802 -0.24208406670582117 a22.379148927207357,22.379148927207357 0 0,0 0.06435405449884525,0.3798212725263368 l -1.3617019242564483 0.2186770058636465" fill="#ff1001" stroke="none" /><path d="M 120.73433829027371 96.67025291283417 l 1.3784393225932456 -0.22136488056591408 a22.396100775882346,22.396100775882346 0 0,0 0.05785030843005431,0.38116125220270136 l -1.3820455244625998 0.1976045159711306" fill="#ff1001" stroke="none" /><path d="M 120.94382443527127 98.46500227214037 l 1.36833608635568 -0.10028697432962927 a22.372006239943307,22.372006239943307 0 0,0 0.024842950645762203,0.38430945073971823 l -1.3698596280058577 0.0767184593368758" fill="#ff1001" stroke="none" /><path d="M 120.96714384426684 98.82574320788733 l 1.4553697948385909 -0.08150742320071079 a22.457650403822996,22.457650403822996 0 0,0 0.018293779331570108,0.38615276819828515 l -1.4565571824036576 0.05644354837942589" fill="#ff1101" stroke="none" /><path d="M 120.98425023603335 99.18683210126433 l 2.010055332090024 -0.07789234556168932 a23.011563982467532,23.011563982467532 0 0,0 0.011931282842599028,0.39594119149072354 l -2.011098309388268 0.043281006645966694" fill="#ff1902" stroke="none" /><line stroke="#e1ed5e" stroke-width="0.3" x1="184.98032266829074" x2="189.97916517819016" y1="98.17113171792111" y2="98.06355123074" /><path d="M 185.9800911702706 98.14961562048488 a86.0,86.0 0 0,1 -9.607161424134198,41.387399972396054" fill="none" id="id64" stroke="none" /><text fill="#e1ed5e" style="font-size:6.75px; font-family:Arial;" text-anchor="middle"><textPath startOffset="21.466115282336823" xlink:href="#id64">April</textPath></text><path d="M 120.9904718944345 100.63252640178507 l 1.34690043380806 0.04058746698235269 a22.347511825947507,22.347511825947507 0 0,0 -0.014896071506941843,0.384401416388372 l -1.3460022294499148 -0.06376613038473086" fill="#ff0f01" stroke="none" /><path d="M 120.95626037817324 101.35467743843564 l 1.9971165786111864 0.1290997879463353 a23.001284933189535,23.001284933189535 0 0,0 -0.028941576336999397,0.3948848149289009 l -1.9945984436098494 -0.16345773937200642" fill="#ff1802" stroke="none" /><path d="M 120.92983693683757 101.71520430193887 l 1.4556929329299897 0.11929432553146253 a22.460572850318094,22.460572850318094 0 0,0 -0.034894536051894694,0.3850582976178664 l -1.4534238006010196 -0.14433401169789953" fill="#ff1101" stroke="none" /><path d="M 120.8583938346157 102.4346265915055 l 5.744866336686807 0.6705504009005222 a26.783867829276975,26.783867829276975 0 0,0 -0.05739207756425533,0.4574713267559363 l -5.732472749875703 -0.7693394819438535" fill="#ff4d07" stroke="none" /><path d="M 120.81339534386255 102.79330883721812 l 1.4579529232151829 0.19566787241495676 a22.471024351466383,22.471024351466383 0 0,0 -0.054750061217706564,0.38292180063860626 l -1.454368810980875 -0.22073514503397235" fill="#ff1101" stroke="none" /><path d="M 120.41448212921028 104.9243191809786 l 5.677154264555417 1.3694258547133749 a26.839983537229983,26.839983537229983 0 0,0 -0.11220223233693447,0.44819214369232196 l -5.652740717923423 -1.4669458378030928" fill="#ff4e07" stroke="none" /><path d="M 120.13307415673323 105.97154293290107 l 1.3664923306788155 0.40530658937644554 a22.425333196552998,22.425333196552998 0 0,0 -0.11295237475356071,0.36913489607530137 l -1.3593131834191219 -0.42876845800380403" fill="#ff1001" stroke="none" /><path d="M 119.26925614724726 108.34839909993367 l 1.2553290782684559 0.5438709240799662 a22.36808138530057,22.36808138530057 0 0,0 -0.15610674973677421,0.3519795096780724 l -1.2457812438004088 -0.5653987702507263" fill="#ff0f01" stroke="none" /><line stroke="#e1ed5e" stroke-width="0.3" x1="174.80103733775053" x2="179.2010983576182" y1="140.37084112569926" y2="142.7455964860345" /><path d="M 175.68104954172406 140.8457921977663 a86.0,86.0 0 0,1 -30.038265399797805,32.042727171017184" fill="none" id="id65" stroke="none" /><text fill="#e1ed5e" style="font-size:6.75px; font-family:Arial;" text-anchor="middle"><textPath startOffset="22.206326154141568" xlink:href="#id65">May</textPath></text><line stroke="#e1ed5e" stroke-width="0.3" x1="143.8653032363475" x2="146.44561519142675" y1="172.8068346515853" y2="177.08958963109032" /><path d="M 144.38136562736335 173.6633856474863 a86.0,86.0 0 0,1 -40.68145358897372,12.25698825130547" fill="none" id="id66" stroke="none" /><text fill="#e1ed5e" style="font-size:6.75px; font-family:Arial;" text-anchor="middle"><textPath startOffset="21.466115282336833" xlink:href="#id66">June</textPath></text><path d="M 110.21172684928248 118.3499491758327 l 3.1589326668542967 5.6764399148344715 a27.496216260289152,27.496216260289152 0 0,0 -0.4155558000448624,0.22659415547990674 l -3.0607540549407855 -5.729974722074148" fill="#ff5708" stroke="none" /><path d="M 109.89434966115114 118.52300852407294 l 0.6544192515252559 1.2251248226969826 a22.388954782545202,22.388954782545202 0 0,0 -0.34149456665581684,0.17865381724436008 l -0.6332337823429435 -1.2362080588860596" fill="#ff1001" stroke="none" /><path d="M 109.57404056367764 118.69057910512821 l 0.3443260917980483 0.6721983277496121 a21.755255618530768,21.755255618530768 0 0,0 -0.33476789716623273,0.16785957330669413 l -0.3327042869490551 -0.6780257419656083" fill="#ff0701" stroke="none" /><path d="M 109.2508944713604 118.85261126421891 l 1.0850750537342801 2.2112994850265095 a23.463175447408275,23.463175447408275 0 0,0 -0.3641119831808728,0.17479587897559745 l -1.0468504025531746 -2.229649640501667" fill="#ff1f03" stroke="none" /><path d="M 108.92500713936063 119.00905698771935 l 0.3480786093655653 0.7413603169520979 a21.819007837477262,21.819007837477262 0 0,0 -0.3413448750101328,0.15669469020827326 l -0.33526573858801306 -0.7472420774944455" fill="#ff0801" stroke="none" /><path d="M 108.2653958097858 119.30500536409082 l 0.49079287549016465 1.146316439289884 a22.246963923142182,22.246963923142182 0 0,0 -0.3533332098999166,0.14769331039433695 l -0.4709882060927869 -1.154594792704194" fill="#ff0e01" stroke="none" /><path d="M 107.93186726928326 119.44442032107085 l 5.670269372241378 13.900270549726272 a36.012310818437186,36.012310818437186 0 0,0 -0.57598934318774,0.2291980467196949 l -5.430158953011772 -13.995815440852036" fill="#ffc712" stroke="none" /><path d="M 107.59598834532513 119.57807347666477 l 6.0868082666304915 15.688278347057103 a37.82769480260033,37.82769480260033 0 0,0 -0.6090795282262357,0.23030176071165503 l -5.815858517643981 -15.79072835787539" fill="#ffde14" stroke="none" /><path d="M 107.2578585660854 119.70592522655815 l 0.1603218445966158 0.4352923459500231 a21.46387769972002,21.46387769972002 0 0,0 -0.3477970349643031,0.12470764271240019 l -0.1528052490025779 -0.4379875297023834" fill="#ff0200" stroke="none" /><path d="M 106.57524785965236 119.94407469862006 l 0.6418987909672244 1.9470106236696416 a23.050093760423565,23.050093760423565 0 0,0 -0.3778883464460158,0.12098791521134995 l -0.6082890994302681 -1.9577713855406982" fill="#ff1902" stroke="none" /><path d="M 105.88484417918355 120.15858648285463 l 0.38507580907010097 1.319080635482826 a22.374138676275713,22.374138676275713 0 0,0 -0.37063168980864736,0.10474421767980838 l -0.36231295115684786 -1.3255136465011534" fill="#ff1001" stroke="none" /><path d="M 105.18746579009965 120.34920634021253 l 3.083247382150073 12.094853193448555 a33.48166207644671,33.48166207644671 0 0,0 -0.5596965472987817,0.1375597939766993 l -2.87459755010808 -12.146134245739285" fill="#ffa70f" stroke="none" /><path d="M 104.83641907484287 120.43548508189849 l 0.10905144085317371 0.4607787410951298 a21.473507407542233,21.473507407542233 0 0,0 -0.36042755633436935,0.08203213837032514 l -0.10110373512594233 -0.46258761304313933" fill="#ff0300" stroke="none" /><path d="M 104.48393922423573 120.51570834832081 l 0.8226668872652336 3.764010412034784 a24.85286324560176,24.85286324560176 0 0,0 -0.4187216773438992,0.08774719864202539 l -0.7577537484919564 -3.7776135914033504" fill="#ff3304" stroke="none" /><path d="M 104.13013068566511 120.58985236759428 l 0.08461865481637995 0.4218475740394423 a21.430250732092226,21.430250732092226 0 0,0 -0.36230633513053245,0.06943687142411176 l -0.07734470511414313 -0.4232416438120222" fill="#ff0200" stroke="none" /><path d="M 103.7750983002368 120.6578951692458 l 11.32529490071043 61.973685507737414 a84.0,84.0 0 0,0 -1.4246041141118002,0.24768568591597528 l -10.256841815126581 -62.15944977217439" fill="#4dd2ff" stroke="none" /><path d="M 103.41894727170886 120.7198165907248 l 2.5303881017093968 15.334889135206172 a36.54225494367972,36.54225494367972 0 0,0 -0.6215039489884173,0.09706613495771653 l -2.2660482891124625 -15.376173577510995" fill="#ffce13" stroke="none" /><path d="M 103.06178313531738 120.77559828337769 l 1.2422765551805615 8.42941434015519 a29.520462261964738,29.520462261964738 0 0,0 -0.5033539767122723,0.06976027460043945 l -1.0969939872814585 -8.449549180248233" fill="#ff730a" stroke="none" /><path d="M 102.34483914955558 120.86867818915974 l 0.08571961867860953 0.7628903402778932 a21.767691034411452,21.767691034411452 0 0,0 -0.37271200681594424,0.038633123433925734 l -0.07257501525706263 -0.7642528321675773" fill="#ff0701" stroke="none" /><path d="M 101.98527174616119 120.90594882070398 l 0.027779438934989548 0.2925320071500224 a21.29384804310181,21.29384804310181 0 0,0 -0.3651952557081557,0.03151058332399565 l -0.022739865485292145 -0.2929668427526815" fill="#ff0000" stroke="none" /><path d="M 101.62511606390274 120.93702456842531 l 0.15110640043280704 1.9467645964376805 a22.952620172536104,22.952620172536104 0 0,0 -0.3941699796149168,0.027184269589518164 l -0.11757366003895993 -1.949077210543484" fill="#ff1802" stroke="none" /><path d="M 100.90346689309514 120.98055641714683 l 0.165075260069327 3.8334230434218903 a24.83697564122121,24.83697564122121 0 0,0 -0.4272901821488393,0.014716737828091147 l -0.0990647262458354 -3.835696579676075" fill="#ff3204" stroke="none" /><line stroke="#e1ed5e" stroke-width="0.3" x1="102.19456741930631" x2="102.32365962044197" y1="184.97166512339345" y2="189.96999836594603" /><path d="M 102.22038585953345 185.97133177190398 a86.0,86.0 0 0,1 -42.740103519485714,-10.115201625700543" fill="none" id="id67" stroke="none" /><text fill="#e1ed5e" style="font-size:6.75px; font-family:Arial;" text-anchor="middle"><textPath startOffset="22.20632615414155" xlink:href="#id67">July</textPath></text><path d="M 100.54218724476979 120.99299961872073 l 0.13810095434399025 5.347144016859523 a26.34892708967203,26.34892708967203 0 0,0 -0.45350306563269244,0.007807466546916655 l -0.04603819881862987 -5.348728960685599" fill="#ff4706" stroke="none" /><path d="M 100.18074693466247 120.99922214144158 l 0.02608643945956661 3.0307287817283903 a24.03084104675922,24.03084104675922 0 0,0 -0.41366674824404204,0.0 l 0.026086439459564525 -3.0307287817283903" fill="#ff2703" stroke="none" /><path d="M 99.81925306533755 120.99922214144158 l -0.007820479779414798 0.9085852130619971 a21.908618869107887,21.908618869107887 0 0,0 -0.37707895228922383,-0.006491756128345487 l 0.023459121961306603 -0.908315979654492" fill="#ff0901" stroke="none" /><path d="M 99.09653310690486 120.98055641714683 l -0.12480241154155138 2.8981958900266744 a23.900881772650187,23.900881772650187 0 0,0 -0.410881118826918,-0.021237860591972336 l 0.17467159878195834 -2.8956182226725002" fill="#ff2503" stroke="none" /><path d="M 98.73552117531835 120.96189622390904 l -0.08379045078915255 1.3890360990734458 a22.391561038608305,22.391561038608305 0 0,0 -0.3845347978482749,-0.02651977104261132 l 0.1076880094163575 -1.3873879835145495" fill="#ff1001" stroke="none" /><path d="M 98.01472825383883 120.90594882070398 l -1.116397478229791 11.756248779828333 a32.80913750883666,32.80913750883666 0 0,0 -0.5617664943648777,-0.058229394065530064 l 1.318596569200262 -11.735290017307042" fill="#ff9e0e" stroke="none" /><path d="M 97.65516085044442 120.86867818915974 l -1.234764972505937 10.989202758473587 a32.0583552938116,32.0583552938116 0 0,0 -0.5478506941440144,-0.06633708948702405 l 1.4237430897013408 -10.966320140261214" fill="#ff940d" stroke="none" /><path d="M 97.2962882734958 120.8252237178851 l -0.061962616654113636 0.47726439964658984 a21.481269854689284,21.481269854689284 0 0,0 -0.36627755047449756,-0.050762730967122076 l 0.07016875831544225 -0.47612710318686285" fill="#ff0300" stroke="none" /><path d="M 96.93821686468263 120.77559828337769 l -0.14055318185026003 0.9537175934796769 a21.96401890284418,21.96401890284418 0 0,0 -0.37355999252954986,-0.05834238818384825 l 0.15694903798832702 -0.9511568979487229" fill="#ff0a01" stroke="none" /><path d="M 96.58105272829116 120.7198165907248 l -0.5219185087098824 3.1629782258584895 a24.20574955150724,24.20574955150724 0 0,0 -0.4105191713837747,-0.07137402000923074 l 0.576286651565707 -3.1535256273282526" fill="#ff2a04" stroke="none" /><path d="M 96.22490169976321 120.6578951692458 l -0.08756252198516774 0.47915504605824827 a21.487090087580814,21.487090087580814 0 0,0 -0.363267278557462,-0.06962103851894562 l 0.09579741511432481 -0.4775768091908345" fill="#ff0300" stroke="none" /><path d="M 95.86986931433489 120.58985236759428 l -0.09344662174595975 0.46585744917897043 a21.475137279184942,21.475137279184942 0 0,0 -0.36181366363579615,-0.07582157106324106 l 0.10145174681114269 -0.4641798973891882" fill="#ff0300" stroke="none" /><path d="M 95.51606077576429 120.51570834832081 l -4.4332641351506 20.283850756992162 a41.76266920277699,41.76266920277699 0 0,0 -0.7009761619785776,-0.15953989228387216 l 4.781760446522041 -20.204534131130604" fill="#f1ff19" stroke="none" /><path d="M 95.16358092515715 120.4354850818985 l -3.1795412078057423 13.434622995631749 a34.80574435975446,34.80574435975446 0 0,0 -0.5818305823599681,-0.14299980127634115 l 3.410325074908921 -13.377901936041377" fill="#ffb811" stroke="none" /><path d="M 94.81253420990036 120.34920634021253 l -0.12111283809724287 0.47509713463425257 a21.490291348985117,21.490291348985117 0 0,0 -0.35766962920170814,-0.09446379988084422 l 0.1292729101104403 -0.47294198544982674" fill="#ff0300" stroke="none" /><path d="M 94.46302465271185 120.25689768951611 l -0.2949211311202207 1.0789622140009454 a22.118542772013235,22.118542772013235 0 0,0 -0.3663976970156371,-0.10354764902429274 l 0.3134499962404717 -1.0737257716381314" fill="#ff0c01" stroke="none" /><path d="M 94.11515582081647 120.15858648285463 l -0.6867622790424724 2.3525103424506923 a23.450703437638484,23.450703437638484 0 0,0 -0.38651787270223026,-0.11645466439072484 l 0.7271551261849485 -2.340340308954242" fill="#ff1f03" stroke="none" /><path d="M 93.76903079525671 120.05430185196036 l -1.1022017258658485 3.547423424182377 a24.714708816978725,24.714708816978725 0 0,0 -0.4051784146656434,-0.12972533326332455 l 1.1631014856224322 -3.527925244259346" fill="#ff3104" stroke="none" /><path d="M 93.42475214034765 119.94407469862007 l -0.26904848157317135 0.8160792001427827 a21.859285951440214,21.859285951440214 0 0,0 -0.3563378665503846,-0.12088915137809939 l 0.2830560810607818 -0.8113270618665602" fill="#ff0801" stroke="none" /><path d="M 93.08242187328487 119.8279376855182 l -4.7828870376857955 13.709246849538626 a35.51962319059443,35.51962319059443 0 0,0 -0.5755539516934297,-0.20637316984850315 l 5.018160550008952 -13.624886138650167" fill="#ffc111" stroke="none" /><path d="M 92.7421414339146 119.70592522655815 l -1.7925274695461604 4.866919348151499 a26.186526648007217,26.186526648007217 0 0,0 -0.4216402130736023,-0.15942825026557159 l 1.8760379033800456 -4.835342847779295" fill="#ff4506" stroke="none" /><path d="M 92.40401165467489 119.57807347666478 l -0.3403236692013794 0.87715798110372 a21.940864668075406,21.940864668075406 0 0,0 -0.35092733406782767,-0.13964122854036756 l 0.35537207931106524 -0.8711699081572859" fill="#ff0901" stroke="none" /><path d="M 92.06813273071674 119.44442032107085 l -1.1107151953909815 2.722840963289865 a23.940671888640708,23.940671888640708 0 0,0 -0.3802332073175461,-0.15893751149656102 l 1.15741986220599 -2.703318408773331" fill="#ff2603" stroke="none" /><path d="M 91.7346041902142 119.30500536409082 l -0.24820763088562833 0.5797241603338907 a21.63062439701037,21.63062439701037 0 0,0 -0.341021549147331,-0.14949382544666762 l 0.2581498546907026 -0.575365781592771" fill="#ff0500" stroke="none" /><path d="M 91.40352486487194 119.15986991738527 l -0.37377821584626564 0.8330788934993095 a21.913088493759094,21.913088493759094 0 0,0 -0.3428167086562179,-0.15737033684630927 l 0.38806292026990297 -0.8265214863189259" fill="#ff0901" stroke="none" /><path d="M 91.07499286063937 119.00905698771935 l -0.8063524019168192 1.7174214564627515 a22.897298251513362,22.897298251513362 0 0,0 -0.35533044938992436,-0.1705802091030149 l 0.8357955193069857 -1.703286970860174" fill="#ff1702" stroke="none" /><path d="M 90.7491055286396 118.85261126421891 l -5.526151909728399 11.261872466891292 a33.54464532738646,33.54464532738646 0 0,0 -0.5161819550339373,-0.2588243480156247 l 5.719187772445097 -11.165080277966366" fill="#ffa80f" stroke="none" /><path d="M 90.10565033884886 118.52300852407294 l -0.2091060231356325 0.39146308566233606 a21.443811532463812,21.443811532463812 0 0,0 -0.3240846003329611,-0.17671676417117163 l 0.21581343533723416 -0.3878056697313986" fill="#ff0200" stroke="none" /><line stroke="#e1ed5e" stroke-width="0.3" x1="58.666819895761336" x2="56.23545636021788" y1="174.27360380694188" y2="178.64263932499728" /><path d="M 58.180547188652646 175.14741091055294 a86.0,86.0 0 0,1 -31.652253787137756,-30.449443065178592" fill="none" id="id68" stroke="none" /><text fill="#e1ed5e" style="font-size:6.75px; font-family:Arial;" text-anchor="middle"><textPath startOffset="22.20632615414155" xlink:href="#id68">August</textPath></text><path d="M 89.7882731507175 118.34994917583269 l -2.1420889989721266 3.849224018757484 a25.405118707378602,25.405118707378602 0 0,0 -0.3802919234370271,-0.2159396791370773 l 2.208029689330361 -3.8117811738257736" fill="#ff3a05" stroke="none" /><path d="M 89.1626897886671 117.98757091392108 l -0.23676945667378282 0.39298564949414877 a21.458800061379613,21.458800061379613 0 0,0 -0.31475032206660813,-0.1933453552208062 l 0.24349897867269968 -0.3888518274449645" fill="#ff0200" stroke="none" /><path d="M 88.8546689885994 117.79835938074946 l -0.5052980506131052 0.8069276982446476 a21.95208110481608,21.95208110481608 0 0,0 -0.3185332664561589,-0.20330300153220623 l 0.5191131191161875 -0.7981102678886371" fill="#ff0901" stroke="none" /><path d="M 88.24862548938628 117.40417183066458 l -5.039090024058757 7.463057923113213 a30.004979835308426,30.004979835308426 0 0,0 -0.42556079385598183,-0.2927045944846353 l 5.166807702537628 -7.375212539263476" fill="#ff790b" stroke="none" /><path d="M 87.95078237400918 117.19931262002967 l -1.635945816276856 2.3351842747766405 a23.851211025329036,23.851211025329036 0 0,0 -0.334226647736365,-0.23846183889201206 l 1.6758997918621081 -2.306678174040409" fill="#ff2503" stroke="none" /><path d="M 87.65650970185807 116.9893568818739 l -9.449710693532309 13.006410952260989 a37.07680808029235,37.07680808029235 0 0,0 -0.513098937001875,-0.37957832713085166 l 9.672194600952748 -12.841822676390372" fill="#ffd413" stroke="none" /><path d="M 87.36589467227662 116.77436683061367 l -8.439360425728344 11.204982381007326 a35.0276311098501,35.0276311098501 0 0,0 -0.47849624163541893,-0.36689051395956335 l 8.630985395857248 -11.058052525220395" fill="#ffbb11" stroke="none" /><path d="M 87.07902340077011 116.55440617244103 l -9.977599351841645 12.783339635961854 a37.21623449121972,37.21623449121972 0 0,0 -0.5016083962863603,-0.3985080469289446 l 10.196165240845364 -12.609697675027778" fill="#ffd614" stroke="none" /><path d="M 86.79598089348748 116.32954008644616 l -8.954494109506404 11.074110794258884 a35.24144987846062,35.24144987846062 0 0,0 -0.46842577973683364,-0.3854825264586867 l 9.143790017787927 -10.918333148943015" fill="#ffbd11" stroke="none" /><path d="M 86.51685102203217 116.09983520530335 l -5.028364526874344 6.004223521312128 a28.831676060014615,28.831676060014615 0 0,0 -0.3777423548693718,-0.3219202297650599 l 5.130972358320773 -5.9167789013241165" fill="#ff6909" stroke="none" /><path d="M 86.24171649860922 115.8653595955263 l -4.2761362730716534 4.9310249817789735 a27.526894268854633,27.526894268854633 0 0,0 -0.3553035805859463,-0.31351409942814473 l 4.3603822065641875 -4.85668774057854" fill="#ff5808" stroke="none" /><path d="M 85.97065885151581 115.62618273729859 l -9.373389703129895 10.440283604112524 a35.0306791090468,35.0306791090468 0 0,0 -0.4452240017469826,-0.40670156943667285 l 9.551713254343733 -10.277389268089275" fill="#ffbb11" stroke="none" /><path d="M 85.70375840098266 115.38237550388516 l -9.548726381424748 10.274175472316172 a35.026291639034895,35.026291639034895 0 0,0 -0.43810246036909545,-0.4142532212558033 l 9.724164676184662 -10.108287614314436" fill="#ffbb11" stroke="none" /><path d="M 85.44109423537348 115.13401014063109 l -9.717228863370266 10.101077823746138 a35.016287310999736,35.016287310999736 0 0,0 -0.43078378544855495,-0.42161260202952444 l 9.889662601194615 -9.932315118794044" fill="#ffba11" stroke="none" /><path d="M 85.18274418774928 114.88116024355367 l -10.98872193663899 11.036114519651994 a36.573947267524844,36.573947267524844 0 0,0 -0.4422998470148808,-0.4480474098676505 l 11.177062408709403 -10.845326615803678" fill="#ffce13" stroke="none" /><path d="M 84.9287848128048 114.62390073753433 l -8.548354905549205 8.29463928789083 a32.91114656561027,32.91114656561027 0 0,0 -0.39100549784412786,-0.4099677012701875 l 8.68986695477229 -8.146264470038142" fill="#ff9f0e" stroke="none" /><path d="M 84.67929136418377 114.36230785411682 l -9.845108264940984 9.229238615479952 a34.49462864142158,34.49462864142158 0 0,0 -0.40236110431283917,-0.43668351144835915 l 10.002515777249553 -9.058403849230249" fill="#ffb410" stroke="none" /><path d="M 84.19399662182784 113.82643327865904 l -12.959795234340202 11.336688967189737 a38.21850194572189,38.21850194572189 0 0,0 -0.42887982173776806,-0.49888412471723725 l 13.153017565648748 -11.111927743310968" fill="#ffe215" stroke="none" /><path d="M 83.95833913139862 113.55231037782056 l -10.445097912438118 8.824223999969691 a34.6735876638891,34.6735876638891 0 0,0 -0.381250956649244,-0.4592413373423769 l 10.595444868980898 -8.643121405513552" fill="#ffb610" stroke="none" /><path d="M 83.72743513129214 113.27417163493432 l -11.667532430312072 9.51766542556257 a36.057133464419216,36.057133464419216 0 0,0 -0.3881843818548782,-0.4843197024412648 l 11.82963472422181 -9.315417889543046" fill="#ffc812" stroke="none" /><path d="M 83.50135304334701 112.99209946851258 l -7.058727109615932 5.5584973101225055 a29.98457126159429,29.98457126159429 0 0,0 -0.3158277500811275,-0.40824994098900746 l 7.153361676915128 -5.4361693750202456" fill="#ff790b" stroke="none" /><path d="M 82.85270091963577 112.12312394758628 l -3.3225686075651755 2.349052807972379 a25.069092189496388,25.069092189496388 0 0,0 -0.24608190105769623,-0.35449933212906043 l 3.3625114157850056 -2.291512213656306" fill="#ff3605" stroke="none" /><path d="M 82.6465618267979 111.8261652097733 l -13.803897543753088 9.40719477384608 a37.704577244321676,37.704577244321676 0 0,0 -0.3608810922814237,-0.539468267971137 l 13.963781741445242 -9.168189591669123" fill="#ffdc14" stroke="none" /><path d="M 82.44556493220864 111.52570212397912 l -11.966734353066377 7.856989701895557 a35.315551622363415,35.315551622363415 0 0,0 -0.3292672978483639,-0.5110301583283474 l 12.100206514291786 -7.649837943645761" fill="#ffbe11" stroke="none" /><path d="M 82.24976979558568 111.22182372390057 l -5.9694278618740135 3.773915404310168 a28.06233010252334,28.06233010252334 0 0,0 -0.25461267513528824,-0.4105167027587691 l 6.033505176677258 -3.6706023701861348" fill="#ff5f08" stroke="none" /><path d="M 82.05923443525364 110.91462005526583 l -0.37821821900934155 0.230096544295636 a21.442711464599,21.442711464599 0 0,0 -0.1891238209585005,-0.31698240230830443 l 0.3821229156660739 -0.22355204810122045" fill="#ff0200" stroke="none" /><line stroke="#e1ed5e" stroke-width="0.3" x1="26.63291911575756" x2="22.317208475507996" y1="142.92168965132927" y2="145.44649492493687" /><path d="M 25.769776987707644 143.4266507060508 a86.0,86.0 0 0,1 -11.730757126820373,-40.83630448921669" fill="none" id="id69" stroke="none" /><text fill="#e1ed5e" style="font-size:6.75px; font-family:Arial;" text-anchor="middle"><textPath startOffset="21.46611528233685" xlink:href="#id69">September</textPath></text><path d="M 81.87401531095188 110.60418214915194 l -11.420149942845399 6.681090834073702 a34.23090319858079,34.23090319858079 0 0,0 -0.2931599814364743,-0.5111491381628732 l 11.53346192043425 -6.483521850052521" fill="#ffb010" stroke="none" /><path d="M 81.69416730710424 110.29060199501025 l -16.943499310196458 9.524767910264398 a40.43716472685845,40.43716472685845 0 0,0 -0.33586645063138737,-0.6096951669012879 l 17.10494217027936 -9.231702224965288" fill="#fffd18" stroke="none" /><path d="M 81.51974371655577 109.97397251340807 l -20.01990168384979 10.80493398215119 a43.74957278257456,43.74957278257456 0 0,0 -0.35197050418327447,-0.6657955503670245 l 20.20292469625795 -10.45872341669804" fill="#daff1c" stroke="none" /><path d="M 81.35079622478065 109.6543875284942 l -12.574727130605744 6.50973040174793 a35.15981469909241,35.15981469909241 0 0,0 -0.27361255658066924,-0.5398635317636369 l 12.68491835697268 -6.292312658281609" fill="#ffbc11" stroke="none" /><path d="M 81.18737489456691 109.33194174019688 l -5.931322887920556 2.942213504078474 a27.620967565571664,27.620967565571664 0 0,0 -0.20761332282742673,-0.4277449380594556 l 5.981089467362702 -2.839679610053733" fill="#ff5908" stroke="none" /><path d="M 81.02952815118164 109.00673069616217 l -12.396962720953384 5.885784263449605 a34.72323362406175,34.72323362406175 0 0,0 -0.25170274014204824,-0.5421453097389969 l 12.496440077935258 -5.671518886431781" fill="#ffb710" stroke="none" /><path d="M 80.87730276802145 108.67885076344099 l -12.513339415453821 5.679188663688902 a34.741791993918504,34.741791993918504 0 0,0 -0.242462826148581,-0.5466896646483386 l 12.609243326333683 -5.462950662547867" fill="#ffb711" stroke="none" /><path d="M 80.73074385275274 108.34839909993369 l -6.712220473700744 2.908067386358602 a28.315104894064746,28.315104894064746 0 0,0 -0.18991213056028272,-0.44889617750804633 l 6.7612835854533335 -2.792096683184397" fill="#ff6209" stroke="none" /><path d="M 80.45479744820244 107.68017299344265 l -15.88997965409172 6.243874540685416 a38.07270988118958,38.07270988118958 0 0,0 -0.23442948471497826,-0.6120214096518078 l 15.995103418400207 -5.969429564200451" fill="#ffe115" stroke="none" /><path d="M 80.32549172779594 107.34259656027581 l -12.86310342362432 4.800556011161505 a34.729703846156134,34.729703846156134 0 0,0 -0.20420361178446805,-0.5618806376693654 l 12.943831296414013 -4.578427576486022" fill="#ffb710" stroke="none" /><path d="M 80.20201598880116 107.00284435728193 l -17.68449104188839 6.255270144376275 a39.7581882917769,39.7581882917769 0 0,0 -0.2226632137237402,-0.6471635254211839 l 17.789545086555357 -5.949933915865794" fill="#fff517" stroke="none" /><path d="M 80.0844068197444 106.66101706037122 l -13.16930453196426 4.404637178851641 a34.88637499612251,34.88637499612251 0 0,0 -0.18557516290570714,-0.5711416237835131 l 13.243171945886216 -4.177296655090324" fill="#ffb911" stroke="none" /><path d="M 79.97269907076064 106.31721596034903 l -7.082516586958493 2.234039773040462 a28.4265048920787,28.4265048920787 0 0,0 -0.1431791985145447,-0.46791790503851755 l 7.1199225579791685 -2.1117948954498966" fill="#ff6409" stroke="none" /><path d="M 79.86692584326677 105.97154293290107 l -12.804415215894727 3.7978360680122702 a34.355770581307965,34.355770581307965 0 0,0 -0.1632837556888718,-0.5684121743692654 l 12.867891608469703 -3.5768664181384087" fill="#ffb210" stroke="none" /><path d="M 79.76711848015287 105.62410040840567 l -2.6888130886975143 0.7474049000601507 a23.79075794553827,23.79075794553827 0 0,0 -0.1062788937218166,-0.39550330025778563 l 2.701280058761106 -0.7010106666268261" fill="#ff2403" stroke="none" /><path d="M 79.67330655649465 105.27499134158121 l -15.218734647038227 3.949422158408099 a36.72284387896435,36.72284387896435 0 0,0 -0.1535166761658112,-0.6132228098337472 l 15.284462637499097 -3.6868715091769597" fill="#ffd013" stroke="none" /><path d="M 79.58551787078972 104.9243191809786 l -13.74001847714852 3.3143253943831605 a35.134102750873005,35.134102750873005 0 0,0 -0.1367543654949564,-0.589134227358003 l 13.795033408574032 -3.0773225096765833" fill="#ffbc11" stroke="none" /><path d="M 79.50377843672027 104.57218783832718 l -16.66244259977678 3.716968865520666 a38.07199024537286,38.07199024537286 0 0,0 -0.13717874950427866,-0.6408534485267582 l 16.723955388005503 -3.429601597577744" fill="#ffe115" stroke="none" /><path d="M 79.4281124754447 104.21870165774334 l -14.501355233951791 2.9738103172095762 a35.803136540071606,35.803136540071606 0 0,0 -0.118610790894007,-0.6047938674048629 l 14.550395957821467 -2.7237527227367586" fill="#ffc412" stroke="none" /><path d="M 79.35854240842038 103.8639653848113 l -12.920513754224329 2.4186478924175865 a34.14494325969481,34.14494325969481 0 0,0 -0.10317229171210356,-0.5786450030192251 l 12.960232488275622 -2.1958841386651478" fill="#ffaf10" stroke="none" /><path d="M 79.29508885075956 103.50808413554451 l -13.45897377413877 2.280387104172525 a34.65079266554992,34.65079266554992 0 0,0 -0.09457726883714167,-0.5889327433299438 l 13.496232797337202 -2.0483751311493674" fill="#ffb610" stroke="none" /><path d="M 79.23777060512086 103.15116336523772 l -3.7169075935830733 0.5641293532650067 a24.759473897562092,24.759473897562092 0 0,0 -0.06032580849040526,-0.421918564077413 l 3.7260674530900775 -0.500065317207193" fill="#ff3104" stroke="none" /><path d="M 79.18660465613746 102.79330883721812 l -11.259897300532002 1.5111600061457156 a32.36084907842289,32.36084907842289 0 0,0 -0.06934235085807408,-0.5527267628864269 l 11.284241160636924 -1.3171154889718801" fill="#ff980e" stroke="none" /><path d="M 79.1416061653843 102.43462659150553 l -15.477145319657792 1.8065182705151708 a36.58221856821134,36.58221856821134 0 0,0 -0.06762083480016425,-0.6260849479538083 l 15.505948455959008 -1.5398370006765802" fill="#ffce13" stroke="none" /><path d="M 79.10278846688536 102.07522291339032 l -13.025145026688964 1.2934778100314377 a34.08921265055022,34.08921265055022 0 0,0 -0.05296068215813485,-0.5844167144725592 l 13.045480305124174 -1.0690797070103124" fill="#ffaf10" stroke="none" /><path d="M 79.04373962182676 101.35467743843564 l -15.660266074043044 1.0123279987731517 a36.69295196854064,36.69295196854064 0 0,0 -0.03531897409489219,-0.6306440084091238 l 15.675371399025467 -0.7426122740285904" fill="#ffd013" stroke="none" /><path d="M 79.0235259727143 100.99374915477108 l -9.245514684954745 0.4380012766514621 a30.255883907442993,30.255883907442993 0 0,0 -0.020167516352660796,-0.5204339847176891 l 9.251684334158607 -0.27879004491977627" fill="#ff7c0b" stroke="none" /><line stroke="#e1ed5e" stroke-width="0.3" x1="15.007084014347285" x2="10.007500721073583" y1="101.09737516637583" y2="101.16192664675087" /><path d="M 14.007167355692545 101.11028546245083 a86.0,86.0 0 0,1 10.666146001902534,-42.60595125391555" fill="none" id="id70" stroke="none" /><text fill="#e1ed5e" style="font-size:6.75px; font-family:Arial;" text-anchor="middle"><textPath startOffset="22.20632615414155" xlink:href="#id70">October</textPath></text><path d="M 79.00175016825051 100.2711162175752 l -0.9601474259392893 0.012396820712249833 a21.960227452586945,21.960227452586945 0 0,0 -0.0016268373986247546,-0.378019718123887 l 0.960218560627417 0.004132375615312568" fill="#ff0a01" stroke="none" /><path d="M 79.05617556472873 98.46500227214037 l -8.098362784640429 -0.5935386114520331 a29.120084228315214,29.120084228315214 0 0,0 0.04094216752670137,-0.49959814653329726 l 8.08694613329423 0.7328506751931088" fill="#ff6d0a" stroke="none" /><path d="M 79.08570108090925 98.10471618934814 l -0.48577211021855665 -0.04402136642137295 a21.487762671560457,21.487762671560457 0 0,0 0.03655260215648821,-0.36807971539886847 l 0.4849423823798398 0.052376612524671746" fill="#ff0300" stroke="none" /><path d="M 79.12142395522702 97.74499172005258 l -0.5552697498238867 -0.05997237937932436 a21.55849904329184,21.55849904329184 0 0,0 0.04302424212746796,-0.36860543208625773 l 0.5541551546928298 0.06952154979044384" fill="#ff0400" stroke="none" /><path d="M 79.16333360222342 97.38593545837743 l -3.3145975632505578 -0.41583292617126144 a24.34057989408945,24.34057989408945 0 0,0 0.05573297459810797,-0.4152753961696184 l 3.306948589594616 0.4728266644055392" fill="#ff2b04" stroke="none" /><path d="M 79.21141760316559 97.0276538004421 l -0.5539415500138816 -0.07920242128735518 a21.559575074828714,21.559575074828714 0 0,0 0.05568951846487489,-0.36692434610443386 l 0.5524961381097045 0.08872587978388109" fill="#ff0400" stroke="none" /><line stroke="#e1ed5e" stroke-width="0.3" x1="26.266209847984243" x2="21.928928074336255" y1="57.711370442889674" y2="55.22380399835377" /><path d="M 25.398753493254645 57.213857153982495 a86.0,86.0 0 0,1 29.58750427330803,-30.492523968695096" fill="none" id="id71" stroke="none" /><text fill="#e1ed5e" style="font-size:6.75px; font-family:Arial;" text-anchor="middle"><textPath startOffset="21.46611528233685" xlink:href="#id71">November</textPath></text><line stroke="#e1ed5e" stroke-width="0.3" x1="56.762969772571076" x2="54.21961505331055" y1="26.818313649435495" y2="22.513508569990535" /><path d="M 56.25429882871897 25.957352633546506 a86.0,86.0 0 0,1 42.265352541879196,-11.944610805530505" fill="none" id="id72" stroke="none" /><text fill="#e1ed5e" style="font-size:6.75px; font-family:Arial;" text-anchor="middle"><textPath startOffset="22.20632615414155" xlink:href="#id72">December</textPath></text></svg>