<?xml version="1.0" encoding="utf-8" ?>
<svg baseProfile="full" height="200mm" version="1.1" viewBox="0,0,200,200" width="200mm" xmlns="http://www.w3.org/2000/svg" xmlns:ev="http://www.w3.org/2001/xml-events" xmlns:xlink="http://www.w3.org/1999/xlink"><defs /><rect fill="#1a1a1a" height="200" width="200" x="0" y="0" /><text alignment-baseline="middle" fill="#e1ed5e" style="dominant-baseline: central; font-size:9.0px; font-family:Arial;" text-anchor="middle" x="100.0" y="100.0">2021</text><line stroke="#e1ed5e" stroke-width="0.3" x1="100.0" x2="100.0" y1="15.0" y2="10.0" /><path d="M 100.0 14.0 a86.0,86.0 0 0,1 42.46469731375804,11.215312516191453" fill="none" id="id37" stroke="none" /><text fill="#e1ed5e" style="font-size:6.75px; font-family:Arial;" text-anchor="middle"><textPath startOffset="22.20632615414155" xlink:href="#id37">January</textPath></text><path d="M 101.08401301168833 79.027996857942 l 0.3882486221512784 -7.511304048809106 a28.521331365274264,28.521331365274264 0 0,0 0.49007517972438475,0.02956267317823852 l -0.5174858507152751 7.503508106250563" fill="#ff5607" stroke="none" /><path d="M 102.16513564639614 79.11191278185805 l 0.6287692893457748 -6.066034605178138 a27.098534795378566,27.098534795378566 0 0,0 0.46355695164763117,0.05208602473139062 l -0.7330929445031312 6.054312626976147" fill="#ff4206" stroke="none" /><path d="M 103.2404852339499 79.25152402106235 l 1.1661338799196024 -7.466628930212639 a28.55714336289743,28.55714336289743 0 0,0 0.4850237616024085,0.08003307650835276 l -1.2944868476608862 7.445449590764662" fill="#ff5608" stroke="none" /><path d="M 103.95276090670814 79.375362276772 l 1.484494683341519 -7.745767014143787 a28.886737671703504,28.886737671703504 0 0,0 0.4875442929411012,0.0977967985854092 l -1.6176053857497454 7.7190662594811705" fill="#ff5b08" stroke="none" /><path d="M 104.66035177308747 79.52364482259891 l 1.6811479870078208 -7.386520366667367 a28.57541693119344,28.57541693119344 0 0,0 0.47867403864590047,0.11328667960956612 l -1.8080457126162446 7.356487774916932" fill="#ff5608" stroke="none" /><path d="M 105.71112130821622 79.79150937346287 l 2.049604841968554 -7.2524147188817745 a28.53647127393676,28.53647127393676 0 0,0 0.47154450874811765,0.13765677270539084 l -2.1741395684400984 7.21605961725768" fill="#ff5607" stroke="none" /><path d="M 106.40334571778207 80.00007090966166 l 2.295777214335704 -7.170529831994188 a28.529083017830366,28.529083017830366 0 0,0 0.46640591741396653,0.15376669795653758 l -2.4188659539920883 7.129949409778415" fill="#ff5607" stroke="none" /><path d="M 107.08798089147638 80.2323363322302 l 2.543457981681106 -7.093447725774562 a28.535660498116513,28.535660498116513 0 0,0 0.46094287555783076,0.16976915112489627 l -2.665183183011513 7.048615306843341" fill="#ff5607" stroke="none" /><path d="M 108.09893153111575 80.62456947434976 l 3.1108670084483583 -7.442264126466181 a29.066274782843557,29.066274782843557 0 0,0 0.45996167670803295,0.19693158554601004 l -3.2385124429467065 7.387613012957381" fill="#ff5d08" stroke="none" /><path d="M 108.76106565485865 80.91482961587045 l 3.100326864113015 -6.753775029100111 a28.43138639878435,28.43138639878435 0 0,0 0.44301757679249987,0.20800269252123899 l -3.2161226522051125 6.699407353938869" fill="#ff5407" stroke="none" /><path d="M 109.41281617654863 81.2277094730956 l 3.349538706150105 -6.680095791057587 a28.472823383548082,28.472823383548082 0 0,0 0.43623011011401136,0.22345400566979728 l -3.4640293038528718 6.621449260075289" fill="#ff5507" stroke="none" /><path d="M 110.36928655335952 81.73862282372117 l 0.7731368085811254 -1.3615732189202723 a22.565765676997653,22.565765676997653 0 0,0 0.33612596372317183,0.19470585361820425 l -0.7964595047696256 1.3480632079120185" fill="#ff0000" stroke="none" /><line stroke="#e1ed5e" stroke-width="0.3" x1="143.23703022742887" x2="145.7803849466894" y1="26.81831364943548" y2="22.513508569990506" /><path d="M 143.74570117128098 25.957352633546492 a86.0,86.0 0 0,1 28.547481713284135,27.462654790039103" fill="none" id="id38" stroke="none" /><text fill="#e1ed5e" style="font-size:6.75px; font-family:Arial;" text-anchor="middle"><textPath startOffset="19.985693538727396" xlink:href="#id38">February</textPath></text><path d="M 110.99172775467656 82.1063720568725 l 3.9131598209107583 -6.3703020562514805 a28.476200109137807,28.476200109137807 0 0,0 0.41545534888831864,0.2601581013599182 l -4.02223432217134 6.301999613568618" fill="#ff5507" stroke="none" /><path d="M 111.60114157652 82.49532879139004 l 4.47871483247249 -6.757820345734695 a29.10722038530068,29.10722038530068 0 0,0 0.41525650411001386,0.2803830452401734 l -4.594376030989046 6.679725388195851" fill="#ff5e08" stroke="none" /><path d="M 111.90073688211348 82.69761687909136 l 8.597560878065975 -12.499922793958532 a36.17122680955547,36.17122680955547 0 0,0 0.5099606619698277,0.35726003314882365 l -8.811452679619453 12.350077918045773" fill="#ffbc11" stroke="none" /><path d="M 112.48926042617603 83.11751280151076 l 4.261658523205536 -5.760741069307573 a28.165742880959193,28.165742880959193 0 0,0 0.3872841232918767,0.29169437242154317 l -4.360188800255797 5.686530107380183" fill="#ff5107" stroke="none" /><path d="M 113.06298171725822 83.55741782278167 l 4.741765625091671 -5.9685355643323375 a28.622844483918122,28.622844483918122 0 0,0 0.3831325860879279,0.3097999061976966 l -4.84380160974409 5.8860295608705115" fill="#ff5708" stroke="none" /><path d="M 114.16331599549186 84.49514656593476 l 5.01687182632468 -5.492065727363167 a28.438534054196932,28.438534054196932 0 0,0 0.3585856959039581,0.33326632426181074 l -5.110665406023485 5.404894817026716" fill="#ff5407" stroke="none" /><path d="M 114.42810811169701 84.74124197986012 l 12.764648467982175 -13.499530269473452 a39.578847327204926,39.578847327204926 0 0,0 0.4909977584401303,0.47233945460239124 l -12.995129470034723 13.277807728108758" fill="#ffe815" stroke="none" /><path d="M 115.9244219780498 86.31012108654704 l 10.93927840140031 -9.4042595029287 a35.425945679288,35.425945679288 0 0,0 0.39354748257903843,0.4658360881076572 l -11.099536497466467 9.214564465191934" fill="#ffb310" stroke="none" /><path d="M 116.15771136456269 86.58626213691792 l 11.424020141220137 -9.483942871574133 a35.84767350726319,35.84767350726319 0 0,0 0.39005940247439086,0.4781667062907005 l -11.585578035770935 9.285891995675332" fill="#ffb811" stroke="none" /><path d="M 117.04232023915458 87.72973835380427 l 25.45500956301291 -18.32729482614612 a52.3663394022567,52.3663394022567 0 0,0 0.5203901990627453,0.7360550317227249 l -25.76671238187954 17.8864132940916" fill="#81ff25" stroke="none" /><line stroke="#e1ed5e" stroke-width="0.3" x1="172.23445277983987" x2="176.4835382374775" y1="55.19839476539836" y2="52.563006222186495" /><path d="M 173.08426987136738 54.67131705675599 a86.0,86.0 0 0,1 12.851231095245387,41.99856678651699" fill="none" id="id39" stroke="none" /><text fill="#e1ed5e" style="font-size:6.75px; font-family:Arial;" text-anchor="middle"><textPath startOffset="22.20632615414155" xlink:href="#id39">March</textPath></text><path d="M 118.21658344932153 89.55222093294921 l 27.45257378885701 -15.744907741114867 a52.647210420649365,52.647210420649365 0 0,0 0.4440976682517824,0.7900001980704462 l -27.719529098401225 15.270024033109626" fill="#7eff26" stroke="none" /><path d="M 119.04729006885535 91.15688171328212 l 7.5252830981592025 -3.4937761927022395 a29.29676791239417,29.29676791239417 0 0,0 0.20842234507496432,0.4592310099439156 l -7.584307760197514 3.363723173916261" fill="#ff6008" stroke="none" /><path d="M 120.08093135843002 93.85539295169968 l 11.740009254733529 -3.592350490429967 a33.277328673099916,33.277328673099916 0 0,0 0.16289110226049203,0.5491878193177868 l -11.800106254105723 3.3897332843656502" fill="#ff960d" stroke="none" /><path d="M 120.53481517161879 95.60439243477599 l 14.939229515903527 -3.197836928646037 a36.27765491006573,36.27765491006573 0 0,0 0.12545280200579728,0.6117524162360575 l -14.99206161382432 2.9402088562465676" fill="#ffbe11" stroke="none" /><path d="M 120.73433829027371 96.67025291283417 l 8.881402242668536 -1.426272824985496 a29.99519649409449,29.99519649409449 0 0,0 0.07747917309213333,0.5104909452839655 l -8.904637309199968 1.2731827673094482" fill="#ff6a09" stroke="none" /><path d="M 120.96714384426684 98.82574320788733 l 5.692918192435461 -0.31882968438913123 a26.70183916937424,26.70183916937424 0 0,0 0.021751053415118324,0.45913035984761824 l -5.697562854084076 0.22078821791851322" fill="#ff3c05" stroke="none" /><path d="M 120.98425023603335 99.18683210126433 l 7.796944046991986 -0.30214206063769006 a28.80279605633328,28.80279605633328 0 0,0 0.014933983047290388,0.4955861929896534 l -7.800989724494922 0.16788572022303758" fill="#ff5908" stroke="none" /><line stroke="#e1ed5e" stroke-width="0.3" x1="184.98032266829074" x2="189.97916517819016" y1="98.17113171792111" y2="98.06355123074" /><path d="M 185.9800911702706 98.14961562048488 a86.0,86.0 0 0,1 -9.607161424134198,41.387399972396054" fill="none" id="id40" stroke="none" /><text fill="#e1ed5e" style="font-size:6.75px; font-family:Arial;" text-anchor="middle"><textPath startOffset="21.466115282336823" xlink:href="#id40">April</textPath></text><path d="M 120.99513854157772 99.54816195383933 l 8.517925919145252 -0.183314961081399 a29.51989825872368,29.51989825872368 0 0,0 0.006560435955201166,0.5081129945844138 l -8.51981936221817 0.03666570843652238" fill="#ff6309" stroke="none" /><path d="M 120.99980553446 99.90962569577887 l 4.214633907115469 -0.01813800638664524 a25.21467293609873,25.21467293609873 0 0,0 -0.0018679302395706574,0.43404120364732185 l -4.214321679586395 -0.05441267546436133" fill="#ff2703" stroke="none" /><path d="M 120.99824983174949 100.27111621757518 l 4.630527325320329 0.059786461437428794 a25.630913271862198,25.630913271862198 0 0,0 -0.009493125559740698,0.44110824224053846 l -4.628812137075581 -0.13948451946808207" fill="#ff2d04" stroke="none" /><path d="M 120.9904718944345 100.63252640178507 l 8.530589939637297 0.2570606028658827 a29.5344621899559,29.5344621899559 0 0,0 -0.019686641811722146,0.5080247495341245 l -8.524901164974372 -0.40386259941401337" fill="#ff6409" stroke="none" /><path d="M 120.9764740272857 100.99374915477107 l 11.84765334203854 0.5612761934802082 a32.860940969353344,32.860940969353344 0 0,0 -0.031630453821910536,0.5647830011272225 l -11.836236537329102 -0.765130910942854" fill="#ff910d" stroke="none" /><path d="M 120.95626037817324 101.35467743843564 l 2.242397383111552 0.1449554972161088 a23.24707768445123,23.24707768445123 0 0,0 -0.029250847305746754,0.39910457158052987 l -2.239569977141467 -0.1835332052934089" fill="#ff0a01" stroke="none" /><path d="M 120.92983693683757 101.71520430193887 l 8.448553248659982 0.6923606199605089 a29.476875321928194,29.476875321928194 0 0,0 -0.04579499799372486,0.5053439868251188 l -8.435383654389181 -0.8376859953341983" fill="#ff6309" stroke="none" /><path d="M 120.89721153311464 102.0752229133903 l 2.563822376397326 0.25460348778742065 a23.576433215456817,23.576433215456817 0 0,0 -0.043580136963723266,0.4034979435463216 l -2.5590599379325507 -0.2986977532185337" fill="#ff0f01" stroke="none" /><path d="M 120.81339534386255 102.79330883721812 l 31.399622204627914 4.214057377013253 a52.68113877640957,52.68113877640957 0 0,0 -0.1283562123343389,0.8977230501126954 l -31.32243194127697 -4.753925899106357" fill="#7eff26" stroke="none" /><path d="M 120.64145759157962 103.86396538481128 l 4.739151084372165 0.8871425703422691 a25.82147020530246,25.82147020530246 0 0,0 -0.0855429244214183,0.4361815286788144 l -4.723178226975083 -0.9685878260890284" fill="#ff2f04" stroke="none" /><path d="M 120.41448212921028 104.9243191809786 l 2.2113255749165273 0.5334092177811827 a23.27474969873475,23.27474969873475 0 0,0 -0.09729808029349296,0.3886574649685773 l -2.2018161803279734 -0.5713945221471558" fill="#ff0a01" stroke="none" /><path d="M 120.32669344350535 105.2749913415812 l 1.5289061934499562 0.39676728312716625 a22.57955007053583,22.57955007053583 0 0,0 -0.10086814416448218,0.37536788830670226 l -1.5218499729436967 -0.42302610460941675" fill="#ff0000" stroke="none" /><path d="M 120.23288151984713 105.62410040840565 l 2.3362329645021496 0.649398789633528 a23.424809941501394,23.424809941501394 0 0,0 -0.11133183389073992,0.3875607191381243 l -2.32470849372531 -0.6895169842762343" fill="#ff0d01" stroke="none" /><path d="M 120.13307415673323 105.97154293290107 l 1.7775414872321225 0.5272252624405858 a22.85408204138515,22.85408204138515 0 0,0 -0.11511190566318756,0.37619236803758416 l -1.7682028090628021 -0.5577446030302271" fill="#ff0400" stroke="none" /><path d="M 120.02730092923936 106.31721596034902 l 2.453279655348377 0.7738385441315144 a23.572432148712544,23.572432148712544 0 0,0 -0.1253915873049967,0.3859156239488646 l -2.4395958170271337 -0.8159530680581742" fill="#ff0f01" stroke="none" /><path d="M 119.67450827220406 107.3425965602758 l 2.0266545422913964 0.7563546933531093 a23.163192329855953,23.163192329855953 0 0,0 -0.14262539386315154,0.37234989749860253 l -2.013334868834738 -0.7911281576848557" fill="#ff0901" stroke="none" /><path d="M 119.54520255179757 107.68017299344265 l 18.313083376687562 7.196018972101364 a40.676171167388055,40.676171167388055 0 0,0 -0.2616783041301407,0.6494640907694827 l -18.186502458300026 -7.510182430713661" fill="#fff517" stroke="none" /><path d="M 119.26925614724726 108.34839909993367 l 17.919695904113887 7.763702553632869 a40.52922370800236,40.52922370800236 0 0,0 -0.282853288729924,0.637759494998542 l -17.78340153065269 -8.071010385124097" fill="#fff417" stroke="none" /><path d="M 118.81262510543309 109.33194174019688 l 6.774431924898755 3.3604350106263174 a28.562106278394303,28.562106278394303 0 0,0 -0.2222694000819597,0.438558613065156 l -6.715583855030526 -3.4765478353941677" fill="#ff5608" stroke="none" /><line stroke="#e1ed5e" stroke-width="0.3" x1="174.80103733775053" x2="179.2010983576182" y1="140.37084112569926" y2="142.7455964860345" /><path d="M 175.68104954172406 140.8457921977663 a86.0,86.0 0 0,1 -30.038265399797805,32.042727171017184" fill="none" id="id41" stroke="none" /><text fill="#e1ed5e" style="font-size:6.75px; font-family:Arial;" text-anchor="middle"><textPath startOffset="22.206326154141568" xlink:href="#id41">May</textPath></text><path d="M 118.12598468904814 110.60418214915192 l 20.133128250377013 11.778414406817296 a44.32539172414582,44.32539172414582 0 0,0 -0.39094810664187307,0.6552515140248589 l -19.92739926803691 -12.123228014728259" fill="#dcff1b" stroke="none" /><path d="M 117.75023020441432 111.22182372390056 l 2.3299245283539816 1.4729951130818701 a23.756494678207922,23.756494678207922 0 0,0 -0.22149552958105223,0.34376598068039715 l -2.304224135395879 -1.5128826936837203" fill="#ff1101" stroke="none" /><path d="M 117.55443506779139 111.5257021239791 l 8.88239531640497 5.831907558913613 a31.625821960328842,31.625821960328842 0 0,0 -0.30269961918378663,0.45249485985610294 l -8.780692591810462 -5.983939332975523" fill="#ff800b" stroke="none" /><path d="M 116.71984013943494 112.70617746262583 l 14.113455316719863 10.725465457180093 a38.72639924660989,38.72639924660989 0 0,0 -0.40790550033530654,0.5272728453981771 l -13.926742999166489 -10.966816296691523" fill="#ffdd14" stroke="none" /><path d="M 116.498646956653 112.99209946851258 l 11.17693755427073 8.801442011575558 a35.22635984977164,35.22635984977164 0 0,0 -0.37924042788302065,0.4731607446655823 l -11.023779214332855 -8.992530589819392" fill="#ffb010" stroke="none" /><path d="M 116.27256486870786 113.27417163493432 l 4.502018189446793 3.672473431968464 a26.809925032788634,26.809925032788634 0 0,0 -0.29478661583929144,0.3550894688330422 l -4.438135573713958 -3.7494241579152767" fill="#ff3d05" stroke="none" /><path d="M 115.32070863581623 114.36230785411682 l 45.96212590744871 43.08692356235047 a84.0,84.0 0 0,0 -0.997973794484142,1.0463715336699715 l -45.21364556158561 -43.87170221260295" fill="#4dd2ff" stroke="none" /><path d="M 114.55890576462653 115.13401014063108 l 6.5615791456302786 6.820773960210422 a30.46452736805461,30.46452736805461 0 0,0 -0.3810447458004033,0.3603015907681286 l -6.443198565439068 -6.932710187724472" fill="#ff700a" stroke="none" /><path d="M 114.29624159901734 115.38237550388516 l 6.977573868876891 7.507683793238257 a31.249480622689426,31.249480622689426 0 0,0 -0.39716668843439584,0.36280235315352827 l -6.847307630975631 -7.6266789129783685" fill="#ff7b0b" stroke="none" /><path d="M 114.0293411484842 115.62618273729858 l 10.331215553485734 11.507130693349188 a36.46441307022043,36.46441307022043 0 0,0 -0.47066466711696286,0.41530684548822905 l -10.131608533462183 -11.683260680609706" fill="#ffc011" stroke="none" /><path d="M 113.75828350139079 115.86535959552629 l 20.869431464520762 24.06557727243682 a52.85412342394555,52.85412342394555 0 0,0 -0.6924759075802468,0.5901429913838696 l -20.45209008036347 -24.421244654043637" fill="#7cff26" stroke="none" /><path d="M 113.20401910651253 116.32954008644616 l 2.8297889099736167 3.499627732195838 a25.500566579772357,25.500566579772357 0 0,0 -0.3437021096127091,0.273057742735481 l -2.7691293076435564 -3.5478193889364453" fill="#ff2b04" stroke="none" /><path d="M 112.63410532772338 116.77436683061366 l 4.69601780420909 6.234927068246213 a28.805568445910783,28.805568445910783 0 0,0 -0.39863481552468727,0.2949005065126881 l -4.5879980182658375 -6.31483752349867" fill="#ff5908" stroke="none" /><path d="M 112.34349029814194 116.9893568818739 l 8.886483706402391 12.231195510053912 a36.11858909651685,36.11858909651685 0 0,0 -0.506129225131436,0.3611097635668823 l -8.67462715342207 -12.382349535465014" fill="#ffbc11" stroke="none" /><path d="M 111.7513745106137 117.40417183066458 l 17.94687185895071 26.579907003558223 a53.07150863054933,53.07150863054933 0 0,0 -0.7615137298297557,0.5046897760566607 l -17.48668343038099 -26.884894800706203" fill="#7aff26" stroke="none" /><line stroke="#e1ed5e" stroke-width="0.3" x1="143.8653032363475" x2="146.44561519142675" y1="172.8068346515853" y2="177.08958963109032" /><path d="M 144.38136562736335 173.6633856474863 a86.0,86.0 0 0,1 -40.68145358897372,12.25698825130547" fill="none" id="id42" stroke="none" /><text fill="#e1ed5e" style="font-size:6.75px; font-family:Arial;" text-anchor="middle"><textPath startOffset="21.466115282336833" xlink:href="#id42">June</textPath></text><path d="M 110.8373102113329 117.98757091392108 l 7.836301841574362 13.006551656222507 a36.18479543946003,36.18479543946003 0 0,0 -0.5362795676678874,0.3168434212698349 l -7.611254402878092 -13.139513649786092" fill="#ffbd11" stroke="none" /><path d="M 110.5260780823613 118.17145234162733 l 1.5029305485335136 2.5945495199410558 a23.998414155039562,23.998414155039562 0 0,0 -0.3592348134082113,0.20398290250590181 l -1.4580469682041033 -2.6200355882415858" fill="#ff1502" stroke="none" /><path d="M 110.21172684928248 118.3499491758327 l 2.3158772520416404 4.161512592301381 a25.762507165601633,25.762507165601633 0 0,0 -0.38935390873487785,0.21230679519586956 l -2.243900531438114 -4.2007600392570215" fill="#ff2e04" stroke="none" /><path d="M 109.89434966115114 118.52300852407294 l 1.0434171589390302 1.953359805453148 a23.214573073332275,23.214573073332275 0 0,0 -0.3540875690167513,0.1852418808975534 l -1.0096386873957832 -1.9710311052954181" fill="#ff0a01" stroke="none" /><path d="M 109.57404056367764 118.69057910512821 l 22.039467341668168 43.02576378745836 a69.34205695043003,69.34205695043003 0 0,0 -1.0670292731795687,0.5350306287365864 l -21.295584160805838 -43.39876225710425" fill="#3bff98" stroke="none" /><path d="M 108.59647513512805 119.15986991738527 l 8.125754278209065 18.110724745184005 a40.85009403971813,40.85009403971813 0 0,0 -0.644029598801771,0.28232364982943003 l -7.81280400474954 -18.24791294830789" fill="#fff817" stroke="none" /><path d="M 107.93186726928326 119.44442032107085 l 2.8652202264416333 7.023887882127809 a28.585808323884287,28.585808323884287 0 0,0 -0.4572081209666532,0.18193254703287606 l -2.743891029433114 -7.0721672735667545" fill="#ff5608" stroke="none" /><path d="M 107.59598834532513 119.57807347666477 l 1.8514673662530732 4.772014185416468 a26.11859851855135,26.11859851855135 0 0,0 -0.42054647386327537,0.15901469168376897 l -1.7690506716295231 -4.803177127206868" fill="#ff3404" stroke="none" /><path d="M 106.91757812671514 119.82793768551818 l 0.9878051999834168 2.8313579683418246 a23.998724238406563,23.998724238406563 0 0,0 -0.3912137941761697,0.13272095958591215 l -0.9389216728700202 -2.8479419148258596" fill="#ff1502" stroke="none" /><path d="M 105.88484417918355 120.15858648285463 l 2.1223622298457854 7.270170841503264 a28.573625650857075,28.573625650857075 0 0,0 -0.4733273227704726,0.1337670293537716 l -1.996903738970707 -7.305626664195554" fill="#ff5608" stroke="none" /><path d="M 105.18746579009965 120.34920634021253 l 1.866131271315087 7.320393393318999 a28.55450894199805,28.55450894199805 0 0,0 -0.4773317414218582,0.11731652861792247 l -1.7398462451500178 -7.351431180250952" fill="#ff5608" stroke="none" /><path d="M 104.83641907484287 120.43548508189849 l 7.294876791898766 30.823289617427992 a52.67475982937878,52.67475982937878 0 0,0 -0.8841329274012525,0.20122577578684478 l -6.763223715104651 -30.944292126792522" fill="#7eff26" stroke="none" /><path d="M 104.13013068566511 120.58985236759428 l 0.8879694479678301 4.426775139113432 a25.514956021136534,25.514956021136534 0 0,0 -0.43136360477534086,0.08267186150922629 l -0.8116382286207848 -4.441404198971127" fill="#ff2b04" stroke="none" /><path d="M 103.41894727170886 120.7198165907248 l 1.1702076062348394 7.091799038520439 a28.187697784718644,28.187697784718644 0 0,0 -0.47941117791157856,0.07487416640094491 l -1.0479605647147436 -7.11089151226849" fill="#ff5107" stroke="none" /><path d="M 103.06178313531738 120.77559828337769 l 1.7306146355662724 11.743011461891793 a32.86985026067971,32.86985026067971 0 0,0 -0.5604644566818815,0.07767526673234863 l -1.5282215876975602 -11.771061294116745" fill="#ff910d" stroke="none" /><path d="M 102.70371172650421 120.8252237178851 l 0.9676089394764071 7.452966393749282 a28.515515626097176,28.515515626097176 0 0,0 -0.4873065036074346,0.05900603117409746 l -0.8391750128175922 -7.468517953648731" fill="#ff5507" stroke="none" /><path d="M 101.98527174616119 120.90594882070398 l 3.119134904923069 32.846120342609545 a53.99388767811847,53.99388767811847 0 0,0 -0.9260097835475868,0.07990002057044732 l -2.5532808036339407 -32.894944615458655" fill="#70ff27" stroke="none" /><path d="M 101.62511606390274 120.93702456842531 l 0.5825179187305279 7.5048128850069755 a28.52738623724124,28.52738623724124 0 0,0 -0.4899065626091343,0.03378682487350154 l -0.4532485953424633 -7.513728054396762" fill="#ff5607" stroke="none" /><line stroke="#e1ed5e" stroke-width="0.3" x1="102.19456741930631" x2="102.32365962044197" y1="184.97166512339345" y2="189.96999836594603" /><path d="M 102.22038585953345 185.97133177190398 a86.0,86.0 0 0,1 -42.740103519485714,-10.115201625700543" fill="none" id="id43" stroke="none" /><text fill="#e1ed5e" style="font-size:6.75px; font-family:Arial;" text-anchor="middle"><textPath startOffset="22.20632615414155" xlink:href="#id43">July</textPath></text><path d="M 100.54218724476979 120.99299961872073 l 0.43060139532606795 16.672496476265977 a37.678056131119064,37.678056131119064 0 0,0 -0.6484937282034827,0.011164407635856478 l -0.14354797722991725 -16.677438361180993" fill="#ffd013" stroke="none" /><path d="M 99.81925306533755 120.99922214144158 l -0.31080871052174847 36.10983039867395 a57.111167988248916,57.111167988248916 0 0,0 -0.9829656318221249,-0.01692264478193373 l 0.9323340322365412 -36.099130276612854" fill="#4fff2b" stroke="none" /><path d="M 99.09653310690486 120.98055641714683 l -0.6512682245963771 15.123929646197334 a36.13794564145002,36.13794564145002 0 0,0 -0.6212490266470576,-0.03211147851840482 l 0.9115053196569237 -15.110478360916728" fill="#ffbc11" stroke="none" /><path d="M 98.01472825383883 120.90594882070398 l -1.283787577789646 13.518953991977545 a34.57977273676156,34.57977273676156 0 0,0 -0.592083766329812,-0.06137190326454144 l 1.5163039407250511 -13.494852720257242" fill="#ffa80f" stroke="none" /><path d="M 96.93821686468263 120.77559828337769 l -2.1561072631766742 14.630173456419021 a35.788197114429835,35.788197114429835 0 0,0 -0.6086790721611186,-0.09506315295420578 l 2.40762219894631 -14.59089199611771" fill="#ffb711" stroke="none" /><path d="M 96.58105272829116 120.7198165907248 l -2.480001280426986 15.029530317829872 a36.232766916272524,36.232766916272524 0 0,0 -0.6144922477925686,-0.10683735388441211 l 2.738342499691605 -14.984614385424454" fill="#ffbd11" stroke="none" /><path d="M 96.22490169976321 120.6578951692458 l -1.376019679448925 7.5297828104481646 a28.654479690400347,28.654479690400347 0 0,0 -0.4844413465566549,-0.09284433704770281 l 1.5054286405772748 -7.5049812750519935" fill="#ff5708" stroke="none" /><path d="M 95.51606077576429 120.51570834832081 l -4.77097739879297 21.829015951203143 a43.34430940391031,43.34430940391031 0 0,0 -0.7275236049218974,-0.16558200386671784 l 5.146021153107729 -21.74365721375874" fill="#e8ff1a" stroke="none" /><path d="M 94.81253420990036 120.34920634021253 l -0.5972991832366241 2.3430639966281133 a23.41799818167633,23.41799818167633 0 0,0 -0.3897530559390021,-0.10293732448389147 l 0.6375426819871155 -2.3324353228406403" fill="#ff0d01" stroke="none" /><path d="M 94.46302465271185 120.25689768951611 l -3.0618623610008755 11.201753429614321 a32.61267759888261,32.61267759888261 0 0,0 -0.5402349553001962,-0.15267579462894873 l 3.2542284844056857 -11.147388841646851" fill="#ff8e0d" stroke="none" /><path d="M 93.08242187328487 119.8279376855182 l -3.118691779866662 8.939143893832386 a30.46755152996004,30.46755152996004 0 0,0 -0.49369103910244033,-0.17702004193629622 l 3.2721023795988287 -8.884136310856132" fill="#ff700a" stroke="none" /><path d="M 92.7421414339146 119.70592522655815 l -5.245806498495985 14.242971211288049 a36.178297491657055,36.178297491657055 0 0,0 -0.5825218925772766,-0.22025993535576938 l 5.490198611833544 -14.150563025825647" fill="#ffbd11" stroke="none" /><path d="M 92.40401165467489 119.57807347666478 l -11.460621824137371 29.538867881402187 a52.68423217171007,52.68423217171007 0 0,0 -0.8426439624473762,-0.33530542284726095 l 11.967386862626606 -29.33721561414886" fill="#7eff26" stroke="none" /><path d="M 92.06813273071674 119.44442032107085 l -1.7132332538054862 4.199872030642282 a25.535867420429774,25.535867420429774 0 0,0 -0.4055685995810593,-0.16952770751747073 l 1.7852733128840077 -4.169759280104837" fill="#ff2b04" stroke="none" /><path d="M 91.7346041902142 119.30500536409082 l -2.969298944742507 6.935219241161648 a28.54413693845941,28.54413693845941 0 0,0 -0.450017790479149,-0.19727457454226827 l 3.088237409879399 -6.883080113324928" fill="#ff5607" stroke="none" /><path d="M 91.07499286063937 119.00905698771935 l -12.859784077432593 27.389599197025856 a51.2582912718466,51.2582912718466 0 0,0 -0.7954489421642176,-0.3818638315914385 l 13.329345687597051 -27.164181088934857" fill="#8dff24" stroke="none" /><path d="M 90.7491055286396 118.85261126421891 l -16.70699142215761 34.047563254741064 a58.92571852932574,58.92571852932574 0 0,0 -0.9067436037970079,-0.45466006663225683 l 17.29058893363738 -33.754935347199506" fill="#3dff2e" stroke="none" /><line stroke="#e1ed5e" stroke-width="0.3" x1="58.666819895761336" x2="56.23545636021788" y1="174.27360380694188" y2="178.64263932499728" /><path d="M 58.180547188652646 175.14741091055294 a86.0,86.0 0 0,1 -31.652253787137756,-30.449443065178592" fill="none" id="id44" stroke="none" /><text fill="#e1ed5e" style="font-size:6.75px; font-family:Arial;" text-anchor="middle"><textPath startOffset="22.20632615414155" xlink:href="#id44">August</textPath></text><path d="M 89.7882731507175 118.34994917583269 l -18.60584278603399 33.43374480499799 a59.262157250530755,59.262157250530755 0 0,0 -0.8871015336482696,-0.5037194027333509 l 19.178593086603467 -33.10852223647001" fill="#3aff2e" stroke="none" /><path d="M 89.4739219176387 118.17145234162733 l -5.274060541182546 9.104752883369924 a31.52198838904946,31.52198838904946 0 0,0 -0.4671740740829754,-0.2760146775770603 l 5.430002486293904 -9.012619633499114" fill="#ff7f0b" stroke="none" /><path d="M 89.1626897886671 117.98757091392108 l -4.622819472305375 7.672871908141213 a29.957869344451744,29.957869344451744 0 0,0 -0.43941175637149466,-0.26992258996280216 l 4.754210428609179 -7.592160851350032" fill="#ff6909" stroke="none" /><path d="M 88.8546689885994 117.79835938074946 l -9.174458426806941 14.651005702479813 a38.286487657106775,38.286487657106775 0 0,0 -0.555551882134585,-0.3545794962058468 l 9.42529211098845 -14.490911777450162" fill="#ffd814" stroke="none" /><path d="M 88.24862548938628 117.40417183066458 l -8.417996480003893 12.467329423940383 a36.043170134729166,36.043170134729166 0 0,0 -0.5112004800473778,-0.35160835155142756 l 8.63135384467416 -12.320580283023853" fill="#ffbb11" stroke="none" /><path d="M 87.95078237400918 117.19931262002967 l -9.707285443958723 13.856388209170593 a37.91835940313761,37.91835940313761 0 0,0 -0.5313493783403613,-0.37910367324485456 l 9.944362150147972 -13.68724027408152" fill="#ffd313" stroke="none" /><path d="M 87.65650970185807 116.9893568818739 l -8.853783808145764 12.186187961292251 a36.062956706746796,36.062956706746796 0 0,0 -0.49906843952977403,-0.36919890052281273 l 9.062237218094102 -12.031979112029672" fill="#ffbb11" stroke="none" /><path d="M 87.07902340077011 116.55440617244103 l -9.367152743546477 12.001233034135058 a36.224097505617365,36.224097505617365 0 0,0 -0.4882361610495635,-0.38788433451355653 l 9.572346397313398 -11.83821478561637" fill="#ffbd11" stroke="none" /><path d="M 86.79598089348748 116.32954008644616 l -10.187500982077548 12.59898250113057 a37.20245463883869,37.20245463883869 0 0,0 -0.4944912562457662,-0.4069326390969317 l 10.402862366868003 -12.421754743176455" fill="#ffca12" stroke="none" /><path d="M 86.51685102203217 116.09983520530335 l -10.976118847251247 13.106263597867866 a38.09530141430037,38.09530141430037 0 0,0 -0.4991110761560436,-0.42535328708373993 l 11.200095399984345 -12.915385920561175" fill="#ffd513" stroke="none" /><path d="M 86.24171649860922 115.8653595955263 l -1.5591171087476647 1.7978953246106972 a23.379763382575394,23.379763382575394 0 0,0 -0.30177445962293353,-0.2662808739024604 l 1.589833921277186 -1.7707913089359482" fill="#ff0c01" stroke="none" /><path d="M 85.97065885151581 115.62618273729859 l -13.026913438436347 14.50965713482353 a40.49950317066178,40.49950317066178 0 0,0 -0.5147302686961037,-0.4701938963170116 l 13.274743256599306 -14.283270471919943" fill="#fff316" stroke="none" /><path d="M 85.70375840098266 115.38237550388516 l -12.90322143288845 13.883522876677748 a39.95376824838233,39.95376824838233 0 0,0 -0.4997344380906674,-0.47253010306563686 l 13.140291705369934 -13.65935813686618" fill="#ffec16" stroke="none" /><path d="M 85.18274418774928 114.88116024355367 l -5.291574516360078 5.314396222649681 a28.499571192641923,28.499571192641923 0 0,0 -0.34465396601279397,-0.34913264794199717 l 5.382269107428406 -5.222523080727019" fill="#ff5507" stroke="none" /><path d="M 84.9287848128048 114.62390073753433 l -5.3596463750456165 5.200571792216535 a28.468049024446607,28.468049024446607 0 0,0 -0.3382186536486709,-0.354620906170273 l 5.448371580073244 -5.107543769463762" fill="#ff5507" stroke="none" /><path d="M 84.43433777217949 114.09645910891817 l -11.600795846984562 10.505826343555638 a36.65090577073295,36.65090577073295 0 0,0 -0.41946289782706253,-0.471271012404358 l 11.779917594459963 -10.304581161410416" fill="#ffc312" stroke="none" /><path d="M 83.95833913139862 113.55231037782056 l -11.70484740722143 9.88848513174704 a36.32271487129877,36.32271487129877 0 0,0 -0.3993838170718771,-0.4810835358342064 l 11.873327224186845 -9.685540338799072" fill="#ffbe11" stroke="none" /><path d="M 83.50135304334701 112.99209946851258 l -11.822637663046525 9.309907951969654 a36.04822738351046,36.04822738351046 0 0,0 -0.37969629279073613,-0.4908086420073754 l 11.98114077305533 -9.105021315849026" fill="#ffbb11" stroke="none" /><path d="M 83.28015986056508 112.70617746262583 l -5.946995644987866 4.519396202626171 a28.469384127076108,28.469384127076108 0 0,0 -0.2931515981719042,-0.39272447190076626 l 6.023908509854856 -4.416358851216097" fill="#ff5507" stroke="none" /><path d="M 83.06392112726016 112.41649034213515 l -28.52573381970286 20.913311820055274 a56.37066724328795,56.37066724328795 0 0,0 -0.5669820970977535,-0.7874885432131911 l 28.88149570917622 -20.419189671390942" fill="#57ff2a" stroke="none" /><path d="M 82.85270091963577 112.12312394758628 l -12.24343958818395 8.656100005994995 a35.99432826982578,35.99432826982578 0 0,0 -0.3533256274690593,-0.5089919186397045 l 12.390626122815144 -8.444066825168278" fill="#ffba11" stroke="none" /><path d="M 82.24976979558568 111.22182372390057 l -12.785728653803332 8.083229990950963 a36.126581381637315,36.126581381637315 0 0,0 -0.3277805333864372,-0.5284865874128727 l 12.922973826857726 -7.861947072172826" fill="#ffbc11" stroke="none" /><line stroke="#e1ed5e" stroke-width="0.3" x1="26.63291911575756" x2="22.317208475507996" y1="142.92168965132927" y2="145.44649492493687" /><path d="M 25.769776987707644 143.4266507060508 a86.0,86.0 0 0,1 -11.730757126820373,-40.83630448921669" fill="none" id="id45" stroke="none" /><text fill="#e1ed5e" style="font-size:6.75px; font-family:Arial;" text-anchor="middle"><textPath startOffset="21.46611528233685" xlink:href="#id45">September</textPath></text><path d="M 81.87401531095188 110.60418214915194 l -13.101903674404735 7.664961404716211 a36.1793120143559,36.1793120143559 0 0,0 -0.3098465260172488,-0.5402435351524824 l 13.23190219657436 -7.438298023705421" fill="#ffbd11" stroke="none" /><path d="M 81.69416730710424 110.29060199501025 l -27.793305236965843 15.6239733596192 a52.88379462261736,52.88379462261736 0 0,0 -0.4392467304716905,-0.7973604036435883 l 28.05812837688905 -15.143242437577788" fill="#7cff26" stroke="none" /><path d="M 81.18737489456691 109.33194174019688 l -2.850605626653305 1.4140336865865413 a24.182050236169914,24.182050236169914 0 0,0 -0.1817646608646994,-0.37448903829546426 l 2.8745235441327233 -1.3647556923257922" fill="#ff1802" stroke="none" /><path d="M 81.02952815118164 109.00673069616217 l -6.786838516067358 3.2222301732767415 a28.51291849634684,28.51291849634684 0 0,0 -0.20668523538672334,-0.4451816094412613 l 6.8412983682939075 -3.1049284965566533" fill="#ff5507" stroke="none" /><path d="M 80.87730276802145 108.67885076344099 l -15.178120792385405 6.888601729587929 a37.66817880205045,37.66817880205045 0 0,0 -0.26288606787508145,-0.5927386831632449 l 15.294447944991767 -6.626314709931989" fill="#ffd013" stroke="none" /><path d="M 80.58989483394504 108.01547362559985 l -9.45767486544752 3.905581283303314 a31.232359406364054,31.232359406364054 0 0,0 -0.20092429077968893,-0.4986776120340272 l 9.523501770484597 -3.7422043034264814" fill="#ff7b0b" stroke="none" /><path d="M 80.20201598880116 107.00284435728193 l -14.16655769861314 5.0109242731848544 a36.02666693248135,36.02666693248135 0 0,0 -0.20176506484829523,-0.5864237225824911 l 14.250713594404663 -4.766327847513066" fill="#ffbb11" stroke="none" /><path d="M 79.86692584326677 105.97154293290107 l -14.679277291105173 4.353926970386605 a36.31136381425952,36.31136381425952 0 0,0 -0.1725781653985991,-0.6007672338808282 l 14.752048093389876 -4.100602261001181" fill="#ffbe11" stroke="none" /><path d="M 79.76711848015287 105.62410040840567 l -8.727291892195323 2.4259108049945275 a30.058182323477897,30.058182323477897 0 0,0 -0.13427694787786285,-0.4996944753042324 l 8.767756916414962 -2.275325396514756" fill="#ff6b09" stroke="none" /><path d="M 79.50377843672027 104.57218783832718 l -11.368862341261037 2.536105202212295 a32.64829861100889,32.64829861100889 0 0,0 -0.11763642373397587,-0.5495582085031475 l 11.410832803719453 -2.3400331742929836" fill="#ff8e0d" stroke="none" /><path d="M 79.23777060512086 103.15116336523772 l -7.487671278450905 1.1364326525270307 a28.573420650397562,28.573420650397562 0 0,0 -0.06961838967997609,-0.48691085527397593 l 7.50612371914748 -1.0073763252726542" fill="#ff5608" stroke="none" /><path d="M 79.18660465613746 102.79330883721812 l -14.89878521540695 1.999525196079214 a36.032361820571786,36.032361820571786 0 0,0 -0.07720961429510582,-0.6154365931491108 l 14.930996338948903 -1.7427708486426945" fill="#ffbb11" stroke="none" /><path d="M 79.1416061653843 102.43462659150553 l -30.119416604531196 3.515588648265446 a51.32389520066844,51.32389520066844 0 0,0 -0.09487026141386465,-0.8783807957295341 l 30.175469167446114 -2.99661153065113" fill="#8dff24" stroke="none" /><path d="M 79.07016306316243 101.71520430193888 l -6.896202094874441 0.5651451339952863 a27.91932022353563,27.91932022353563 0 0,0 -0.035129739050391885,-0.4793173786349458 l 6.904908392589168 -0.4463546188635799" fill="#ff4d07" stroke="none" /><path d="M 79.0235259727143 100.99374915477108 l -20.464646195845077 0.9695015870330107 a41.487598132733275,41.487598132733275 0 0,0 -0.02765418509451274,-0.7136316386801371 l 20.47830251379079 -0.6170927013388767" fill="#ffff18" stroke="none" /><line stroke="#e1ed5e" stroke-width="0.3" x1="15.007084014347285" x2="10.007500721073583" y1="101.09737516637583" y2="101.16192664675087" /><path d="M 14.007167355692545 101.11028546245083 a86.0,86.0 0 0,1 10.666146001902534,-42.60595125391555" fill="none" id="id46" stroke="none" /><text fill="#e1ed5e" style="font-size:6.75px; font-family:Arial;" text-anchor="middle"><textPath startOffset="22.20632615414155" xlink:href="#id46">October</textPath></text><path d="M 79.05617556472873 98.46500227214037 l -18.582652636514123 -1.3619446468724445 a39.63249506186678,39.63249506186678 0 0,0 0.055722374962992836,-0.6799541141486689 l 18.55645577773163 1.6816126782288918" fill="#ffe815" stroke="none" /><path d="M 79.08570108090925 98.10471618934814 l -1.6452327143318535 -0.1490933518876726 a22.651974428338665,22.651974428338665 0 0,0 0.03853303026442439,-0.3880223561776639 l 1.6424225583852003 0.17739123876976678" fill="#ff0100" stroke="none" /><path d="M 79.21141760316559 97.0276538004421 l -31.50112291188194 -4.504022505315059 a52.82148587727917,52.82148587727917 0 0,0 0.13644068136292972,-0.8989736160622929 l 31.418926337079707 5.045595233769443" fill="#7cff26" stroke="none" /><path d="M 79.32604984820605 96.31383870115002 l -16.32446480531801 -2.910648905892827 a37.58191871387149,37.58191871387149 0 0,0 0.11903495796817079,-0.6358895052408635 l 16.271944123439976 3.1912164885962633" fill="#ffcf13" stroke="none" /><path d="M 79.71946130924805 94.55025226153421 l -14.56316549625865 -3.9133861007513446 a36.07980039804812,36.07980039804812 0 0,0 0.16633342827886385,-0.5983898406448046 l 14.493645297413426 4.163487244815092" fill="#ffbb11" stroke="none" /><path d="M 80.14247586403 93.16781622104843 l -13.49514063509473 -4.643140822110377 a35.2715653470435,35.2715653470435 0 0,0 0.20247040655245593,-0.5724111042819675 l 13.413217147732464 4.8747495528189555" fill="#ffb110" stroke="none" /><path d="M 80.38941819471856 92.48833698450439 l -12.188945170473735 -4.668869569708184 a34.05253720269596,34.05253720269596 0 0,0 0.2143792886233372,-0.5455719060795758 l 12.106772331968706 4.877990480683523" fill="#ffa10e" stroke="none" /><path d="M 80.52162464483688 92.15188598940014 l -14.29324608786468 -5.758951803410449 a36.40981536561238,36.40981536561238 0 0,0 0.23922690023486293,-0.5793069142262316 l 14.191997500743618 6.004133288089992" fill="#ffc011" stroke="none" /><path d="M 80.95270993114464 91.15688171328213 l -15.818860679967564 -7.34424979345474 a38.44059512289887,38.44059512289887 0 0,0 0.2838047284596285,-0.5977651373654378 l 15.690097757666184 7.61545734646071" fill="#ffda14" stroke="none" /><path d="M 81.6062741919709 89.86733742301443 l -30.651065768688817 -16.884937304194544 a55.99412722905185,55.99412722905185 0 0,0 0.47233008433933227,-0.8402225160325678 l 30.355878043057054 17.410043330161898" fill="#5bff2a" stroke="none" /><line stroke="#e1ed5e" stroke-width="0.3" x1="26.266209847984243" x2="21.928928074336255" y1="57.711370442889674" y2="55.22380399835377" /><path d="M 25.398753493254645 57.213857153982495 a86.0,86.0 0 0,1 29.58750427330803,-30.492523968695096" fill="none" id="id47" stroke="none" /><text fill="#e1ed5e" style="font-size:6.75px; font-family:Arial;" text-anchor="middle"><textPath startOffset="21.46611528233685" xlink:href="#id47">November</textPath></text><path d="M 81.96595687620814 89.24020034530311 l -2.56560659058726 -1.5307389872584776 a23.98755736761286,23.98755736761286 0 0,0 0.2146134793846437,-0.35276813129347273 l 2.5388773129163993 1.5746748917590248" fill="#ff1502" stroke="none" /><path d="M 82.15384107792192 88.93136811851018 l -4.830183857325853 -2.9958002318646217 a26.683792318937364,26.683792318937364 0 0,0 0.24545582397726898,-0.3882521671884124 l 4.7779004371026215 3.0785000467672496" fill="#ff3c05" stroke="none" /><path d="M 82.34701348167596 88.62581576622439 l -4.437424398388409 -2.8591242948228572 a26.278761883686272,26.278761883686272 0 0,0 0.24827594173101875,-0.37814129248962897 l 4.38755182129947 2.935083651290153" fill="#ff3605" stroke="none" /><path d="M 82.7489923806493 88.02491185347247 l -6.024249587918036 -4.181838036583965 a28.33344069736376,28.33344069736376 0 0,0 0.2815634052892867,-0.39825146896584085 l 5.951373562824871 4.284916005881592" fill="#ff5307" stroke="none" /><path d="M 83.17141714833178 87.43820079747576 l -4.13773529373338 -3.088637966204257 a26.16338434045784,26.16338434045784 0 0,0 0.2725029352581864,-0.35858192036474823 l 4.083956418251085 3.1594046624500316" fill="#ff3405" stroke="none" /><path d="M 83.39014120810768 87.1503855733568 l -3.1197223460120598 -2.413459967763561 a24.94429417414628,24.94429417414628 0 0,0 0.2656518859291141,-0.33735091775858206 l 3.0777163794889746 2.466803279475191" fill="#ff2303" stroke="none" /><path d="M 84.5562425177563 85.77008943001954 l -1.303628162015228 -1.2011657255893167 a22.77263800171657,22.77263800171657 0 0,0 0.26810191804579775,-0.28599243330560886 l 1.2827589219989741 1.2234275757729756" fill="#ff0300" stroke="none" /><path d="M 84.80347519578584 85.50635884689758 l -9.173800198876455 -8.749485149124567 a33.67722763318767,33.67722763318767 0 0,0 0.4037029378418184,-0.4160513639360785 l 9.021832997331519 8.906100708610769" fill="#ff9c0e" stroke="none" /><path d="M 87.80319425747018 82.90503203632743 l -11.193639307973507 -15.688936054746316 a40.2727858776807,40.2727858776807 0 0,0 0.5677865628855325,-0.39777077215015305 l 10.921921605504314 15.879291669660411" fill="#fff016" stroke="none" /><path d="M 88.09926311788651 82.69761687909137 l -2.9707756369387317 -4.3191861769358555 a26.242220628327512,26.242220628327512 0 0,0 0.3743831480283235,-0.25278517275908985 l 2.8959877945038683 4.369683261993611" fill="#ff3505" stroke="none" /><path d="M 88.39885842347998 82.49532879139004 l -32.97852247489614 -49.76046443887775 a80.69662273361908,80.69662273361908 0 0,0 1.1644636950538998,-0.7573995789280212 l 32.11709175405795 50.320762941965306" fill="#49f1ff" stroke="none" /><line stroke="#e1ed5e" stroke-width="0.3" x1="56.762969772571076" x2="54.21961505331055" y1="26.818313649435495" y2="22.513508569990535" /><path d="M 56.25429882871897 25.957352633546506 a86.0,86.0 0 0,1 42.265352541879196,-11.944610805530505" fill="none" id="id48" stroke="none" /><text fill="#e1ed5e" style="font-size:6.75px; font-family:Arial;" text-anchor="middle"><textPath startOffset="22.20632615414155" xlink:href="#id48">December</textPath></text><path d="M 96.75951476605007 79.25152402106235 l -1.110416694797587 -7.109877828554592 a28.196067535331874,28.196067535331874 0 0,0 0.48018039907444826,-0.07076610876580111 l 0.9878673152944901 7.127938421481362" fill="#ff5107" stroke="none" /></svg>